<svg id="Layer_1" data-name="Layer 1" xmlns="http://www.w3.org/2000/svg" viewBox="0 0 68.86 69.66"><defs><style>.cls-1{fill:#fff;}</style></defs><title>S1</title><g id="File_folder" data-name="File folder"><path class="cls-1" d="M83.41,86.65l6-32.38a3.73,3.73,0,0,0-3.18-4.21,4.38,4.38,0,0,0-.52,0H31.08a3.75,3.75,0,0,0-3.69,3.18L20.82,89.83H79.73A3.75,3.75,0,0,0,83.41,86.65Z" transform="translate(-20.57 -20.17)"/><path class="cls-1" d="M33,47.54H35.5V23.9a1.24,1.24,0,0,1,1.24-1.24H72.81V20.17H33Z" transform="translate(-20.57 -20.17)"/><path class="cls-1" d="M20.57,77.1l4.36-24.3a6.13,6.13,0,0,1,5.59-5.21V30.35A3.75,3.75,0,0,0,28,33.85v2.49a1.24,1.24,0,0,1-1.24,1.25H24.3a3.73,3.73,0,0,0-3.73,3.73Z" transform="translate(-20.57 -20.17)"/><path class="cls-1" d="M80.28,37.81v9.73h2.49V41.32A3.76,3.76,0,0,0,80.28,37.81Z" transform="translate(-20.57 -20.17)"/><path class="cls-1" d="M38,47.54h39.8V25.15H38Zm3.73-19.91H74.06a1.25,1.25,0,0,1,0,2.49H41.72a1.25,1.25,0,1,1,0-2.49Zm0,5H74.06a1.25,1.25,0,0,1,0,2.49H41.72a1.25,1.25,0,1,1,0-2.49Zm0,5H74.06a1.24,1.24,0,1,1,0,2.48H41.72a1.24,1.24,0,1,1,0-2.48Zm0,5H74.06a1.25,1.25,0,0,1,0,2.49H41.72a1.25,1.25,0,1,1,0-2.49Z" transform="translate(-20.57 -20.17)"/></g></svg>