<svg id="Layer_1" data-name="Layer 1" xmlns="http://www.w3.org/2000/svg" viewBox="0 0 78.35 76.27"><defs><style>.cls-1{fill:#fff;}</style></defs><title>P1</title><path class="cls-1" d="M81,55l1.4-1.4,1.4,1.4-1.4,1.4Z" transform="translate(-15.82 -16.87)"/><path class="cls-1" d="M70.75,29.3a11.67,11.67,0,1,0,0-2h-6a1,1,0,0,0-1,1V54H55.45l3.43-3.44a1,1,0,0,0-1.4-1.4l-4.95,5a1,1,0,0,0,0,1.4l4.95,4.95a1,1,0,0,0,1.4-1.4L55.8,56h8V81.67a1,1,0,0,0,1,1h6a11.75,11.75,0,1,0,0-2h-5V56h5a11.72,11.72,0,1,0,0-2h-5V29.3Zm7-2.05a1,1,0,0,1,1.4.06l2.11,2.29,4.54-4.16a1,1,0,0,1,1.33,1.46l-5.26,4.83a1,1,0,0,1-1.4-.06l-2.78-3A1,1,0,0,1,77.75,27.25Zm0,52.82a1,1,0,0,1,1.4.06l2.11,2.29,4.54-4.16a1,1,0,0,1,1.33,1.46h0l-5.26,4.82a1,1,0,0,1-1.4-.06l-2.78-3a1,1,0,0,1,.06-1.4Zm1.56-26.81a1,1,0,0,1,0-1.4,1,1,0,0,1,1.4,0l1.73,1.73,1.73-1.73a1,1,0,0,1,1.4,0,1,1,0,0,1,0,1.4h0L83.84,55l1.73,1.73a1,1,0,1,1-1.4,1.4l-1.73-1.73-1.73,1.73a1,1,0,1,1-1.4-1.4h0L81,55Z" transform="translate(-15.82 -16.87)"/><path class="cls-1" d="M47,58.54a14.51,14.51,0,0,0-.35-14,14.24,14.24,0,0,0-11.85-7.13h-.4A15.53,15.53,0,0,0,18.69,52.06c0,.25,0,2.1,0,2.9l-2.74,7.16a1.65,1.65,0,0,0,1.53,2.23h3.31v3.79a4.2,4.2,0,0,0,1.29,3,4.27,4.27,0,0,0,3.07,1.19l5.1,0L31.66,78a1,1,0,0,0,1,.74H46.2a1,1,0,0,0,1-1,1.07,1.07,0,0,0,0-.25c0-.09-2.26-8.55-1.76-13.84A28.89,28.89,0,0,1,47,58.54ZM34.34,60.76a9.25,9.25,0,1,1,9.24-9.25A9.25,9.25,0,0,1,34.34,60.76Z" transform="translate(-15.82 -16.87)"/><path class="cls-1" d="M34.34,44.25a7.27,7.27,0,1,0,7.26,7.26h0A7.27,7.27,0,0,0,34.34,44.25ZM39,49.83l-5.27,4.83a1,1,0,0,1-1.39-.06l-2.78-3A1,1,0,1,1,31,50.24l2.11,2.29,4.54-4.16A1,1,0,0,1,39,49.83Z" transform="translate(-15.82 -16.87)"/></svg>