<svg id="Layer_1" data-name="Layer 1" xmlns="http://www.w3.org/2000/svg" viewBox="0 0 76.77 76.77"><defs><style>.cls-1{fill:#fff;}</style></defs><title>P2</title><path class="cls-1" d="M33,35.53l2.29,9.17-5.41,7.21L24.44,44.7l2.3-9.17A13.25,13.25,0,0,0,16.62,48.38V60.29a4,4,0,0,0,4,4V45.73h2.64v45a2.65,2.65,0,0,0,5.3,0V61.62h2.65V90.74a2.65,2.65,0,0,0,5.29,0v-45h2.65V64.27a4,4,0,0,0,4-4V48.38A13.26,13.26,0,0,0,33,35.53Z" transform="translate(-16.62 -16.62)"/><path class="cls-1" d="M52.35,53.68H55v2.64H52.35Z" transform="translate(-16.62 -16.62)"/><path class="cls-1" d="M62.94,51h2.65v2.65H62.94Z" transform="translate(-16.62 -16.62)"/><circle class="cls-1" cx="13.24" cy="7.94" r="7.94"/><path class="cls-1" d="M29.56,35.16l-2.24,9,2.53,3.38,2.54-3.38-2.24-9h-.59Z" transform="translate(-16.62 -16.62)"/><path class="cls-1" d="M73.53,59h2.65v2.65H73.53Z" transform="translate(-16.62 -16.62)"/><path class="cls-1" d="M92.06,40.44h-45a1.33,1.33,0,0,0-1.33,1.32V68.24a1.33,1.33,0,0,0,1.33,1.32h45a1.32,1.32,0,0,0,1.32-1.32V41.76A1.32,1.32,0,0,0,92.06,40.44ZM57.65,59H55v7.94H52.35V59H49.71V51h2.64V43.09H55V51h2.65Zm10.59-2.65H65.59V66.91H62.94V56.32H60.29V48.38h2.65V43.09h2.65v5.29h2.65Zm10.58,7.95H76.18v2.64H73.53V64.27H70.88V56.32h2.65V43.09h2.65V56.32h2.64ZM89.41,53.68H86.77V66.91H84.12V53.68H81.47v-8h2.65V43.09h2.65v2.64h2.64Z" transform="translate(-16.62 -16.62)"/><path class="cls-1" d="M84.12,48.38h2.65V51H84.12Z" transform="translate(-16.62 -16.62)"/><path class="cls-1" d="M78.82,33.82h8V24.56h2.37L82.8,17.3l-6.35,7.26h2.37Z" transform="translate(-16.62 -16.62)"/><path class="cls-1" d="M52.35,33.82h7.94V24.56h2.38L56.32,17.3,50,24.56h2.37Z" transform="translate(-16.62 -16.62)"/><path class="cls-1" d="M86.77,76.18h-8v9.26H76.45L82.8,92.7l6.34-7.26H86.77Z" transform="translate(-16.62 -16.62)"/><path class="cls-1" d="M60.29,76.18H52.35v9.26H50l6.34,7.26,6.35-7.26H60.29Z" transform="translate(-16.62 -16.62)"/></svg>