<svg id="Layer_1" data-name="Layer 1" xmlns="http://www.w3.org/2000/svg" viewBox="0 0 56.79 55.27"><defs><style>.cls-1{fill:#fff;}</style></defs><title>P3</title><path class="cls-1" d="M47.48,49.71c-.18,0-.75.51-.75.51C47,50.36,47.66,49.7,47.48,49.71Zm.08-.1-.05,0,.05,0ZM69,27.37a5.81,5.81,0,1,1-5.81,5.8A5.81,5.81,0,0,1,69,27.37ZM34.11,52.26h1.56v-.74H34.11a1.15,1.15,0,0,1-.84-.23.32.32,0,0,1-.05-.26l0-4.52h-.75v4.36a1.09,1.09,0,0,0,.17.85A1.69,1.69,0,0,0,34.11,52.26ZM83.29,62.88l-.21-1.72c-.83-6.68-.86-6.94-.54-18.73a.75.75,0,0,0-1.5,0c-.32,11.9-.29,12.16.56,19l.21,1.71c.22,1.64,0,2.78-.53,3.22s-1.79.06-1.87,0c-5.5-1.69-12.35,1.81-12.64,2a.74.74,0,0,0,.34,1.41.71.71,0,0,0,.34-.08A24.49,24.49,0,0,1,74,67.48V79.13H70.92a1.15,1.15,0,0,0,0,2.29h8.83a1.15,1.15,0,0,0,0-2.29H76.88V67.36a8.72,8.72,0,0,1,2,.35,3.6,3.6,0,0,0,3.28-.24C83.22,66.68,83.59,65.13,83.29,62.88Zm-3.55-3.4C79.61,54.56,78,49.84,77.87,45c-.19-7.14-11.12-7.3-11.21-.34a58.54,58.54,0,0,1-12.61.89c-3.86-.18-3.88,5.8,0,6a63.71,63.71,0,0,0,13.3-.94,75,75,0,0,1,1.16,7.87C59.36,61.59,54.32,69.3,53,79.09c0,.07,0,.14,0,.21V57.62h5.74V52.49H38.16a1.4,1.4,0,0,0,0-.23c0-.06,0-.12,0-.19,0-.43.1-.58.53-.66a2.09,2.09,0,0,1,.38,0v.36h5.52a2.63,2.63,0,0,0,.47.06.65.65,0,0,0,.55-.22.49.49,0,0,0,.06-.3.52.52,0,0,1,0-.29.61.61,0,0,1,.35-.17,1.48,1.48,0,0,0-.19.71h6.26c0-1.2-1.4-2.18-3.13-2.18a4.1,4.1,0,0,0-1.48.27c.1,1-.87.93-1.24.85a1.88,1.88,0,0,0-.12.18l-.05,0a.72.72,0,0,0-.54.25.61.61,0,0,0-.09.4.47.47,0,0,1,0,.19.47.47,0,0,1-.35.13v-.86h-6v.45a2.39,2.39,0,0,0-.42,0c-.53.1-.64.35-.67.83,0,.07,0,.13,0,.19a1.34,1.34,0,0,1,0,.24H26.61v5.13h3.12V82.48H53V80c.38,3.83,6.92,3.48,7.49-.91,1-7.57,5.42-12.63,12.84-14.3C76.43,65.25,79.84,63.49,79.74,59.48ZM35.05,35.62,36,49l-2.48.17L32.57,35.8Z" transform="translate(-26.61 -27.37)"/></svg>