<svg id="Layer_1" data-name="Layer 1" xmlns="http://www.w3.org/2000/svg" viewBox="0 0 72.02 72.02"><defs><style>.cls-1{fill:#fff;}</style></defs><title>b1</title><polygon class="cls-1" points="25.4 38.14 25.4 45.17 21.18 45.17 21.18 38.14 12.67 38.14 12.67 55.16 33.91 55.16 33.91 38.14 25.4 38.14"/><polygon class="cls-1" points="50.84 38.14 50.84 45.17 46.62 45.17 46.62 38.14 38.11 38.14 38.11 55.16 59.35 55.16 59.35 38.14 50.84 38.14"/><polygon class="cls-1" points="25.4 4.22 25.4 11.26 21.18 11.26 21.18 4.22 12.67 4.22 12.67 21.24 33.91 21.24 33.91 4.22 25.4 4.22"/><polygon class="cls-1" points="50.84 4.22 50.84 11.26 46.62 11.26 46.62 4.22 38.11 4.22 38.11 21.24 59.35 21.24 59.35 4.22 50.84 4.22"/><path class="cls-1" d="M91,52.9V44.45H86.79V19H82.57V44.45H27.43V19H23.21V44.45H19V52.9h4.22V78.37H19v8.44h4.22V91h4.22v-4.2H82.57V91h4.22v-4.2H91V78.37H86.79V52.9ZM82.57,78.37H27.43V52.9H82.57Z" transform="translate(-18.99 -18.99)"/></svg>