<svg id="Layer_1" data-name="Layer 1" xmlns="http://www.w3.org/2000/svg" viewBox="0 0 74.44 51.41"><defs><style>.cls-1{fill:#fff;}</style></defs><title>b2</title><path class="cls-1" d="M64.42,60v2.57H19.06v4.15s5.58,13.7,5.61,13.94c1.76-1.58,5.52-4,10.26-1.56a7.36,7.36,0,0,0,6.86,0,8.23,8.23,0,0,1,8,0,7.32,7.32,0,0,0,6.85,0,8.21,8.21,0,0,1,8,0,7.36,7.36,0,0,0,6.86,0c2.4-1.27,5.94-1.89,10,1.35L92.22,60.05H64.42Z" transform="translate(-17.78 -29.3)"/><path class="cls-1" d="M21.62,61.32H34.43V44.67l3.19-2.56H28V38.39h3.31V36.9H28V29.3H26.75v7.6H23.44v1.49h3.31v3.72h-9v2.56h3.84V61.32ZM28,46.52h4.17v3.82H28Zm0,6.13h4.17v3.82H28Z" transform="translate(-17.78 -29.3)"/><rect class="cls-1" x="18.9" y="21.05" width="26.37" height="10.98"/><rect class="cls-1" x="46.64" y="18.4" width="26.37" height="10.98"/><rect class="cls-1" x="35.78" y="8.7" width="9.5" height="10.98"/><rect class="cls-1" x="24.49" y="13.52" width="9.5" height="6.16"/><rect class="cls-1" x="24.49" y="5.99" width="9.5" height="6.16"/><rect class="cls-1" x="46.64" y="3.35" width="9.49" height="6.16"/><rect class="cls-1" x="46.64" y="10.87" width="20.25" height="6.16"/></svg>