<svg id="Layer_1" data-name="Layer 1" xmlns="http://www.w3.org/2000/svg" viewBox="0 0 87.85 57.77"><defs><style>.cls-1{fill:#fff;}</style></defs><title>b3</title><path class="cls-1" d="M18.46,36.6A10.49,10.49,0,1,1,29,47.08,10.49,10.49,0,0,1,18.46,36.6Zm62.6,10.48A10.48,10.48,0,1,0,70.57,36.6,10.48,10.48,0,0,0,81.06,47.08ZM98.92,59V69.83h-.07l-.7.35c-.35.18-5.74,2.81-15,3-4.67,6.31-15.25,10.72-27.54,10.72S32.66,79.45,28,73.13a58.29,58.29,0,0,1-6.57-.65L18.55,72a66.05,66.05,0,0,1-6.69-1.72L11.11,70l0-.17V59a13.43,13.43,0,0,1,10-13,11.47,11.47,0,0,0,15.73,0A13.41,13.41,0,0,1,43,49.64a49,49,0,0,1,24.21-.24,13.51,13.51,0,0,1,6-3.42,11.47,11.47,0,0,0,15.73,0,13.47,13.47,0,0,1,9.39,9l.56,2.78C98.9,58.15,98.92,58.55,98.92,59ZM80.36,73.14a58.41,58.41,0,0,1-6.82-.66L70.66,72A66.9,66.9,0,0,1,64,70.23L63.21,70l0-.16V59a13.35,13.35,0,0,1,2.44-7.69A47.53,47.53,0,0,0,55.57,50.2a46.72,46.72,0,0,0-11.06,1.29A13.27,13.27,0,0,1,46.2,55l.56,2.78A11.71,11.71,0,0,1,46.82,59V69.83h-.08l-.7.35c-.35.18-5.81,2.85-15.24,3,4.64,5.06,14,8.52,24.77,8.52S75.72,78.21,80.36,73.14Z" transform="translate(-11.08 -26.12)"/></svg>