<svg id="Layer_1" data-name="Layer 1" xmlns="http://www.w3.org/2000/svg" viewBox="0 0 70.44 70.43"><defs><style>.cls-1{fill:#fff;}</style></defs><title>b4</title><path class="cls-1" d="M53.74,38.65a13.72,13.72,0,0,1,1.47-6.19L52,29.85H34.38l9.78,8.8Z" transform="translate(-19.78 -19.78)"/><path class="cls-1" d="M29.84,43.68h2.52v3.77H29.84Z" transform="translate(-19.78 -19.78)"/><path class="cls-1" d="M52,56.76l1.76-1.18V41.17H44.93V62.55h5.53a4.46,4.46,0,0,1-.49-2A4.51,4.51,0,0,1,52,56.76Z" transform="translate(-19.78 -19.78)"/><path class="cls-1" d="M28.58,55h5v7.55h-5Z" transform="translate(-19.78 -19.78)"/><path class="cls-1" d="M52.48,60.53a2,2,0,0,0,2,2H88.2a2,2,0,0,0,1.12-3.7L87,57.3a1.23,1.23,0,0,1-.57-1V38.65A11.34,11.34,0,0,0,75.12,27.33a1.25,1.25,0,0,1-1.07-.59A1.23,1.23,0,0,1,74,25.51l2.87-5.73h-11l2.87,5.73a1.28,1.28,0,0,1-.06,1.23,1.27,1.27,0,0,1-1.08.59A11.34,11.34,0,0,0,56.25,38.65V56.26a1.24,1.24,0,0,1-.56,1l-2.31,1.55A2,2,0,0,0,52.48,60.53Zm17-23.14h.63V34.88H72.6v2.51h3.78v2.52H69.46a1.89,1.89,0,1,0,0,3.77h3.77a4.4,4.4,0,1,1,0,8.8H72.6V55H70.09V52.48H66.32V50h6.91a1.89,1.89,0,1,0,0-3.77H69.46a4.41,4.41,0,0,1,0-8.81Z" transform="translate(-19.78 -19.78)"/><path class="cls-1" d="M26.07,53.74a1.26,1.26,0,0,1,1.26-1.26h7.54a1.26,1.26,0,0,1,1.26,1.26v8.81h6.29V40.47L31.1,30.28,19.78,40.47V62.55h6.29Zm1.26-11.32a1.25,1.25,0,0,1,1.25-1.25h5a1.25,1.25,0,0,1,1.25,1.25v6.29A1.25,1.25,0,0,1,33.62,50h-5a1.25,1.25,0,0,1-1.25-1.26Z" transform="translate(-19.78 -19.78)"/><path class="cls-1" d="M90.12,65.06H19.87a8.82,8.82,0,0,0,8.71,7.55H47.45l9.36,0a19.28,19.28,0,0,1,18.62,0h6A8.82,8.82,0,0,0,90.12,65.06Z" transform="translate(-19.78 -19.78)"/><path class="cls-1" d="M58,74.8l-.32.17a1.24,1.24,0,0,1-.6.15H47.45a2.52,2.52,0,1,0,0,5H57.51a1.26,1.26,0,1,1,0,2.52H44.93a1.31,1.31,0,0,1-.52-.11L30.11,76a2.86,2.86,0,0,0-4,2.6v.27a2.83,2.83,0,0,0,1.58,2.55l14.66,7.33a14,14,0,0,0,6.19,1.47H73.86V74.61A16.8,16.8,0,0,0,58,74.8Z" transform="translate(-19.78 -19.78)"/><path class="cls-1" d="M76.38,75.12v15.1H90.21V75.12Zm7.54,10.07a2.52,2.52,0,1,1-2.51-2.52A2.51,2.51,0,0,1,83.92,85.19Z" transform="translate(-19.78 -19.78)"/><path class="cls-1" d="M34.23,75.12,42.59,79a5,5,0,0,1,.53-3.84Z" transform="translate(-19.78 -19.78)"/></svg>