<svg id="Layer_1" data-name="Layer 1" xmlns="http://www.w3.org/2000/svg" viewBox="0 0 65.69 57.74"><defs><style>.cls-1{fill:#fff;}</style></defs><title>b5</title><path class="cls-1" d="M55,49.23A5.77,5.77,0,1,0,60.77,55,5.78,5.78,0,0,0,55,49.23Zm1.36,7.13a1.92,1.92,0,1,1,0-2.72A1.93,1.93,0,0,1,56.36,56.36Z" transform="translate(-22.15 -26.13)"/><path class="cls-1" d="M82.35,56.24a1.93,1.93,0,0,0,0-2.48C78.27,48.92,67.44,37.68,55,37.68S31.75,48.93,27.65,53.76a1.93,1.93,0,0,0,0,2.48C31.73,61.08,42.56,72.32,55,72.32S78.25,61.07,82.35,56.24ZM55,64.62A9.62,9.62,0,1,1,64.62,55,9.62,9.62,0,0,1,55,64.62Z" transform="translate(-22.15 -26.13)"/><path class="cls-1" d="M24.08,41.53A1.92,1.92,0,0,0,26,39.6V30h9.63a1.93,1.93,0,0,0,0-3.85H24.08a1.92,1.92,0,0,0-1.93,1.93V39.6A1.92,1.92,0,0,0,24.08,41.53Z" transform="translate(-22.15 -26.13)"/><path class="cls-1" d="M85.92,26.13H74.37a1.93,1.93,0,0,0,0,3.85H84V39.6a1.93,1.93,0,1,0,3.85,0V28.06A1.92,1.92,0,0,0,85.92,26.13Z" transform="translate(-22.15 -26.13)"/><path class="cls-1" d="M85.92,68.47A1.92,1.92,0,0,0,84,70.4V80H74.37a1.93,1.93,0,0,0,0,3.85H85.92a1.92,1.92,0,0,0,1.93-1.93V70.4A1.92,1.92,0,0,0,85.92,68.47Z" transform="translate(-22.15 -26.13)"/><path class="cls-1" d="M35.63,80H26V70.4a1.93,1.93,0,1,0-3.85,0V81.94a1.92,1.92,0,0,0,1.93,1.93H35.63a1.93,1.93,0,0,0,0-3.85Z" transform="translate(-22.15 -26.13)"/></svg>