<svg id="Layer_1" data-name="Layer 1" xmlns="http://www.w3.org/2000/svg" viewBox="0 0 64.11 78.36"><defs><style>.cls-1{fill:#fff;}</style></defs><title>b6</title><path class="cls-1" d="M29.24,94.18h30a6.45,6.45,0,0,0,6.46-6.38V82.93H23V87.8a6.31,6.31,0,0,0,6.25,6.38Zm15-9.56a3.94,3.94,0,1,1-3.94,3.93h0A3.93,3.93,0,0,1,44.24,84.62Z" transform="translate(-22.95 -15.82)"/><path class="cls-1" d="M65.69,77.68H63.6a1.12,1.12,0,0,1-1.12-1l-.38-3.89a18.74,18.74,0,0,1-4.61-2l-3,2.47A1.13,1.13,0,0,1,53,73.23l-4.45-4.46a1.12,1.12,0,0,1-.07-1.51l2.47-3A18.11,18.11,0,0,1,49,59.65l-3.87-.37a1.11,1.11,0,0,1-1-1.12V51.84a1.11,1.11,0,0,1,1-1.12L49,50.35a18.28,18.28,0,0,1,2-4.62l-2.48-3a1.12,1.12,0,0,1,.08-1.51L53,36.77a1.13,1.13,0,0,1,1.52-.07l3,2.47a18.07,18.07,0,0,1,4.62-2l.38-3.89a1.12,1.12,0,0,1,1.12-1h2.09V27.07H63a1.13,1.13,0,0,1,0-2.25h2.71V22.2a6.45,6.45,0,0,0-6.46-6.38h-30A6.3,6.3,0,0,0,23,22.15v2.67H53.42a1.13,1.13,0,1,1,0,2.25H23V80.68H65.69ZM57.11,24.82H59.2a1.13,1.13,0,0,1,0,2.25H57.11a1.13,1.13,0,0,1,0-2.25ZM35.32,41.32h7.12a1.13,1.13,0,1,1,0,2.25H35.32a1.13,1.13,0,1,1,0-2.25Zm5.25,12.37H39a1.13,1.13,0,0,1,0-2.25h1.56a1.13,1.13,0,0,1,0,2.25Zm1.12,8.25a1.12,1.12,0,0,1-1.12,1.12H33.39a1.13,1.13,0,1,1,0-2.25h7.18A1.12,1.12,0,0,1,41.69,61.94ZM27.26,41.32h3a1.13,1.13,0,0,1,0,2.25h-3a1.13,1.13,0,1,1,0-2.25Zm0,10.12H34a1.13,1.13,0,0,1,0,2.25H27.26a1.13,1.13,0,1,1,0-2.25Zm0,9.37h1.15a1.13,1.13,0,1,1,0,2.25H27.26a1.13,1.13,0,1,1,0-2.25Zm8.65,11.62H27.26a1.13,1.13,0,1,1,0-2.25h8.65a1.13,1.13,0,1,1,0,2.25Zm10.28,0H40.94a1.13,1.13,0,0,1,0-2.25h5.25a1.13,1.13,0,0,1,0,2.25Z" transform="translate(-22.95 -15.82)"/><circle class="cls-1" cx="21.29" cy="72.73" r="1.69"/><path class="cls-1" d="M66.76,66.18A11.18,11.18,0,1,0,55.58,55,11.18,11.18,0,0,0,66.76,66.18ZM60.83,53.86a1.13,1.13,0,0,1,1.59,0l2.85,2.79L71,51a1.13,1.13,0,0,1,1.59,1.6h0L66.06,59a1.14,1.14,0,0,1-1.57,0l-3.64-3.56a1.11,1.11,0,0,1,0-1.59Z" transform="translate(-22.95 -15.82)"/><path class="cls-1" d="M64.27,38.23a1.15,1.15,0,0,1-.88,1A15.64,15.64,0,0,0,58,41.49a1.14,1.14,0,0,1-1.35-.07l-2.82-2.34-3,3,2.34,2.82a1.11,1.11,0,0,1,.08,1.33A16.22,16.22,0,0,0,51,51.63a1.13,1.13,0,0,1-1,.88l-3.64.35v4.28l3.64.35a1.09,1.09,0,0,1,1,.88,15.85,15.85,0,0,0,2.27,5.37,1.14,1.14,0,0,1-.07,1.34l-2.34,2.83,3,3,2.82-2.34A1.13,1.13,0,0,1,58,68.5a16.07,16.07,0,0,0,5.38,2.27,1.15,1.15,0,0,1,.89,1l.35,3.67H68.9l.35-3.66a1.14,1.14,0,0,1,.88-1,15.64,15.64,0,0,0,5.37-2.26,1.13,1.13,0,0,1,1.34.07l2.82,2.34,3-3-2.34-2.82a1.14,1.14,0,0,1-.08-1.33,16.31,16.31,0,0,0,2.26-5.39,1.12,1.12,0,0,1,1-.88l3.57-.35V52.86l-3.62-.35a1.07,1.07,0,0,1-1-.88,15.85,15.85,0,0,0-2.27-5.37,1.16,1.16,0,0,1,.07-1.35l2.34-2.82-3-3-2.82,2.33a1.13,1.13,0,0,1-1.32.08,16.12,16.12,0,0,0-5.39-2.27,1.14,1.14,0,0,1-.88-1l-.35-3.66H64.62ZM80.19,55A13.43,13.43,0,1,1,66.76,41.57h0A13.45,13.45,0,0,1,80.19,55Z" transform="translate(-22.95 -15.82)"/></svg>