<svg id="Layer_1" data-name="Layer 1" xmlns="http://www.w3.org/2000/svg" viewBox="0 0 60.67 73.09"><defs><style>.cls-1{fill:#fff;}</style></defs><title>ApplicationManagementServices</title><path class="cls-1" d="M32.27,91.55H58.73a7.62,7.62,0,0,0,7.61-7.61V75h1.82a1,1,0,0,0,1-.9l.33-3.43A15.9,15.9,0,0,0,73.56,69l2.63,2.18a1,1,0,0,0,1.34-.06l3.93-3.94a1,1,0,0,0,.06-1.33l-2.18-2.64a16.6,16.6,0,0,0,1.72-4.07l3.38-.33a1,1,0,0,0,.89-1V52.21a1,1,0,0,0-.89-1L81,50.89a16.08,16.08,0,0,0-1.72-4.08l2.18-2.63a1,1,0,0,0-.06-1.33l-3.88-3.93a1,1,0,0,0-1.34-.07L73.55,41a15.86,15.86,0,0,0-4.07-1.72l-.33-3.43a1,1,0,0,0-1-.9H66.34V26.06a7.62,7.62,0,0,0-7.61-7.61H32.27a7.61,7.61,0,0,0-7.6,7.61V83.94A7.61,7.61,0,0,0,32.27,91.55Zm35.3-51.34a1,1,0,0,0,.78.87,14.45,14.45,0,0,1,4.75,2A1,1,0,0,0,74.27,43L76.76,41l2.61,2.65L77.3,46.1a1,1,0,0,0-.06,1.19,13.84,13.84,0,0,1,2,4.73,1,1,0,0,0,.87.78l3.24.31v3.78l-3.19.31a1,1,0,0,0-.87.78,14.45,14.45,0,0,1-2,4.75,1,1,0,0,0,.07,1.17l2.07,2.49L76.76,69,74.27,67a1,1,0,0,0-1.18-.06,14.09,14.09,0,0,1-4.74,2,1,1,0,0,0-.78.87L67.26,73H63.49l-.32-3.24a1,1,0,0,0-.77-.87,14.45,14.45,0,0,1-4.75-2,1,1,0,0,0-1.17.07L54,69l-2.66-2.65,2.06-2.49a1,1,0,0,0,.06-1.19,13.82,13.82,0,0,1-2-4.73,1,1,0,0,0-.88-.78l-3.23-.31V53.11l3.23-.31a1,1,0,0,0,.88-.78,14.22,14.22,0,0,1,2-4.75,1,1,0,0,0-.07-1.17l-2.06-2.49L54,41,56.48,43a1,1,0,0,0,1.18.06,14.09,14.09,0,0,1,4.74-2,1,1,0,0,0,.77-.87L63.49,37h3.77ZM32.27,20.44H58.73a5.63,5.63,0,0,1,5.63,5.62v2.32H62a1,1,0,0,0,0,2h2.32V35H62.59a1,1,0,0,0-1,.9l-.33,3.43A15.75,15.75,0,0,0,57.19,41l-2.63-2.18a1,1,0,0,0-1.34.06l-3.93,3.94a1,1,0,0,0-.06,1.33l2.18,2.64a16.22,16.22,0,0,0-1.72,4.07l-3.43.33a1,1,0,0,0-.9,1v5.58a1,1,0,0,0,.9,1l3.43.33a16.08,16.08,0,0,0,1.72,4.08l-2.18,2.63a1,1,0,0,0,.06,1.33l3.93,3.94a1,1,0,0,0,1.34.06L57.19,69a16.08,16.08,0,0,0,4.08,1.72l.33,3.43a1,1,0,0,0,1,.9h1.77v2.65H26.65V30.36h27a1,1,0,1,0,0-2h-27V26.06A5.62,5.62,0,0,1,32.27,20.44Zm-5.62,59.2H64.36v4.3a5.63,5.63,0,0,1-5.63,5.62H32.27a5.62,5.62,0,0,1-5.62-5.62Z" transform="translate(-24.67 -18.45)"/><path class="cls-1" d="M56.86,30.36H58.7a1,1,0,1,0,0-2H56.86a1,1,0,0,0,0,2Z" transform="translate(-24.67 -18.45)"/><path class="cls-1" d="M45.5,88.07A3.47,3.47,0,1,0,42,84.6,3.47,3.47,0,0,0,45.5,88.07Zm0-5A1.49,1.49,0,1,1,44,84.6,1.49,1.49,0,0,1,45.5,83.11Z" transform="translate(-24.67 -18.45)"/><path class="cls-1" d="M53.52,55A11.85,11.85,0,1,0,65.37,43.15h0A11.87,11.87,0,0,0,53.52,55Zm11.85-9.86A9.86,9.86,0,1,1,55.51,55,9.86,9.86,0,0,1,65.37,45.14Z" transform="translate(-24.67 -18.45)"/><path class="cls-1" d="M63.37,58.53a1,1,0,0,0,1.38,0l5.79-5.64a1,1,0,1,0-1.38-1.43h0l-5.09,5L61.54,54a1,1,0,1,0-1.38,1.42Z" transform="translate(-24.67 -18.45)"/><path class="cls-1" d="M42.27,51.86H40.9a1,1,0,1,0,0,2h1.37a1,1,0,1,0,0-2Z" transform="translate(-24.67 -18.45)"/><path class="cls-1" d="M30.52,53.84h6a1,1,0,0,0,0-2h-6a1,1,0,1,0,0,2Z" transform="translate(-24.67 -18.45)"/><path class="cls-1" d="M42.27,60.13H35.93a1,1,0,1,0,0,2h6.34a1,1,0,0,0,0-2Z" transform="translate(-24.67 -18.45)"/><path class="cls-1" d="M30.52,62.11h1a1,1,0,1,0,0-2h-1a1,1,0,1,0,0,2Z" transform="translate(-24.67 -18.45)"/><path class="cls-1" d="M41.6,69.39a1,1,0,0,0,1,1h4.63a1,1,0,1,0,0-2H42.6A1,1,0,0,0,41.6,69.39Z" transform="translate(-24.67 -18.45)"/><path class="cls-1" d="M38.16,68.4H30.52a1,1,0,0,0,0,2h7.64a1,1,0,1,0,0-2Z" transform="translate(-24.67 -18.45)"/><path class="cls-1" d="M37.64,44.91h6.28a1,1,0,1,0,0-2H37.64a1,1,0,1,0,0,2Z" transform="translate(-24.67 -18.45)"/><path class="cls-1" d="M30.52,44.91H33.2a1,1,0,1,0,0-2H30.52a1,1,0,0,0,0,2Z" transform="translate(-24.67 -18.45)"/></svg>