<svg id="Layer_1" data-name="Layer 1" xmlns="http://www.w3.org/2000/svg" viewBox="0 0 73.6 73.6"><defs><style>.cls-1{fill:#fff;}</style></defs><title>BusinessProcessConsulting</title><path class="cls-1" d="M55,37.35l8.74-7.28H75.18V18.2H46.69V30.07H55ZM49.06,27.7V20.57H72.81V27.7H62.88l-5.51,4.58V27.7Z" transform="translate(-18.2 -18.2)"/><path class="cls-1" d="M51.44,23h2.37v2.37H51.44Z" transform="translate(-18.2 -18.2)"/><path class="cls-1" d="M56.19,23h9.49v2.37H56.19Z" transform="translate(-18.2 -18.2)"/><path class="cls-1" d="M68.06,23h2.37v2.37H68.06Z" transform="translate(-18.2 -18.2)"/><path class="cls-1" d="M78.63,89.43l-1-9.61a8.32,8.32,0,0,0,7-8.2V56.19H79.93V54.55a4.27,4.27,0,0,0-2.31-3.81,7.07,7.07,0,0,0,2.31-5.24V43.13a7.13,7.13,0,0,0-14.25,0V45.5a7.13,7.13,0,0,0,4.7,6.69L64,58.56H57.35a4.75,4.75,0,0,0-3.42-4.25l-4.87-1.39V50.8a7.09,7.09,0,0,0,2.38-5.3V43.13a7.13,7.13,0,0,0-14.25,0V45.5a7.09,7.09,0,0,0,2.38,5.3v2.12L34.7,54.31a4.76,4.76,0,0,0-3.44,4.56v4.44H26.51v7.12h2.37v19H18.2V91.8H91.8V89.43Zm-10.57-19V65l8.41-8.41a3.72,3.72,0,0,0,1-2.28,1.87,1.87,0,0,1,0,.25v14.7A3.57,3.57,0,0,1,74,72.81H64.5V70.43Zm-3.56,9.5h6l1,9.5h-7Zm8.43,0h2.36l.95,9.5H73.88Zm7-10.68V58.56H82.3V71.62a6,6,0,0,1-5.93,5.94H64.5V75.18H74A5.94,5.94,0,0,0,79.93,69.25ZM68.06,45.5V43.13a4.75,4.75,0,1,1,9.5,0V45.5a4.75,4.75,0,0,1-9.5,0ZM65,60.94,72.91,53a1.33,1.33,0,1,1,1.88,1.88l-8.41,8.41H53.81a1.19,1.19,0,0,1,0-2.37ZM39.57,43.13a4.75,4.75,0,1,1,9.49,0V45.5a4.75,4.75,0,1,1-9.49,0Zm4.75,9.5a7.16,7.16,0,0,0,2.37-.42v1.28A3,3,0,0,1,44.32,55a3.05,3.05,0,0,1-2.38-1.51V52.21A7.22,7.22,0,0,0,44.32,52.63ZM33.63,58.87a2.39,2.39,0,0,1,1.72-2.28l4.89-1.4a4.9,4.9,0,0,0,8.15,0l4.89,1.4a2.37,2.37,0,0,1,1.67,2H53.81a3.52,3.52,0,0,0-3.34,4.75H33.63Zm-4.75,6.81h36.8v2.38H28.88Zm2.38,9.5h3.56V72.81H31.26V70.43H62.12v2.38H37.19v2.37H62.12V89.43H59.3l-2.38-4.75H36.46l-2.38,4.75H31.26ZM56.64,89.43H36.74l1.19-2.38H55.45Z" transform="translate(-18.2 -18.2)"/></svg>