<svg id="Layer_1" data-name="Layer 1" xmlns="http://www.w3.org/2000/svg" viewBox="0 0 77.56 77.56"><defs><style>.cls-1{fill:#fff;}</style></defs><title>Consulting services</title><path class="cls-1" d="M49.83,40.78A3.88,3.88,0,0,0,46,44.66h2.59a1.29,1.29,0,0,1,2.58,0h2.59A3.88,3.88,0,0,0,49.83,40.78Z" transform="translate(-16.22 -16.22)"/><path class="cls-1" d="M60.17,40.78a3.88,3.88,0,0,0-3.88,3.88h2.59a1.29,1.29,0,0,1,2.58,0h2.59A3.88,3.88,0,0,0,60.17,40.78Z" transform="translate(-16.22 -16.22)"/><path class="cls-1" d="M55,75.68a5.17,5.17,0,1,0,5.17,5.17A5.18,5.18,0,0,0,55,75.68Zm0,7.76a2.59,2.59,0,1,1,2.59-2.59A2.59,2.59,0,0,1,55,83.44Z" transform="translate(-16.22 -16.22)"/><path class="cls-1" d="M86,91.19V74.39A19.41,19.41,0,0,0,66.63,55h-1.4a15.82,15.82,0,0,0,1.3-1.29h1.4a6.47,6.47,0,0,0,6.46-6.47V45a5.8,5.8,0,0,0,0-9.68,19.37,19.37,0,0,0-38.74,0A5.81,5.81,0,0,0,38.84,46h.88a15.55,15.55,0,0,0,5.05,9h-1.4A19.41,19.41,0,0,0,24,74.39v16.8H16.22v2.59H93.78V91.19ZM71.8,47.24a3.87,3.87,0,0,1-3.35,3.83A15.51,15.51,0,0,0,70.28,46h.88c.22,0,.43,0,.64-.06Zm2.59-7.11a3.24,3.24,0,0,1-3.23,3.24h-.65V36.9h.65A3.23,3.23,0,0,1,74.39,40.13Zm-34.9,3.24h-.65a3.24,3.24,0,0,1,0-6.47h.65Zm-.65-9a5.42,5.42,0,0,0-.58.06,16.78,16.78,0,0,1,33.48,0,5.42,5.42,0,0,0-.58-.06h-.88a15.49,15.49,0,0,0-30.56,0Zm29.09,2.55c-9.33-.33-15.52-4.14-15.52-7.72a1.29,1.29,0,1,0-2.58,0c0,3.23-3.34,5.9-7.68,6.38a12.93,12.93,0,0,1,25.78,1.34Zm-25.86,6.5V38.12c4-.35,7.47-2.29,9.18-5,2.7,3.58,9,6.1,16.68,6.36v3.91a12.83,12.83,0,0,1-2.61,7.75H55v2.59h7.72a13.33,13.33,0,0,1-2.39,1.42A12.93,12.93,0,0,1,42.07,43.37Zm8.93,15a15.08,15.08,0,0,0,8,0l-4,8Zm1.91,9.59H50.63L45.46,57.59h2.28Zm9.35-10.34h2.28L59.37,67.93H57.09ZM30.44,74.39v16.8H26.56V74.39a16.81,16.81,0,0,1,16-16.76l5.15,10.3H36.9A6.47,6.47,0,0,0,30.44,74.39ZM77,91.19H33V74.39a3.88,3.88,0,0,1,3.88-3.88H73.1A3.88,3.88,0,0,1,77,74.39Zm6.46,0H79.56V74.39a6.47,6.47,0,0,0-6.46-6.46H62.26l5.15-10.3a16.81,16.81,0,0,1,16,16.76Z" transform="translate(-16.22 -16.22)"/><rect class="cls-1" x="55.58" y="63.34" width="2.59" height="9.05"/><rect class="cls-1" x="55.58" y="58.17" width="2.59" height="2.59"/><rect class="cls-1" x="67.22" y="11.63" width="2.59" height="2.59"/><rect class="cls-1" x="67.22" y="16.8" width="2.59" height="2.59"/><rect class="cls-1" x="67.22" y="21.98" width="2.59" height="2.59"/><rect class="cls-1" x="7.76" y="27.15" width="2.59" height="2.59"/><rect class="cls-1" x="7.76" y="32.32" width="2.59" height="2.59"/><rect class="cls-1" x="7.76" y="37.49" width="2.59" height="2.59"/></svg>