<svg id="Layer_1" data-name="Layer 1" xmlns="http://www.w3.org/2000/svg" viewBox="0 0 63.32 63.32"><defs><style>.cls-1{fill:#fff;}</style></defs><title>ERPReadiness&amp;amp;HealthCheck</title><path class="cls-1" d="M60.28,33.89H39.17a1,1,0,0,1-1.05-1V24.4a1.05,1.05,0,0,1,1.05-1.06H60.28a1.05,1.05,0,0,1,1,1.06v8.44A1,1,0,0,1,60.28,33.89ZM40.23,31.78h19V25.45h-19Z" transform="translate(-23.34 -23.34)"/><path class="cls-1" d="M69.77,82.44H28.62a1.05,1.05,0,0,1-1.06-1.06V30.73a1.05,1.05,0,0,1,1.06-1.06H39.17a1.06,1.06,0,0,1,1.06,1.06v1.05h19V30.73a1.05,1.05,0,0,1,1.06-1.06h9.49a1.05,1.05,0,0,1,1.06,1.06V81.38A1.05,1.05,0,0,1,69.77,82.44Zm-40.1-2.11H68.72V31.78H61.33v1.06a1,1,0,0,1-1,1H39.17a1,1,0,0,1-1.05-1V31.78H29.67Z" transform="translate(-23.34 -23.34)"/><path class="cls-1" d="M71.23,86.66H27.17a3.84,3.84,0,0,1-3.83-3.83V29.28a3.84,3.84,0,0,1,3.83-3.83h12a1.06,1.06,0,0,1,1.06,1.06v5.27h19V26.51a1.05,1.05,0,0,1,1.06-1.06h11a3.83,3.83,0,0,1,3.82,3.83V82.83A3.83,3.83,0,0,1,71.23,86.66ZM27.17,27.56a1.72,1.72,0,0,0-1.72,1.72V82.83a1.72,1.72,0,0,0,1.72,1.72H71.23a1.72,1.72,0,0,0,1.71-1.72V29.28a1.72,1.72,0,0,0-1.71-1.72h-9.9v5.28a1,1,0,0,1-1,1H39.17a1,1,0,0,1-1.05-1V27.56Z" transform="translate(-23.34 -23.34)"/><path class="cls-1" d="M82.44,83.49a1.06,1.06,0,0,1-.85-.42l-3.16-4.22a1,1,0,0,1-.21-.63V28.12a2.67,2.67,0,0,1,2.67-2.67H84a2.68,2.68,0,0,1,2.67,2.67v50.1a1,1,0,0,1-.21.63l-3.17,4.22a1,1,0,0,1-.84.42Zm-2.11-5.62,2.11,2.81,2.11-2.81V28.12a.56.56,0,0,0-.56-.56h-3.1a.56.56,0,0,0-.56.56Zm5.27.35h0Z" transform="translate(-23.34 -23.34)"/><path class="cls-1" d="M82.41,86.66a1.05,1.05,0,0,1-1.06-1.06V82.44a1.06,1.06,0,1,1,2.11,0V85.6A1.05,1.05,0,0,1,82.41,86.66Z" transform="translate(-23.34 -23.34)"/><path class="cls-1" d="M85.6,33.89H79.27a1,1,0,0,1-1-1V28.12a2.67,2.67,0,0,1,2.67-2.67H84a2.68,2.68,0,0,1,2.67,2.67v4.72a1.05,1.05,0,0,1-1.06,1Zm-5.27-2.11h4.22V28.12a.56.56,0,0,0-.56-.56h-3.1a.56.56,0,0,0-.56.56Z" transform="translate(-23.34 -23.34)"/><path class="cls-1" d="M82.41,83.49a1,1,0,0,1-.85-.42L78.4,78.85a1,1,0,0,1-.21-.63V71.88a1,1,0,0,1,1-1h6.33a1.06,1.06,0,0,1,1.06,1v6.34a1.08,1.08,0,0,1-.21.63l-3.17,4.22A1,1,0,0,1,82.41,83.49ZM80.3,77.87l2.11,2.81,2.11-2.81V72.94H80.3Z" transform="translate(-23.34 -23.34)"/><path class="cls-1" d="M85.6,56.06H79.27a1.06,1.06,0,0,1-1-1.06V46.56a1.05,1.05,0,0,1,1-1.06H85.6a1.05,1.05,0,0,1,1.06,1.06V55A1.06,1.06,0,0,1,85.6,56.06Zm-5.27-2.12h4.22V47.61H80.33Z" transform="translate(-23.34 -23.34)"/><path class="cls-1" d="M49.72,60.28A11.61,11.61,0,1,1,61.33,48.67,11.62,11.62,0,0,1,49.72,60.28Zm0-21.11a9.5,9.5,0,1,0,9.5,9.5A9.51,9.51,0,0,0,49.72,39.17Z" transform="translate(-23.34 -23.34)"/><path class="cls-1" d="M51.83,56.06H47.61a1.06,1.06,0,0,1-1-1.06V51.83H43.39a1,1,0,0,1-1-1V46.56a1.05,1.05,0,0,1,1-1.06h3.17V42.34a1.05,1.05,0,0,1,1-1.06h4.22a1.05,1.05,0,0,1,1.06,1.06V45.5h3.17a1.05,1.05,0,0,1,1,1.06v4.22a1,1,0,0,1-1,1H52.89V55A1.06,1.06,0,0,1,51.83,56.06Zm-3.16-2.12h2.11V50.78a1.06,1.06,0,0,1,1-1.06H55V47.61H51.83a1,1,0,0,1-1-1V43.39H48.67v3.17a1.05,1.05,0,0,1-1.06,1H44.45v2.11h3.16a1.06,1.06,0,0,1,1.06,1.06Z" transform="translate(-23.34 -23.34)"/><path class="cls-1" d="M59.22,71.88H46.56a1.06,1.06,0,1,1,0-2.11H59.22a1.06,1.06,0,1,1,0,2.11Z" transform="translate(-23.34 -23.34)"/><path class="cls-1" d="M42.34,71.88h-9.5a1.06,1.06,0,1,1,0-2.11h9.5a1.06,1.06,0,0,1,0,2.11Z" transform="translate(-23.34 -23.34)"/><path class="cls-1" d="M65.55,71.88H63.44a1.06,1.06,0,0,1,0-2.11h2.11a1.06,1.06,0,1,1,0,2.11Z" transform="translate(-23.34 -23.34)"/><path class="cls-1" d="M51.83,66.61H39.17a1.06,1.06,0,0,1,0-2.11H51.83a1.06,1.06,0,1,1,0,2.11Z" transform="translate(-23.34 -23.34)"/><path class="cls-1" d="M65.55,66.61H56.06a1.06,1.06,0,1,1,0-2.11h9.49a1.06,1.06,0,1,1,0,2.11Z" transform="translate(-23.34 -23.34)"/><path class="cls-1" d="M35,66.61H32.84a1.06,1.06,0,1,1,0-2.11H35a1.06,1.06,0,0,1,0,2.11Z" transform="translate(-23.34 -23.34)"/><path class="cls-1" d="M51.83,77.16H39.17a1.06,1.06,0,0,1,0-2.11H51.83a1.06,1.06,0,1,1,0,2.11Z" transform="translate(-23.34 -23.34)"/><path class="cls-1" d="M65.55,77.16H56.06a1.06,1.06,0,1,1,0-2.11h9.49a1.06,1.06,0,1,1,0,2.11Z" transform="translate(-23.34 -23.34)"/><path class="cls-1" d="M35,77.16H32.84a1.06,1.06,0,1,1,0-2.11H35a1.06,1.06,0,0,1,0,2.11Z" transform="translate(-23.34 -23.34)"/></svg>