<svg id="Layer_1" data-name="Layer 1" xmlns="http://www.w3.org/2000/svg" viewBox="0 0 75.19 75.19"><defs><style>.cls-1{fill:#fff;}</style></defs><title>GlobalDeliveryCentre</title><path class="cls-1" d="M92.59,47.72V21A3.64,3.64,0,0,0,89,17.4H55A3.65,3.65,0,0,0,51.36,21v7.21A32.54,32.54,0,0,0,27.17,58.32c-7.82,6-11.25,12.53-9.17,17.55,1.92,4.64,8.08,7,16.28,7,.74,0,1.5,0,2.27-.06A32.73,32.73,0,0,0,91.23,50.54,3.61,3.61,0,0,0,92.59,47.72ZM73.19,22.25v2.43H70.76V22.25H68.34v2.43H65.91V19.83H78v4.85H75.61V22.25ZM53.78,21A1.22,1.22,0,0,1,55,19.83h8.49v7.28h17V19.83H89A1.21,1.21,0,0,1,90.17,21V47.72A1.22,1.22,0,0,1,89,48.94H55a1.22,1.22,0,0,1-1.22-1.22Zm6.07,69.13c-3.6,0-7.16-3.6-9.7-9.71,1.77-.51,3.57-1.09,5.38-1.76,1.55-.58,3.06-1.21,4.53-1.87H70.85c-2.52,8.27-6.66,13.34-11,13.34ZM64.9,74.4a57,57,0,0,0,6.25-4l.85.85c-.16,1-.35,2.07-.56,3.12H64.9Zm9.21-1,.86.85L79,61.06H90.14a30.09,30.09,0,0,1-3.7,13.34H73.92c.07-.33.14-.67.19-1Zm5.67-14.77,1.24-4-5.53,1.19c-.09-1.5-.24-3-.42-4.42H88.94a30.25,30.25,0,0,1,1.18,7.28Zm-50.19,0,0-1a30.27,30.27,0,0,1,3.6-12.34H45.68A63.25,63.25,0,0,0,44.1,58.64Zm2.33,13a30,30,0,0,1-2.36-10.59H44.11A66.37,66.37,0,0,0,45,70.88a33.79,33.79,0,0,1-13.08.77Zm15.43-1.38a63.84,63.84,0,0,1-.82-9.21H61.77l1.45,1.46a43.08,43.08,0,0,1-12.47,6.69c-1.16.4-2.28.75-3.4,1.06ZM62.14,58.64H46.53A60.54,60.54,0,0,1,48.2,45.3h3.16v2.42A3.64,3.64,0,0,0,55,51.36H72.63c.21,1.62.38,3.28.46,4.93ZM51.36,42.87H48.85a35.21,35.21,0,0,1,2.51-6.22Zm0-12.11v1.38a32.52,32.52,0,0,0-5,10.73H34.69A30.18,30.18,0,0,1,51.36,30.76ZM27.3,63.44A32.24,32.24,0,0,0,29,70.83a5.11,5.11,0,0,1-2.84-2.45C25.58,67,26,65.31,27.3,63.44ZM20.24,75c-1.17-2.86.23-6.63,3.75-10.49a6.25,6.25,0,0,0,0,4.89c2.51,5.79,14.65,6.73,27.62,2.14a43.42,43.42,0,0,0,14.26-8l1-.85-2.07-2.07,12.78-2.74L73.83,69.7l-2.47-2.48-.85.65a60.76,60.76,0,0,1-15.83,8.55C38.79,82.33,23,81.66,20.24,75Zm19.54,7.62a61.76,61.76,0,0,0,8-1.47,24.93,24.93,0,0,0,5.12,8.25,30.56,30.56,0,0,1-13.12-6.78Zm27,6.79c2.69-2.69,5-7,6.57-12.53H85A30.45,30.45,0,0,1,66.79,89.36Z" transform="translate(-17.41 -17.4)"/><path class="cls-1" d="M80.47,44.08h2.42v2.43H80.47Z" transform="translate(-17.41 -17.4)"/><path class="cls-1" d="M85.32,44.08h2.42v2.43H85.32Z" transform="translate(-17.41 -17.4)"/><path class="cls-1" d="M75.61,44.08H78v2.43H75.61Z" transform="translate(-17.41 -17.4)"/><path class="cls-1" d="M75.61,39.23H87.74v2.43H75.61Z" transform="translate(-17.41 -17.4)"/></svg>