<svg id="Layer_1" data-name="Layer 1" xmlns="http://www.w3.org/2000/svg" viewBox="0 0 66.56 66.55"><defs><style>.cls-1{fill:#fff;}</style></defs><title>Implementation</title><path class="cls-1" d="M70.24,88.24H39.49c-1.17-.85-2.31-1.75-2.2-3.39.06-.88-.28-1.07-1.1-1.06-3.22,0-6.44-.07-9.66.06-2.06.08-3.69-.43-4.77-2.25V63.87c.72-.88,1.33-2.08,2.58-2.09,1.47,0,2.36-.86,3.36-1.65l3-2.42c.45-.36.9-.68,1.5-.34s.57.77.62,1.3c.1,1-.51,2.32.31,2.84s2,.07,3,.15,1.16-.25,1.15-1.15c0-4.75,0-9.51,0-14.26,0-1-.22-1.32-1.2-1.56a8.82,8.82,0,0,1,0-17.07c.91-.23,1.24-.57,1.14-1.46a3.87,3.87,0,0,1,2.48-4.4H70.24A3.77,3.77,0,0,1,72.72,26c-.15,1.15.35,1.35,1.37,1.33,3.26-.06,6.53.05,9.78-.05,2.06-.07,3.53.61,4.37,2.52V47.24c-.72.87-1.33,2.07-2.58,2.08-1.51,0-2.43.93-3.46,1.74l-2.92,2.33c-.45.35-.89.68-1.5.35s-.58-.75-.63-1.29c-.09-1,.5-2.32-.29-2.85s-2-.06-3-.16-1.17.38-1.17,1.27c0,5.81.05,11.62,0,17.43,0,1,.26,1.41,1.3,1.28s2.25.39,2.93-.21.16-1.83.21-2.78a1.36,1.36,0,0,1,.62-1.3c.6-.34,1,0,1.49.33,1.37,1.1,2.73,2.2,4.11,3.28.35.27.66.68,1.17.66,1.87-.1,3,.95,3.7,2.5v8.59c-1.08,1.82-2.7,2.34-4.77,2.25-3.12-.13-6.24,0-9.37-.06-1,0-1.53.16-1.38,1.33A3.79,3.79,0,0,1,70.24,88.24ZM54.92,86H68.77c1.55,0,1.64-.28,1.78-2.09.11-1.47-.78-1.23-1.63-1.23-.6,0-1.2,0-1.8,0a3.33,3.33,0,0,1-3.25-3.3,3.84,3.84,0,0,1,0-.83c.21-1.18-.3-1.51-1.43-1.42-1.34.1-2.69-.07-4,0a2.15,2.15,0,0,1-2.63-1.91c-.73-2.85-1.66-5.66-2.49-8.48a1.72,1.72,0,0,0-1.09-1.28,7.52,7.52,0,0,1-4.7-5.26,1.06,1.06,0,0,0-.84-.9,3.3,3.3,0,0,1-.1-6.48c.46-.15.64-.28.71-.79a7.61,7.61,0,0,1,6.35-6.92c.69-.16.92-.31.64-1.07-.71-2-1.33-3.93-2-5.9-.16-.49-.25-1-1-.93-1.38.17-2.82-.37-4.16.31-.11.06-.12.34-.16.52a8.62,8.62,0,0,1-6.66,6.66,1,1,0,0,0-.88,1.13q0,7.41,0,14.82c0,.7.18,1,.93.95a20.69,20.69,0,0,1,2.49,0,3.23,3.23,0,0,1,3.21,3.18q.09,7.89,0,15.78a3.23,3.23,0,0,1-3.21,3.18c-.79,0-1.57,0-2.36,0-.44,0-1.06-.23-1.05.64,0,.71.14,1.31.9,1.51a4,4,0,0,0,1.1.06Zm5.66-21.09-.5-.58a11.65,11.65,0,0,0-1.73,1c-.84.66-2.51.07-2.7,1.27-.17,1,.52,2.11.83,3.17.08.26.14.53.24.79.53,1.42.4,3.46,1.52,4.17s2.95.15,4.47.23c.87.05,1.18-.18,1.18-1.12,0-3.45,1-4.43,4.47-4.43a6.15,6.15,0,0,1,1,0c1,.16,1.22-.27,1.21-1.22,0-5.22,0-10.43,0-15.65,0-3,0-3-3.06-3.08a3.34,3.34,0,0,1-3.57-3.54q0-7.55,0-15.09a3.34,3.34,0,0,1,3.58-3.53c.55,0,1.11,0,1.66,0s1.56.29,1.42-1c-.12-1,.29-2.28-1.39-2.31-1.52,0-3,0-4.57,0-.6,0-.73.18-.74.79,0,2.43-1.29,3.64-3.7,3.65-3.42,0-6.83,0-10.25,0-2.4,0-3.66-1.24-3.72-3.64,0-.44.07-.8-.58-.79-1.66,0-3.32,0-5,0a1.12,1.12,0,0,0-1.09,1.45c.11.74-.59,1.77.82,2.11A8.5,8.5,0,0,1,47,34.21c.16.69.47.88,1.14.86,1.33,0,2.67,0,4,0a1.67,1.67,0,0,1,1.91,1.37c.84,2.63,1.75,5.24,2.6,7.87a1.89,1.89,0,0,0,1.22,1.33,7.46,7.46,0,0,1,4.79,6.11A1.28,1.28,0,0,0,63.73,53a3.18,3.18,0,0,1,2.34,3.08,3,3,0,0,1-2.13,3.07c-1.13.29-1.29.88-1.19,1.84a15.34,15.34,0,0,0,0,1.8c.54,2.4-1,3.75-2.5,5.12a1,1,0,0,1-1.6,0,1,1,0,0,1,0-1.58C59.31,65.84,60,65.41,60.58,64.94ZM79.44,50.39c.6-.47,1-.82,1.46-1.13,1.27-.92,2.29-2.27,4.18-2.09.74.06,1-.71,1-1.43q0-7.34,0-14.66c0-1.1-.46-1.58-1.58-1.58-5.57,0-11.15,0-16.73,0-1.18,0-1.66.48-1.65,1.66q0,7.19,0,14.38c0,1.25.49,1.73,1.73,1.72,2.85,0,5.71,0,8.57,0C79.51,47.23,79.32,47.12,79.44,50.39ZM30.56,60.7c-1.17.93-2.17,1.72-3.16,2.52a2.19,2.19,0,0,1-1.62.65c-1.4-.15-1.84.54-1.83,1.88.05,4.66,0,9.31,0,14,0,1.63.24,1.87,1.82,1.87,5.44,0,10.88,0,16.32,0,1.28,0,1.84-.44,1.82-1.77q-.06-7.12,0-14.24c0-1.35-.56-1.77-1.84-1.75-2.81,0-5.62,0-8.43,0C30.3,63.9,30.68,63.78,30.56,60.7Zm48.89,7.75c0,.44-.06.61-.07.79,0,2.38,0,2.38-2.42,2.38-3.09,0-6.18,0-9.26,0-1.08,0-1.64.41-1.62,1.54,0,1.94,0,3.87,0,5.81,0,1,.42,1.53,1.48,1.53h17c1,0,1.47-.42,1.47-1.4,0-2,0-4.06,0-6.09,0-.81-.36-1.43-1.21-1.34a3.86,3.86,0,0,1-2.93-1.26C81.15,69.79,80.39,69.2,79.45,68.45Zm-30-10.88c0,2.93,1.13,4.84,3.28,5.8a5.5,5.5,0,0,0,6-1c1.55-1.44,1.84-3.29,1.8-5.3,0-.75-.27-1-1-1.15a7.51,7.51,0,0,1-3.93-1.87c-.53-.49-.86-.44-1.36,0A6.39,6.39,0,0,1,51,55.77C49.75,56,49.12,56.44,49.46,57.57ZM55,47.25a5.6,5.6,0,0,0-5.56,5.66c0,.92.32,1,1,.74a6.72,6.72,0,0,0,3.37-2.28c.91-1.11,1.39-1.11,2.29,0a6.74,6.74,0,0,0,3.37,2.29c.71.21,1.05.21,1.05-.73A5.61,5.61,0,0,0,55,47.25ZM38.29,42.8a6.87,6.87,0,0,0,3.79-1.13c1.58-1.07,1.57-1.22-.1-2.18-1.08-.61-2.17-1.22-3.24-1.85a2.5,2.5,0,0,0-1.31-.38c-1.52,0-3,.06-4.56,0-1.07,0-1,.44-.73,1.18A6.71,6.71,0,0,0,38.29,42.8ZM45,36.21a6.61,6.61,0,0,0-3.71-6c-1.64-.81-1.58-.67-1.86,1.08-.52,3.25.67,5.2,3.72,6.38,1.76.68,1.72.88,1.85-1.05C45,36.49,45,36.35,45,36.21Zm9.86-10c1.79,0,3.59,0,5.39,0,.74,0,1.31-.26,1.34-1.05S61.05,24,60.24,24Q55,24,49.74,24c-.74,0-1.32.26-1.35,1.05s.56,1.17,1.37,1.17C51.46,26.18,53.16,26.19,54.87,26.19Zm-17.6,6.23a15.32,15.32,0,0,1,0-1.66c.11-1.07-.34-1.16-1.2-.82a6.67,6.67,0,0,0-3.62,3.25c-.87,1.69-.75,1.86,1.16,1.86h1C37.27,35.05,37.27,35.05,37.27,32.42Zm9.86,22.65a1,1,0,0,0-1,1.13.89.89,0,0,0,1,.92A5.06,5.06,0,0,0,47.13,55.07ZM62.86,55a5.32,5.32,0,0,0,0,2.14C64.18,56.49,64.21,55.92,62.86,55Z" transform="translate(-21.72 -21.73)"/><path class="cls-1" d="M39.77,21.76a3.88,3.88,0,0,0-2.49,4.4c.11.9-.22,1.24-1.13,1.47a8.81,8.81,0,0,0-.06,17.06c1,.25,1.22.62,1.21,1.57q-.07,7.13,0,14.26c0,.89-.23,1.23-1.14,1.15s-2.26.32-3-.15-.21-1.87-.3-2.85c-.06-.53-.11-1-.62-1.29s-1.06,0-1.5.34l-3,2.41c-1,.79-1.9,1.65-3.36,1.66-1.25,0-1.86,1.21-2.59,2.08q0-20.44,0-40.9c0-.93.09-1.26,1.17-1.24C28.53,21.8,34.15,21.76,39.77,21.76Z" transform="translate(-21.72 -21.73)"/><path class="cls-1" d="M88.25,71.91c-.75-1.56-1.83-2.6-3.7-2.51-.52,0-.82-.38-1.17-.66-1.38-1.07-2.74-2.17-4.11-3.27-.45-.36-.9-.67-1.5-.33a1.37,1.37,0,0,0-.61,1.29c0,1,.44,2.21-.21,2.78S75,69.3,74,69.43s-1.31-.25-1.3-1.29c.05-5.8,0-11.61,0-17.42,0-.89.12-1.38,1.17-1.27s2.27-.32,3,.16.21,1.87.3,2.85c0,.54.11,1,.63,1.29s1,0,1.49-.35l2.92-2.33c1-.82,2-1.72,3.47-1.74,1.25,0,1.85-1.21,2.58-2.08Z" transform="translate(-21.72 -21.73)"/><path class="cls-1" d="M88.25,29.8c-.84-1.92-2.31-2.59-4.37-2.53-3.26.11-6.52,0-9.78.05-1,0-1.52-.17-1.38-1.32a3.78,3.78,0,0,0-2.48-4.24c5.65,0,11.3,0,17,0,.8,0,1.12.09,1.09,1C88.19,25.11,88.25,27.45,88.25,29.8Z" transform="translate(-21.72 -21.73)"/><path class="cls-1" d="M70.24,88.25A3.78,3.78,0,0,0,72.72,84c-.15-1.16.37-1.34,1.39-1.32,3.12.06,6.25-.08,9.37.06,2.07.08,3.68-.44,4.77-2.26,0,2.31,0,4.62,0,6.93,0,.7-.16.85-.85.85C81.69,88.24,76,88.25,70.24,88.25Z" transform="translate(-21.72 -21.73)"/><path class="cls-1" d="M21.76,81.6c1.09,1.83,2.71,2.34,4.78,2.25,3.22-.13,6.44,0,9.66,0,.82,0,1.15.17,1.1,1.06-.11,1.64,1,2.54,2.19,3.39-5.51,0-11,0-16.53,0-.9,0-1.31-.07-1.23-1.16C21.85,85.28,21.76,83.44,21.76,81.6Z" transform="translate(-21.72 -21.73)"/><path class="cls-1" d="M50.62,81.58c-.91.2-1.19-.15-1.19-1.08s.29-1.16,1.17-1.14,1.16.17,1.11,1.06S51.67,81.83,50.62,81.58Z" transform="translate(-21.72 -21.73)"/><path class="cls-1" d="M56.08,80.58c.29,1.25-.58,1-1.23,1-1.18.14-.88-.67-1-1.32-.14-1.07.58-.85,1.21-.93C56.16,79.24,56.23,79.84,56.08,80.58Z" transform="translate(-21.72 -21.73)"/><path class="cls-1" d="M59.4,81.58c-1,.25-1-.36-1.1-1.15-.08-1.05.48-1,1.24-1.07.93-.06,1,.37,1,1.13C60.61,81.41,60.32,81.78,59.4,81.58Z" transform="translate(-21.72 -21.73)"/><path class="cls-1" d="M83.82,37.25c0,1.24,0,2.49,0,3.73,0,1.65-.42,2-2,1.71-1.77-.3-3.55-.58-5.31-.91-.92-.17-1.23,0-.79,1a4,4,0,0,1,.29.92A1.08,1.08,0,0,1,75.27,45c-.54.19-1.18,0-1.25-.55-.29-2.08-1.72-2.71-3.46-3.38a4,4,0,0,1-2.17-4.65,4.24,4.24,0,0,1,4.08-3.5,50.38,50.38,0,0,0,9.58-1.07c1.26-.22,1.73.17,1.76,1.42S83.82,35.91,83.82,37.25Zm-2.22.06a15.43,15.43,0,0,1,0-1.8c.14-1.15-.25-1.38-1.37-1.15-3.06.64-3,.59-3.09,3.79,0,1.08.16,1.59,1.4,1.77C81.61,40.35,81.6,40.44,81.6,37.31Zm-6.62,0c-.26-.89.73-2.43-1.44-2.25-2,.16-3,.79-3,2.24s1.06,2.09,3,2.26C75.68,39.71,74.73,38.18,75,37.28Z" transform="translate(-21.72 -21.73)"/><path class="cls-1" d="M33.83,78.28c-2,0-4,0-6.08,0-1.11,0-1.58-.49-1.57-1.59q.06-3.39,0-6.77c0-1.19.51-1.7,1.67-1.63.46,0,.92,0,1.38,0,.82,0,1.56.12,1.44-1.14-.07-.67.48-1.06,1.18-1.07,1.38,0,2.77,0,4.15,0a1.16,1.16,0,0,1,1.27,1.3c0,1.1,0,2.21,0,3.31,0,.74.24,1,1,.92h.14c3.76-.08,3.35,0,3.36,3.51,0,3.14,0,3.14-3.18,3.14Zm1.23-6.14c0-1-.06-1.94,0-2.9s-.34-1-1.06-.95-1.23-.06-1.19,1c.08,1.93.08,3.87,0,5.8,0,.93.38,1,1.14,1s1.19-.12,1.12-1S35.06,73.11,35.06,72.14Zm-4.43,1.14c0-.65-.05-1.29,0-1.93.07-.85-.43-.88-1-.83s-1.25-.26-1.21.78q.08,1.94,0,3.87c0,.76.28.86,1,.92,1,.08,1.42-.26,1.28-1.3A10.86,10.86,0,0,1,30.63,73.28ZM39.46,75c.2-.9-.13-1.24-1.07-1.19-.74,0-1.21.07-1.14,1,.06.74,0,1.34,1.06,1.25C39.07,76,39.72,76.06,39.46,75Z" transform="translate(-21.72 -21.73)"/><path class="cls-1" d="M71.7,77.17a1.08,1.08,0,0,1-1.15-1,1,1,0,0,1,1-1.21,1,1,0,0,1,1.14,1.08A1.09,1.09,0,0,1,71.7,77.17Z" transform="translate(-21.72 -21.73)"/><path class="cls-1" d="M77.17,76.11c-.13.66-.51,1.1-1.22,1A1,1,0,0,1,75,76a1,1,0,0,1,1.19-1A1.09,1.09,0,0,1,77.17,76.11Z" transform="translate(-21.72 -21.73)"/><path class="cls-1" d="M80.48,74.94c.7.13,1.11.48,1.1,1.12a1,1,0,0,1-1.15,1.08,1,1,0,0,1-1-1.07A1.11,1.11,0,0,1,80.48,74.94Z" transform="translate(-21.72 -21.73)"/><path class="cls-1" d="M51.64,57.22a1.09,1.09,0,0,1,1.12,1,1.08,1.08,0,0,1-2.16.2C50.54,57.72,51,57.35,51.64,57.22Z" transform="translate(-21.72 -21.73)"/><path class="cls-1" d="M58.4,59.44a1.09,1.09,0,0,1-1.15-1,1,1,0,0,1,1-1.21,1,1,0,0,1,1.14,1.08C59.43,59,59,59.31,58.4,59.44Z" transform="translate(-21.72 -21.73)"/></svg>