<svg id="Layer_1" data-name="Layer 1" xmlns="http://www.w3.org/2000/svg" viewBox="0 0 77.56 77.56"><defs><style>.cls-1{fill:#fff;}</style></defs><title>Migration-Upgradation</title><path class="cls-1" d="M41.24,32.48A3.76,3.76,0,1,0,45,28.73,3.76,3.76,0,0,0,41.24,32.48ZM45,31.23a1.25,1.25,0,1,1-1.25,1.25A1.25,1.25,0,0,1,45,31.23Z" transform="translate(-16.22 -16.22)"/><path class="cls-1" d="M66.26,28.73h2.5v7.51h-2.5Z" transform="translate(-16.22 -16.22)"/><path class="cls-1" d="M61.25,28.73h2.51v7.51H61.25Z" transform="translate(-16.22 -16.22)"/><path class="cls-1" d="M65,43.74a3.76,3.76,0,1,0,3.75,3.75A3.77,3.77,0,0,0,65,43.74Zm0,5a1.26,1.26,0,1,1,1.25-1.26A1.26,1.26,0,0,1,65,48.75Z" transform="translate(-16.22 -16.22)"/><path class="cls-1" d="M41.24,43.74h2.5v7.51h-2.5Z" transform="translate(-16.22 -16.22)"/><path class="cls-1" d="M46.24,43.74h2.51v7.51H46.24Z" transform="translate(-16.22 -16.22)"/><path class="cls-1" d="M21.22,69V55h-2.5V69a3.76,3.76,0,1,0,2.5,0ZM20,73.76a1.25,1.25,0,1,1,1.25-1.25A1.25,1.25,0,0,1,20,73.76Z" transform="translate(-16.22 -16.22)"/><path class="cls-1" d="M28.73,56.25v6.49a3.75,3.75,0,1,0,2.5,0V56.25ZM30,67.51a1.25,1.25,0,1,1,1.25-1.25A1.25,1.25,0,0,1,30,67.51Z" transform="translate(-16.22 -16.22)"/><path class="cls-1" d="M91.28,63.53a3.76,3.76,0,1,0-2.5,0v9.64a11.23,11.23,0,0,0-6.26-1.91h-.19a17.55,17.55,0,0,0-1.06-3.9V56a3.75,3.75,0,1,0-2.5,0v7a17.74,17.74,0,0,0-5-4.36V46.24H85a3.76,3.76,0,0,0,3.76-3.75v-19a3.76,3.76,0,1,0-2.51,0v19A1.25,1.25,0,0,1,85,43.74H73.76v-5h3.76A3.76,3.76,0,0,0,81.27,35V33.5a3.75,3.75,0,1,0-2.5,0V35a1.26,1.26,0,0,1-1.25,1.26H73.76V30a6.25,6.25,0,0,0-6.25-6.25H59.33a17.48,17.48,0,0,0-31.66,7.5h-.19a11.26,11.26,0,0,0,0,22.52h8.76V69.86a10.24,10.24,0,0,0-.62,1.44c-.21,0-.42,0-.64,0a11.26,11.26,0,0,0,0,22.52H82.52a11.25,11.25,0,0,0,8.76-18.32ZM80,51.25a1.25,1.25,0,1,1-1.25,1.25A1.25,1.25,0,0,1,80,51.25Zm7.51-32.53A1.25,1.25,0,1,1,86.27,20,1.26,1.26,0,0,1,87.53,18.72ZM80,28.73A1.25,1.25,0,1,1,78.77,30,1.25,1.25,0,0,1,80,28.73Zm10,30A1.25,1.25,0,1,1,88.78,60,1.25,1.25,0,0,1,90,58.75Zm-25-2.5a17.53,17.53,0,0,0-14.85,8.22A10.65,10.65,0,0,0,48.44,64a3.65,3.65,0,0,0,.31-1.47,3.76,3.76,0,1,0-6.85,2.12,11.18,11.18,0,0,0-3.16,2V56.25H71.26v1.17A17.39,17.39,0,0,0,65,56.25ZM43.74,62.51A1.25,1.25,0,1,1,45,63.76,1.26,1.26,0,0,1,43.74,62.51Zm-5-21.27H71.26V53.75H38.74ZM71.26,30v8.76H38.74V30a3.75,3.75,0,0,1,3.75-3.75h25A3.75,3.75,0,0,1,71.26,30ZM27.48,51.25a8.76,8.76,0,0,1,0-17.52,8.62,8.62,0,0,1,1.15.09l1.31.17.1-1.32a15,15,0,0,1,26.11-8.94H42.49A6.25,6.25,0,0,0,36.24,30V51.25Zm55,40H35a8.76,8.76,0,1,1,8.76-8.76h2.5a11.27,11.27,0,0,0-8.1-10.8A8.75,8.75,0,0,1,55,75h2.5a11.26,11.26,0,0,0-5.07-9.4A15,15,0,0,1,80,72.7l.1,1.32,1.31-.17a8.62,8.62,0,0,1,1.15-.09,8.76,8.76,0,1,1,0,17.52Z" transform="translate(-16.22 -16.22)"/><path class="cls-1" d="M65,61.25v2.51a10,10,0,0,1,10,10h2.5A12.53,12.53,0,0,0,65,61.25Z" transform="translate(-16.22 -16.22)"/><path class="cls-1" d="M31.23,82.52A3.76,3.76,0,0,1,35,78.77v-2.5a6.26,6.26,0,0,0,0,12.51H52.5V86.27H35A3.76,3.76,0,0,1,31.23,82.52Z" transform="translate(-16.22 -16.22)"/><path class="cls-1" d="M55,86.27h2.5v2.51H55Z" transform="translate(-16.22 -16.22)"/><path class="cls-1" d="M60,86.27h2.51v2.51H60Z" transform="translate(-16.22 -16.22)"/><path class="cls-1" d="M83.77,77.52V80a2.5,2.5,0,0,1,2.5,2.5h2.51A5,5,0,0,0,83.77,77.52Z" transform="translate(-16.22 -16.22)"/><path class="cls-1" d="M23.73,42.49H21.22a6.27,6.27,0,0,0,6.26,6.26h1.25V46.24H27.48A3.75,3.75,0,0,1,23.73,42.49Z" transform="translate(-16.22 -16.22)"/><path class="cls-1" d="M31.23,46.24h2.5v2.51h-2.5Z" transform="translate(-16.22 -16.22)"/></svg>