<svg id="Layer_1" data-name="Layer 1" xmlns="http://www.w3.org/2000/svg" viewBox="0 0 75.19 75.19"><defs><style>.cls-1{fill:#fff;}</style></defs><title>Skill Building</title><path class="cls-1" d="M87.58,42.47H71.29A1.25,1.25,0,0,0,70,43.73v5A1.25,1.25,0,0,0,71.29,50h3.76a2.51,2.51,0,1,1,0,5H71.29A1.25,1.25,0,0,0,70,56.26v6.26H51.24A1.25,1.25,0,0,0,50,63.78V80.07a5,5,0,0,0,5,5H87.58a5,5,0,0,0,5-5V47.49A5,5,0,0,0,87.58,42.47ZM70,82.57H55a2.51,2.51,0,0,1-2.51-2.5V65H70v2.5H67.53a5,5,0,0,0,0,10H70Zm20-2.5a2.5,2.5,0,0,1-2.51,2.5h-15V76.31a1.25,1.25,0,0,0-1.25-1.26H67.53a2.51,2.51,0,0,1,0-5h3.76a1.25,1.25,0,0,0,1.25-1.25V65H76.3v2.5a5,5,0,1,0,10,0V65h3.76Zm0-17.55h-5a1.25,1.25,0,0,0-1.25,1.26v3.75a2.51,2.51,0,1,1-5,0V63.78a1.25,1.25,0,0,0-1.25-1.26h-5v-5h2.51a5,5,0,1,0,0-10H72.54V45h15a2.51,2.51,0,0,1,2.51,2.51Z" transform="translate(-17.41 -17.4)"/><path class="cls-1" d="M72.54,22.42H70V18.66a1.25,1.25,0,0,0-1.26-1.25H52.49a5,5,0,0,0-5,5v14L42.3,39a10.28,10.28,0,0,0-2.85-2.57A10,10,0,1,0,29.81,36a10.08,10.08,0,0,0-5.31,6.46l-5,15.72a18.82,18.82,0,0,0,.81,13.49,16.28,16.28,0,0,1-.26,14l-2.52,5a1.25,1.25,0,0,0,.56,1.68,1.22,1.22,0,0,0,.56.14H32.44a1.25,1.25,0,0,0,1.26-1.26,6.23,6.23,0,0,0-3.35-5.53l.6-1.2a19,19,0,0,0,1.68-11.79l-.93-5.11a1.21,1.21,0,0,1,1-1.41l.21,0a1.22,1.22,0,0,1,1.2,1l1.7,9.36a25.41,25.41,0,0,1,.41,4.61V91.34a1.26,1.26,0,0,0,1.26,1.26H51.24a1.25,1.25,0,0,0,1.25-1.26,6.06,6.06,0,0,0,0-.73,5.54,5.54,0,0,0-3.09-4.36,6.08,6.08,0,0,0-4.51-.4l.83-4.17a28.59,28.59,0,0,0,.55-5.54V64.92L44.77,48.14,53.46,44a4.66,4.66,0,0,0,2.77-4H68.78A1.25,1.25,0,0,0,70,38.71V32.45h2.5a5,5,0,1,0,0-10Zm-45.11,5A7.52,7.52,0,1,1,35,35,7.52,7.52,0,0,1,27.43,27.44ZM44.84,88.56a3.57,3.57,0,0,1,3.39-.07,3.16,3.16,0,0,1,1.52,1.6h-11V81.25a27.69,27.69,0,0,0-.46-5.06l-1.7-9.36a3.72,3.72,0,0,0-7.33,1.27v.06l.94,5.11A16.4,16.4,0,0,1,28.7,83.49l-1.21,2.43a1.26,1.26,0,0,0,.82,1.79A3.77,3.77,0,0,1,31,90.09H20.69l1.6-3.22a18.73,18.73,0,0,0,.31-16.21A16.23,16.23,0,0,1,21.9,59l5-15.79a7.7,7.7,0,0,1,8.87-5.58A7.4,7.4,0,0,1,40,40.08l-7.41,3.57a4.7,4.7,0,0,0-2.63,4.19,4.65,4.65,0,0,0,4.63,4.66,4.7,4.7,0,0,0,2-.46l5.77-2.75L43.72,65V76.14a26,26,0,0,1-.5,5l-1.33,6.67a1.25,1.25,0,0,0,1,1.48,1.27,1.27,0,0,0,.87-.14Zm7.6-46.85h0L35.51,49.78a2.15,2.15,0,0,1-2.86-1,2.21,2.21,0,0,1-.21-.92,2.18,2.18,0,0,1,1.22-1.93l17-8.22a2.19,2.19,0,0,1,3.07,2A2.21,2.21,0,0,1,52.44,41.71Zm20.1-11.77H68.78a1.25,1.25,0,0,0-1.25,1.25v6.27H55.69A4.69,4.69,0,0,0,50,35.28V22.42a2.5,2.5,0,0,1,2.5-2.5h15v3.76a1.25,1.25,0,0,0,1.25,1.25h3.76a2.51,2.51,0,1,1,0,5Z" transform="translate(-17.41 -17.4)"/><path class="cls-1" d="M67.9,50.36l-4.13,4.13v-7h-2.5V57L60,58.24,58.76,57V52.5H56.25v2l-4.12-4.13-1.77,1.77,8.77,8.77a1.25,1.25,0,0,0,1.77,0l8.77-8.77Z" transform="translate(-17.41 -17.4)"/><rect class="cls-1" x="38.85" y="30.08" width="2.51" height="2.51"/><rect class="cls-1" x="38.85" y="25.07" width="2.51" height="2.51"/><rect class="cls-1" x="43.86" y="25.07" width="2.51" height="2.51"/></svg>