<svg id="Layer_1" data-name="Layer 1" xmlns="http://www.w3.org/2000/svg" viewBox="0 0 90.03 90.04"><defs><style>.cls-1{fill:#4c4c4c;}</style></defs><title>Communications</title><path class="cls-1" d="M10,87.48c.72-.71.7-1.72,1.06-2.58,2.57-6.13,7.26-9.51,13.92-10.54-4.31-5.55-3-11.87-2.6-17.9.31-4.4,4.22-7.32,8.68-7.42,3.68-.08,7.37,0,11,0,1.84,0,2.59.78,2.57,2.61-.06,5.12,0,10.24,0,15.37,0,2.76-1.24,5.07-2.89,7.38a17.09,17.09,0,0,1,9.94,4.57,15.74,15.74,0,0,1,5,11.55c0,2.32,0,4.64,0,7a3,3,0,0,1-1,2.54c-14.53,0-29.07,0-43.61.06-1.91,0-2.21-.56-2.14-2.27C10.11,94.35,10,90.91,10,87.48Zm23.32,9c5.93,0,11.85-.08,17.77,0,1.87,0,2.4-.55,2.21-2.3-.14-1.35,0-2.73-.05-4.08a13,13,0,0,0-8.91-11.65,3,3,0,0,0-3.63.82c-1.71,1.91-3.65,3.6-5.39,5.47-1.32,1.41-2.45,1.51-3.81,0-1.86-2-3.85-3.85-5.74-5.8a2.37,2.37,0,0,0-2.33-.8c-4.34.74-9,5.4-9.63,9.69-.18,1.22.18,1.55,1.34,1.49,1.44-.08,2.88,0,4.32,0s3-.14,3,1.83-1.59,1.65-2.85,1.67-2.73,0-4.09,0c-1.21,0-2.1,0-2.13,1.69s.72,1.93,2.15,1.92C21.49,96.47,27.41,96.51,33.33,96.51Zm7.84-33.62a11,11,0,0,1-5.71,1c-2.79,0-5.59,0-8.39,0-.74,0-1.32,0-1.49,1a8.26,8.26,0,0,0,6.88,9.44,7.84,7.84,0,0,0,8.69-7.31C41.26,65.8,41.17,64.51,41.17,62.89Zm-9-2.47c1.44,0,2.88,0,4.32,0a5.17,5.17,0,0,0,4.68-7.3c-.26-.57-.7-.6-1.17-.59-3.12,0-6.25-.1-9.36.15-2.9.22-4.57,2.15-5,5-.26,1.89,0,3.12,2.41,2.79A29.2,29.2,0,0,1,32.14,60.42ZM29.9,77.94c3.44,4.34,4.35,4.31,6.7,0Z" transform="translate(-9.96 -10.01)"/><path class="cls-1" d="M100,60.05a4.2,4.2,0,0,1-2.61,1c-4.32-.07-8.65,0-13,0-1.33,0-2.58-.23-2.58-1.79s1.33-1.72,2.61-1.72c3.44,0,6.89,0,10.33,0,1.37,0,1.81-.43,1.78-1.79-.08-3,.16-6.1-1.09-9a12.86,12.86,0,0,0-4.68-5.66c-3.79-2.55-5.14-2.42-8.33.76-1.3,1.3-2.67,2.54-3.89,3.92-1.41,1.6-2.6,1.43-4-.06C72.79,43.75,70.81,42,69,40a2.46,2.46,0,0,0-2.77-.71,12.94,12.94,0,0,0-9.52,11.92c-.28,6.24-.28,6.24,5.89,6.24h6.25c1.1,0,1.9.46,1.91,1.67A1.65,1.65,0,0,1,69,61c-4.65,0-9.3,0-13.94,0a1.58,1.58,0,0,1-1.71-1.65c0-3.67-.49-7.38.32-11,1.57-7.1,6.61-11.56,14.6-12.94C63.81,30,65.42,23.71,65.5,17.76c.06-4,3.2-6.16,6.58-7.75H87a4.49,4.49,0,0,1,.94,3.1c-.07,3.45-.07,6.9,0,10.34.07,4.19.22,8.37-3.06,11.8,8,1.67,12.39,5.36,14.5,11.83.16.48-.11,1.2.63,1.42ZM76,24.89H70.13c-.65,0-1.16,0-1.34.92A8.31,8.31,0,0,0,74.4,35a7.48,7.48,0,0,0,7.53-1.81c2.53-2.3,2.54-5.35,2.45-8.42,0-.65-.31-.77-.92-.52C80.92,25.33,78.25,24.71,76,24.89Zm-.72-3.49h3.36c4.82,0,6.24-1.65,5.79-6.52-.09-1-.39-1.42-1.43-1.4-3,0-5.93-.09-8.89.06a5.46,5.46,0,0,0-5.21,4.8c-.46,2.73-.2,3.06,2.53,3.06ZM80,39H73.13C77.24,43.29,75.86,43.68,80,39Z" transform="translate(-9.96 -10.01)"/><path class="cls-1" d="M42.73,10c5.13,1.83,7.55,5.52,6.85,10.87a10.74,10.74,0,0,0,4.6,10.94,16.22,16.22,0,0,1,2.72,2.71c1.19,1.44.59,2.78-1.29,3a6.86,6.86,0,0,1-1.2,0c-3-.21-5.6-.21-7.51,2.94-1.27,2.09-3.95,2.6-6.45,2.6-7.05,0-14.09,0-21.14,0-4.69,0-7.48-2.62-9.3-6.63V16.26A14.84,14.84,0,0,1,16.26,10Zm8.2,24.07.69-.55c-6.44-2.85-5.65-8.28-5.51-13.47,0-.24,0-.49,0-.73,0-3.7-2.07-5.79-5.81-5.82q-10.44-.07-20.89,0c-3.75,0-5.84,2.08-5.91,5.8q-.12,7.2,0,14.41c.06,3.76,2.1,5.72,5.87,5.74,7,0,13.94,0,20.9,0,2.73,0,4.67-1,5.58-3.62a2.35,2.35,0,0,1,2.7-1.8C49.34,34.13,50.14,34.08,50.93,34.08Z" transform="translate(-9.96 -10.01)"/><path class="cls-1" d="M66.79,100c-5-2.26-7.14-6.2-6.39-11.57a9.5,9.5,0,0,0-4-9.72,20.42,20.42,0,0,1-3.23-3.21c-1.21-1.43-.62-2.79,1.24-3a8.58,8.58,0,0,1,1.68,0c2.75.22,5.12.15,6.87-2.76,1.32-2.18,4-2.77,6.61-2.78q10.58,0,21.15,0c4.88,0,7.78,2.67,9.32,7.1V93.74A12.61,12.61,0,0,1,93.25,100ZM59.06,75.92l-.59.56c5.84,2.84,5.86,7.85,5.42,13,0,.32,0,.64,0,1,0,4,2,6,6.08,6q10.22.06,20.42,0c4,0,6.07-2,6.12-6.07q.08-7,0-13.93c-.05-4-2-5.93-5.92-5.95-7,0-13.93,0-20.9,0-2.73,0-4.65,1.07-5.56,3.66a2.35,2.35,0,0,1-2.72,1.76C60.63,75.87,59.84,75.92,59.06,75.92Z" transform="translate(-9.96 -10.01)"/><path class="cls-1" d="M76.65,57.52c1,.1,1.68.61,1.66,1.67a1.6,1.6,0,0,1-1.85,1.72,1.7,1.7,0,0,1,.19-3.39Z" transform="translate(-9.96 -10.01)"/><path class="cls-1" d="M27.8,92.88a1.58,1.58,0,0,1-1.65-1.68,1.59,1.59,0,0,1,1.63-1.72,1.61,1.61,0,0,1,1.77,1.81A1.58,1.58,0,0,1,27.8,92.88Z" transform="translate(-9.96 -10.01)"/><path class="cls-1" d="M37.86,22.4A6.41,6.41,0,0,1,36,26.46c-1,1-2.68,1.36-3,3.13-.11.55-1,.75-1.68.51a1.67,1.67,0,0,1-1.19-1.38c-.25-1.84.13-3.39,2.08-4.07,1.49-.51,2.3-1.43,2-3a2.22,2.22,0,0,0-2.3-2A2.44,2.44,0,0,0,29.19,22c-.16,1.17-.81,2-2.09,1.74s-1.48-1.24-1.37-2.41A6.08,6.08,0,0,1,32,16,6.27,6.27,0,0,1,37.86,22.4Z" transform="translate(-9.96 -10.01)"/><path class="cls-1" d="M31.74,36.92a1.68,1.68,0,0,1-1.68-1.69,1.54,1.54,0,0,1,1.58-1.74,1.6,1.6,0,0,1,1.83,1.74A1.73,1.73,0,0,1,31.74,36.92Z" transform="translate(-9.96 -10.01)"/><path class="cls-1" d="M88.51,80c.06,1.32-6.47,7.77-7.76,7.66-1-.09-4.85-3.91-4.92-4.94a1.61,1.61,0,0,1,.81-1.62,1.5,1.5,0,0,1,2.15.35c1.75,2.55,3.08,1.4,4.51-.31a14.87,14.87,0,0,1,2.42-2.34A1.65,1.65,0,0,1,88.51,80Z" transform="translate(-9.96 -10.01)"/></svg>