<svg id="Layer_1" data-name="Layer 1" xmlns="http://www.w3.org/2000/svg" viewBox="0 0 72.81 72.82"><defs><style>.cls-1{fill:#4c4c4c;}</style></defs><title>ElectronicsManufacturingServices</title><path class="cls-1" d="M87.62,74.43a2.45,2.45,0,0,0-2.11-1.23l-.08,0-.09,0H82.91V47.55a9.59,9.59,0,0,0,1.22-4.69,9.42,9.42,0,0,0-.06-1.06l5.38-5.38a6.08,6.08,0,0,0,0-8.59,6,6,0,0,0-.47-.38V21a2.43,2.43,0,0,0-2.43-2.43H68.35A2.43,2.43,0,0,0,65.92,21H57.38a6,6,0,0,0-10,6.7L45.5,32.2a2.31,2.31,0,0,0,0,1.89l.66,1.59a2.2,2.2,0,0,0,.32.53L45.4,38.77a1.21,1.21,0,1,0,2.24.93l1.06-2.55a3.1,3.1,0,0,0,.6-.15l1.58-.65A2.44,2.44,0,0,0,52.2,35l1.88-4.52a5.65,5.65,0,0,0,.8-.24,6,6,0,0,0,2.5-2h8.54a2.43,2.43,0,0,0,2.43,2.43H78l-2.49,2.49a9.7,9.7,0,0,0-9.56,14.33V73.2H64.54a2.47,2.47,0,0,0-2.11,1.22l-1.17,2.06L59.86,73v-24a2.45,2.45,0,0,0-2.43-2.43H25.87a2.43,2.43,0,0,0-2.42,2.43V73L18.68,84.89a1.42,1.42,0,0,0-.08.4s0,0,0,0V89A2.43,2.43,0,0,0,21,91.41H62.28A2.43,2.43,0,0,0,64.71,89V85.34s0,0,0,0a1.14,1.14,0,0,0-.08-.4l-.3-.76H89a2.43,2.43,0,0,0,2.1-3.63ZM50,34.1l-1.58.66h0l-.66-1.58,1.44-3.48a6.11,6.11,0,0,0,2.25.93ZM51.16,28a3.65,3.65,0,0,1-2.24-3.37A3.64,3.64,0,1,1,51.16,28Zm7.34-2.16a5.81,5.81,0,0,0,0-2.42h7.42v2.42Zm9.85,2.43V21h18.2v5.22a6,6,0,0,0-5.68,1.59l-.47.47Zm13.41,2.07h0l.82-.82a3.65,3.65,0,0,1,5.16,5.15l-4.38,4.38a9.79,9.79,0,0,0-5.16-5.16Zm-7.34,5.21a7.29,7.29,0,1,1-7.28,7.28A7.28,7.28,0,0,1,74.42,35.58ZM68.35,58.64h4.86v8.5H68.35Zm0,10.92h4.86a2.42,2.42,0,0,0,2.42-2.42v-8.5a2.42,2.42,0,0,0-2.42-2.43H68.35V50.43a9.66,9.66,0,0,0,12.14,0V73.2H68.35ZM25.87,48.93H57.43V72H25.87Zm-.39,25.49H57.82l3.88,9.71H48.64l-.85-3.08a2.44,2.44,0,0,0-2.34-1.78h-7.6a2.43,2.43,0,0,0-2.33,1.78l-.86,3.08H21.6Zm20,7.28.67,2.43H37.18l.67-2.43ZM21,89V86.55H62.28V89Zm41.39-9.62,2.13-3.73h20.8l.09,0,.08,0L89,81.7H63.35Z" transform="translate(-18.59 -18.59)"/><path class="cls-1" d="M39.58,50.5,28.66,61.42a1.22,1.22,0,0,0,.53,2,1.2,1.2,0,0,0,1.18-.33L41.3,52.22a1.22,1.22,0,0,0-1.72-1.72Z" transform="translate(-18.59 -18.59)"/><path class="cls-1" d="M29.52,57.43a1.18,1.18,0,0,0,.85-.36L34,53.43a1.21,1.21,0,0,0-1.71-1.72l-3.64,3.65a1.21,1.21,0,0,0,.86,2.07Z" transform="translate(-18.59 -18.59)"/><path class="cls-1" d="M74.42,46.5a3.64,3.64,0,1,0-3.64-3.64A3.64,3.64,0,0,0,74.42,46.5Zm0-4.85a1.22,1.22,0,1,1-1.21,1.21A1.21,1.21,0,0,1,74.42,41.65Z" transform="translate(-18.59 -18.59)"/><path class="cls-1" d="M86.55,31.94a1.21,1.21,0,1,1-1.21-1.21A1.22,1.22,0,0,1,86.55,31.94Z" transform="translate(-18.59 -18.59)"/></svg>