<svg id="Layer_1" data-name="Layer 1" xmlns="http://www.w3.org/2000/svg" viewBox="0 0 62.94 68.45"><defs><style>.cls-1{fill:#4c4c4c;}</style></defs><title>IndustrialElectronics</title><path class="cls-1" d="M44,89.23c-.34-.59-1-.52-1.53-.74A10.27,10.27,0,0,1,46.3,68.71c2,0,3.94,0,5.9,0,.66,0,1.66.44,1.94-.35a2.79,2.79,0,0,0-.42-2.76,7.9,7.9,0,0,1,2.74-12,4.91,4.91,0,0,0,2.33-2.21C62,45.83,65.16,40.31,68.51,34.5H66c-8.71,0-17.43,0-26.14,0-1.26,0-1.75,0-1.69,1.71.08,2.36,2,4.25,1.33,6.68a.49.49,0,0,0,.48.68c2-.07,1.73,1.31,1.72,2.56,0,1.44,0,2.88,0,4.33,0,1.14.15,2.29-1.58,2.29-.94,0-.71.87-.61,1.35.59,3-1,4.93-3,6.71-.63.55-1,.61-1.56,0s-.84-1.06,0-1.67c1.69-1.3,2.71-2.87,2.37-5.17C37.13,53,37,52.66,36,52.68c-2.29.06-4.58,0-6.88,0-.74,0-1,.24-1,1-.25,2.18.25,4,2.15,5.26,1.26.84.49,1.45-.21,2.09-.26.25-.56.43-.82.1-1.38-1.69-3.93-2.66-3.4-5.53.36-1.88-.2-3.15-2.29-3.37V44c.66-.56,2.16,0,2.21-.94a18.88,18.88,0,0,1,1.1-4.88c.51-1.59.74-3.61-.91-5.23a5.6,5.6,0,0,1-1.25-4.23c.12-4.22,2.59-6.58,6.32-7.93h3.15a9.31,9.31,0,0,1,2.41,1.1c1.36,1.19,2.88,1.23,4.54,1.23,8.16-.05,16.32-.12,24.48,0,3.92.07,7.7,0,11.06-2.35h3.14c2.18.78,4.17,1.83,5.31,4,.54,1,.93,2.07,1.38,3.12v2.36c-.3,0-.41.23-.5.5a7.87,7.87,0,0,1-4.73,5.4,3,3,0,0,0-1.4,1.57Q74.11,47.61,68.4,57.54c-.26.45-.69,1-.61,1.4a8.75,8.75,0,0,1-1.86,7.15c-1.07,1.47-.27,2.61,1.59,2.62,2.16,0,4.32,0,6.48,0a10.25,10.25,0,0,1,9.59,7.63A10.36,10.36,0,0,1,79,87.73c-1.11.7-2.39.91-3.53,1.5Zm15.94-2.32c4.52,0,9,0,13.57,0a7.95,7.95,0,1,0,0-15.89Q60,71,46.39,71a7.94,7.94,0,1,0,.16,15.88C51,86.94,55.46,86.91,59.92,86.91ZM40,32.17H69.13a1.21,1.21,0,0,0,1.28-1.57,10.88,10.88,0,0,1,.4-5.06H40A9.35,9.35,0,0,1,40,32.17ZM66.57,56.12c3.59-6.24,7.05-12.23,10.5-18.23.26-.46.94-1.08-.19-1.27a9.43,9.43,0,0,1-5.18-3.07l-11,19.15A9,9,0,0,1,66.57,56.12Zm-.92,4.64A5.69,5.69,0,0,0,59.93,55,5.69,5.69,0,1,0,60,66.39,5.68,5.68,0,0,0,65.65,60.76Zm-33-37.67A5.61,5.61,0,0,0,27,28.9a5.71,5.71,0,0,0,5.69,5.58,5.82,5.82,0,0,0,5.67-5.66A5.74,5.74,0,0,0,32.61,23.09ZM83.87,28.8a5.66,5.66,0,1,0-11.32-.08,5.66,5.66,0,1,0,11.32.08ZM32.71,45.91c-1.9,0-3.8.05-5.7,0-1,0-1.27.31-1.18,1.23a7.4,7.4,0,0,1,0,1.76c-.16,1.18.22,1.59,1.47,1.55,3-.1,6,0,9,0,3.26,0,3.21,0,3.17-3.18,0-1-.25-1.37-1.31-1.33C36.38,46,34.54,45.91,32.71,45.91Zm0-4.62c-1.24,0-2.47,0-3.71,0-1,0-.91.61-.94,1.28s.16,1.06,1,1c2.33,0,4.67,0,7,0,.78,0,1.17-.15,1.17-1.07s-.21-1.32-1.19-1.26S33.86,41.29,32.76,41.29Zm3.11-5.08c-.95.18-1.9.42-2.86.53a6.33,6.33,0,0,1-2.88-.43c-.42-.14-.69-.21-.89.33-.51,1.39.1,2.33,1.6,2.35h2.94C36.33,39,36.33,39,35.87,36.21Z" transform="translate(-23.53 -20.77)"/><path class="cls-1" d="M32.73,79c-1.1.18-1.34-.28-1.22-1.21a15.65,15.65,0,0,1,3-7.73c.36-.46.69-1.08,1.32-.31.39.47,1.39.68.58,1.65A11.68,11.68,0,0,0,33.84,78C33.77,78.85,33.49,79.19,32.73,79Z" transform="translate(-23.53 -20.77)"/><path class="cls-1" d="M33.2,81.14c1.28,0,1.06,1,1.12,1.53.13,1-1,1-1.52,1-1,.08-.82-1-.94-1.59C31.58,80.8,32.92,81.63,33.2,81.14Z" transform="translate(-23.53 -20.77)"/><path class="cls-1" d="M80.22,46.18c-.22.42-.36.71-.52,1-1.83,3.17-3.67,6.34-5.48,9.52-.42.73-.68,1.27-1.75.64s-.65-1.14-.24-1.84C74.1,52.27,76,49,77.82,45.81c.25-.43.46-1.05,1.15-.62C79.43,45.48,80.06,45.62,80.22,46.18Z" transform="translate(-23.53 -20.77)"/><path class="cls-1" d="M73.63,65.23c-.14-.85.18-1.19,1.07-1.1a15.35,15.35,0,0,1,9.41,4.32c.43.41.72.81.07,1.24s-.86,1.26-1.73.38a12,12,0,0,0-7.83-3.59C73.7,66.41,73.52,66,73.63,65.23Z" transform="translate(-23.53 -20.77)"/><path class="cls-1" d="M69.12,65.06c-.17-1.17.68-.93,1.36-1,1-.06.9.58,1,1.26.1,1.11-.58,1-1.33,1.09C69,66.53,69.09,65.79,69.12,65.06Z" transform="translate(-23.53 -20.77)"/><path class="cls-1" d="M82.59,42.23c-.56.56-.56,1.66-1.36,1.58-.53-.05-1.57-.36-1.47-1.24.06-.56.4-1.46,1.07-1.45A2.52,2.52,0,0,1,82.59,42.23Z" transform="translate(-23.53 -20.77)"/><path class="cls-1" d="M73.45,84.62A5.66,5.66,0,0,1,68,78.7a5.7,5.7,0,0,1,11.39.41A5.68,5.68,0,0,1,73.45,84.62Zm3.6-5.6a3.39,3.39,0,0,0-6.77-.23,3.45,3.45,0,0,0,3.35,3.6A3.5,3.5,0,0,0,77.05,79Z" transform="translate(-23.53 -20.77)"/><path class="cls-1" d="M59.9,84.62a5.71,5.71,0,0,1-5.63-5.79,5.84,5.84,0,0,1,5.89-5.6A5.76,5.76,0,0,1,65.66,79,5.63,5.63,0,0,1,59.9,84.62Zm.07-9.1a3.44,3.44,0,0,0-.08,6.87A3.44,3.44,0,0,0,60,75.52Z" transform="translate(-23.53 -20.77)"/><path class="cls-1" d="M46.21,84.62A5.71,5.71,0,0,1,40.6,79a5.83,5.83,0,0,1,5.82-5.72A5.72,5.72,0,0,1,52,79.15,5.61,5.61,0,0,1,46.21,84.62ZM49.74,79a3.43,3.43,0,1,0-3.42,3.4A3.56,3.56,0,0,0,49.74,79Z" transform="translate(-23.53 -20.77)"/><path class="cls-1" d="M63.37,60.75A3.36,3.36,0,0,1,60,64.1a3.4,3.4,0,1,1,.08-6.79A3.35,3.35,0,0,1,63.37,60.75Zm-3.17,1a1.07,1.07,0,0,0,.87-1.2,1.09,1.09,0,0,0-2.17.16C58.93,61.45,59.39,61.76,60.2,61.78Z" transform="translate(-23.53 -20.77)"/><path class="cls-1" d="M36.07,28.7a3.42,3.42,0,1,1-6.84,0,3.39,3.39,0,0,1,3.4-3.35A3.42,3.42,0,0,1,36.07,28.7Zm-2.29,0a1.16,1.16,0,0,0-1.12-1.05,1.06,1.06,0,0,0-1.13,1.08,1,1,0,0,0,1.08,1.11C33.28,29.85,33.67,29.45,33.78,28.7Z" transform="translate(-23.53 -20.77)"/><path class="cls-1" d="M81.66,28.68a3.45,3.45,0,0,1-6.89.16,3.45,3.45,0,0,1,6.89-.16Zm-3.39,1.19c.65-.12,1.09-.49,1-1.17a1,1,0,0,0-1.16-1.05,1.07,1.07,0,0,0-1.06,1.16A1.1,1.1,0,0,0,78.27,29.87Z" transform="translate(-23.53 -20.77)"/><path class="cls-1" d="M74.74,78.8c.16,1-.12,1.39-1.12,1.36-.82,0-1.12-.28-1.13-1.13s.2-1.3,1.18-1.24C74.44,77.84,75,77.91,74.74,78.8Z" transform="translate(-23.53 -20.77)"/><path class="cls-1" d="M58.88,78.78c-.18-1,.48-.93,1.18-1,1.09-.08,1.09.54,1.12,1.34,0,1-.55,1-1.25,1C58.79,80.25,58.82,79.56,58.88,78.78Z" transform="translate(-23.53 -20.77)"/><path class="cls-1" d="M47.46,78.92c.2,1-.23,1.22-1.15,1.24s-1.18-.36-1.17-1.25.21-1.15,1.09-1.12S47.69,77.84,47.46,78.92Z" transform="translate(-23.53 -20.77)"/></svg>