<svg id="Layer_1" data-name="Layer 1" xmlns="http://www.w3.org/2000/svg" viewBox="0 0 76.77 64.62"><defs><style>.cls-1{fill:#4c4c4c;}</style></defs><title>MedicalDevices</title><path class="cls-1" d="M88.52,71.12a9,9,0,0,0,3.08-6.8V31.75a9.06,9.06,0,0,0-9.06-9.06H27.46a9.06,9.06,0,0,0-9.06,9.06V64.32a9,9,0,0,0,3.08,6.8,5,5,0,0,0-4.86,5v6a5.14,5.14,0,0,0,5.09,5.18H88.29a5.14,5.14,0,0,0,5.09-5.18v-6A5,5,0,0,0,88.52,71.12ZM27.46,25H82.54a6.8,6.8,0,0,1,6.8,6.79V46.27H84a1.14,1.14,0,0,0-1.06.73l-.49,1.3-1.17-3.77a1.13,1.13,0,0,0-1.09-.79h0a1.12,1.12,0,0,0-1.08.79l-1.6,5.3L74.43,34.71a1.14,1.14,0,0,0-1.34-.88,1.12,1.12,0,0,0-.9,1L69.73,54.51,67,39.83a1.13,1.13,0,0,0-2.22-.06l-2.15,8.92-.91-1.88a1.14,1.14,0,0,0-1-.64H51.2l-1.64-4.59a1.13,1.13,0,0,0-1.06-.75h0a1.11,1.11,0,0,0-1.06.78l-1,3.17-1.86-6.13a1.13,1.13,0,0,0-2.19.1L39.76,51.53l-2.5-20A1.14,1.14,0,0,0,35,31.51L31.86,48.32l-1.65-6.65a1.13,1.13,0,0,0-1.37-.83,1.15,1.15,0,0,0-.77.65l-2,4.6H20.66V31.75A6.8,6.8,0,0,1,27.46,25Zm-6.8,39.36v-16l6.16.09h0a1.17,1.17,0,0,0,1-.72l1-2.23,2.09,8.44a1.13,1.13,0,0,0,2.21-.07l2.79-14.8,2.46,19.62a1.12,1.12,0,0,0,1.26,1,1.14,1.14,0,0,0,1-.9l3.07-15.15,1.6,5.31a1.15,1.15,0,0,0,1.08.82h0a1.16,1.16,0,0,0,1.08-.8l1.11-3.45.78,2.2a1.13,1.13,0,0,0,1.07.75h9.54l2,4.08A1.14,1.14,0,0,0,64,52.29l1.66-6.87L68.84,62A1.14,1.14,0,0,0,70,63h0a1.14,1.14,0,0,0,1.09-1l2.5-20,2.59,12.75a1.13,1.13,0,0,0,2.2.1l1.82-6,1,3.38a1.13,1.13,0,0,0,1.41.75,1.1,1.1,0,0,0,.73-.68l1.39-3.65h4.57V64.32a6.82,6.82,0,0,1-6.8,6.8H27.46A6.82,6.82,0,0,1,20.66,64.32ZM91.12,82.13A2.91,2.91,0,0,1,88.29,85H21.71a2.91,2.91,0,0,1-2.83-2.91v-6a2.77,2.77,0,0,1,2.83-2.75H26a1.26,1.26,0,0,0,.38-.06,9.46,9.46,0,0,0,1.07.06H82.54a7.46,7.46,0,0,0,.95,0,1,1,0,0,0,.34,0h4.46a2.76,2.76,0,0,1,2.83,2.75Z" transform="translate(-16.62 -22.69)"/><path class="cls-1" d="M26.25,75.07a4,4,0,1,0,4,4A4,4,0,0,0,26.25,75.07Zm0,5.67A1.7,1.7,0,1,1,28,79h0A1.7,1.7,0,0,1,26.25,80.74Z" transform="translate(-16.62 -22.69)"/><path class="cls-1" d="M76.86,76.14H70.55a1.13,1.13,0,0,0-1.14,1.13h0v4.86a1.14,1.14,0,0,0,1.14,1.13h6.31A1.14,1.14,0,0,0,78,82.13V77.27a1.13,1.13,0,0,0-1.14-1.13ZM75.73,81h-4V78.4h4Z" transform="translate(-16.62 -22.69)"/><path class="cls-1" d="M86.42,76.14h-6a1.13,1.13,0,0,0-1.14,1.13h0v4.86a1.14,1.14,0,0,0,1.14,1.13h6a1.13,1.13,0,0,0,1.13-1.13V77.27a1.12,1.12,0,0,0-1.13-1.13ZM85.29,81H81.56V78.4h3.73Z" transform="translate(-16.62 -22.69)"/><path class="cls-1" d="M59.05,74.68H39.61a3.56,3.56,0,0,0-3.56,3.56v2.27a3.56,3.56,0,0,0,3.56,3.56H59.05a3.56,3.56,0,0,0,3.56-3.56V78.24A3.56,3.56,0,0,0,59.05,74.68Zm1.29,5.83a1.29,1.29,0,0,1-1.29,1.29H39.61a1.29,1.29,0,0,1-1.29-1.29V78.24A1.29,1.29,0,0,1,39.61,77H59.05a1.29,1.29,0,0,1,1.29,1.29Z" transform="translate(-16.62 -22.69)"/></svg>