<svg id="Layer_1" data-name="Layer 1" xmlns="http://www.w3.org/2000/svg" viewBox="0 0 72.02 57.19"><defs><style>.cls-1{fill:#fff;}</style></defs><title>K1</title><path class="cls-1" d="M34.87,78.5a5.28,5.28,0,1,1,0-10.55H55.06a9.5,9.5,0,0,0,0-19H40.82v4.22H55.06a5.28,5.28,0,0,1,0,10.56H34.87a9.5,9.5,0,1,0,0,19H69.18V78.5Z" transform="translate(-18.99 -26.4)"/><path class="cls-1" d="M38.54,29.75A11.46,11.46,0,0,0,22.34,46l8.1,8.1,8.1-8.1A11.48,11.48,0,0,0,38.54,29.75ZM35.55,43l-5.11,5.11L25.32,43a7.23,7.23,0,1,1,10.23,0Z" transform="translate(-18.99 -26.4)"/><path class="cls-1" d="M30.38,32.76a5,5,0,1,0,5,5A5,5,0,0,0,30.38,32.76Zm0,5.81a.8.8,0,1,1,.79-.79A.79.79,0,0,1,30.38,38.57Z" transform="translate(-18.99 -26.4)"/><path class="cls-1" d="M87.66,59.3a11.46,11.46,0,0,0-16.2,16.2l8.1,8.1,8.1-8.1A11.46,11.46,0,0,0,87.66,59.3Zm-3,13.21-5.12,5.12-5.11-5.12a7.23,7.23,0,1,1,10.23,0Z" transform="translate(-18.99 -26.4)"/><path class="cls-1" d="M79.51,62.31a5,5,0,1,0,5,5A5,5,0,0,0,79.51,62.31Zm0,5.81a.8.8,0,1,1,.79-.8A.79.79,0,0,1,79.51,68.12Z" transform="translate(-18.99 -26.4)"/></svg>