<svg id="Layer_1" data-name="Layer 1" xmlns="http://www.w3.org/2000/svg" viewBox="0 0 81.52 81.52"><defs><style>.cls-1{fill:#fff;}</style></defs><title>K2</title><path class="cls-1" d="M29,45.62l.7.4v4.46l-3.19.79,7.41,4.33-.06,2.6-.11.4,4.38-1v-1a7,7,0,0,1,2-4.9l-4.83-1.2V46l.7-.41a7.05,7.05,0,0,0,3.52-6.08V37.08a7.26,7.26,0,0,0-6.81-7.37,7,7,0,0,0-7.24,7v2.81A7,7,0,0,0,29,45.62Z" transform="translate(-14.24 -14.24)"/><path class="cls-1" d="M39.47,29.92a18.26,18.26,0,0,1,31-.08c.06-.06.11-.12.17-.17a9.85,9.85,0,0,1,3-2L75.2,24l-4.49-4.48-3.95,2.57L66,21.58a20.87,20.87,0,0,0-6.08-2.52l-.87-.21-1-4.61H51.92l-1,4.61-.87.21A20.87,20.87,0,0,0,44,21.58l-.76.47-4-2.58L34.8,24l1.57,3.76A10,10,0,0,1,39.47,29.92Z" transform="translate(-14.24 -14.24)"/><path class="cls-1" d="M14.24,46.57V72.26l6,2,5.1-20.4Z" transform="translate(-14.24 -14.24)"/><path class="cls-1" d="M71.87,47.6a9.86,9.86,0,0,1-4.22-8.06V36.73a9.77,9.77,0,0,1,1-4.38,15.45,15.45,0,0,0-27.42.12,10.36,10.36,0,0,1,1.09,4.61v2.46a9.88,9.88,0,0,1-4.22,8.07v.67l5.63,1.41,5.62-1.41V47.6a9.86,9.86,0,0,1-4.22-8.06V36.73A9.85,9.85,0,0,1,55.3,26.89a10.1,10.1,0,0,1,9.54,10.19v2.46a9.88,9.88,0,0,1-4.22,8.07v.67l5.62,1.41,5.63-1.41Z" transform="translate(-14.24 -14.24)"/><path class="cls-1" d="M31.11,57.21,27.9,55.34,23,75.16l2.76.92h.12l5.28-18.47Z" transform="translate(-14.24 -14.24)"/><path class="cls-1" d="M44.14,52.49A4.21,4.21,0,0,0,41,56.58V57l.8-.17a17.34,17.34,0,0,1,9,.41l6.36,2a8.64,8.64,0,0,1,2.08.3L67.85,62h.86l.34-.19V56.58a4.21,4.21,0,0,0-3.19-4.09l-8-2V46l.7-.41A7.05,7.05,0,0,0,62,39.54V37.08a7.26,7.26,0,0,0-6.81-7.37,7,7,0,0,0-7.25,7v2.81a7.05,7.05,0,0,0,3.52,6.08l.7.4v4.46Z" transform="translate(-14.24 -14.24)"/><path class="cls-1" d="M70.46,36.73v2.81A7.05,7.05,0,0,0,74,45.62l.7.4v4.46l-4.83,1.2a7,7,0,0,1,2,4.9v3.78l15.45-8.13-7-1.75V46l.71-.41a7,7,0,0,0,3.51-6.08V37.08a7.26,7.26,0,0,0-6.81-7.37,7,7,0,0,0-7.24,7Z" transform="translate(-14.24 -14.24)"/><path class="cls-1" d="M58.08,69.79a2.9,2.9,0,0,0-3.37-.33L49.48,72.6a4.71,4.71,0,0,1-7.13-4v-.28A4.7,4.7,0,0,1,45,64.07l7-3.51L49.9,59.9a14.51,14.51,0,0,0-7.54-.34l-9.49,2.11L29.09,74.92l4.32,2.59A3,3,0,0,1,33.8,77l2.47-2.47a4.37,4.37,0,0,1,7.47,2.94A4.38,4.38,0,0,1,48,81.72a4.37,4.37,0,0,1,4.21,4.22A4.35,4.35,0,0,1,56,88.39L59.08,91a2.35,2.35,0,0,0,1.48.53A1.46,1.46,0,0,0,61.5,89l-7.4-6.17,1.8-2.16L63.53,87a1.5,1.5,0,0,0,.94.35h.31a1.48,1.48,0,0,0,.94-2.6l-7.4-6.16,1.8-2.16,7.62,6.35a1.53,1.53,0,0,0,1,.35H69a1.52,1.52,0,0,0,1-2.64Z" transform="translate(-14.24 -14.24)"/><path class="cls-1" d="M69.4,64.84l-2.14-.06-8.83-2.52a6.15,6.15,0,0,0-4.38.41l-7.84,3.92a1.87,1.87,0,0,0-1.05,1.69v.28a1.9,1.9,0,0,0,1.9,1.9,1.84,1.84,0,0,0,1-.27l5.24-3.14a5.64,5.64,0,0,1,6.7.65L71.84,78.38l.24.24L95.76,66.78V51Z" transform="translate(-14.24 -14.24)"/><path class="cls-1" d="M56,92.1a4.47,4.47,0,0,1-.89,1.31l-1,1,1,.93a1.42,1.42,0,0,0,1,.37h.27a1.47,1.47,0,0,0,1.46-1.47,1.43,1.43,0,0,0-.53-1.12Z" transform="translate(-14.24 -14.24)"/><path class="cls-1" d="M52,88.73a1.62,1.62,0,0,0-1.12.46l-2.47,2.47A1.62,1.62,0,0,0,48,92.78a1.57,1.57,0,0,0,1.58,1.57,1.55,1.55,0,0,0,1.11-.46l2.47-2.47a1.55,1.55,0,0,0,.46-1.11A1.57,1.57,0,0,0,52,88.73Z" transform="translate(-14.24 -14.24)"/><path class="cls-1" d="M45.16,81.87a1.58,1.58,0,0,0-1.57-1.57,1.62,1.62,0,0,0-1.12.46L40,83.23a1.58,1.58,0,0,0,2.23,2.23L44.7,83A1.62,1.62,0,0,0,45.16,81.87Z" transform="translate(-14.24 -14.24)"/><path class="cls-1" d="M49.38,86.09a1.58,1.58,0,0,0-1.58-1.58,1.56,1.56,0,0,0-1.11.47l-2.47,2.47a1.55,1.55,0,0,0-.46,1.11,1.57,1.57,0,0,0,1.57,1.58,1.62,1.62,0,0,0,1.12-.46l2.47-2.48A1.59,1.59,0,0,0,49.38,86.09Z" transform="translate(-14.24 -14.24)"/><path class="cls-1" d="M41,77.66a1.58,1.58,0,0,0-2.69-1.12L35.78,79a1.62,1.62,0,0,0-.46,1.12A1.57,1.57,0,0,0,36.9,81.7,1.55,1.55,0,0,0,38,81.24l2.47-2.47A1.56,1.56,0,0,0,41,77.66Z" transform="translate(-14.24 -14.24)"/></svg>