<svg id="Layer_1" data-name="Layer 1" xmlns="http://www.w3.org/2000/svg" viewBox="0 0 68.86 71.14"><defs><style>.cls-1{fill:#fff;}</style></defs><title>K3</title><path class="cls-1" d="M62.37,75.75l6.05-.35L89.43,57,84.61,51.5l-21,18.41Z" transform="translate(-20.57 -19.43)"/><path class="cls-1" d="M64,34.77h7.69L58.73,21.88v7.67A5.24,5.24,0,0,0,64,34.77Z" transform="translate(-20.57 -19.43)"/><path class="cls-1" d="M69.22,78.85l-8.94.5h-.11a1.74,1.74,0,0,1-1.32-.61,1.79,1.79,0,0,1-.38-1.5l1.83-8.62a1.79,1.79,0,0,1,.55-1l13.2-11.55V38.25H63.93a8.69,8.69,0,0,1-8.69-8.7V19.43H25.79a5.24,5.24,0,0,0-5.22,5.22v60.7a5.24,5.24,0,0,0,5.22,5.22H68.85a5.24,5.24,0,0,0,5.22-5.22V75.09l-3.81,3.32A1.83,1.83,0,0,1,69.22,78.85ZM31.89,42.58H48.24a1.74,1.74,0,0,1,0,3.48H31.89a1.74,1.74,0,0,1,0-3.48Zm0,11.45h32.7a1.74,1.74,0,1,1,0,3.47H31.89a1.74,1.74,0,0,1,0-3.47ZM54.78,80.39H31.89a1.74,1.74,0,0,1,0-3.48H54.78a1.74,1.74,0,0,1,0,3.48Zm0-11.44H31.89a1.74,1.74,0,0,1,0-3.48H54.78a1.74,1.74,0,1,1,0,3.48Z" transform="translate(-20.57 -19.43)"/></svg>