<svg id="Layer_1" data-name="Layer 1" xmlns="http://www.w3.org/2000/svg" viewBox="0 0 73.6 75.76"><defs><style>.cls-1{fill:#fff;}</style></defs><title>K4</title><path class="cls-1" d="M73.71,40.29H36.29a2.17,2.17,0,0,0-2.17,2.17v7.38A2.16,2.16,0,0,0,36.29,52H73.71a2.16,2.16,0,0,0,2.17-2.16V42.46A2.17,2.17,0,0,0,73.71,40.29ZM38,45.43a1.34,1.34,0,1,1,1.34-1.34A1.34,1.34,0,0,1,38,45.43Zm32.14,3.86H60.72V46.15h9.45v3.14Z" transform="translate(-18.2 -17.12)"/><path class="cls-1" d="M73.71,53.19H36.29a2.17,2.17,0,0,0-2.17,2.17v7.38a2.17,2.17,0,0,0,2.17,2.17H73.71a2.17,2.17,0,0,0,2.17-2.17V55.36A2.17,2.17,0,0,0,73.71,53.19ZM38,58.34A1.34,1.34,0,1,1,39.37,57,1.34,1.34,0,0,1,38,58.34Zm32.14,3.85H60.72V59.05h9.45v3.14Z" transform="translate(-18.2 -17.12)"/><path class="cls-1" d="M73.71,66.1H36.29a2.17,2.17,0,0,0-2.17,2.17v7.37a2.17,2.17,0,0,0,2.17,2.17H73.71a2.17,2.17,0,0,0,2.17-2.17V68.27A2.17,2.17,0,0,0,73.71,66.1ZM38,71.24a1.34,1.34,0,1,1,1.34-1.34A1.34,1.34,0,0,1,38,71.24ZM70.17,75.1H60.72V72h9.45V75.1Z" transform="translate(-18.2 -17.12)"/><polygon class="cls-1" points="43.27 67.75 39.28 67.75 39.28 61.95 34.33 61.95 34.33 67.75 30.34 67.75 30.34 69.28 16.38 69.28 16.38 74.23 30.34 74.23 30.34 75.76 43.27 75.76 43.27 74.23 57.22 74.23 57.22 69.28 43.27 69.28 43.27 67.75"/><path class="cls-1" d="M77.09,28.39a1.86,1.86,0,0,1-1.35-.75,16.18,16.18,0,0,0-12.93-6.55q-.48,0-1,0a1.9,1.9,0,0,1-1.24-.37,18,18,0,0,0-27.15,6.69,1.88,1.88,0,0,1-1.43,1A16.08,16.08,0,0,0,31,60.14V55.36a5.26,5.26,0,0,1,.29-1.69,9.74,9.74,0,0,1,3-19c.27,0,.54,0,.8,0a3.17,3.17,0,0,0,3.33-2.38A11.7,11.7,0,0,1,58,26.8a3.18,3.18,0,0,0,2.86.83,9.71,9.71,0,0,1,10.77,5.31,3.17,3.17,0,0,0,3.16,1.78,8.15,8.15,0,0,1,1,0,9.74,9.74,0,0,1,3,19,5.26,5.26,0,0,1,.29,1.69v4.78a16.08,16.08,0,0,0-2-31.75Z" transform="translate(-18.2 -17.12)"/></svg>