<svg id="Layer_1" data-name="Layer 1" xmlns="http://www.w3.org/2000/svg" viewBox="0 0 83.1 60.02"><defs><style>.cls-1{fill:#fff;}</style></defs><title>K5</title><rect class="cls-1" width="5.54" height="60.02"/><rect class="cls-1" x="8.31" width="3.69" height="44.32"/><rect class="cls-1" x="18.47" width="3.69" height="44.32"/><rect class="cls-1" x="24.93" width="5.54" height="44.32"/><rect class="cls-1" x="13.85" width="2.77" height="44.32"/><rect class="cls-1" x="32.32" width="2.77" height="44.32"/><polygon class="cls-1" points="51.09 0 45.24 0 45.24 44.32 51.09 44.32 52.78 44.32 56.32 44.32 56.32 0 52.78 0 51.09 0"/><rect class="cls-1" x="36.93" width="4.62" height="44.32"/><rect class="cls-1" x="71.1" width="5.54" height="44.32"/><polygon class="cls-1" points="64.94 0 60.02 0 60.02 44.32 64.94 44.32 65.86 44.32 68.33 44.32 68.33 0 65.86 0 64.94 0"/><rect class="cls-1" x="78.48" width="4.62" height="60.02"/><path class="cls-1" d="M28.68,80.05c0,3.16-1.17,4.91-3.23,4.91-1.82,0-3.05-1.71-3.08-4.78s1.35-4.83,3.23-4.83S28.68,77.09,28.68,80.05Zm-5.05.14c0,2.42.74,3.79,1.89,3.79s1.9-1.5,1.9-3.87-.59-3.79-1.89-3.79C24.43,76.32,23.63,77.66,23.63,80.19Z" transform="translate(-13.45 -24.99)"/><path class="cls-1" d="M32.71,76.68h0l-1.62.87-.24-1,2-1.09h1.07v9.3H32.71Z" transform="translate(-13.45 -24.99)"/><path class="cls-1" d="M37.47,84.8V84l1-1c2.38-2.26,3.45-3.46,3.46-4.87a1.66,1.66,0,0,0-1.84-1.81,3.16,3.16,0,0,0-2,.79l-.4-.89a4.12,4.12,0,0,1,2.64-.94,2.61,2.61,0,0,1,2.84,2.7c0,1.71-1.24,3.1-3.2,5l-.75.69v0H43.4v1Z" transform="translate(-13.45 -24.99)"/><path class="cls-1" d="M45.25,83.35a4.17,4.17,0,0,0,2.06.59c1.61,0,2.11-1,2.1-1.8,0-1.3-1.19-1.86-2.4-1.86h-.7v-.94H47c.91,0,2.07-.48,2.07-1.58,0-.74-.47-1.4-1.63-1.4a3.37,3.37,0,0,0-1.86.62l-.33-.92a4.41,4.41,0,0,1,2.43-.71c1.83,0,2.66,1.08,2.66,2.21a2.3,2.3,0,0,1-1.71,2.19v0a2.43,2.43,0,0,1,2.07,2.39c0,1.48-1.16,2.79-3.39,2.79a4.76,4.76,0,0,1-2.42-.63Z" transform="translate(-13.45 -24.99)"/><path class="cls-1" d="M56.32,84.8V82.27H52v-.83l4.15-5.94h1.36v5.78h1.3v1h-1.3V84.8Zm0-3.52v-3.1c0-.49,0-1,0-1.46h0c-.29.54-.52.94-.77,1.37l-2.28,3.16v0Z" transform="translate(-13.45 -24.99)"/><path class="cls-1" d="M65.46,76.56H61.91L61.56,79a4.62,4.62,0,0,1,.75-.06,4,4,0,0,1,2,.5,2.66,2.66,0,0,1,1.33,2.39A3.23,3.23,0,0,1,62.19,85a4.49,4.49,0,0,1-2.32-.58l.31-.95a4.31,4.31,0,0,0,2,.51,2,2,0,0,0,2.2-2c0-1.2-.81-2-2.67-2a8.67,8.67,0,0,0-1.29.1L61,75.5h4.45v1.06Z" transform="translate(-13.45 -24.99)"/><path class="cls-1" d="M72.7,76.39a4,4,0,0,0-.94.06,3.78,3.78,0,0,0-3.24,3.3h0a2.84,2.84,0,0,1,5.05,1.93A3.11,3.11,0,0,1,70.53,85c-2,0-3.29-1.55-3.29-4a5.83,5.83,0,0,1,1.57-4.18,5.09,5.09,0,0,1,3-1.38,5.59,5.59,0,0,1,.91-.07v1Zm-.36,5.36a1.89,1.89,0,0,0-1.91-2.13,2.05,2.05,0,0,0-1.8,1.15,1,1,0,0,0-.15.55c0,1.53.73,2.66,2,2.66C71.61,84,72.34,83.08,72.34,81.75Z" transform="translate(-13.45 -24.99)"/><path class="cls-1" d="M80.91,75.5v.83l-4,8.47h-1.3l4-8.22v0H75.05v-1Z" transform="translate(-13.45 -24.99)"/><path class="cls-1" d="M82.25,82.44A2.66,2.66,0,0,1,84.09,80v0a2.32,2.32,0,0,1-1.48-2.09,2.61,2.61,0,0,1,2.88-2.47,2.31,2.31,0,0,1,1.17,4.46v0a2.57,2.57,0,0,1,1.87,2.4c0,1.62-1.39,2.71-3.16,2.71C83.42,85,82.25,83.8,82.25,82.44Zm5-.06c0-1.13-.79-1.67-2-2a2,2,0,0,0-1.68,1.92A1.72,1.72,0,0,0,85.39,84,1.68,1.68,0,0,0,87.25,82.38Zm-3.46-4.65c0,.93.7,1.43,1.77,1.72A1.83,1.83,0,0,0,87,77.76a1.44,1.44,0,0,0-1.57-1.51A1.47,1.47,0,0,0,83.79,77.73Z" transform="translate(-13.45 -24.99)"/></svg>