<svg id="Layer_1" data-name="Layer 1" xmlns="http://www.w3.org/2000/svg" viewBox="0 0 15.85 91.07"><defs><style>.cls-1{fill:#0757b3;}</style></defs><title>canada</title><path class="cls-1" d="M62.68,97.84a10.44,10.44,0,0,0-.41-2.51c0-.39-.08-.78-.15-1.16a29.27,29.27,0,0,1-.51-3.09c0-1-.15-1.9-.29-2.85A28.1,28.1,0,0,1,61,85.05c0-.83-.12-1.66-.11-2.49s-.17-1.82-.23-2.76-.07-1.63-.14-2.45-.07-1.83-.11-2.73-.11-1.51-.13-2.27c-.06-1.59-.14-3.19-.22-4.78,0-.83-.21-1.69-.31-2.51s-.13-1.57-.19-2.36c-.14-1.76,0-3.54-.15-5.3s-.13-3.26-.37-4.88c-.11-.76-.14-1.56-.32-2.29a5.17,5.17,0,0,1-.11-.54h.1a5.14,5.14,0,0,0,2.53-.54A1.83,1.83,0,0,0,62,47.4a2.64,2.64,0,0,0-.45-1c0-.06-.1-.15-.17-.23l.13-.1a1.51,1.51,0,0,0,.94-1.77c0-.17-.08-.33-.11-.5-.08-.54,0-.4.12-.73a2,2,0,0,0,.21-.87c-.11-.83-1-1.08-1.6-1.5-.34-.24-.65-.49-1-.73h0a1.53,1.53,0,0,0,.08-1.19,3.28,3.28,0,0,0-1.89-2,3.41,3.41,0,0,0-.84-.19,7.11,7.11,0,0,0,0-1.84c0-1-.11-2-.13-3s-.23-2.11-.3-3.17a4,4,0,0,0-.11-.78l.23-.05a1.64,1.64,0,0,0,1.26-1.36,2.1,2.1,0,0,0-.91-1.84,2.48,2.48,0,0,0-.81-.26.85.85,0,0,0-.22-.13c-.1-.54,0-1.27-.08-1.77s-.06-1.18-.1-1.77c-.09-1.38-.23-2.79-.25-4.17s-.2-2.49-.31-3.74c-.06-.71-.12-1.42-.23-2.13a1.92,1.92,0,0,0-.26-.94c-.5-.58-.89.15-1,.61,0,.25-.07.5-.09.76A9.69,9.69,0,0,0,54,12.27c0,.56,0,1.13,0,1.7,0,1.19,0,2.38,0,3.58s0,2.31,0,3.46c0,.52,0,1.1,0,1.68,0,.23,0,.46,0,.68a4.36,4.36,0,0,1-.13.83v0a2.63,2.63,0,0,0-1,.26l-.23.11a2.1,2.1,0,0,0-.91,1.84,1.64,1.64,0,0,0,1.26,1.36l.23.05a3.37,3.37,0,0,0-.1.78c-.08,1.06-.27,2.1-.3,3.17s-.14,2-.14,3a7.11,7.11,0,0,0,0,1.84,3.41,3.41,0,0,0-.84.19,3.28,3.28,0,0,0-1.89,2A1.53,1.53,0,0,0,49.91,40h0c-.34.24-.65.49-1,.73-.59.42-1.49.67-1.6,1.5a1.92,1.92,0,0,0,.21.86c.1.34.2.2.12.74,0,.16-.09.33-.11.5a1.51,1.51,0,0,0,.94,1.77l.13.1-.17.23a2.64,2.64,0,0,0-.45,1,1.83,1.83,0,0,0,.78,1.74,5.25,5.25,0,0,0,2.53.54h.1a5.17,5.17,0,0,1-.11.54c-.18.73-.21,1.53-.32,2.28-.24,1.63-.26,3.26-.37,4.89s0,3.54-.15,5.3c-.06.79-.11,1.57-.19,2.36S50,66.74,50,67.57c-.08,1.59-.16,3.19-.22,4.78,0,.76-.09,1.51-.13,2.27s0,1.84-.11,2.73-.08,1.63-.14,2.45-.24,1.8-.23,2.76S49,84.22,49,85.05a28.1,28.1,0,0,1-.34,3.18c-.14,1-.24,1.9-.29,2.85a29.27,29.27,0,0,1-.51,3.09c-.07.38-.11.77-.15,1.16a10.44,10.44,0,0,0-.41,2.51c-.07.61-.58,2,.14,2.32l.17,0a.63.63,0,0,0,.41.05h.1l0,0c.12,0,.24,0,.35,0,.67.06,1.33.15,2,.19a13.33,13.33,0,0,0,1.86.07c.75.06,1.57,0,2.32,0s1.63,0,2.43,0l.39,0a11.7,11.7,0,0,0,1.92-.06c.68,0,1.34-.13,2-.19.11,0,.23,0,.35,0l0,0H62a.63.63,0,0,0,.41-.05l.17,0C63.26,99.8,62.75,98.45,62.68,97.84ZM61.36,42.62a1.65,1.65,0,0,1,.08.42,5.19,5.19,0,0,1,0,.81,11.59,11.59,0,0,0-1.31-.12,1.36,1.36,0,0,0,0-.4c0-.13,0-.27,0-.4a.75.75,0,0,1,0-.2A6.81,6.81,0,0,0,61.36,42.62ZM54.65,10.23c.44-.83.44.71.46,1,.16,2.21.19,4.44.27,6.66,0,1.17.13,2.35.17,3.52,0,.54,0,1.07.06,1.61,0,.35,0,.75,0,1.13-.35,0-.69,0-1,0a22,22,0,0,0,0-2.7c0-.49,0-1,0-1.46,0-.7,0-1.41,0-2.12v-.17a17.19,17.19,0,0,0,0-2c0-1.12,0-2.24,0-3.35A6.87,6.87,0,0,1,54.65,10.23ZM52.84,26.37a1,1,0,0,1-.1-.58c0-.42.22-.54.59-.65a2.2,2.2,0,0,1,.43-.09h.74a8.37,8.37,0,0,0,1.88,0,1.36,1.36,0,0,1,.29.06c.37.11.57.23.59.65a1,1,0,0,1-.1.58c-.22.31-.83.26-1.16.29-.16,0-.32,0-.47.06a3.84,3.84,0,0,0-.68,0,1.05,1.05,0,0,0-.24.06,3,3,0,0,0-.61-.1C53.67,26.63,53.06,26.68,52.84,26.37Zm.93,8.53c0-.86.06-1.71.09-2.58s.08-1.91.19-2.89c.05-.45-.12-1-.11-1.48a3.59,3.59,0,0,0,.47,0,4.8,4.8,0,0,0,.85.08A2.83,2.83,0,0,0,56,28h0c0,.46-.16,1-.11,1.48.11,1,.15,1.92.19,2.89s.09,1.72.09,2.58a10,10,0,0,0,0,1.73,10.8,10.8,0,0,0-1.89,0l-.6,0h-.06A8.64,8.64,0,0,0,53.77,34.9Zm-2.72,3.93c.08-.13.12-.28.2-.4.61-1,1.61-.79,2.63-.9a2.71,2.71,0,0,0,.37-.05,14.74,14.74,0,0,0,1.89.06c1,.09,2-.06,2.61.89.08.12.12.27.2.4l0,.24c-.4,0-.8.07-1.21.15-.59.1-1.15,0-1.73,0a1.6,1.6,0,0,0-.23,0,7.42,7.42,0,0,0-.94.06h-.46a1.56,1.56,0,0,0-.45-.1c-.58,0-1.14.06-1.73,0-.41-.08-.81-.1-1.21-.15Zm-1.44,2.79c.48-.38.88-.89,1.34-1.29l.22,0c.69-.14,1.42,0,2.13-.08l.42-.07a9.73,9.73,0,0,0,1.07,0A6.59,6.59,0,0,0,56,40.09l.67.12c.71.11,1.44-.06,2.13.08l.22,0c.46.4.86.91,1.34,1.29.15.13.3.23.44.34-.76,0-1.56.07-2.29.08s-1.5,0-2.24,0a17.9,17.9,0,0,0-1.93,0A9.13,9.13,0,0,0,53,42H51.46c-.73,0-1.53-.12-2.29-.08C49.31,41.85,49.46,41.75,49.61,41.62Zm9.88,2.08-.74,0-.85,0c0-.21,0-.42,0-.63a2.09,2.09,0,0,1,0-.25l.53,0,1.17,0A2.29,2.29,0,0,0,59.49,43.7Zm-2.27-.11a7.56,7.56,0,0,0-1.26.1c0-.07,0-.13,0-.19s0-.27,0-.41a2,2,0,0,0,0-.24,3.4,3.4,0,0,0,.57-.08,6.94,6.94,0,0,0,.79,0,3.43,3.43,0,0,0-.06.34A2.79,2.79,0,0,0,57.22,43.59Zm-1.94.08c-.44,0-.88,0-1.32,0h-.05a2.79,2.79,0,0,0-.08-.91c.22,0,.44,0,.65,0s.6.05.92.06a3.71,3.71,0,0,0-.12.65A1,1,0,0,0,55.28,43.67Zm-1.92-.9a5.82,5.82,0,0,0-.17.83c-.42,0-.84,0-1.24,0,0-.14,0-.28-.05-.42a3.56,3.56,0,0,0,0-.47C52.35,42.73,52.86,42.79,53.36,42.77Zm-2.1.89h0l-1.19.06A4.26,4.26,0,0,0,50,43c0-.08,0-.18,0-.28.46,0,.92,0,1.35,0A4.36,4.36,0,0,0,51.26,43.66ZM48.56,43a1.65,1.65,0,0,1,.08-.42,7.79,7.79,0,0,0,.86.1l0,.16c0,.2,0,.41-.05.62v.26a8.17,8.17,0,0,0-.85.09A5.19,5.19,0,0,1,48.56,43Zm.23,1.8a1,1,0,0,1-.18-.46,15.5,15.5,0,0,0,2.64,0,13.66,13.66,0,0,1,1.43,0c.59.08,1.22.08,1.76.1a7.47,7.47,0,0,0,2.36-.09c.65,0,1.31-.06,2,0a15.5,15.5,0,0,0,2.64,0,1,1,0,0,1-.18.46c-.27.34-.77.41-1,.81a8.14,8.14,0,0,0-1.3,0,16.64,16.64,0,0,0-2,.06,7.27,7.27,0,0,0-2.75-.11,7.17,7.17,0,0,0-1.12.1,18,18,0,0,0-1.92,0,8.14,8.14,0,0,0-1.3,0C49.56,45.25,49.06,45.18,48.79,44.84Zm2.57,3.7-1.17-.07c-.42,0-1.15-.16-1.14-.76s.47-.68.72-1l.06-.08a10.75,10.75,0,0,1,1.61.05,19.86,19.86,0,0,0,2.17.06h.25a16.12,16.12,0,0,0,3.26,0c.47,0,1-.09,1.44-.08a10.75,10.75,0,0,1,1.61-.05l.06.08c.25.3.72.5.72,1s-.72.74-1.14.76a20.13,20.13,0,0,1-2.19.08h-.31a5.7,5.7,0,0,0-1.38-.08c-.69,0-1.38,0-2.07,0A10.11,10.11,0,0,0,51.36,48.54Zm-.43,50.75-1.31-.07c-.23,0-.55-.1-.87-.14a35.54,35.54,0,0,0,.34-3.58c.09-1,.34-2,.52-2.93.13-.75.15-1.51.23-2.26.2-1.84.49-3.73.52-5.59,0-.78.12-1.54.1-2.33,0-1,.23-1.94.25-2.93.07-3.21.35-6.44.48-9.65s.66-6.43.71-9.68c0-2,0-3.92.1-5.86.06-.87.18-1.74.28-2.61,0-.44-.05-.87-.05-1.31,0-.14,0-.37,0-.6.53.06,1.1,0,1.64.07H54c-.08,1.52.07,3-.08,4.55s-.16,3.13-.25,4.69c-.19,3.45-.56,6.91-.6,10.36s-.37,6.75-.59,10.11-.59,6.55-.79,9.84c-.11,1.8-.2,3.61-.35,5.41A37.76,37.76,0,0,0,50.93,99.29Zm7.39,0a2.48,2.48,0,0,0-.94,0c-.18,0-.37,0-.55,0a.59.59,0,0,0-.41.06l-1.45,0c-.4,0-.92,0-1.45-.06a.53.53,0,0,0-.35,0c-.54,0-1.08,0-1.63,0,.12-2.83.39-5.67.58-8.49.23-3.37.28-6.82.79-10.17a32.09,32.09,0,0,0,.32-4.7c0-1.69.13-3.39.23-5.08.2-3.41.24-6.83.53-10.24.16-1.87.22-3.73.31-5.61a49.63,49.63,0,0,0,.13-5.18l1.14,0A49.25,49.25,0,0,0,55.7,55c.09,1.88.15,3.74.31,5.61.28,3.41.33,6.83.53,10.24.09,1.69.24,3.39.23,5.08a32.09,32.09,0,0,0,.32,4.7c.51,3.35.56,6.8.79,10.17.19,2.82.46,5.66.58,8.49A.65.65,0,0,0,58.32,99.31Zm2.06-.09-1.31.07a39.58,39.58,0,0,0-.39-4.5c-.16-1.8-.24-3.62-.35-5.42-.2-3.29-.58-6.56-.79-9.84S57,72.79,57,69.42s-.41-6.91-.6-10.36c-.09-1.56-.1-3.14-.25-4.69s0-3-.08-4.5h.39a4.06,4.06,0,0,0,1.39-.06c0,.2,0,.41,0,.53,0,.45-.09.87-.05,1.31.1.87.22,1.74.28,2.61.12,1.95.07,3.91.1,5.86,0,3.25.57,6.44.71,9.68s.41,6.44.48,9.65c0,1,.27,1.93.24,2.93,0,.79.1,1.55.11,2.33,0,1.86.32,3.75.52,5.59.07.75.1,1.52.23,2.26.17,1,.43,1.94.51,2.93.11,1.2.13,2.4.35,3.58C60.93,99.12,60.61,99.2,60.38,99.22Z" transform="translate(-47.08 -9.47)"/></svg>