<svg id="Layer_1" data-name="Layer 1" xmlns="http://www.w3.org/2000/svg" viewBox="0 0 32.16 78.75"><defs><style>.cls-1{fill:#fff;stroke:#0757b3;stroke-miterlimit:10;stroke-width:0.75px;}</style></defs><title>hong kong</title><path class="cls-1" d="M69.42,91.44H64.05V52.78a.32.32,0,0,0,0-.09,1.18,1.18,0,0,0-.1-.42.48.48,0,0,0-.1-.17,1.32,1.32,0,0,0-.12-.2,1.05,1.05,0,0,0-.11-.07l-.06-.08-5.94-4.37V25a1.28,1.28,0,0,0-2-1.09l-.6.37v-7a1.29,1.29,0,0,0-2.57,0v8.56l-5.9,3.66A1.29,1.29,0,0,0,46,30.59V91.44H40.58a1.28,1.28,0,0,0,0,2.56H69.42a1.28,1.28,0,0,0,0-2.56Zm-20.9-5V80.71l.57-.51,5.7,3.8L52,86.46ZM55,27.27V34.1l-5.31-3.54ZM48.52,76.73V68.28l5.71,3.81L48.85,77Zm7.91-3.17,5.06,3.37v1.21l-4.7,4.11-5.74-3.83Zm5.06.29-3.1-2.07,3.1-2.8Zm0,7.7v3.83L59,83.72Zm0-19.56L58,59.05l3.53-3.31Zm0,3.33v.21l-5.3,4.79-6-4,5.88-5.51Zm-13-.94v-8l1.11-1,4.46,3.72Zm0-13.2V43.57l.37-.34,5.69,4.59-5,4.27ZM55,37.72v7.17L50.82,41.5ZM48.8,39.87l-.28-.23v-6.8L53.17,36ZM57,85.47l1.48,1H55.87ZM60.77,52.9,56,57.39,51.6,53.75l4.77-4.09ZM48.52,91.44V89h13v2.42Z" transform="translate(-38.92 -15.62)"/></svg>