<svg id="Layer_1" data-name="Layer 1" xmlns="http://www.w3.org/2000/svg" viewBox="0 0 75.71 75.64"><defs><style>.cls-1{fill:#fff;stroke:#0757b3;stroke-miterlimit:10;stroke-width:0.75px;}</style></defs><title>india gate</title><path class="cls-1" d="M82.75,36.88H80.33V32.05H76.71V22.39H65.06L62,20h.18V17.55H47.72V20h.18l-3,2.42H33.23v9.66H29.6v4.83H27.19v4.83h-6v2.42h1.91l4.13,4.12V61H24.77v2.42h2.42V70.7H24.77v2.42h2.42V85.2H24.77v2.41h2.42V90H17.52v2.42H51.34V90H48.93V62.25a6,6,0,0,1,12.08,0V90H58.59v2.42H92.48V90H82.75V87.61h2.42V85.2H82.75V73.12h2.42V70.7H82.75V63.46h2.42V61H82.75V48.25l4.12-4.12h1.92V41.71h-6V36.88ZM51.77,20h6.4l3,2.42H48.75ZM35.64,24.8H74.29v7.25h-6a3.63,3.63,0,1,0-3.63-3.62,3.63,3.63,0,0,0,3.63,3.62H41.69a3.63,3.63,0,1,0-3.63-3.62,3.62,3.62,0,0,0,3.63,3.62h-6Zm31.41,3.63a1.21,1.21,0,1,1,1.2,1.2A1.21,1.21,0,0,1,67.05,28.43Zm-26.58,0a1.21,1.21,0,1,1,1.21,1.2A1.21,1.21,0,0,1,40.47,28.43Zm-8.45,6h45.9v2.41H32ZM29.6,39.3H80.33v2.41H29.6ZM41.68,90H29.6V87.61H41.68Zm0-4.83H29.6V73.12H41.68Zm0-14.5H29.6V63.46H41.68Zm0-9.66H29.6V49H41.68Zm4.83,29H44.1V63.46h2.41Zm7.25-36.14A8.44,8.44,0,0,0,46.61,61H44.1V49h9.66ZM65.84,90H63.42V63.46h2.42Zm0-29H63.33a8.46,8.46,0,0,0-7.15-7.15V49h9.66ZM80.33,90H68.25V87.61H80.33Zm0-4.83H68.25V73.12H80.33Zm0-14.5H68.25V63.46H80.33Zm0-9.66H68.25V49H80.33Zm3.13-16.91L81,46.54H28.89l-2.41-2.41Z" transform="translate(-17.15 -17.18)"/><path class="cls-1" d="M35.64,58.62A3.62,3.62,0,1,0,32,55,3.63,3.63,0,0,0,35.64,58.62Zm0-4.83A1.21,1.21,0,1,1,34.43,55,1.21,1.21,0,0,1,35.64,53.79Z" transform="translate(-17.15 -17.18)"/><path class="cls-1" d="M74.29,58.62A3.62,3.62,0,1,0,70.67,55,3.63,3.63,0,0,0,74.29,58.62Zm0-4.83A1.21,1.21,0,1,1,73.09,55,1.21,1.21,0,0,1,74.29,53.79Z" transform="translate(-17.15 -17.18)"/><rect class="cls-1" x="30.57" y="10.04" width="14.49" height="2.42"/><rect class="cls-1" x="14.87" y="48.69" width="7.25" height="2.42"/><rect class="cls-1" x="53.52" y="48.69" width="7.25" height="2.42"/><rect class="cls-1" x="14.87" y="63.19" width="2.42" height="2.42"/><rect class="cls-1" x="14.87" y="58.35" width="2.42" height="2.42"/><rect class="cls-1" x="58.35" y="63.19" width="2.42" height="2.42"/><rect class="cls-1" x="58.35" y="58.35" width="2.42" height="2.42"/></svg>