<svg id="Layer_1" data-name="Layer 1" xmlns="http://www.w3.org/2000/svg" viewBox="0 0 95.76 85.28"><defs><style>.cls-1{fill:#0757b3;}</style></defs><title>kolkata</title><path class="cls-1" d="M10.86,58.89a.71.71,0,0,1-.75-.75V55.75a.75.75,0,0,1,1.5,0v2.39A1,1,0,0,1,10.86,58.89Z" transform="translate(-7.12 -12.36)"/><rect class="cls-1" x="59.1" y="48.63" width="2.99" height="2.99"/><rect class="cls-1" x="33.67" y="48.63" width="2.99" height="2.99"/><rect class="cls-1" x="59.1" y="30.67" width="2.99" height="2.99"/><path class="cls-1" d="M100.63,97.64H9.37a.75.75,0,1,1,0-1.49h91.26a.75.75,0,1,1,0,1.49Z" transform="translate(-7.12 -12.36)"/><path class="cls-1" d="M61.73,92.41a.71.71,0,0,1-.75-.75V78.19a6,6,0,1,0-12,0V91.66a.75.75,0,0,1-1.5,0V78.19a7.48,7.48,0,1,1,15,0V91.66A.8.8,0,0,1,61.73,92.41Z" transform="translate(-7.12 -12.36)"/><path class="cls-1" d="M66.22,43a.71.71,0,0,1-.75-.75v-3a10.47,10.47,0,1,0-20.94,0v3a.75.75,0,0,1-1.5,0v-3a12,12,0,1,1,23.94,0v3A.8.8,0,0,1,66.22,43Z" transform="translate(-7.12 -12.36)"/><path class="cls-1" d="M43.78,90.16H39.29a.71.71,0,0,1-.75-.75V85.67a3,3,0,0,1,6,0v3.74A.8.8,0,0,1,43.78,90.16ZM40,88.67h3v-3a1.5,1.5,0,0,0-3,0Z" transform="translate(-7.12 -12.36)"/><path class="cls-1" d="M43.78,79.69H39.29a.71.71,0,0,1-.75-.75V75.2a3,3,0,0,1,6,0v3.74A.8.8,0,0,1,43.78,79.69ZM40,78.19h3v-3a1.5,1.5,0,1,0-3,0Z" transform="translate(-7.12 -12.36)"/><path class="cls-1" d="M40.79,63.38h-6a.71.71,0,0,1-.75-.75v-9a3.74,3.74,0,0,1,7.48,0v9A1,1,0,0,1,40.79,63.38Zm-5.39-1.5h4.49V53.65a2.25,2.25,0,0,0-4.49,0Z" transform="translate(-7.12 -12.36)"/><path class="cls-1" d="M57.09,54.25a.71.71,0,0,1-.74-.75V51.26a1.5,1.5,0,0,0-3,0V53.5a.75.75,0,1,1-1.49,0V51.26a3,3,0,0,1,6,0V53.5A.71.71,0,0,1,57.09,54.25Z" transform="translate(-7.12 -12.36)"/><path class="cls-1" d="M48.27,97.64H43.78a.71.71,0,0,1-.75-.75V64a.71.71,0,0,1,.75-.75h4.49A.71.71,0,0,1,49,64V96.89A.8.8,0,0,1,48.27,97.64Zm-3.74-1.49h3V64.73h-3Z" transform="translate(-7.12 -12.36)"/><path class="cls-1" d="M39.29,97.64H34.8a.71.71,0,0,1-.75-.75V68.47a.71.71,0,0,1,.75-.75h4.49a.71.71,0,0,1,.75.75V96.89A.8.8,0,0,1,39.29,97.64Zm-3.74-1.49h3V69.21h-3Z" transform="translate(-7.12 -12.36)"/><path class="cls-1" d="M18.34,78.19H13.85a.71.71,0,0,1-.74-.75v-6a.71.71,0,0,1,.74-.75h4.49a.71.71,0,0,1,.75.75v6A.8.8,0,0,1,18.34,78.19ZM14.6,76.7h3V72.21h-3Z" transform="translate(-7.12 -12.36)"/><path class="cls-1" d="M21.33,97.64H10.86a.71.71,0,0,1-.75-.75V58a.71.71,0,0,1,.75-.75H21.33a.71.71,0,0,1,.75.75v38.9A.8.8,0,0,1,21.33,97.64Zm-9.72-1.49h9V58.74h-9Z" transform="translate(-7.12 -12.36)"/><path class="cls-1" d="M34.8,97.64H21.33a.71.71,0,0,1-.74-.75V71.46a.71.71,0,0,1,.74-.75H34.8a.71.71,0,0,1,.75.75V96.89A.8.8,0,0,1,34.8,97.64ZM22.08,96.15h12V72.21h-12Z" transform="translate(-7.12 -12.36)"/><path class="cls-1" d="M70.71,90.16H66.22a.71.71,0,0,1-.75-.75V85.67a3,3,0,0,1,6,0v3.74A.8.8,0,0,1,70.71,90.16ZM67,88.67h3v-3a1.5,1.5,0,0,0-3,0Z" transform="translate(-7.12 -12.36)"/><path class="cls-1" d="M70.71,79.69H66.22a.71.71,0,0,1-.75-.75V75.2a3,3,0,0,1,6,0v3.74A.8.8,0,0,1,70.71,79.69ZM67,78.19h3v-3a1.5,1.5,0,1,0-3,0Z" transform="translate(-7.12 -12.36)"/><path class="cls-1" d="M75.2,97.64H70.71a.71.71,0,0,1-.75-.75V68.47a.71.71,0,0,1,.75-.75H75.2a.71.71,0,0,1,.75.75V96.89A.8.8,0,0,1,75.2,97.64Zm-3.74-1.49h3V69.21h-3Z" transform="translate(-7.12 -12.36)"/><path class="cls-1" d="M69.21,64.73H40.79A.71.71,0,0,1,40,64V61a.71.71,0,0,1,.75-.74H69.21A.71.71,0,0,1,70,61v3A.8.8,0,0,1,69.21,64.73Zm-27.68-1.5H68.47v-1.5H41.53Z" transform="translate(-7.12 -12.36)"/><path class="cls-1" d="M69.21,46.77H40.79A.71.71,0,0,1,40,46V43a.71.71,0,0,1,.75-.75H69.21A.71.71,0,0,1,70,43v3A.8.8,0,0,1,69.21,46.77Zm-27.68-1.5H68.47V43.78H41.53Z" transform="translate(-7.12 -12.36)"/><path class="cls-1" d="M48.27,61.73H43.78A.71.71,0,0,1,43,61V56.5a.71.71,0,0,1,.75-.75h4.49a.71.71,0,0,1,.75.75V61A.8.8,0,0,1,48.27,61.73Zm-3.74-1.49h3v-3h-3Z" transform="translate(-7.12 -12.36)"/><path class="cls-1" d="M58.74,57.24H51.26a.7.7,0,0,1-.75-.74v-3a.7.7,0,0,1,.75-.74h7.48a.7.7,0,0,1,.75.74v3A.79.79,0,0,1,58.74,57.24ZM52,55.75h6v-1.5H52Z" transform="translate(-7.12 -12.36)"/><path class="cls-1" d="M66.22,61.73H61.73A.71.71,0,0,1,61,61V56.5a.71.71,0,0,1,.75-.75h4.49a.71.71,0,0,1,.75.75V61A.8.8,0,0,1,66.22,61.73Zm-3.74-1.49h3v-3h-3Z" transform="translate(-7.12 -12.36)"/><path class="cls-1" d="M66.22,97.64H61.73a.71.71,0,0,1-.75-.75V64a.71.71,0,0,1,.75-.75h4.49A.71.71,0,0,1,67,64V96.89A.8.8,0,0,1,66.22,97.64Zm-3.74-1.49h3V64.73h-3Z" transform="translate(-7.12 -12.36)"/><path class="cls-1" d="M66.22,57.24H43.78A.7.7,0,0,1,43,56.5a.71.71,0,0,1,.75-.75H66.22a.71.71,0,0,1,.75.75A.79.79,0,0,1,66.22,57.24Z" transform="translate(-7.12 -12.36)"/><path class="cls-1" d="M64.73,54.25H45.27a.71.71,0,0,1-.74-.75.7.7,0,0,1,.74-.74H64.73a.7.7,0,0,1,.74.74A.8.8,0,0,1,64.73,54.25Z" transform="translate(-7.12 -12.36)"/><path class="cls-1" d="M40.79,63.23H33.3a.75.75,0,0,1,0-1.5h7.49a.71.71,0,0,1,.74.75A.79.79,0,0,1,40.79,63.23Z" transform="translate(-7.12 -12.36)"/><path class="cls-1" d="M58.74,69.21H33.3a.75.75,0,0,1,0-1.49H58.74a.71.71,0,0,1,.75.75A.8.8,0,0,1,58.74,69.21Z" transform="translate(-7.12 -12.36)"/><path class="cls-1" d="M76.7,69.21H51.26a.75.75,0,1,1,0-1.49H76.7a.71.71,0,0,1,.74.75A.8.8,0,0,1,76.7,69.21Z" transform="translate(-7.12 -12.36)"/><path class="cls-1" d="M102.13,97.64H7.87a.75.75,0,1,1,0-1.49h94.26a.71.71,0,0,1,.75.74A.8.8,0,0,1,102.13,97.64Z" transform="translate(-7.12 -12.36)"/><path class="cls-1" d="M43.78,69.21h-9a.71.71,0,0,1-.75-.74v-6a.71.71,0,0,1,.75-.75h6a.71.71,0,0,1,.74.75v.75h2.25a.71.71,0,0,1,.75.75v4.49A.8.8,0,0,1,43.78,69.21Zm-8.23-1.49H43v-3H40.79A.71.71,0,0,1,40,64v-.75H35.55Z" transform="translate(-7.12 -12.36)"/><path class="cls-1" d="M76.7,63.23H69.21a.75.75,0,0,1,0-1.5H76.7a.71.71,0,0,1,.74.75A.8.8,0,0,1,76.7,63.23Z" transform="translate(-7.12 -12.36)"/><path class="cls-1" d="M75.2,69.21h-9a.71.71,0,0,1-.75-.74V64a.71.71,0,0,1,.75-.75h2.25v-.75a.71.71,0,0,1,.74-.75h6a.71.71,0,0,1,.75.75v6A.8.8,0,0,1,75.2,69.21ZM67,67.72h7.48V63.23H70V64a.71.71,0,0,1-.75.75H67Z" transform="translate(-7.12 -12.36)"/><path class="cls-1" d="M37.79,62.48a.7.7,0,0,1-.74-.75V58.14a.7.7,0,0,1,.74-.75.71.71,0,0,1,.75.75v3.59A1,1,0,0,1,37.79,62.48Z" transform="translate(-7.12 -12.36)"/><path class="cls-1" d="M37.79,50.66a.7.7,0,0,1-.74-.75V47.52a.7.7,0,0,1,.74-.75.71.71,0,0,1,.75.75v2.39A.8.8,0,0,1,37.79,50.66Z" transform="translate(-7.12 -12.36)"/><path class="cls-1" d="M42.13,54.25h-9a.71.71,0,0,1-.75-.75.7.7,0,0,1,.75-.74h9a.7.7,0,0,1,.75.74A.71.71,0,0,1,42.13,54.25Z" transform="translate(-7.12 -12.36)"/><path class="cls-1" d="M18.19,58.74H13.7A.71.71,0,0,1,13,58V51.26a3,3,0,0,1,6,0V58A.71.71,0,0,1,18.19,58.74Zm-3.74-1.5h3v-6A1.41,1.41,0,0,0,16,49.76a1.42,1.42,0,0,0-1.5,1.5Z" transform="translate(-7.12 -12.36)"/><path class="cls-1" d="M16.1,49.16a.7.7,0,0,1-.75-.74V46a.75.75,0,0,1,1.5,0v2.4A.79.79,0,0,1,16.1,49.16Z" transform="translate(-7.12 -12.36)"/><path class="cls-1" d="M21.33,59.64a.71.71,0,0,1-.74-.75V56.5a.75.75,0,1,1,1.49,0v2.39A.8.8,0,0,1,21.33,59.64Z" transform="translate(-7.12 -12.36)"/><path class="cls-1" d="M19.84,52.76H12.36a.75.75,0,0,1,0-1.5h7.48a.71.71,0,0,1,.75.75A.8.8,0,0,1,19.84,52.76Z" transform="translate(-7.12 -12.36)"/><path class="cls-1" d="M22.83,63.23H9.37a.75.75,0,1,1,0-1.5H22.83a.71.71,0,0,1,.75.75A.8.8,0,0,1,22.83,63.23Z" transform="translate(-7.12 -12.36)"/><path class="cls-1" d="M22.83,69.21H9.37a.75.75,0,1,1,0-1.49H22.83a.71.71,0,0,1,.75.75A.8.8,0,0,1,22.83,69.21Z" transform="translate(-7.12 -12.36)"/><path class="cls-1" d="M18.34,75.2H13.85a.75.75,0,0,1,0-1.5h4.49a.71.71,0,0,1,.75.75A.8.8,0,0,1,18.34,75.2Z" transform="translate(-7.12 -12.36)"/><path class="cls-1" d="M30.31,91.66H25.82a.7.7,0,0,1-.74-.75v-6a.7.7,0,0,1,.74-.74h4.49a.71.71,0,0,1,.75.74v6A.8.8,0,0,1,30.31,91.66Zm-3.74-1.5h3V85.67h-3Z" transform="translate(-7.12 -12.36)"/><path class="cls-1" d="M29.56,88.67H25.82a.75.75,0,0,1,0-1.5h3.74a.71.71,0,0,1,.75.75A.8.8,0,0,1,29.56,88.67Z" transform="translate(-7.12 -12.36)"/><path class="cls-1" d="M30.31,81.18H25.82a.7.7,0,0,1-.74-.74v-6a.7.7,0,0,1,.74-.75h4.49a.71.71,0,0,1,.75.75v6A.8.8,0,0,1,30.31,81.18Zm-3.74-1.49h3V75.2h-3Z" transform="translate(-7.12 -12.36)"/><path class="cls-1" d="M29.56,78.19H25.82a.7.7,0,0,1-.74-.75.69.69,0,0,1,.74-.74h3.74a.7.7,0,0,1,.75.74A.8.8,0,0,1,29.56,78.19Z" transform="translate(-7.12 -12.36)"/><path class="cls-1" d="M18.34,91.66H13.85a.71.71,0,0,1-.74-.75v-6a.7.7,0,0,1,.74-.74h4.49a.71.71,0,0,1,.75.74v6A.8.8,0,0,1,18.34,91.66Zm-3.74-1.5h3V85.67h-3Z" transform="translate(-7.12 -12.36)"/><path class="cls-1" d="M34.8,72.21H21.33a.71.71,0,0,1-.74-.75v-6a.7.7,0,0,1,.74-.74H34.8a.7.7,0,0,1,.75.74v6A.8.8,0,0,1,34.8,72.21Zm-12.72-1.5h12V66.22h-12Z" transform="translate(-7.12 -12.36)"/><path class="cls-1" d="M22.83,82.68H9.37a.75.75,0,0,1,0-1.5H22.83a.71.71,0,0,1,.75.75A.8.8,0,0,1,22.83,82.68Z" transform="translate(-7.12 -12.36)"/><path class="cls-1" d="M67.57,39.29H42.13a.75.75,0,0,1,0-1.5H67.57a.75.75,0,0,1,0,1.5Z" transform="translate(-7.12 -12.36)"/><path class="cls-1" d="M58,28.82a.71.71,0,0,1-.75-.75v-6a2.24,2.24,0,0,0-4.48,0v6a.75.75,0,0,1-1.5,0v-6a3.74,3.74,0,0,1,7.48,0v6A.8.8,0,0,1,58,28.82Z" transform="translate(-7.12 -12.36)"/><path class="cls-1" d="M55,28.07a.71.71,0,0,1-.75-.75V25.23a.75.75,0,0,1,1.5,0v2.09A1,1,0,0,1,55,28.07Z" transform="translate(-7.12 -12.36)"/><path class="cls-1" d="M46.77,43a.71.71,0,0,1-.75-.75v-3a.75.75,0,0,1,1.5,0v3A.8.8,0,0,1,46.77,43Z" transform="translate(-7.12 -12.36)"/><path class="cls-1" d="M51.26,43a.71.71,0,0,1-.75-.75v-3a.75.75,0,0,1,1.5,0v3A.8.8,0,0,1,51.26,43Z" transform="translate(-7.12 -12.36)"/><path class="cls-1" d="M46.77,53.5a.71.71,0,0,1-.75-.74v-6a.75.75,0,0,1,1.5,0v6A.8.8,0,0,1,46.77,53.5Z" transform="translate(-7.12 -12.36)"/><path class="cls-1" d="M49.76,53.5a.7.7,0,0,1-.74-.74v-6a.7.7,0,0,1,.74-.75.71.71,0,0,1,.75.75v6A.8.8,0,0,1,49.76,53.5Z" transform="translate(-7.12 -12.36)"/><path class="cls-1" d="M60.24,53.5a.71.71,0,0,1-.75-.74v-6a.71.71,0,0,1,.75-.75.7.7,0,0,1,.74.75v6A.79.79,0,0,1,60.24,53.5Z" transform="translate(-7.12 -12.36)"/><path class="cls-1" d="M63.23,53.5a.71.71,0,0,1-.75-.74v-6a.75.75,0,0,1,1.5,0v6A.8.8,0,0,1,63.23,53.5Z" transform="translate(-7.12 -12.36)"/><path class="cls-1" d="M58.74,43a.71.71,0,0,1-.75-.75v-3a.75.75,0,0,1,1.5,0v3A.8.8,0,0,1,58.74,43Z" transform="translate(-7.12 -12.36)"/><path class="cls-1" d="M63.23,43a.71.71,0,0,1-.75-.75v-3a.75.75,0,0,1,1.5,0v3A.8.8,0,0,1,63.23,43Z" transform="translate(-7.12 -12.36)"/><path class="cls-1" d="M55,19.24a.71.71,0,0,1-.75-.75V13.11a.75.75,0,0,1,1.5,0v5.38A.8.8,0,0,1,55,19.24Z" transform="translate(-7.12 -12.36)"/><path class="cls-1" d="M59.34,22.83h-9a.71.71,0,0,1-.75-.75.84.84,0,0,1,.9-.75h9a.71.71,0,0,1,.75.75A.84.84,0,0,1,59.34,22.83Z" transform="translate(-7.12 -12.36)"/><path class="cls-1" d="M75.2,63.23h-6a.71.71,0,0,1-.74-.75v-9a3.74,3.74,0,0,1,7.48,0v9A.8.8,0,0,1,75.2,63.23Zm-5.39-1.5H74.3V53.5a2.25,2.25,0,0,0-4.49,0Z" transform="translate(-7.12 -12.36)"/><path class="cls-1" d="M72.21,62.48a.71.71,0,0,1-.75-.75V58.14a.71.71,0,0,1,.75-.75.7.7,0,0,1,.74.75v3.59A1,1,0,0,1,72.21,62.48Z" transform="translate(-7.12 -12.36)"/><path class="cls-1" d="M72.21,50.66a.71.71,0,0,1-.75-.75V47.52a.71.71,0,0,1,.75-.75.7.7,0,0,1,.74.75v2.39A.79.79,0,0,1,72.21,50.66Z" transform="translate(-7.12 -12.36)"/><path class="cls-1" d="M76.55,54.25h-9a.71.71,0,0,1-.75-.75.7.7,0,0,1,.75-.74h9a.7.7,0,0,1,.74.74A.71.71,0,0,1,76.55,54.25Z" transform="translate(-7.12 -12.36)"/><path class="cls-1" d="M54.85,41.53h0a.71.71,0,0,1-.75-.74h0a.71.71,0,0,1,.75-.75h0a.71.71,0,0,1,.75.75h0A.71.71,0,0,1,54.85,41.53Z" transform="translate(-7.12 -12.36)"/><path class="cls-1" d="M39.29,51.26a.75.75,0,0,1,0-1.5A3.7,3.7,0,0,0,43,46a.75.75,0,0,1,1.5,0A5.21,5.21,0,0,1,39.29,51.26Z" transform="translate(-7.12 -12.36)"/><path class="cls-1" d="M39.29,51.26h-.75a.75.75,0,0,1,0-1.5h.75a.71.71,0,0,1,.75.75A.8.8,0,0,1,39.29,51.26Z" transform="translate(-7.12 -12.36)"/><path class="cls-1" d="M70.71,51.26A5.3,5.3,0,0,1,65.47,46,.75.75,0,0,1,67,46a3.7,3.7,0,0,0,3.74,3.74.71.71,0,0,1,.75.75A.8.8,0,0,1,70.71,51.26Z" transform="translate(-7.12 -12.36)"/><path class="cls-1" d="M71.46,51.26h-.75a.75.75,0,0,1,0-1.5h.75a.71.71,0,0,1,.75.75A.8.8,0,0,1,71.46,51.26Z" transform="translate(-7.12 -12.36)"/><circle class="cls-1" cx="8.98" cy="53.12" r="0.75"/><path class="cls-1" d="M96.15,78.19H91.66a.71.71,0,0,1-.75-.75v-6a.71.71,0,0,1,.75-.75h4.49a.71.71,0,0,1,.74.75v6A.79.79,0,0,1,96.15,78.19ZM92.41,76.7h3V72.21h-3Z" transform="translate(-7.12 -12.36)"/><path class="cls-1" d="M99.14,97.64H88.67a.71.71,0,0,1-.75-.75V58a.71.71,0,0,1,.75-.75H99.14a.71.71,0,0,1,.75.75v38.9A.8.8,0,0,1,99.14,97.64Zm-9.73-1.49h9V58.74h-9Z" transform="translate(-7.12 -12.36)"/><path class="cls-1" d="M88.67,97.64H75.2a.71.71,0,0,1-.75-.75V71.46a.71.71,0,0,1,.75-.75H88.67a.71.71,0,0,1,.74.75V96.89A.8.8,0,0,1,88.67,97.64ZM76,96.15h12V72.21H76Z" transform="translate(-7.12 -12.36)"/><path class="cls-1" d="M96.15,58.74H91.66a.71.71,0,0,1-.75-.75V51.26a3,3,0,0,1,6,0V58A.79.79,0,0,1,96.15,58.74Zm-3.74-1.5h3v-6a1.5,1.5,0,1,0-3,0Z" transform="translate(-7.12 -12.36)"/><path class="cls-1" d="M93.9,49.16a.7.7,0,0,1-.75-.74V46a.75.75,0,0,1,1.5,0v2.4A.79.79,0,0,1,93.9,49.16Z" transform="translate(-7.12 -12.36)"/><path class="cls-1" d="M99.14,59.64a.71.71,0,0,1-.75-.75V56.5a.75.75,0,1,1,1.5,0v2.39A.8.8,0,0,1,99.14,59.64Z" transform="translate(-7.12 -12.36)"/><path class="cls-1" d="M88.67,59.64a.71.71,0,0,1-.75-.75V56.5a.75.75,0,1,1,1.49,0v2.39A.8.8,0,0,1,88.67,59.64Z" transform="translate(-7.12 -12.36)"/><path class="cls-1" d="M97.64,52.76H90.16a.75.75,0,0,1,0-1.5h7.48a.71.71,0,0,1,.75.75A.8.8,0,0,1,97.64,52.76Z" transform="translate(-7.12 -12.36)"/><path class="cls-1" d="M100.63,63.23H87.17a.75.75,0,0,1,0-1.5h13.46a.71.71,0,0,1,.75.75A.8.8,0,0,1,100.63,63.23Z" transform="translate(-7.12 -12.36)"/><path class="cls-1" d="M100.63,69.21H87.17a.75.75,0,1,1,0-1.49h13.46a.71.71,0,0,1,.75.75A.8.8,0,0,1,100.63,69.21Z" transform="translate(-7.12 -12.36)"/><path class="cls-1" d="M96.15,75.2H91.66a.75.75,0,0,1,0-1.5h4.49a.71.71,0,0,1,.74.75A.79.79,0,0,1,96.15,75.2Z" transform="translate(-7.12 -12.36)"/><path class="cls-1" d="M84.18,91.66H79.69a.71.71,0,0,1-.75-.75v-6a.71.71,0,0,1,.75-.74h4.49a.7.7,0,0,1,.74.74v6A.79.79,0,0,1,84.18,91.66Zm-3.74-1.5h3V85.67h-3Z" transform="translate(-7.12 -12.36)"/><path class="cls-1" d="M84.18,88.67H80.44a.75.75,0,0,1,0-1.5h3.74a.7.7,0,0,1,.74.75A.79.79,0,0,1,84.18,88.67Z" transform="translate(-7.12 -12.36)"/><path class="cls-1" d="M84.18,81.18H79.69a.71.71,0,0,1-.75-.74v-6a.71.71,0,0,1,.75-.75h4.49a.7.7,0,0,1,.74.75v6A.79.79,0,0,1,84.18,81.18Zm-3.74-1.49h3V75.2h-3Z" transform="translate(-7.12 -12.36)"/><path class="cls-1" d="M84.18,78.19H80.44a.71.71,0,0,1-.75-.75.7.7,0,0,1,.75-.74h3.74a.69.69,0,0,1,.74.74A.79.79,0,0,1,84.18,78.19Z" transform="translate(-7.12 -12.36)"/><path class="cls-1" d="M96.15,91.66H91.66a.71.71,0,0,1-.75-.75v-6a.71.71,0,0,1,.75-.74h4.49a.7.7,0,0,1,.74.74v6A.79.79,0,0,1,96.15,91.66Zm-3.74-1.5h3V85.67h-3Z" transform="translate(-7.12 -12.36)"/><path class="cls-1" d="M88.67,72.21H75.2a.71.71,0,0,1-.75-.75v-6a.7.7,0,0,1,.75-.74H88.67a.7.7,0,0,1,.74.74v6A.8.8,0,0,1,88.67,72.21ZM76,70.71h12V66.22H76Z" transform="translate(-7.12 -12.36)"/><path class="cls-1" d="M100.63,82.68H87.17a.75.75,0,0,1,0-1.5h13.46a.71.71,0,0,1,.75.75A.8.8,0,0,1,100.63,82.68Z" transform="translate(-7.12 -12.36)"/><circle class="cls-1" cx="86.78" cy="53.12" r="0.75"/></svg>