<svg id="Layer_1" data-name="Layer 1" xmlns="http://www.w3.org/2000/svg" viewBox="0 0 50.79 86.61"><defs><style>.cls-1{fill:#0757b3;}</style></defs><title>malasyia</title><path class="cls-1" d="M80.08,90.72c0-1.82-.18-3.61-.18-5.43,0-2.09,0-4.17,0-6.26,0-1.89,0-3.81-.11-5.69-.12-2.06-.09-4.13-.1-6.2a14.84,14.84,0,0,0-.51-4.55,1.52,1.52,0,0,0-.58-.79v0c.09-1.14,0-2.32,0-3.47a25.34,25.34,0,0,0,0-3c-.14-1.07,0-2.13-.16-3.2s-.24-1.89-.32-2.85a2,2,0,0,0-1.06-1.82.38.38,0,0,0,.06-.13,13.38,13.38,0,0,0,.09-4.19,29.92,29.92,0,0,0-.63-3.67,2.59,2.59,0,0,0-.77-1.65,2.1,2.1,0,0,0,.25-1.41c0-.63,0-1.27,0-1.9A10.19,10.19,0,0,0,75.48,31a1.4,1.4,0,0,0-.94-.81,6.63,6.63,0,0,0,.06-2.35,8.45,8.45,0,0,0-.45-2.63,1.54,1.54,0,0,0-.44-.66c-.12-.24-.26-.47-.39-.72-.37-.63-.68-1.28-1.08-1.89s-.68-1.91-1.33-2.5h0a1,1,0,0,0,.28-.32,1.91,1.91,0,0,0,.29-.49,2,2,0,0,0-.22-1.77,1.47,1.47,0,0,0-.74-.52,2.59,2.59,0,0,0,.06-1.21c0-.23,0-.45,0-.68,0-.8,0-1.6,0-2.4a.36.36,0,0,0-.72,0c0,.43,0,.85,0,1.27s0,.77,0,1.16c0,.06,0,.15,0,.26a7.93,7.93,0,0,0,0,1.09.52.52,0,0,1-.08.24.37.37,0,0,0-.06.26,1.66,1.66,0,0,0-1.23,1.41,1.83,1.83,0,0,0,.83,1.7,5.21,5.21,0,0,0-1.24,1.36,28.21,28.21,0,0,0-1.76,3.68.64.64,0,0,0-.06.18,1.59,1.59,0,0,0-.34.56,9.07,9.07,0,0,0-.45,2.63,6.63,6.63,0,0,0,.06,2.35,1.4,1.4,0,0,0-.94.81A10.19,10.19,0,0,0,64,34.46c0,.63,0,1.27,0,1.9a2.1,2.1,0,0,0,.25,1.41,2.59,2.59,0,0,0-.77,1.65,29.92,29.92,0,0,0-.63,3.67,13.38,13.38,0,0,0,.09,4.19.38.38,0,0,0,.06.13,2,2,0,0,0-1.06,1.82c-.08,1-.19,1.9-.32,2.85s0,2.13-.16,3.2a25.34,25.34,0,0,0,0,3c0,1.15-.07,2.33,0,3.47v0a1.52,1.52,0,0,0-.58.79,15.15,15.15,0,0,0-.51,4.55c0,.35.18.82-.21,1a1.37,1.37,0,0,1-.6.09c-1.52,0-3,0-4.56-.08H55c-1.52,0-3,.07-4.56.08a1.37,1.37,0,0,1-.6-.09c-.39-.2-.21-.67-.21-1a15.15,15.15,0,0,0-.51-4.55,1.52,1.52,0,0,0-.58-.79v0c.1-1.14,0-2.32,0-3.47a25.36,25.36,0,0,0,0-3c-.14-1.07,0-2.13-.16-3.2s-.25-1.89-.32-2.85A2,2,0,0,0,47,47.41a.38.38,0,0,0,.06-.13,13.38,13.38,0,0,0,.09-4.19,29.92,29.92,0,0,0-.63-3.67,2.55,2.55,0,0,0-.78-1.65A2,2,0,0,0,46,36.36c0-.63,0-1.27,0-1.9A10.44,10.44,0,0,0,45.39,31a1.4,1.4,0,0,0-.94-.81,6.63,6.63,0,0,0,.06-2.35,9.07,9.07,0,0,0-.45-2.63,1.59,1.59,0,0,0-.34-.56.64.64,0,0,0-.06-.18,29.56,29.56,0,0,0-1.76-3.68,5.21,5.21,0,0,0-1.24-1.36,1.83,1.83,0,0,0,.83-1.7,1.68,1.68,0,0,0-1.23-1.41.37.37,0,0,0-.06-.26.52.52,0,0,1-.08-.24,7.93,7.93,0,0,0,0-1.09,1.23,1.23,0,0,0,0-.26c0-.39,0-.77,0-1.16V12a.36.36,0,0,0-.72,0c0,.8,0,1.6,0,2.4,0,.23,0,.45,0,.68a2.59,2.59,0,0,0,.06,1.21,1.47,1.47,0,0,0-.74.52,2,2,0,0,0-.22,1.77,1.91,1.91,0,0,0,.29.49.88.88,0,0,0,.28.32h0c-.65.59-.94,1.88-1.33,2.5s-.71,1.26-1.08,1.89c-.14.25-.27.48-.39.72a1.54,1.54,0,0,0-.44.66,8.45,8.45,0,0,0-.45,2.63,6.63,6.63,0,0,0,.06,2.35,1.4,1.4,0,0,0-.94.81,10.19,10.19,0,0,0-.59,3.46c0,.64,0,1.27,0,1.9a2,2,0,0,0,.25,1.41,2.59,2.59,0,0,0-.77,1.65,29.92,29.92,0,0,0-.63,3.67,13.38,13.38,0,0,0,.09,4.19.38.38,0,0,0,.06.13,2,2,0,0,0-1.07,1.82c-.07,1-.18,1.9-.31,2.85s0,2.13-.17,3.2a27.64,27.64,0,0,0,0,3c0,1.15-.07,2.33,0,3.47v0a1.52,1.52,0,0,0-.58.79,14.84,14.84,0,0,0-.51,4.55c0,2.07,0,4.14-.11,6.2-.11,1.88-.09,3.8-.1,5.69,0,2.09,0,4.17,0,6.26,0,1.82-.15,3.61-.18,5.43,0,1.63-.41,3.25-.29,4.89.05.72-.06,1.59.64,2a6.5,6.5,0,0,0,2.72.6,25.34,25.34,0,0,0,3.26.06c.37,0,.85,0,1.31-.07l1.25.05c.79,0,1.61-.08,2.4-.1l.64,0a9.79,9.79,0,0,0,1.81.16,25.19,25.19,0,0,0,3.25-.06,6.55,6.55,0,0,0,2.73-.6c.7-.42.59-1.29.64-2C50.4,94,50,92.35,50,90.72c0-1.82-.18-3.61-.18-5.43,0-1.25,0-2.51,0-3.76l0,0c.86-1.66,1.89-3.25,2.88-4.84.42-.68.87-1.34,1.28-2a10.65,10.65,0,0,0,.57-1,2.09,2.09,0,0,1,.26-.49.2.2,0,0,1,.36,0,2.09,2.09,0,0,1,.26.49c.17.36.37.71.57,1,.41.69.86,1.35,1.28,2,1,1.59,2,3.18,2.88,4.84l0,0c0,1.25,0,2.51,0,3.76,0,1.82-.15,3.61-.18,5.43,0,1.63-.41,3.25-.29,4.89.05.72-.06,1.59.64,2a6.55,6.55,0,0,0,2.73.6,25.19,25.19,0,0,0,3.25.06,9.79,9.79,0,0,0,1.81-.16l.64,0c.79,0,1.61.11,2.4.1l1.25-.05c.46.05.94.05,1.31.07A25.34,25.34,0,0,0,77,98.22a6.5,6.5,0,0,0,2.72-.6c.7-.42.59-1.29.64-2C80.49,94,80.1,92.35,80.08,90.72ZM43,25.35a.21.21,0,0,0,.12,0,3.94,3.94,0,0,1,.4,1.86c.06.8,0,1.62,0,2.43,0,.11,0,.23,0,.34l-.36,0h-.37c0-1.59,0-3.19,0-4.78A1.39,1.39,0,0,0,43,25.35Zm-3.94-7.19a1.3,1.3,0,0,1,.07-.65,2.61,2.61,0,0,1,.34-.42l.08-.05c1-.48,1.65,1,1,1.66a1.27,1.27,0,0,1-.74.33l0,0c-.14-.1-.29-.09-.42-.21A1.15,1.15,0,0,1,39.06,18.16Zm-2.67,9.09a3.61,3.61,0,0,1,.42-1.89c-.05,1.53-.07,3.07-.06,4.61l-.31.05h-.09c0-.11,0-.23,0-.34C36.4,28.87,36.33,28.05,36.39,27.25ZM35.1,35.38a16.54,16.54,0,0,1,.2-3.22c.09-.47.06-.86.54-1.08a2.89,2.89,0,0,1,.91-.21c0,2.09,0,4.19.06,6.29l-.2.06c-.49,0-1,.1-1.46.17l-.1,0A6.61,6.61,0,0,0,35.1,35.38ZM32.52,56.05c.12-1.83.16-3.63.34-5.46.08-.81-.21-2.15.83-2.36a3.33,3.33,0,0,1,.54-.07V61.47c-.49.05-1.06,0-1.6,0,0-.91,0-1.84,0-2.75S32.47,56.93,32.52,56.05Zm1.7,27.14c0,4.59-.09,9.21,0,13.81A7.57,7.57,0,0,1,31,96.52a7.16,7.16,0,0,1-.08-1.59c0-.67.05-1.37.08-2s.11-1,.17-1.55c.07-.69,0-1.38.06-2.08a82.57,82.57,0,0,0,.11-8.62c0-2.82.12-5.63.15-8.43A68.22,68.22,0,0,1,31.71,64,2.27,2.27,0,0,1,32,62.85c.23-.25.49-.23.82-.24s.92,0,1.37,0C34.23,69.44,34.24,76.31,34.22,83.19Zm-.2-36A.35.35,0,0,0,34,47h0a.34.34,0,0,0,0-.2c0-.3-.08-.6-.09-.9a13.07,13.07,0,0,1-.07-2,27.06,27.06,0,0,1,.29-3.25c.1-.49.22-1,.32-1.46.16-.81.79-.83,1.5-.89l.87-.06c0,.26,0,.51,0,.77q0,4,0,8c-.71,0-1.41.06-2.12.05A4.85,4.85,0,0,0,34,47.15Zm.67,1a9.09,9.09,0,0,0,1.17,0,7.61,7.61,0,0,1,1-.08V61.32a14.91,14.91,0,0,0-2.12.1Zm2.12,35c0,4.62-.1,9.26-.05,13.9h-.27c-.55,0-1.1,0-1.65-.08h-.1c0-3.94,0-7.89,0-11.82,0-4.94,0-9.87,0-14.81V62.53h.1c.4,0,.8-.06,1.21-.08a.29.29,0,0,0,.26,0l.14,0h.41Q36.83,72.79,36.81,83.19Zm.45-50.6c0-.58,0-1.17,0-1.75a5.9,5.9,0,0,0,1.28-.15h.14l.92,0c0,2.11,0,4.23.06,6.35l-1.1,0c-.43,0-.87,0-1.3,0C37.27,35.58,37.26,34.08,37.26,32.59Zm2.41,50.6c0,4.62-.1,9.26-.05,13.88a7.38,7.38,0,0,1-.94,0c-.46,0-.91,0-1.35,0,0-4,0-7.92,0-11.87q0-7.41,0-14.81v-8c.27,0,.55,0,.82-.07.55,0,1.09.13,1.58.16Q39.68,72.83,39.67,83.19Zm-2.4-35.14c.33,0,.65,0,1,0,.46,0,1,0,1.44,0v5.86c0,2.48,0,5,0,7.45l-.69,0a8.74,8.74,0,0,0-1.14,0l-.57-.05Zm2.4-1c-.56,0-1.12,0-1.62.09h-.12l-.47,0h-.19V38.24a12.25,12.25,0,0,0,2-.24h.39v1C39.67,41.69,39.67,44.35,39.67,47Zm-.06-17.14-.92,0c-.5,0-1,0-1.41,0,0-1.64,0-3.28,0-4.91l.11,0a3.84,3.84,0,0,1,.46-.11,7.27,7.27,0,0,0,1.86.07C39.63,26.57,39.61,28.21,39.61,29.86Zm-.67-5.69a3.86,3.86,0,0,0-1.52-.1l.23-.4c.31-.54.66-1,1-1.57a10,10,0,0,1,.86-1.7c.28-.29.44-.25.78,0a3.55,3.55,0,0,1,.5.59,7.4,7.4,0,0,1,.93,1.84c.15.33.27.77.43,1.19a3.61,3.61,0,0,0-.87.06,4.66,4.66,0,0,0-1.18,0C39.71,24.13,39.33,24.14,38.94,24.17Zm1.18,8.42c0-.65,0-1.31,0-2l.55,0a3.9,3.9,0,0,0,.59,0,4.92,4.92,0,0,0,1,.15c0,2.12.05,4.25.06,6.36-.23,0-.47,0-.7,0A5.52,5.52,0,0,0,40.13,37C40.13,35.53,40.13,34.06,40.12,32.59Zm2.23,50.6c0,4.64-.1,9.29-.05,13.94A10.71,10.71,0,0,0,40.9,97l-.71,0c0-3.94,0-7.89,0-11.83q0-7.41,0-14.81v-7.9a5,5,0,0,0,1.64-.18l.57,0Q42.36,72.77,42.35,83.19ZM40.14,48.08A5.28,5.28,0,0,0,41.27,48h0c.35,0,.7,0,1.05.05V61.35c-.28,0-.55,0-.82.1-.46,0-.93,0-1.39-.05Zm2.21-1c-.36,0-.73,0-1.1,0A5.72,5.72,0,0,0,40.14,47V41.07c0-1,0-2,0-3.07l.41,0a12,12,0,0,0,1.81.25c0,.27,0,.54,0,.81Q42.35,43.06,42.35,47.09ZM42.29,30l-.42,0a6,6,0,0,0-1.73-.18c0-1.66,0-3.31,0-5a10.54,10.54,0,0,0,1.38-.09,6.5,6.5,0,0,1,.87.12C42.31,26.62,42.28,28.31,42.29,30Zm.51,2.58c0-.58,0-1.16,0-1.75a3.76,3.76,0,0,1,1.26.24c.48.22.45.61.54,1.08a17.36,17.36,0,0,1,.2,3.22,6.31,6.31,0,0,0,0,2l-.11,0a17.45,17.45,0,0,0-1.94-.2C42.81,35.66,42.8,34.12,42.8,32.59Zm0,15.44a10,10,0,0,1,1.23.09,8.33,8.33,0,0,0,1.12,0V61.41a15.17,15.17,0,0,0-2.34-.08Q42.82,54.67,42.81,48Zm2.34,35.16c0,4.6-.09,9.22,0,13.83h0c-.65,0-1.31,0-2,.1l-.25,0c0-4,0-8,0-12q0-7.41,0-14.81v-8c.77,0,1.54,0,2.3.13h0C45.16,69.41,45.17,76.3,45.15,83.19ZM42.81,47.08V38.25l1.16.08c.7.06,1.33.08,1.5.89.09.49.21,1,.31,1.46a29.29,29.29,0,0,1,.3,3.25,14.51,14.51,0,0,1-.07,2c0,.3-.09.6-.1.9a.34.34,0,0,0,0,.2h0a.74.74,0,0,0,0,.14,4.75,4.75,0,0,0-.66,0C44.41,47.14,43.62,47.07,42.81,47.08Zm2.81,1.08a4.09,4.09,0,0,1,.6.07c1,.21.74,1.55.82,2.36.19,1.83.23,3.63.34,5.46.06.88-.12,1.79-.12,2.69s0,1.84,0,2.75c-.55,0-1.14,0-1.65,0Zm3.3,48.36a7.88,7.88,0,0,1-3.25.48c0-3.93,0-7.87,0-11.8,0-4.94,0-9.87,0-14.81V62.57c.47,0,.94,0,1.42,0s.6,0,.83.24A2.23,2.23,0,0,1,48.19,64a68.22,68.22,0,0,1,.23,8.22c0,2.8.17,5.61.16,8.42a82.73,82.73,0,0,0,.1,8.63c.07.7,0,1.39.07,2.08,0,.51.14,1,.17,1.55s.08,1.36.08,2A7.16,7.16,0,0,1,48.92,96.52Zm.67-26.63a3.31,3.31,0,0,1-.06-.7c.07-.28.46-.27.68-.26.94,0,1.87.08,2.81.11l1,0c0,.4-.08.8-.12,1.2h0c-.84,0-1.66.07-2.5.08a11.92,11.92,0,0,0-1.79.08Zm0,1.93c0-.34,0-.68,0-1a23.91,23.91,0,0,0,4.23,0,1.79,1.79,0,0,0,0,.23c0,.21-.08.49-.08.74h-1A28.61,28.61,0,0,0,49.62,71.82Zm.06,1.52,0-.74a10.18,10.18,0,0,0,2.69.1h.59a7.1,7.1,0,0,0-.63.91c-.37.61-.77,1.21-1.16,1.81S50.39,77,49.9,77.7l-.12.19C49.78,76.37,49.77,74.84,49.68,73.34Zm3.88.71c-.48.85-1,1.64-1.56,2.47s-.81,1.49-1.28,2.2c-.31.47-.64.91-.93,1.38,0-.25,0-.5,0-.75.24-.46.43-.95.71-1.38.44-.64.69-1.38,1.09-2,.65-1.07,1.46-2.07,2-3.21l.79,0A12.75,12.75,0,0,0,53.56,74.05Zm1.89-3.45a6.24,6.24,0,0,0-.06,1.15h-1c0-.29-.05-.62,0-.86,0-.61.08-1.22.08-1.83h1.17C55.5,69.56,55.49,70.1,55.45,70.6Zm4.76,9.5c-.29-.47-.63-.91-.94-1.38-.46-.71-.83-1.48-1.28-2.2s-1.08-1.62-1.56-2.47a11.18,11.18,0,0,0-.82-1.32h.79c.55,1.13,1.37,2.13,2,3.2.4.67.64,1.41,1.08,2a12.86,12.86,0,0,1,.71,1.38Zm.11-6.76c-.09,1.5-.1,3-.1,4.55a2.14,2.14,0,0,0-.13-.19c-.49-.71-.76-1.55-1.23-2.27s-.79-1.19-1.17-1.81a6.12,6.12,0,0,0-.62-.91h.59a10.18,10.18,0,0,0,2.69-.1Zm.06-1.52a28.61,28.61,0,0,0-3.14-.08H56.1c0-.35,0-.72,0-1a10.65,10.65,0,0,0,2.46,0c.57,0,1.26,0,1.86,0C60.39,71.05,60.39,71.44,60.38,71.82Zm0-1.93v.2a9.67,9.67,0,0,0-1.87.07,20.06,20.06,0,0,0-2.46.18A5.56,5.56,0,0,0,56,69.05c1.26,0,2.52-.06,3.77-.12.23,0,.62,0,.69.26A4.14,4.14,0,0,1,60.41,69.89Zm16.73-19.3c.18,1.83.22,3.63.34,5.46,0,.88-.13,1.79-.12,2.69s0,1.84,0,2.75c-.53,0-1.1,0-1.59,0V48.16a3.33,3.33,0,0,1,.54.07C77.34,48.44,77.06,49.78,77.14,50.59Zm-3-19.51c.48.22.45.61.54,1.08a17.36,17.36,0,0,1,.2,3.22,6.61,6.61,0,0,0,0,2l-.1,0c-.48-.07-1-.13-1.46-.17l-.2-.06c0-2.1,0-4.2.06-6.29A2.89,2.89,0,0,1,74.16,31.08Zm-.55-3.83c.06.8,0,1.62,0,2.43,0,.11,0,.23,0,.34h-.08L73.25,30c0-1.54,0-3.08-.06-4.61A3.71,3.71,0,0,1,73.61,27.25ZM70.45,17l.08.05a2.61,2.61,0,0,1,.34.42,1.22,1.22,0,0,1-.25,1.29c-.13.12-.28.11-.42.21s0,0,0,0a1.24,1.24,0,0,1-.74-.33C68.8,18,69.44,16.56,70.45,17Zm-4,10.21a3.94,3.94,0,0,1,.4-1.86.28.28,0,0,0,.12,0,1.39,1.39,0,0,0,.19-.15c0,1.59,0,3.19,0,4.78H66.8l-.35,0c0-.11,0-.23,0-.34C66.5,28.87,66.42,28.05,66.48,27.25ZM64.37,70.39c0,4.94,0,9.87,0,14.81,0,3.93-.07,7.87,0,11.8a7.88,7.88,0,0,1-3.25-.48A7.16,7.16,0,0,1,61,94.93c0-.67,0-1.37.08-2s.11-1,.17-1.55c.07-.69,0-1.38.06-2.08a82.57,82.57,0,0,0,.11-8.62c0-2.82.13-5.63.16-8.43A68.22,68.22,0,0,1,61.8,64a2.37,2.37,0,0,1,.33-1.15c.23-.25.49-.23.82-.24.49,0,.95,0,1.42,0Zm0-8.92c-.51.06-1.1,0-1.65,0,.05-.91,0-1.84,0-2.75s-.17-1.81-.11-2.69c.11-1.83.15-3.63.33-5.46.09-.81-.2-2.15.83-2.36a4.09,4.09,0,0,1,.6-.07Zm2.8,8.92q0,7.41,0,14.81c0,4-.07,8,0,12l-.24,0c-.65-.07-1.31-.05-2-.1h0c0-4.61,0-9.23,0-13.83,0-6.89,0-13.78,0-20.66h0c.76-.08,1.53-.09,2.3-.13Zm0-9.06a15.17,15.17,0,0,0-2.34.08V48.16a8.39,8.39,0,0,0,1.12,0A9.87,9.87,0,0,1,67.18,48Zm0-20.26v6c-.8,0-1.59.06-2.4.05a5,5,0,0,0-.67,0,.35.35,0,0,0,0-.14h0a.45.45,0,0,0,0-.2c0-.3-.08-.6-.1-.9a14.51,14.51,0,0,1-.07-2,27.07,27.07,0,0,1,.3-3.25c.1-.49.21-1,.31-1.46.17-.81.8-.83,1.5-.89l1.16-.08C67.19,39.19,67.18,40.13,67.18,41.07Zm0-3.88a17.21,17.21,0,0,0-1.94.2l-.11,0a6.61,6.61,0,0,0,0-2,17.36,17.36,0,0,1,.2-3.22c.09-.47.06-.86.54-1.08a3.76,3.76,0,0,1,1.26-.24c0,.59,0,1.17,0,1.75C67.19,34.12,67.19,35.66,67.19,37.19Zm2.67,33.2q0,7.41,0,14.81c0,3.94-.08,7.89,0,11.83l-.71,0a10.71,10.71,0,0,0-1.4.12c0-4.65,0-9.3,0-13.94q0-10.43,0-20.83l.58,0a5.34,5.34,0,0,0,1.64.19Zm0-9c-.46,0-.93,0-1.39.05l-.83-.1q0-3.7,0-7.41V48c.35,0,.7,0,1-.05h0a5.38,5.38,0,0,0,1.14.11Zm0-20.33V47a5.91,5.91,0,0,0-1.12.12c-.36,0-.73,0-1.09,0q0-4,0-8.05v-.81A11.91,11.91,0,0,0,69.46,38l.41,0C69.87,39,69.86,40.05,69.86,41.07Zm0-4.07a5.47,5.47,0,0,0-1.52.21c-.23,0-.47,0-.7,0,0-2.11,0-4.24.06-6.36a4.92,4.92,0,0,0,1-.15,3,3,0,0,0,.59,0l.54,0c0,.65,0,1.31,0,2Zm0-7.15a6.06,6.06,0,0,0-1.74.18l-.41,0c0-1.7,0-3.39-.08-5.09a6.5,6.5,0,0,1,.87-.12,10.43,10.43,0,0,0,1.38.09C69.83,26.54,69.84,28.19,69.86,29.85ZM68.74,24.1a4.29,4.29,0,0,0-.88-.06c.16-.42.29-.85.43-1.19A8,8,0,0,1,69.23,21a3.55,3.55,0,0,1,.5-.59c.33-.27.5-.31.78,0a10,10,0,0,1,.86,1.7c.31.53.67,1,1,1.57.06.11.13.25.22.4a3.89,3.89,0,0,0-1.52.1c-.38,0-.76,0-1.14-.08A4.59,4.59,0,0,0,68.74,24.1Zm3.42.76a4,4,0,0,1,.47.11l.1,0c0,1.63,0,3.27,0,4.91-.46,0-.91,0-1.41,0l-.92,0c0-1.65,0-3.29-.08-4.93A7.18,7.18,0,0,0,72.16,24.86Zm.56,45.53q0,7.41,0,14.81c0,4-.07,7.91,0,11.87-.44,0-.89,0-1.35,0a7.6,7.6,0,0,1-.95,0c0-4.62,0-9.26,0-13.88q0-10.36,0-20.72c.48,0,1-.12,1.58-.16.27,0,.55.06.82.07Zm0-9.06-.58.05a8.72,8.72,0,0,0-1.14,0l-.68,0V48.08c.49,0,1,0,1.44,0s.64,0,1,0Zm0-20.26v6h-.18l-.47,0h-.13c-.5,0-1-.08-1.62-.09V38h.39a13.43,13.43,0,0,0,2,.24C72.73,39.19,72.72,40.13,72.72,41.07Zm0-4c-.43,0-.87,0-1.3,0l-1.1,0c0-2.12,0-4.24,0-6.35l.93,0h.14a5.9,5.9,0,0,0,1.28.15c0,.58,0,1.17,0,1.75C72.73,34.08,72.73,35.58,72.73,37.07ZM75.3,70.39q0,7.41,0,14.81c0,3.93-.07,7.88,0,11.82h-.09c-.55,0-1.1,0-1.65.08h-.27c.05-4.64,0-9.28,0-13.9q0-10.39,0-20.78h.42l.14,0a.29.29,0,0,0,.26,0c.41,0,.81,0,1.21.08h.09Zm0-9a14.84,14.84,0,0,0-2.12-.1q0-3.69,0-7.38V48a7.45,7.45,0,0,1,.94.08,9.25,9.25,0,0,0,1.18,0Q75.31,54.79,75.3,61.42ZM73.19,47.08q0-4,0-8v-.77l.88.06c.7.06,1.33.08,1.5.89.1.49.21,1,.31,1.46a27.07,27.07,0,0,1,.3,3.25,14.51,14.51,0,0,1-.07,2c0,.3-.09.6-.1.9a.45.45,0,0,0,0,.2h0a.35.35,0,0,0,0,.14,4.9,4.9,0,0,0-.67,0C74.59,47.14,73.9,47.08,73.19,47.08ZM79,96.52a7.57,7.57,0,0,1-3.19.48c.05-4.6,0-9.22,0-13.81q0-10.32,0-20.62c.45,0,.9,0,1.37,0s.59,0,.82.24A2.27,2.27,0,0,1,78.29,64a68.22,68.22,0,0,1,.22,8.22c0,2.8.17,5.61.16,8.43a82.57,82.57,0,0,0,.11,8.62c.07.7,0,1.39.06,2.08.06.51.15,1,.17,1.55s.09,1.36.08,2A7.16,7.16,0,0,1,79,96.52Z" transform="translate(-29.6 -11.69)"/></svg>