<svg id="Layer_1" data-name="Layer 1" xmlns="http://www.w3.org/2000/svg" viewBox="0 0 73.56 78.2"><defs><style>.cls-1{fill:#fff;stroke:#0757b3;stroke-miterlimit:10;stroke-width:0.75px;}</style></defs><title>Netherland</title><path class="cls-1" d="M88.9,91.12V26.57l-10.05-10-10,10v5.91L55,16.37,41.19,32.48V26.57l-10-10-10,10V91.12H18.59v2.51H91.41V91.12Zm-7.54,0h-5v-5a2.51,2.51,0,0,1,5,0ZM78.85,81.07a5,5,0,0,0-5,5v5H71.32V78.56H86.38V91.12H83.87v-5A5,5,0,0,0,78.85,81.07ZM58.77,91.12H51.23V78.56h7.54ZM48.72,76.05V91.12H46.21V75.57L55,71.18l8.79,4.39V91.12H61.28V76.05Zm-10-42.68H34.54l4.14-3.55Zm12.55-1.26A3.77,3.77,0,1,1,55,35.88,3.77,3.77,0,0,1,51.23,32.11Zm17.58,6.28V40.9H41.19V38.39Zm2.51-2.51H86.38V50.94H83.87v-5a5,5,0,0,0-10,0v5H71.32ZM86.38,76.05H71.32V73.54H86.38Zm-47.7-5H36.17V66a5,5,0,0,0-10,0v5H23.62V58.48H38.68Zm-5,0h-5V66a2.51,2.51,0,1,1,5,0Zm-10-35.15H38.68V50.94H36.17v-5a5,5,0,0,0-10,0v5H23.62ZM68.81,61H62.09a11.28,11.28,0,0,0,0-17.58h6.72ZM55,50.94a1.26,1.26,0,1,1-1.26,1.26A1.27,1.27,0,0,1,55,50.94Zm1.26,10V55.73a3.76,3.76,0,0,0,2.28-2.28h5.15A8.81,8.81,0,0,1,56.26,60.89Zm2.28-10a3.78,3.78,0,0,0-2.28-2.28V43.51a8.79,8.79,0,0,1,7.43,7.43Zm-4.8-7.43v5.15a3.78,3.78,0,0,0-2.28,2.28H46.31A8.79,8.79,0,0,1,53.74,43.51Zm-2.28,9.94a3.76,3.76,0,0,0,2.28,2.28v5.16a8.81,8.81,0,0,1-7.43-7.44ZM43.7,52.2A11.3,11.3,0,0,0,47.91,61H41.19V43.41h6.72A11.29,11.29,0,0,0,43.7,52.2Zm-10-1.26h-5v-5a2.51,2.51,0,1,1,5,0Zm-10,2.51H38.68V56H23.62Zm17.57,10H68.81V66H41.19ZM81.36,71h-5V66a2.51,2.51,0,1,1,5,0Zm5,0H83.87V66a5,5,0,0,0-10,0v5H71.32V58.48H86.38Zm0-15.07H71.32V53.45H86.38Zm-5-5h-5v-5a2.51,2.51,0,1,1,5,0Zm5-17.57H82.25l4.13-3.55Zm-6.27-1.48V21.33L85.79,27Zm-2.51,0L71.91,27l5.69-5.69Zm-2.14,1.48H71.32V29.82ZM32.4,31.89V21.33L38.09,27Zm-2.51,0L24.2,27l5.69-5.69Zm-2.14,1.48H23.62V29.82ZM23.62,73.54H38.68v2.51H23.62Zm17.57-5H54.7L43.7,74v17.1H41.19Zm14.11,0H68.81v22.6H66.3V74ZM68.41,35.88H60a6.2,6.2,0,0,0,1.29-3.77,6.28,6.28,0,0,0-12.56,0A6.2,6.2,0,0,0,50,35.88H41.59L55,20.23ZM23.62,78.56H38.68V91.12H36.17v-5a5,5,0,0,0-10,0v5H23.62Zm10,12.56h-5v-5a2.51,2.51,0,0,1,5,0Z" transform="translate(-18.22 -15.8)"/></svg>