<svg id="Layer_1" data-name="Layer 1" xmlns="http://www.w3.org/2000/svg" viewBox="0 0 90.18 90.15"><defs><style>.cls-1{fill:#fff;stroke:#0757b3;stroke-miterlimit:10;stroke-width:1.5px;}</style></defs><title>Portugal</title><path class="cls-1" d="M11.68,94.3a1.4,1.4,0,0,0,1.4-1.4V71.14H34.8a1.4,1.4,0,0,0,0-2.79H31.26V61.28a1.4,1.4,0,0,0-.45-1l-2.94-2.74a1.4,1.4,0,0,0-1.91,0L23,60.26a1.39,1.39,0,0,0-.44,1v7.07H19V61.28a1.39,1.39,0,0,0-.44-1l-2.94-2.74a1.4,1.4,0,0,0-1.91,0l-2.94,2.74a1.39,1.39,0,0,0-.44,1v4.26a1.4,1.4,0,0,0,2.79,0V61.89l1.54-1.44,1.55,1.44v6.46H11.68a1.39,1.39,0,0,0-1.39,1.4V92.9a1.39,1.39,0,0,0,1.39,1.4ZM25.37,61.89l1.55-1.44,1.54,1.44v6.46H25.37Z" transform="translate(-9.91 -9.93)"/><path class="cls-1" d="M95.76,85.94a1.4,1.4,0,0,0-1.4,1.4V96.9H11.68a1.4,1.4,0,0,0,0,2.8H95.76a1.4,1.4,0,0,0,1.39-1.4v-11A1.4,1.4,0,0,0,95.76,85.94Z" transform="translate(-9.91 -9.93)"/><path class="cls-1" d="M39.8,71.14H41a1.4,1.4,0,1,0,0-2.79H39.8a1.4,1.4,0,0,0,0,2.79Z" transform="translate(-9.91 -9.93)"/><path class="cls-1" d="M98.32,34H97.15V14.44a1.39,1.39,0,0,0-.44-1l-2.94-2.74a1.4,1.4,0,0,0-1.91,0l-2.94,2.74a1.39,1.39,0,0,0-.44,1v5.17h-14V14.44a1.39,1.39,0,0,0-.44-1L71.1,10.68a1.4,1.4,0,0,0-1.91,0l-2.94,2.74a1.39,1.39,0,0,0-.44,1V34H64.64a1.4,1.4,0,0,0-1.39,1.4v5.8a1.4,1.4,0,0,0,1.39,1.4H94.36V68.35H68.6V46.06a1.4,1.4,0,1,0-2.79,0V68.35H46.09a1.4,1.4,0,1,0,0,2.79H94.36V82.07a1.4,1.4,0,0,0,2.8,0V42.59h1.16a1.4,1.4,0,0,0,1.39-1.4v-5.8A1.4,1.4,0,0,0,98.32,34Zm-13.2-4.4-3.26-2.74a1.39,1.39,0,0,0-1.8,0l-3.25,2.74a1.38,1.38,0,0,0-.5,1.07v3.23H68.6V22.4H94.36V33.89H79.11V31.31L81,29.74l2.36,2a1.4,1.4,0,1,0,1.8-2.14Zm6.15-14.54,1.55-1.44,1.54,1.44v4.56H91.27Zm-22.67,0,1.54-1.44,1.55,1.44v4.56H68.6ZM66,36.79H96.92v3H66Z" transform="translate(-9.91 -9.93)"/><path class="cls-1" d="M23.35,79.44A1.4,1.4,0,0,0,22,80.83v6.51a1.4,1.4,0,0,0,1.4,1.4h6.51a1.4,1.4,0,0,0,1.4-1.4V80.83a1.4,1.4,0,0,0-1.4-1.39Zm5.11,6.5H24.75V82.23h3.71Z" transform="translate(-9.91 -9.93)"/><path class="cls-1" d="M48,84.29a1.4,1.4,0,0,0,1.39-1.4V80.83A1.39,1.39,0,0,0,48,79.44H41.53a1.4,1.4,0,0,0-1.4,1.39v6.51a1.4,1.4,0,0,0,1.4,1.4H48a1.4,1.4,0,0,0,0-2.8H42.92V82.23h3.72v.66a1.4,1.4,0,0,0,1.4,1.4Z" transform="translate(-9.91 -9.93)"/><path class="cls-1" d="M66.21,88.74a1.4,1.4,0,0,0,1.4-1.4V80.83a1.39,1.39,0,0,0-1.4-1.39H59.7a1.39,1.39,0,0,0-1.39,1.39v6.51a1.4,1.4,0,0,0,1.39,1.4ZM61.1,82.23h3.72v3.71H61.1Z" transform="translate(-9.91 -9.93)"/><path class="cls-1" d="M84.22,88.74a1.4,1.4,0,0,0,1.39-1.4V80.83a1.39,1.39,0,0,0-1.39-1.39H77.71a1.4,1.4,0,0,0-1.4,1.39v6.51a1.4,1.4,0,0,0,1.4,1.4Zm-5.11-6.51h3.71v3.71H79.11Z" transform="translate(-9.91 -9.93)"/><path class="cls-1" d="M76.31,65a1.4,1.4,0,0,0,1.4,1.39h6.51A1.39,1.39,0,0,0,85.61,65V60.34a1.42,1.42,0,0,0-.49-1.07l-3.26-2.74a1.39,1.39,0,0,0-1.8,0l-3.25,2.74a1.4,1.4,0,0,0-.5,1.07V65Zm2.8-4L81,59.43,82.82,61v2.58H79.11Z" transform="translate(-9.91 -9.93)"/><path class="cls-1" d="M77.71,54.83h6.51a1.4,1.4,0,0,0,1.39-1.4V48.8a1.42,1.42,0,0,0-.49-1.07L81.86,45a1.39,1.39,0,0,0-1.8,0l-3.25,2.74a1.4,1.4,0,0,0-.5,1.07v4.63a1.4,1.4,0,0,0,1.4,1.4Zm1.4-5.38L81,47.89l1.86,1.56V52H79.11Z" transform="translate(-9.91 -9.93)"/></svg>