<svg id="Layer_1" data-name="Layer 1" xmlns="http://www.w3.org/2000/svg" viewBox="0 0 49.19 94.97"><defs><style>.cls-1{fill:#fff;stroke:#0757b3;stroke-miterlimit:10;}</style></defs><title>singapore</title><path class="cls-1" d="M66.74,96.22c5.48-2.26,9-9.11,8.35-14.34C74,73.27,69.62,73.62,69.62,67.3S76.42,51,78,49.51s1.39-1.34-.52-2.39-4.7.32-4.7.32l-2.09.86s-.27-1.48-.67-4-3.64-7-3.64-7,5.37.53,6.08-1.23A2.14,2.14,0,0,0,72,33.41V31.57l-.8.4-1.36.08-.32-.88a3.37,3.37,0,0,1-1.84.72c-1,0-4.32-.37-4.93-1.59-1.41-2.81-.66-3.48,1.82-4.54,3.77-1.63,6.86,1.61,6.86,1.61l.31,1a2.35,2.35,0,0,1,1.45-.7,2.75,2.75,0,0,1,1.39.16s.63-.07,1.27-1.68a5.77,5.77,0,0,0,.32-3.12A5.21,5.21,0,0,1,76.49,21c.32-1.05-.41-2.25-1.77-3S69.28,17,69.28,17a1.51,1.51,0,0,0-.16-1.27c-.4-.74-1.11-1.29-3.21-2.17s-2.16-3.3-6.72-5-13.63,1.9-13.63,1.9a3.63,3.63,0,0,0-2.08-.4c-1.13.18-3.21-.39-3.44-.22s.8,2.88.8,2.88a10.12,10.12,0,0,0-2.65,2.56,19.86,19.86,0,0,0-2.88,9.61,24.09,24.09,0,0,1-1.76,8.09c-.32.72,3.7-.57,3.7-.57s-.34,1.22-1.13,4.58-2.81,9.54-3.29,10.9,3.9-.57,3.9-.57-.39,2.07-1.55,6.07c-1.09,3.75-3.86,7.18-4.25,8.38s4.71,1.75,4.71,1.75S29.26,71.9,32.48,81.7C36.27,93.24,43.3,96.22,43.3,96.22H34.74V102H78V96.22Zm8.72-76.76a2.26,2.26,0,0,1,.14,2.25c-.23.64-1.67-2.47-1.67-2.47C74.58,18.42,74.89,18.91,75.46,19.46ZM61.74,17.38a3.61,3.61,0,0,1,2.73-.31c1.69.4,1.28,1,1.28,1a9.82,9.82,0,0,1-2.08.31A6,6,0,0,1,61,17.71Zm-11-3.61s-4.08,11.72.35,23.51C54.71,47,62.53,57,62.53,57S50.64,53.87,45.69,39C41.78,27.28,50.71,13.77,50.71,13.77ZM62.06,85.23s-.24-1-.4-.7-.63.39-1.11.7c-2.8,1.9-5.68-8-1.5-10.24,0,0,5.79-.15,7,3.62C67.3,82.75,62.06,85.23,62.06,85.23ZM65.59,55.7a27.15,27.15,0,0,0-4.92-11.55c-12.13-16-6.53-27.57-6.53-27.57A27.87,27.87,0,0,0,54.45,22c.49,3.21,1,7.36,5.07,11.48A23,23,0,0,1,65.59,55.7Z" transform="translate(-30.41 -7.52)"/></svg>