<svg id="Layer_1" data-name="Layer 1" xmlns="http://www.w3.org/2000/svg" viewBox="0 0 37.96 84.54"><defs><style>.cls-1{fill:#fff;stroke:#0757b3;stroke-miterlimit:10;stroke-width:0.75px;}</style></defs><title>UAE</title><path class="cls-1" d="M68.26,87.75V80.34H65.65V67.2H63.38V42.75H59.47V22.58H56.36V13.1H53.7v9.48H51.1V37.74H48.29V53.37H46.74V67.21H44.38V78.73H41.27v9H36.4V96.9H73.6V87.75ZM43.93,81.39H50.7V78.73H47V69.87h6V67.21H49.4V56h5.21V53.37H51v-13h2.81V25.24h3.05V42.75H53.88v2.66h6.84v21.8H57.06v2.66H63V80.34H59.33V83H65.6v4.75H43.93Zm27,12.85H39.06V90.41H70.94v3.83Z" transform="translate(-36.02 -12.73)"/></svg>