<svg id="Layer_1" data-name="Layer 1" xmlns="http://www.w3.org/2000/svg" viewBox="0 0 27.71 92.05"><defs><style>.cls-1{fill:#0757b3;}</style></defs><title>USA</title><path class="cls-1" d="M51.28,33.5a.14.14,0,0,0-.27,0,11.08,11.08,0,0,1-.87,2.76,12.34,12.34,0,0,1-1.26,2.58c-.09.12.1.25.2.16a6.2,6.2,0,0,0,1.61-2.42A7.41,7.41,0,0,0,51.28,33.5Z" transform="translate(-41.14 -8.98)"/><path class="cls-1" d="M51.39,37c-.39.93-1,1.85-1.44,2.77a5.5,5.5,0,0,0-.48,2.82.06.06,0,0,0,.1,0,1.73,1.73,0,0,0,.32-.93,8.16,8.16,0,0,1,.71-2,5.92,5.92,0,0,0,1-2.61C51.59,36.92,51.44,36.86,51.39,37Z" transform="translate(-41.14 -8.98)"/><path class="cls-1" d="M49.76,32.76c-.5.36-1,.76-1.47,1.13-.24.17-.53.26-.75.44a1.59,1.59,0,0,1-.61.36.11.11,0,0,0,0,.2,1.08,1.08,0,0,0,.73-.07l.63-.33a3.91,3.91,0,0,0,1.58-1.62C49.9,32.8,49.83,32.71,49.76,32.76Z" transform="translate(-41.14 -8.98)"/><path class="cls-1" d="M57.55,40.24a.06.06,0,0,0-.11,0c-1.17,2-.93,4.66-1.43,6.87-.32,1.4-.75,2.75-1.19,4.12a26.1,26.1,0,0,1-1.1,3.72.07.07,0,0,0,.12.07,16.11,16.11,0,0,0,.86-1.65,18.42,18.42,0,0,0,.82-1.67,24.71,24.71,0,0,0,1.25-4.2c.31-1.4.32-2.83.51-4.24A9,9,0,0,0,57.55,40.24Z" transform="translate(-41.14 -8.98)"/><path class="cls-1" d="M53.38,56.05s0,0,0,0S53.39,56.05,53.38,56.05Z" transform="translate(-41.14 -8.98)"/><path class="cls-1" d="M54.34,44.51c-1,1.76-2.11,3.49-2.94,5.33a17.47,17.47,0,0,0-1,2.9,28.3,28.3,0,0,0-.48,3.43.09.09,0,0,0,.18,0A31.52,31.52,0,0,0,50.86,53,18.68,18.68,0,0,1,52.06,50c.43-.86.91-1.7,1.36-2.55a28.52,28.52,0,0,0,1.17-2.8C54.65,44.47,54.41,44.37,54.34,44.51Z" transform="translate(-41.14 -8.98)"/><path class="cls-1" d="M60.5,68.82a14.59,14.59,0,0,0,.22-2.63.12.12,0,1,0-.24,0c-.13,1.62-.46,3.23-.6,4.87-.12,1.47-.45,3.28,0,4.7a.21.21,0,0,0,.4,0,6.93,6.93,0,0,0,.07-2.32c0-.79,0-1.6,0-2.38S60.43,69.56,60.5,68.82Z" transform="translate(-41.14 -8.98)"/><path class="cls-1" d="M58.8,69.43A6.85,6.85,0,0,0,58.47,72a13.6,13.6,0,0,0,.13,3.19.19.19,0,0,0,.36,0c.12-.9-.05-1.82,0-2.73a11.61,11.61,0,0,1,.09-3C59.08,69.39,58.86,69.29,58.8,69.43Z" transform="translate(-41.14 -8.98)"/><path class="cls-1" d="M54.63,31a1.82,1.82,0,0,1-.4.11.46.46,0,0,1-.2,0c-.05,0-.06-.06-.12-.07s-.13,0-.14.08c-.08.48.92.46,1,.09A.15.15,0,0,0,54.63,31Z" transform="translate(-41.14 -8.98)"/><path class="cls-1" d="M56.62,31.06a1.34,1.34,0,0,1-.4,0l-.33,0a.12.12,0,0,0-.13.13c0,.23.19.27.39.3a.94.94,0,0,0,.62-.06A.2.2,0,0,0,56.62,31.06Z" transform="translate(-41.14 -8.98)"/><path class="cls-1" d="M55.88,32.58c-.09-.07-.2,0-.32,0l-.47,0c-.08,0-.51,0-.4.23s.47.11.64.1.45,0,.58-.15A.07.07,0,0,0,55.88,32.58Z" transform="translate(-41.14 -8.98)"/><path class="cls-1" d="M55.6,32c-.05,0-.06,0-.1,0a.75.75,0,0,0-.21,0h-.23a1,1,0,0,1-.17,0,.06.06,0,0,0-.07.07c0,.21.29.23.47.24a.34.34,0,0,0,.35-.19S55.63,32,55.6,32Z" transform="translate(-41.14 -8.98)"/><path class="cls-1" d="M68.45,45.05c.38-.69.67-1.74,0-2.34a6.76,6.76,0,0,0-1.63-.89,3.7,3.7,0,0,0-1.44-.47c-1.2-.07-1.58.92-2.15,1.8a1.46,1.46,0,0,1-.54-.56c-.16-.34-.15-.73-.33-1.07a2.85,2.85,0,0,0-.74-.77,1.62,1.62,0,0,0-.32-.32.51.51,0,0,0-.21-.06,6.36,6.36,0,0,0-.52-2.08c-.42-.83-1.26-1.08-1.91-1.64a.69.69,0,0,0-.14-.25,3.61,3.61,0,0,0,.14-1.46,4.09,4.09,0,0,1-.23-1.41c0-.24.15-.47.17-.72a3.16,3.16,0,0,0-.18-1.47,1.09,1.09,0,0,1,0-.69c0-.1.17-.6.24-.62h0c.82-.34,1.86.12,2.61-.38a.06.06,0,0,0,0-.1A2.28,2.28,0,0,0,60,29.31a4.42,4.42,0,0,1-.89,0l-.27-.07a1.74,1.74,0,0,0-.13-.64,1.26,1.26,0,0,1,.26-.14l.84-.38a4.13,4.13,0,0,0,1.37-.7.08.08,0,0,0-.06-.14,2.55,2.55,0,0,0-.56.14,5.43,5.43,0,0,0-.76.16c-.46.16-1,.21-1.5.38,0-.06-.09-.11-.13-.16a2.85,2.85,0,0,0-.6-.5c.33-.35.66-.71,1-1.09s.5-.56.49-.87a.06.06,0,0,0-.1-.05,10.67,10.67,0,0,1-1,.62,10.08,10.08,0,0,0-1.1,1l0,.05a4.65,4.65,0,0,0-1.27-.27.49.49,0,0,0-.06-.13c-.19-.26-.09-.72-.11-1A2.9,2.9,0,0,0,55,23.94a.06.06,0,0,0-.09,0c-.39.47-.2,1.12-.22,1.68a3.7,3.7,0,0,0,0,1,5.92,5.92,0,0,0-1.18.26,1.55,1.55,0,0,0-.46-.42c-.19-.13-.34-.3-.53-.43s-.5-.33-.74-.51A2.75,2.75,0,0,0,51,25a.08.08,0,0,0-.1.08c0,.53.64,1,1,1.36.16.17.3.36.46.51s.28.22.42.33a2.48,2.48,0,0,0-.63.58,3.71,3.71,0,0,0-.23.32H51.8a1.69,1.69,0,0,0-.45,0h-.27a2.72,2.72,0,0,1-.81-.06.13.13,0,0,0-.12.21,1.06,1.06,0,0,0,.48.22,2.7,2.7,0,0,1,.51.21.86.86,0,0,0,.23.13c.15.05,0,0,.11.05a1.63,1.63,0,0,0-.06.73c0,.2.25.82.45.79,0,0,0,0,0,0a1.58,1.58,0,0,0-.21.67,8.08,8.08,0,0,0,0,.85l-.23-.23c-.34-.36-.28-.49-.27-.93,0-.9-.41-1.82-1.27-1.44a2.84,2.84,0,0,0-.17-.49,4,4,0,0,1-.23-.57c.36-1.25-.1-2.06-.29-3.38a19,19,0,0,1-.52-4.41,5.29,5.29,0,0,0-.26-3.22,1.18,1.18,0,0,0-.41-.39,3.88,3.88,0,0,0,.11-1.13v-.14c.4,0,.86,0,1.06-.37a3.53,3.53,0,0,0,0-1.65c-.09-.74-.89-.88-1.68-.88A2.8,2.8,0,0,0,47.37,9a.18.18,0,0,0-.25,0,1.21,1.21,0,0,0-.24.73,4.9,4.9,0,0,1-.43-.58.2.2,0,0,0-.37.1,3.32,3.32,0,0,1-.47,1.65,2.76,2.76,0,0,0-.4,1,1.2,1.2,0,0,0,.42.93,3.39,3.39,0,0,0-1.19.27c-.43.2-.42.42-.45.86s-.12,1.13.27,1.49a1,1,0,0,0,.83.23,1.8,1.8,0,0,0,.44,1,.47.47,0,0,0-.43.63c0,.18.14.37.2.55s0,.6.1.89a1.06,1.06,0,0,0,.46.66,1.54,1.54,0,0,0,0,.8c.09.42.09.84.16,1.27a2.92,2.92,0,0,0,.22.8,12.25,12.25,0,0,0,0,2.42A20.26,20.26,0,0,0,46.35,27a4.54,4.54,0,0,0,.26.91,5.41,5.41,0,0,1,.27,1.92c0,.27,0,.53,0,.8h0a3.58,3.58,0,0,0-1,1.63,4,4,0,0,0-.39,1.26c0,.49.22.72.37,1.15.21.6-.33,1.35.07,1.9.18.25.34.24.62.3s.21-.26.53.19h0a4,4,0,0,0-.22,1.35c0,.66.6.9.55,1.58S47,41.14,47.1,41.7c0,.32.28.47.51.66a2.07,2.07,0,0,1,.86,1.29,4.23,4.23,0,0,0,.19,1.16c-.12.33-.11.71-.22,1a6.41,6.41,0,0,1-.5,1.1c-.23.42-.5.83-.7,1.26a3.41,3.41,0,0,0-.3,1.69,1.69,1.69,0,0,0,.38,1,4.64,4.64,0,0,0,.9,1.4,3.69,3.69,0,0,1-.28,1.12,3.26,3.26,0,0,0-.06,2.92,3.42,3.42,0,0,1,.46,1.24,5,5,0,0,1-.16,1.14,5.61,5.61,0,0,0,0,2A5.53,5.53,0,0,1,48.06,63a2.19,2.19,0,0,0,0,1.41,1.57,1.57,0,0,0,.24.33,6.2,6.2,0,0,0-.37.89,8,8,0,0,0-.23,1.53c-.05,1.27.24,2.45.26,3.71a2.77,2.77,0,0,1-.32,1.77A1.9,1.9,0,0,0,47.3,74c0,.21.13.39.15.6a1.7,1.7,0,0,1-.31,1c-.11.22-.25.44-.37.65a1,1,0,0,0-.17.94.82.82,0,0,0,.14.23c-.39.09-.87.17-1,.21a1.93,1.93,0,0,0-.91.73,2.2,2.2,0,0,0,0,1.64l-.27.05a1,1,0,0,0-.86.62c-.21.52.13.93.14,1.45s-.34.94-.41,1.47c0,.37.07,1.12,0,1.22-.32.25-1,.17-1.39.36a1.2,1.2,0,0,0-.63.94,7.25,7.25,0,0,0,0,3.34.89.89,0,0,0,.43.68c.09,0,.34.07.39.11a1.7,1.7,0,0,1,.4.93,5.87,5.87,0,0,1,0,.84c0,1.26-.1,2.52-.19,3.78,0,.6,0,1.19,0,1.78s-.17,1.37-.13,2a2.5,2.5,0,0,0,0,.29.4.4,0,0,0,.11.42,3.6,3.6,0,0,0,2.58.75c1.1,0,2.21-.1,3.32-.09,1.48,0,3,0,4.47-.05s3-.06,4.52-.06c1.75,0,3.49,0,5.24.06.94,0,2.92.19,3.51-.77.33-.54.06-1.2,0-1.78a16.45,16.45,0,0,1,0-2.33,34.51,34.51,0,0,0,.26-4.31,2.1,2.1,0,0,1,.78-1.64,1.47,1.47,0,0,0,.36-.7,7.37,7.37,0,0,0,0-2.39c-.06-.48,0-1.23-.51-1.49s-1,.07-1.32-.34-.07-.74-.27-1-.42-.23-.48-.6a5,5,0,0,1,.13-1.21,2.06,2.06,0,0,0-.61-2,1.7,1.7,0,0,0-.4-.24c.31-.5,0-1.46-.05-1.93A.18.18,0,0,0,64,78a.34.34,0,0,0-.1-.37A2.49,2.49,0,0,1,63,75.89c-.09-.84-.16-1.74-.18-2.59a20.65,20.65,0,0,0-.07-2.08,4.93,4.93,0,0,1,0-.55.62.62,0,0,0,.22.1c1.33.27,1.07-3,1.07-3.58a26.2,26.2,0,0,0-.44-5.68,2.45,2.45,0,0,0,.1-.54,7.34,7.34,0,0,0-.1-1.32A26.56,26.56,0,0,0,63.13,56a10.17,10.17,0,0,1-.27-1.26,1.47,1.47,0,0,0,.43.12A1.35,1.35,0,0,0,64.75,54c.14-.36.1-.75.21-1.11s.52-.7.72-1.13a3.44,3.44,0,0,0,.22-2.24.28.28,0,0,0,.28-.1,1.61,1.61,0,0,0,.58-.2,3.28,3.28,0,0,0,1.65-4.09Zm-6.86-3.32a1.87,1.87,0,0,1,.2.77,2.08,2.08,0,0,0,1,1.38,12.94,12.94,0,0,0-.78,1.2v-.14a20.14,20.14,0,0,0-.66-3.25c0-.12-.05-.24-.07-.37A4.47,4.47,0,0,1,61.59,41.73ZM57.71,28.52a1.52,1.52,0,0,1,.18.36,1.25,1.25,0,0,1,.08.56,1.67,1.67,0,0,0-.39-.41A2.93,2.93,0,0,0,57.71,28.52Zm-.81-.42a1.35,1.35,0,0,0,0-.29,2.25,2.25,0,0,1,.36.24,2.44,2.44,0,0,0-.14.28,1.89,1.89,0,0,0-.12.38l-.26-.12C56.82,28.43,56.85,28.26,56.9,28.1Zm-1.14-.69a5.13,5.13,0,0,1,.7.19c0,.13-.08.26-.13.39a1.62,1.62,0,0,0-.12.43,3.73,3.73,0,0,0-.46-.09,3.52,3.52,0,0,1-.1-.65l-.06-.29Zm-.65-.06a2.64,2.64,0,0,0,0,.93,3.94,3.94,0,0,0-.5,0l-.17,0a2.38,2.38,0,0,0-.25-.9A4.4,4.4,0,0,1,55.11,27.35Zm1.47,1.81a1.76,1.76,0,0,1,1,1.16A7.56,7.56,0,0,1,57.92,32a4,4,0,0,1-.16,1.46,1.8,1.8,0,0,0,0,1,4.69,4.69,0,0,1,.12,1.7h-.09a4.86,4.86,0,0,0-.88.09,1.55,1.55,0,0,0-.08-.36,4.71,4.71,0,0,1-.13-1.24c0-.36.08-.77,0-1.14a2.73,2.73,0,0,0,.6-2.37c0-.7-.27-.82-.87-1.21s-.88-.88-1.58-.71c-.29.07-.4.33-.62.5s-.78.29-1.1.55a1.27,1.27,0,0,0-.36,1.33,1.32,1.32,0,0,0,0,.37,3.07,3.07,0,0,0,.33,1,2.49,2.49,0,0,0,1.91,1.19,2,2,0,0,0,1.21-.22,7.4,7.4,0,0,0-.07,1.07,1.71,1.71,0,0,0,.38,1.34,3.56,3.56,0,0,0-.46.15,1.84,1.84,0,0,0-.46.27,4.55,4.55,0,0,1-1.19-1.32A1.69,1.69,0,0,0,54,35a1.41,1.41,0,0,1-.39-.49,3.91,3.91,0,0,0-.7-1,1.46,1.46,0,0,0-.7-.27c0-.06,0-.12,0-.18a2.59,2.59,0,0,0,.13-1.7c0-.14-.08-.27-.09-.4-.06-.85,1-1.6,1.72-1.88A3.47,3.47,0,0,1,56.58,29.16Zm-.2,3.93a1.74,1.74,0,0,1-2.09.12,2.2,2.2,0,0,1-1.06-1.58s0-.05,0-.07v0A2,2,0,0,1,54,30.38a2.56,2.56,0,0,0,.75-.51c.64-.69.88-.15,1.46.28a4,4,0,0,1,.59.38c.21.22.16.46.23.72a.19.19,0,0,0,.11.12A3.66,3.66,0,0,1,56.38,33.09Zm-2.62-5.53c0,.06,0,.12,0,.18a2.33,2.33,0,0,0,.12.73,3.85,3.85,0,0,0-.63.27.89.89,0,0,0-.19-.39l-.21-.27A2.55,2.55,0,0,1,53.76,27.56Zm-1.24.94a.69.69,0,0,0,0,.1,1,1,0,0,0,.26.42,3.23,3.23,0,0,0-.6.56l0,0A1.85,1.85,0,0,1,52.52,28.5ZM46.19,11a3,3,0,0,0,.31-1.09,2.35,2.35,0,0,0,.38.39.19.19,0,0,0,.32-.08c0-.18.06-.51.12-.75a2.07,2.07,0,0,1,.44,1.23,2.75,2.75,0,0,1-.33,1.35c-.11.25-.29.46-.42.72l-.54,0h-.32C45.7,12.14,45.86,11.69,46.19,11ZM44.52,14c.1-.82,1.66-.63,2.28-.59.45,0,.9,0,1.35.06s.52.05.53.51c0,.1,0,.22,0,.34a4.8,4.8,0,0,0-4,.37A1.48,1.48,0,0,1,44.52,14Zm.81,1.26a.93.93,0,0,1-.58-.35l.67-.12a9.37,9.37,0,0,1,1.39-.23c.63,0,1.25.2,1.84.11-.06.34.16.19-.3.37-.14.06-.29.09-.43.15a2.4,2.4,0,0,0-1.16-.08c-.3,0-.57,0-.87.06A1.3,1.3,0,0,0,45.33,15.21Zm2.23,1.56a.9.9,0,0,0-.58.12.79.79,0,0,0-.45-.36,1,1,0,0,0-.6,0,.86.86,0,0,0,0-.22c0-.12-.22-.51-.14-.59a3.29,3.29,0,0,1,.36,0l.63-.06c.17,0,.71-.13.85,0a0,0,0,0,1,0,0l0,0a1.65,1.65,0,0,1-.06.63A2.53,2.53,0,0,0,47.56,16.77Zm-1.62,1.94a1,1,0,0,1-.13-.48c-.05-.27-.14-.5-.2-.76a.47.47,0,0,1,0-.44c.36,0,.67,0,.87.4s.82.43.67.87-.39.35-.67.45S46.14,19,45.94,18.71Zm.52,1.89a8,8,0,0,0-.27-1.15h0a2.38,2.38,0,0,0,.63-.18l.27-.09c0,.37,0,.73,0,1.1s.11,1.34-.15,1.56-.28,0-.35-.22A9,9,0,0,1,46.46,20.6Zm.25,2h.08c.55,0,.72-.61.8-1a9.47,9.47,0,0,0,0-2.71.18.18,0,0,0,0-.1,1.49,1.49,0,0,0,.23-.77c0-.37-.2-.52-.43-.72.41.05.64.24.77.79a4.61,4.61,0,0,1,0,1.85,13.17,13.17,0,0,0,.11,2.94c.09.94.17,1.87.33,2.8.08.42.25.78.36,1.18a4.41,4.41,0,0,1,.09.89,2.62,2.62,0,0,0,.16,1.32,2.52,2.52,0,0,1-.16,2,4.37,4.37,0,0,1-1.35,1.6,28.2,28.2,0,0,0-.13-2.89,9.15,9.15,0,0,0,0-1.48,7.2,7.2,0,0,0-.51-1.21C46.68,25.7,46.94,24.13,46.71,22.65ZM47.8,75.78a1.6,1.6,0,0,0,.4-.94c0-.64-.38-1,.13-1.68.11-.16.3-.26.42-.42a2,2,0,0,0,.2-1.43c-.08-1.28-.51-2.48-.57-3.77a6.68,6.68,0,0,1,.14-1.89c0-.24.15-.46.22-.69,1.08.13,2.53-2.26,2.9-2.77a28.65,28.65,0,0,1,3.18-3,10.07,10.07,0,0,0,1-1.49c.16-.27.38-.56.56-.87a7.55,7.55,0,0,1,.25,2.06c-.07.6-.21,1.2-.29,1.8-.11.82-.16,1.62-.31,2.44a8.23,8.23,0,0,0-.26,1.7,1.43,1.43,0,0,0,.42,1,.28.28,0,0,0,.1.28c.3.24,1.43,1,1.45,1.37,0,.64-1.9,1.24-2.29,1.34-1.17.31-2.2.32-3,1.4a6,6,0,0,1-1.27,1.5,7.13,7.13,0,0,0-1.2,1c-.87,1.1-.55,3.1-1.71,4-.1.07-.8.43-.92.37C47,76.83,47.71,75.91,47.8,75.78ZM58.67,65.46a10.8,10.8,0,0,0,1.79-1.06,5,5,0,0,1,1-.08c.5.06.18.09.26.58,0,.3.16.36.33.58a1.88,1.88,0,0,1,.28,1.43,25.64,25.64,0,0,0,0,2.63c-.05.27-.13.59-.14.69a8.58,8.58,0,0,0,0,1.34c.08,1,0,2,.07,2.94a6.23,6.23,0,0,0,.48,3c-.28-.06-.57-.11-.85-.15a.36.36,0,0,0-.17-.35c.2.13,0-.36-.07-.6-.09-.54-.13-1.1-.19-1.64a7.21,7.21,0,0,0-.28-2.43c-.06-.11-.25,0-.2.09a5.86,5.86,0,0,1,0,1.72c0,.55,0,1.09,0,1.64A4.33,4.33,0,0,0,61,77.26c-.6-.05-1.21-.07-1.82-.06-1.43,0-2.87,0-4.31,0a7,7,0,0,0,.75-2.88,11.21,11.21,0,0,0-.22-3.83.06.06,0,0,0-.11,0c-.24,1.14,0,2.37-.2,3.53a18.61,18.61,0,0,0-.62,3.18H52.88s0,0,0,0a9.16,9.16,0,0,0,.63-3.7.15.15,0,0,0-.29,0,9.59,9.59,0,0,1-.29,1.91c-.12.57-.37,1.1-.51,1.66a.27.27,0,0,0,0,.16c-1.24,0-2.49.07-3.71.14l-.54,0,.15-.07c1-.51,1.48-1.76,1.83-2.82a4.42,4.42,0,0,1,.37-1.15,3.24,3.24,0,0,1,.94-.68,6.73,6.73,0,0,0,1.24-1c.41-.47.56-1.06,1.11-1.42a12.28,12.28,0,0,1,2.39-.72,6,6,0,0,0,1.33-.64,13.73,13.73,0,0,0-.31,5.34.19.19,0,0,0,.36,0,28.32,28.32,0,0,0,.14-3.69c0-.61.14-1.26.13-1.89a1.7,1.7,0,0,0,.52-.68c.27-.28.22-.86.26-1.21A5.39,5.39,0,0,0,58.67,65.46Zm2.75,13.22a4.48,4.48,0,0,1-.08.64,14.18,14.18,0,0,0-1.45,0c-2.22.09-4.5,0-6.74,0-.86,0-1.71.17-2.58.18s-1.91,0-2.84.07l-.18,0c0-.23-.1-.45-.12-.68s0-.56,0-.83c.72-.06,1.44-.07,2.16-.06,1.67,0,3.33-.12,5-.12,1.48,0,3,0,4.42.06.77,0,1.54,0,2.31,0h.08A3.35,3.35,0,0,0,61.42,78.68ZM58,66.45l0,0-.6-.48a7.92,7.92,0,0,0,.78-.26C58.12,65.93,58.06,66.19,58,66.45ZM45.86,78.3a7.62,7.62,0,0,1,1.06-.2A4.4,4.4,0,0,0,47,79.63c-.61.07-1.32.12-1.53-.18C45.11,79,45.39,78.59,45.86,78.3Zm1.06,21.58a17.52,17.52,0,0,0,.06-3.4c0-.8.15-1.57.2-2.36,0-.25,0-.51,0-.76a5,5,0,0,1,0-1.16c.13-.27.48-.23.79-.27.59-.08.52.11.55.66.06.87,0,1.76.08,2.63,0,1.52,0,3,.07,4.57a.22.22,0,0,0,0,.09Zm2.95,0h-.45a.29.29,0,0,0,0-.09,53.48,53.48,0,0,0-.11-5.94A10.5,10.5,0,0,0,49.21,92a14.37,14.37,0,0,0,1.61,0h0a6.23,6.23,0,0,0-.07,1.62c0,.42,0,.86,0,1.28,0,.86.1,1.71.15,2.56a22.84,22.84,0,0,0,.1,2.35Zm3.21-.06-1.55,0a14.1,14.1,0,0,0-.08-3c-.06-.84-.08-1.68-.08-2.52,0-.29,0-.57,0-.86s-.13-1,0-1.24a.75.75,0,0,1,.44-.22c.25,0,.51,0,.76,0l.18.05c.21.13.22.41.25.64a17.92,17.92,0,0,1,.08,2.74c0,.79,0,1.57,0,2.35S53,99.13,53.08,99.81Zm.71,0a18.84,18.84,0,0,0,0-2.71c-.06-1.15,0-2.3,0-3.44a5.18,5.18,0,0,0-.24-1.74c.33,0,.66-.06,1-.07h.7a4.73,4.73,0,0,0,0,.78c0,1,0,1.9,0,2.86s0,1.84.16,2.76a12.36,12.36,0,0,0,.16,1.55Zm3.46,0H56c0-.43,0-.92,0-1.35-.07-.66-.08-1.29-.11-2s-.14-1.36-.1-2c0-.36.06-.7.06-1a4.73,4.73,0,0,1,0-1.35c.12-.23.48-.18.77-.19.5,0,.57-.13.67.31a13.12,13.12,0,0,1,.09,2.51c0,1,0,2,0,3a10.94,10.94,0,0,0,.06,2.14Zm.8,0a8.38,8.38,0,0,0,.05-2.69c0-1.28,0-2.57-.09-3.84a9.31,9.31,0,0,0-.1-1.41h.48c.33,0,.7.06,1.08.1a4,4,0,0,0,0,.69A19,19,0,0,1,59.34,95a14.37,14.37,0,0,0,.17,2.27c.09.82.12,1.65.19,2.47Zm3.5-6.31c0,.43,0,.87,0,1.3,0,1.62-.22,3.25-.19,4.87a.48.48,0,0,0,0,.18c-.43,0-.86,0-1.29,0A31.14,31.14,0,0,0,60,95.68a18.71,18.71,0,0,1,.15-2.11,9.47,9.47,0,0,1,0-1.51l.28,0a3.46,3.46,0,0,0,.87-.1.45.45,0,0,1,.32.24C61.7,92.4,61.55,93.19,61.55,93.47ZM65.64,91a29.6,29.6,0,0,0-.58,7.33,4.51,4.51,0,0,1,.11.89c-.11.66-.65.66-1.2.7A12.45,12.45,0,0,1,62,99.86a.38.38,0,0,0,.07-.22c0-2.19.12-4.37.1-6.56,0-.52.2-1.41-.28-1.75a1,1,0,0,0-.82-.1,11.88,11.88,0,0,0-2.72-.2c-1.3,0-2.59,0-3.89,0-1.07,0-2.11.17-3.17.16a9.17,9.17,0,0,0-2.86.09,3.69,3.69,0,0,0-.95.13c-.63.12-.84.26-.86.89,0,.83-.06,1.66-.15,2.49a18.5,18.5,0,0,0-.09,3.07c0,.42,0,.83,0,1.25a5.15,5.15,0,0,0,0,.77H46a6.19,6.19,0,0,1-2.81-.22,3.6,3.6,0,0,1,0-.56c.07-.6.11-1.22.13-1.83,0-1.39,0-2.79,0-4.19a5.83,5.83,0,0,0-.42-3.19,31.42,31.42,0,0,0,5.5-.2c2.26-.17,4.51.08,6.77.1s4.28.21,6.39.38c1,.08,2,0,3,0a9.47,9.47,0,0,0,1.4,0A2.74,2.74,0,0,0,65.64,91Zm.88-1.88a.4.4,0,0,0-.25.06c-.62.34-1.64.06-2.31.11a22.06,22.06,0,0,1-3-.09c-2.09-.13-4.19-.09-6.28-.18a52.08,52.08,0,0,0-6.49-.12,59,59,0,0,0-5.94.33,6.38,6.38,0,0,1-.07-.88c0-.18-.06-.38-.1-.59a16.44,16.44,0,0,0,2.81-.14c1-.06,2-.09,3.06-.08,2.23,0,4.47-.06,6.7.06s4.5.33,6.74.41c1,0,2,.13,3,.18a8.12,8.12,0,0,0,2.36,0A3.27,3.27,0,0,1,66.52,89.12ZM65,85.87a4.62,4.62,0,0,0,1.06.2c.59.09.5.21.56.81,0,.21,0,.44,0,.68a7.13,7.13,0,0,0-2.36-.16c-1,0-2-.12-3-.14-2.24-.05-4.49-.23-6.73-.34s-4.48,0-6.71,0a33.78,33.78,0,0,0-5.94.41,3.08,3.08,0,0,1,0-1,.89.89,0,0,1,.85-.85,28.26,28.26,0,0,0,4.6,0c2.32,0,4.65-.09,7-.11,2.14,0,4.35-.1,6.48.07.92.08,1.84.13,2.77.22A12.47,12.47,0,0,0,65,85.87Zm-.94-3.16a1.75,1.75,0,0,0,.09,1.4c.15.2.35.18.48.33a.61.61,0,0,1,.17.54c-.42-.07-.86-.08-1.26-.12-.91-.08-1.82-.11-2.73-.17-2.19-.16-4.43,0-6.62,0s-4.55.12-6.83.18c-1,0-2.1.09-3.14.19a.75.75,0,0,0,0-.16,5.3,5.3,0,0,0,0-.69,2.89,2.89,0,0,1,.34-1.27,2.52,2.52,0,0,0,0-1.22,22.08,22.08,0,0,0,4.45-.11c1.9-.08,3.79-.1,5.69-.1,3.16,0,6.33.21,9.48.16A3.88,3.88,0,0,1,64.09,82.71Zm0-1.67a19.92,19.92,0,0,0-3.55-.23c-1.84-.1-3.72-.07-5.57-.07s-3.68,0-5.52.1a30.28,30.28,0,0,0-4.93.41c-.11-.18-.24-.32.15-.6a3.23,3.23,0,0,1,.94-.12,4,4,0,0,0,.5-.1c.54,0,1.11-.12,1.45-.14,1.38-.09,2.76-.08,4.14-.16,2.88-.17,5.82-.07,8.7,0,.59,0,1.19,0,1.78.09a4.81,4.81,0,0,1,.49.07l.24.11C63.41,80.62,63.87,80.66,64.11,81Zm-.74-2.72h0c0,.35.18,1.06,0,1.26s-.67-.11-.94-.15l-.6-.06a3.22,3.22,0,0,0,.06-.83,1.92,1.92,0,0,0-.13-.48A8.39,8.39,0,0,0,63.37,78.32ZM63,62.46c0,.34.12.69.18,1.09a23.11,23.11,0,0,1,.17,2.76,19.69,19.69,0,0,1-.13,3.17c-.07.39,0,1-.25.3a10.19,10.19,0,0,1-.09-1.57c-.07-.81.14-1.59.15-2.4a1,1,0,0,0-.15-.6c-.07-.1-.19-.15-.26-.24-.23-.32-.13-.27-.18-.57s0-.66-.46-.79a1.64,1.64,0,0,0-.59,0c.19-.18.38-.37.55-.56a1.69,1.69,0,0,0,.51-1.68c-.2-1.24-.41-2.5-.67-3.73-.11-.5-.36-.93-.43-1.45a8.79,8.79,0,0,1,0-1.7A11.63,11.63,0,0,0,61,51.52c-.42-1.84-.26-4-1-5.69a.07.07,0,0,0-.12,0A5.81,5.81,0,0,0,60,47.65c.13.92.21,1.85.33,2.78a19,19,0,0,1,.28,2.91,18,18,0,0,0,0,2.75c.14.91.42,1.78.58,2.68q.16.85.3,1.71a3.32,3.32,0,0,1,.09,1.71c-.35.85-1.5,1.5-2.24,2s-1.71.7-2.45,1.22c-.5-.7.22-2.57.31-3.27.14-1.08.31-2.2.4-3.28a5.37,5.37,0,0,0-.15-1.55,10.05,10.05,0,0,1-.14-2,6.61,6.61,0,0,1,0-1.18c.07-.48.26-.94.37-1.41.25-1.09.15-2.2.33-3.29s.28-2.41.46-3.61c.14-1,.32-2,.4-3a17.53,17.53,0,0,1,.26-3.4c.05-.17-.22-.24-.27-.07a21,21,0,0,0-.55,3.25c-.15,1.19-.42,2.36-.63,3.54a37.34,37.34,0,0,0-.69,4.19,13.17,13.17,0,0,1-.21,2.16c-.1.47-.26.92-.33,1.4a10.52,10.52,0,0,0,0,1.38c0,.2,0,.38,0,.57a.18.18,0,0,0-.07.1,6.87,6.87,0,0,1-.92,1.24,10.22,10.22,0,0,1-1,1.48c-.85.88-1.9,1.52-2.71,2.44s-1.23,1.79-2,2.56c-.25.27-.51.59-.77.39s.24-1.68.27-2c.09-1.19-.55-2.17-.33-3.41A3.75,3.75,0,0,0,49,57.15c-.09-.5-.36-.93-.48-1.42-.29-1.18.45-1.93.52-3a4.22,4.22,0,0,0-.06-.92c0-.23,0-.46,0-.71A4.89,4.89,0,0,1,49.46,49a9.17,9.17,0,0,1,1.84-2.44c1.11-1.15,2.85-2.28,3-4,0-.21-.29-.27-.39-.1a11.13,11.13,0,0,1-2,2.66c-.61.56-1.29,1.06-1.86,1.68a8.36,8.36,0,0,0-1.56,2.42,5.62,5.62,0,0,0-.32,2c-.1-.11-.2-.23-.29-.35a3.62,3.62,0,0,1,0-1.85,6.53,6.53,0,0,1,.72-1.29c.69-1.17.74-2.71,1.73-3.64,1.5-1.42,3.61-2.92,3.69-5.22a.06.06,0,0,0-.12,0,10.75,10.75,0,0,1-2.46,3.43c-.61.55-1.4,1-2,1.57a2.64,2.64,0,0,0-.12-.71,2.12,2.12,0,0,0-1-1,2,2,0,0,0-.15-.18c-.51-.61,0-1.28.11-2s-.3-.76-.57-1.25a1.32,1.32,0,0,1-.11-.74,1.3,1.3,0,0,0,.09-1.47.8.8,0,0,0-.44-.31c-.38-.1-.59.27-.66-.36,0-.26.11-.54.08-.81s-.23-.46-.37-.75A2.37,2.37,0,0,1,46.49,32c.11-.23.28-.64.45-.92a7.29,7.29,0,0,0,.37,1.81.22.22,0,0,0,.31.11s0,0,.05,0c.51.08.92-.34,1.31-.65a3.52,3.52,0,0,0,1-1.78,2,2,0,0,0,.09-.68.46.46,0,0,1,.42.32,1.5,1.5,0,0,1,0,.84,3.39,3.39,0,0,0,0,.55,11.06,11.06,0,0,1-.3,1.13,7.58,7.58,0,0,1-1.31,2.52.09.09,0,0,0,.11.13,4.6,4.6,0,0,0,2-3.1l.07.06a1.11,1.11,0,0,1,.34.68,1.92,1.92,0,0,0,.44.89v0c0,.4.07.81.08,1.22,0,.83-.07,1.67,0,2.5a.1.1,0,0,0,.19.05,3.93,3.93,0,0,0,.41-2.55c0-.36,0-.78-.11-1.18a.17.17,0,0,0,0-.1,1.09,1.09,0,0,0,0-.18,1.77,1.77,0,0,1,.35.3c.29.42.26,1.1.62,1.46.22.2.48.26.67.52a4.54,4.54,0,0,0,.52.72,1.33,1.33,0,0,0,.75.42,1.61,1.61,0,0,0-.34,1.37.06.06,0,0,0,.12,0,3.92,3.92,0,0,1,.66-.91,1.59,1.59,0,0,1,1.08-.45,4.62,4.62,0,0,0,1.08-.32c.28-.11.55-.29.37.23a6.17,6.17,0,0,1-1,1.31,7.64,7.64,0,0,0-.81,1.17,6.14,6.14,0,0,0-1.07,2.92c0,.14.22.22.28.08a22,22,0,0,1,2.63-4.47,3.16,3.16,0,0,0,.46-.79c.3.35.74.64,1,1,.67.95.77,2.46,1.18,3.56a8.22,8.22,0,0,1,.47,3.51,7,7,0,0,0-.08,1.51c.09.59.33,1.17.45,1.76.47,2.35-.16,4.77.53,7.11a8.78,8.78,0,0,1,.45,2.08c0,.56,0,1.11,0,1.68.11.92,0,1.88.2,2.78A.23.23,0,0,0,63,62.46Zm2-11.63c-.12.59-.6.85-.82,1.38s-.1,1-.3,1.41-.57.35-1,.34l-.16,0a14.53,14.53,0,0,1-.06-1.63v-.43a2.18,2.18,0,0,0,.8.36c.61.09.77-.54,1-.95s.39-.7.58-1.05A3.18,3.18,0,0,1,65.05,50.83Zm.71-2.94c-.08.15-.18.24-.25.37a2.9,2.9,0,0,0-.37.58c-.18.33-.48.59-.66.93s-.43.73-.65,1.1c-.07.1-.16.46-.29.5s-.53-.32-.61-.39a.45.45,0,0,0-.23-.11,11.2,11.2,0,0,0-.19-2.31,19.85,19.85,0,0,1-.58-2.1,1.48,1.48,0,0,0,0-.21,23.9,23.9,0,0,0,2.13-3.06c.3-.46.76-1.07,1.39-1.08.41,0,.94.42,1.28.6a4.17,4.17,0,0,1,1,.53,1.2,1.2,0,0,1,0,1.39.43.43,0,0,0,0,0l-.16,0c-.61,0-.69.39-.93.83s-.89.61-.91,1.23C65.69,47.17,66,47.4,65.76,47.89Zm1.79-.31a2.93,2.93,0,0,1-.85,1c-.07.06-.3.27-.5.41a.27.27,0,0,0-.16-.11c-.24-.08.33-.7.42-.86a.92.92,0,0,0,.14-.7c0-.09-.08-.19-.1-.27a.85.85,0,0,1,.26-.82c.1-.12.22-.16.3-.3s0-.23.07-.3c.25-.32.66-.12.78.27A2.28,2.28,0,0,1,67.55,47.58Z" transform="translate(-41.14 -8.98)"/></svg>