<svg id="Layer_1" data-name="Layer 1" xmlns="http://www.w3.org/2000/svg" viewBox="0 0 78.85 79.43"><defs><style>.cls-1{fill:#fff;stroke:#4c4c4c;stroke-miterlimit:10;stroke-width:2px;}</style></defs><title>Automotive Parts Distribution</title><path class="cls-1" d="M.5,64.78a5.86,5.86,0,0,1,.14-.9,11.86,11.86,0,0,1,13.45-9.81,1,1,0,0,0,.94-.31l20-20c.08-.08.15-.18.27-.33a8.66,8.66,0,0,0-2.75-.67c-.31-.06-.46.23-.65.41-.78.78-1.55,1.57-2.34,2.34a4.64,4.64,0,0,1-6.54,0c-.43-.41-.85-.84-1.26-1.27a1.37,1.37,0,0,1-.19-1.93l.19-.19c.12-.13.25-.25.38-.38L43.43,10.53c1.13-1.12,1.61-1.12,2.74,0,1.36,1.36,1.38,1.38,2.81,0,.37-.36.57-.34.93,0q8.78,8.82,17.6,17.6c.39.39.37.6,0,1-1.36,1.37-1.35,1.39,0,2.75,1.16,1.17,1.16,1.61,0,2.8L46.73,55.43c-1.91,1.91-1.94,1.89-3.89,0a4.94,4.94,0,0,1-1.65-3.55,4.45,4.45,0,0,1,1.32-3.31,27,27,0,0,1,2-2,1.62,1.62,0,0,0,.6-1.94c-.18-.56-.08-1.42-.58-1.59s-.84.62-1.23,1L24.55,62.76a1.5,1.5,0,0,0-.5,1.49A11.85,11.85,0,1,1,.63,67.86c0-.23-.07-.46-.09-.7a.72.72,0,0,0-.06-.36C.51,66.07.5,65.43.5,64.78Zm43.34-13a1.64,1.64,0,0,0,.84,1.67c.5.22.76-.44,1.07-.75Q55.13,43.31,64.5,34c.6-.59.55-.9,0-1.46Q55,23.07,45.56,13.58c-.56-.57-.87-.62-1.46,0Q35,22.76,25.83,31.88c-.34.34-.66.69-1,1s-.27.51,0,.8a2,2,0,0,0,2.83.06l.06-.06c1-1,2-1.93,2.92-2.9a1.73,1.73,0,0,1,1.5-.64,20,20,0,0,1,3.6.66A17.56,17.56,0,0,1,48,45.9a1.73,1.73,0,0,1-.55,1.45c-1,1-1.94,1.94-2.92,2.9a2,2,0,0,0-.66,1.5ZM5.17,65.84a7.15,7.15,0,1,0,0-.1Z" transform="translate(0.53 0.52)"/><path class="cls-1" d="M57.32.5A8.05,8.05,0,0,1,60.9,3l15,15a4.36,4.36,0,0,1,.28,6.16l-.28.28c-.38.38-.75.76-1.14,1.14-.88.87-1.54.92-2.35,0-.59-.65-.92-.53-1.45,0-1.07,1.15-1.1,1.12-2.23,0C63.12,20.07,57.55,14.45,51.9,8.89c-.52-.52-.62-.87,0-1.31a3,3,0,0,0,.25-.25c.89-.89.89-.89.1-1.8a1.32,1.32,0,0,1-.19-1.86,1.14,1.14,0,0,1,.19-.19c1.18-1.23,2.3-2.57,4.09-3ZM74.67,21.12a2,2,0,0,0-.75-1.4L58.17,4a3.84,3.84,0,0,0-.68-.59c-.7-.41-1.53-.08-2.19.84-.47.66.27.83.53,1.09q7.65,7.75,15.36,15.39c.63.64,1.28,1.25,1.89,1.91.36.38.6.32.94,0A2,2,0,0,0,74.67,21.12Z" transform="translate(0.53 0.52)"/><path class="cls-1" d="M43.19,29.45a5.26,5.26,0,1,1,5.29,5.23h0A5.3,5.3,0,0,1,43.19,29.45Z" transform="translate(0.53 0.52)"/><path class="cls-1" d="M8.43,65.87a3.91,3.91,0,0,1,3.8-4h.08a3.92,3.92,0,0,1,0,7.84h0A3.91,3.91,0,0,1,8.43,65.87Z" transform="translate(0.53 0.52)"/></svg>