<svg id="Layer_1" data-name="Layer 1" xmlns="http://www.w3.org/2000/svg" viewBox="0 0 81.52 60.24"><defs><style>.cls-1{fill:#fff;}</style></defs><title>B1</title><path class="cls-1" d="M95.76,37.68H82.41v-7.6h2.48V25.3H75.14v4.78h2.49v7.6H64.28v10H95.76Z" transform="translate(-14.24 -24.88)"/><path class="cls-1" d="M34.86,73.48a9.48,9.48,0,0,0,11.9,0,14.28,14.28,0,0,1,17.87,0,9.48,9.48,0,0,0,11.9,0,14.25,14.25,0,0,1,15-1.78l4.23-19.14v-.1H64.09l-1.17,3.47H14.24l7,15.19a14.24,14.24,0,0,1,13.57,2.36Zm37.56-10.8h4.77v4.78H72.42Zm-9.56,0h4.78v4.78H62.86Zm-9.55,0h4.77v4.78H53.31Zm-9.56,0h4.78v4.78H43.75Zm-9.55,0H39v4.78H34.2Z" transform="translate(-14.24 -24.88)"/><path class="cls-1" d="M79.51,77.2a14.33,14.33,0,0,1-8,3.11,10.48,10.48,0,0,1-1.94,0,14.36,14.36,0,0,1-8-3.11,9.47,9.47,0,0,0-11.89,0,14.39,14.39,0,0,1-8,3.11,10.48,10.48,0,0,1-1.94,0,14.33,14.33,0,0,1-8-3.11,9.48,9.48,0,0,0-11.9,0l-2.32,1.89L20,82a9.48,9.48,0,0,1,11.9,0,14.28,14.28,0,0,0,17.87,0,9.47,9.47,0,0,1,11.89,0,14.28,14.28,0,0,0,17.87,0,9.48,9.48,0,0,1,11.9,0l2.3-2.86-2.32-1.93A9.46,9.46,0,0,0,79.51,77.2Z" transform="translate(-14.24 -24.88)"/><path class="cls-1" d="M33.43,24.88h14V35.63h-14Z" transform="translate(-14.24 -24.88)"/><path class="cls-1" d="M42.81,40.4H56.47V51.15H42.81Z" transform="translate(-14.24 -24.88)"/><path class="cls-1" d="M24.37,40.4H38V51.15H24.37Z" transform="translate(-14.24 -24.88)"/></svg>