<svg id="Layer_1" data-name="Layer 1" xmlns="http://www.w3.org/2000/svg" viewBox="0 0 68.86 65.59"><defs><style>.cls-1{fill:#fff;}</style></defs><title>B2</title><path class="cls-1" d="M89.43,53.84A31.69,31.69,0,0,1,62.59,85.11a7.48,7.48,0,0,0,.08-2.17s-.1-.77-.21-1.79a27.68,27.68,0,0,0,14.11-6.94,3.17,3.17,0,0,1-.69-.78c-1-1.49.31-3,.31-4.28s-2.58-1.18-2.68-2c-.32-2.94,1.81-3,2.94-4.12s-1.12-3.72-2.58-3.55-5.6-.68-5.22-3.84c.46-3.86-4.91-3.52-5.68-5.31a5.16,5.16,0,0,1,3.17-6.57c3.44-1,6.83-3.84,6.57-7a11.71,11.71,0,0,0-4.54-8.63,27.52,27.52,0,0,0-8.81-2c-2.76.11-5.2.72-5.09,2,.28,3.1,9.1,3.9,7.62,6.81-.77,1.51-6.57,3.64-5.48,5.89.7,1.46,2.43.21,1.78,3-.29,1.29-1.43,3.72-3.17,3.88s-3.27-4.56-8.12-4.71c-2.29-.08-5.52,3.57-2.78,6.17,1.66,1.56,4.78-1.89,5.7.81.65,1.9-.09,5.89,2.94,7.56,1.1.61,2.79,1.14,4.47,2a60.34,60.34,0,0,0-9.14,2.84l-3-.8c1.27-1,3.33-1.8,2.81-4.11-.76-3.4-6.66-2.11-10.72-6.18A16.22,16.22,0,0,1,33.25,41,27.92,27.92,0,0,0,30.39,58h-.14a9.23,9.23,0,0,0-3.7.78,32.57,32.57,0,0,1-.39-5,31.64,31.64,0,1,1,63.27,0ZM65.7,63.06,58,66.61l.12-1.68,5-2.26c-.72-.05-1.46-.07-2.19-.07-2.77,0-7.44,1.4-12.61,3.45L31.73,61.68a5.8,5.8,0,0,0-4.56.69l-.81.51a1.29,1.29,0,0,0,0,2.17l10,6.46c-2.38,1.22-4.63,2.46-6.62,3.64l-5.12-2.71a3.23,3.23,0,0,0-2.7-.14l-.48.19a1.29,1.29,0,0,0-.64,1.83l2.81,5h0c-1.06.91-1.66,1.67-1.66,2.2,0,1.57,1.93,2,3.63,2,3,0,43.16-9.19,43.16-17.51C68.68,64.32,67.55,63.5,65.7,63.06ZM48.78,79.31l8.83-3.11a.64.64,0,0,1,.85.53l.78,6.62A3.86,3.86,0,0,1,57,87.29l-.83.39a1.27,1.27,0,0,1-1.5-.32l-6.19-7A.64.64,0,0,1,48.78,79.31Z" transform="translate(-20.57 -22.2)"/></svg>