<svg id="Layer_1" data-name="Layer 1" xmlns="http://www.w3.org/2000/svg" viewBox="0 0 81.52 59.3"><defs><style>.cls-1{fill:#fff;}</style></defs><title>B3</title><path class="cls-1" d="M89.61,54.62l-.85-.19c-2.83-.74-4.23-1.18-5.22-3.07L79.85,42l0,0A8.41,8.41,0,0,0,73,37.84h-11a1.88,1.88,0,0,0-1.95,1.91V62.27H16a1.79,1.79,0,0,0-1.79,1.79v8.78A1.79,1.79,0,0,0,16,74.62H24.5a10.5,10.5,0,0,0,21,0H63.13a10.5,10.5,0,0,0,20.88,1h6.91a4.84,4.84,0,0,0,4.84-4.84V62.48C95.76,55.91,92.06,55.13,89.61,54.62ZM77.51,74.15a3.89,3.89,0,1,1-3.89-3.89A3.89,3.89,0,0,1,77.51,74.15ZM64.52,54V41.82h7A6.62,6.62,0,0,1,76.73,45L80,53.51l0,.05a5,5,0,0,0,.26.46ZM35,70.26a3.89,3.89,0,1,1-3.89,3.89A3.89,3.89,0,0,1,35,70.26Z" transform="translate(-14.24 -25.35)"/><path class="cls-1" d="M21.92,58H53a2.82,2.82,0,0,0,2.81-2.82v-27A2.81,2.81,0,0,0,53,25.35H43.81A2.82,2.82,0,0,0,41,28.17v2a.94.94,0,0,1-.94.93H34.81a.94.94,0,0,1-.94-.93v-2a2.81,2.81,0,0,0-2.81-2.82H21.92a2.82,2.82,0,0,0-2.82,2.82V55.22A2.82,2.82,0,0,0,21.92,58Zm15.51-20L43,44.31H40.07v7.76H34.79V44.31H31.91Z" transform="translate(-14.24 -25.35)"/></svg>