<svg id="Layer_1" data-name="Layer 1" xmlns="http://www.w3.org/2000/svg" viewBox="0 0 78.35 64.2"><defs><style>.cls-1{fill:#fff;}</style></defs><title>B4</title><path class="cls-1" d="M94,61.11a2.5,2.5,0,0,0-3.21-1.48l-32.64,12A9.88,9.88,0,0,0,49,67.39l-15.09-41L18.88,23a2.5,2.5,0,0,0-1.11,4.88l12.4,2.81L44.34,69.14a9.88,9.88,0,1,0,15.52,7.21l32.68-12A2.5,2.5,0,0,0,94,61.11ZM51.85,82.19A5.31,5.31,0,1,1,55,75.38,5.29,5.29,0,0,1,51.85,82.19Z" transform="translate(-15.82 -22.9)"/><path class="cls-1" d="M87.35,53.71,76.87,25.24l-13,4.8,2.88,7.83-5.25,1.94L58.57,32l-13,4.8L56,65.25Zm-7.2-5.24L81.3,51.6,69.66,55.89l-1.15-3.13Z" transform="translate(-15.82 -22.9)"/></svg>