<svg id="Layer_1" data-name="Layer 1" xmlns="http://www.w3.org/2000/svg" viewBox="0 0 63.05 72.99"><defs><style>.cls-1{fill:#fff;stroke:#4c4c4c;stroke-miterlimit:10;stroke-width:2px;}</style></defs><title>BuildingMaterials</title><path class="cls-1" d="M23.85,18.9c3.73,0,7.47,0,11.2,0,.67,0,.84.2.81.84q-.06,1.89,0,3.78c0,.64-.14.85-.81.84-3.73,0-7.47,0-11.2,0Z" transform="translate(-23.48 -18.51)"/><path class="cls-1" d="M24,33.45l8.38-.05c1,0,1.92,0,2.88,0,.42,0,.58.14.57.57,0,1.4,0,2.8,0,4.19,0,.68-.35.67-.83.67H24.75c-.3,0-.6,0-.9,0v-.33c.27-.24.16-.56.16-.85C24,36.28,24,34.86,24,33.45Z" transform="translate(-23.48 -18.51)"/><path class="cls-1" d="M24,33.45c0,1.41,0,2.83,0,4.24,0,.29.11.61-.16.85V33.43Z" transform="translate(-23.48 -18.51)"/><path class="cls-1" d="M66.08,45.37a5,5,0,0,1-.43,3.05c-2.07,5.67-4.53,11.19-6.84,16.76q-5.22,12.58-10.4,25.17c-.28.68-.61.89-1.28.71-.45-.12-.92-.16-1.37-.27-.7-.17-1.19-.51-1.18-1.35a1,1,0,0,0-.91-1,38,38,0,0,0-6.19-.78c-.6,0-.67.44-.78.79-.26.86-.71,1-1.62.91a2.5,2.5,0,0,1-2.49-2.08c-.39-1.57-1-3.08-1.35-4.66a2.52,2.52,0,0,1,.2-1.67c1-2.15,2.19-4.18,3.3-6.26q8.74-16.41,17.54-32.81a1.09,1.09,0,0,1,.08-.15c1.13-2.14,1.13-2.13,3.51-1.69.51.1.56.43.65.81.37,1.48.37,1.47,1.89,1.64.81.09,1.63.17,2.44.31A.92.92,0,0,0,62,42.2c.29-.65.54-1.3,1.56-1.24,1.51.09,2,.36,2.28,1.88A12.16,12.16,0,0,1,66.08,45.37ZM42.29,83.25c.55.21.72-.27.94-.74l15-32.05c.76-1.62,1.46-3.26,2.21-4.87.21-.45.14-.62-.37-.67-.93-.11-1.85-.25-2.77-.43-.56-.11-.8.1-1.05.61C55,47.74,53.68,50.37,52.35,53c-4.62,9.1-9.49,18.07-13.92,27.28-.28.59-.52,1.21-.79,1.81-.17.38-.14.59.36.65C39.39,82.87,40.77,83.06,42.29,83.25Z" transform="translate(-23.48 -18.51)"/><path class="cls-1" d="M74.63,82.55a3.39,3.39,0,0,1-.39,1.51A35,35,0,0,0,72,90.42c-.09.41-.23.53-.66.47-2.43-.38-4.87-.74-7.31-1.11a2.1,2.1,0,0,1-1.28-.68q-3.26-3.6-6.53-7.19a1.24,1.24,0,0,1-.19-1.68,11.22,11.22,0,0,0,.86-1.86c.24-.68.52-.65.93-.17,1.87,2.2,4,4.14,5.71,6.48a6.61,6.61,0,0,0,5.52,2.92c.6,0,.69-.14.42-.63a4.28,4.28,0,0,0-.92-1.15c-3.12-2.94-5.82-6.27-8.82-9.32-1.23-1.25-1.39-2.27-.54-3.74a36.52,36.52,0,0,0,1.7-3.83c.39-.88.4-.89,1.09-.17,2.52,2.64,5,5.3,7.58,7.91,1.22,1.25,2.56,2.4,3.8,3.64A3.24,3.24,0,0,1,74.63,82.55Z" transform="translate(-23.48 -18.51)"/><path class="cls-1" d="M83.85,71.51a5.73,5.73,0,0,1-5.58,5.92,4.87,4.87,0,0,1-2.72-1.08c-3.44-2.49-6.87-5-10.3-7.53-.93-.69-1.84-1.39-2.79-2a.65.65,0,0,1-.26-.9c.47-1.23.92-2.47,1.31-3.72.18-.55.4-.63.88-.37,1.12.61,2.17,1.3,3.23,2,2.36,1.55,4.72,3.1,7.1,4.63a2,2,0,0,0,2.54-.4.22.22,0,0,0,0-.35,2.89,2.89,0,0,0-.6-.56c-3.34-1.9-6.39-4.26-9.7-6.21-.54-.32-1.1-.61-1.66-.91s-.6-1.47-.13-1.75c.26-.16.46.11.65.22q4.5,2.67,9,5.36c2.28,1.37,4.64,2.62,6.85,4.1A4.57,4.57,0,0,1,83.85,71.51ZM81.18,72c0-1.13-.16-1.58-.61-1.76a2.82,2.82,0,0,0-3.94,2.6,2.05,2.05,0,0,0,1.09,2A2,2,0,0,0,80,74.59,3.22,3.22,0,0,0,81.18,72Z" transform="translate(-23.48 -18.51)"/><path class="cls-1" d="M80.13,18.9c1.79,0,3.57,0,5.36,0,.49,0,.67.13.66.64q0,2.1,0,4.2c0,.48-.18.6-.63.6H74.81c-.49,0-.67-.13-.66-.65,0-1.39,0-2.8,0-4.2,0-.48.18-.6.63-.59C76.56,18.91,78.35,18.9,80.13,18.9Z" transform="translate(-23.48 -18.51)"/><path class="cls-1" d="M36.11,31.72c-1.7,0-3.4,0-5.11,0-.71,0-.88-.23-.86-.9.05-1.26,0-2.52,0-3.79,0-.55.13-.76.73-.76,3.52,0,7,0,10.55,0,.51,0,.74.11.72.68,0,1.37,0,2.75,0,4.12,0,.53-.18.65-.67.64C39.68,31.7,37.9,31.72,36.11,31.72Z" transform="translate(-23.48 -18.51)"/><path class="cls-1" d="M73.88,31.72c-1.76,0-3.52,0-5.27,0-.59,0-.76-.18-.74-.75,0-1.34,0-2.69,0-4,0-.5.15-.66.66-.66q5.35,0,10.71,0c.46,0,.63.13.62.61,0,1.37,0,2.74,0,4.12,0,.54-.18.71-.72.7C77.4,31.7,75.64,31.72,73.88,31.72Z" transform="translate(-23.48 -18.51)"/><path class="cls-1" d="M42.39,33.4c1.79,0,3.58,0,5.36,0,.49,0,.68.12.67.64,0,1.37,0,2.75,0,4.12,0,.48-.09.68-.63.68q-5.36,0-10.71,0c-.45,0-.64-.13-.64-.6,0-1.41,0-2.81,0-4.21,0-.54.23-.63.69-.62C38.88,33.41,40.64,33.4,42.39,33.4Z" transform="translate(-23.48 -18.51)"/><path class="cls-1" d="M67.6,33.4c1.76,0,3.52,0,5.27,0,.55,0,.72.16.71.7,0,1.35,0,2.69,0,4,0,.54-.17.71-.71.71-3.54,0-7.09,0-10.63,0-.51,0-.66-.17-.64-.67,0-1.37,0-2.74,0-4.12,0-.5.15-.66.66-.65C64,33.41,65.82,33.4,67.6,33.4Z" transform="translate(-23.48 -18.51)"/><path class="cls-1" d="M80.23,33.4c1.73,0,3.46,0,5.18,0,.59,0,.75.19.74.75,0,1.32,0,2.64,0,4,0,.5-.11.74-.68.74q-5.31,0-10.63,0c-.55,0-.7-.21-.69-.73,0-1.34,0-2.69,0-4,0-.58.21-.69.72-.68C76.66,33.41,78.44,33.4,80.23,33.4Z" transform="translate(-23.48 -18.51)"/><path class="cls-1" d="M42.57,18.9c1.7,0,3.4,0,5.1,0,.55,0,.77.11.75.71-.05,1.37,0,2.74,0,4.11,0,.46-.12.62-.6.62-3.56,0-7.12,0-10.69,0-.53,0-.64-.2-.63-.68,0-1.37,0-2.74,0-4.11,0-.5.15-.66.66-.65C39,18.91,40.76,18.9,42.57,18.9Z" transform="translate(-23.48 -18.51)"/><path class="cls-1" d="M54.92,24.32c-1.73,0-3.46,0-5.18,0-.55,0-.71-.16-.7-.69,0-1.37,0-2.75,0-4.12,0-.52.18-.63.67-.63q5.3,0,10.61,0c.5,0,.66.14.65.65,0,1.39,0,2.79,0,4.19,0,.48-.16.61-.62.6C58.54,24.31,56.73,24.32,54.92,24.32Z" transform="translate(-23.48 -18.51)"/><path class="cls-1" d="M67.62,18.9c1.73,0,3.45,0,5.18,0,.5,0,.75.08.73.66,0,1.37,0,2.74,0,4.11,0,.49-.14.68-.65.67-3.57,0-7.13,0-10.7,0-.49,0-.59-.19-.58-.63,0-1.4,0-2.8,0-4.19,0-.55.22-.63.68-.62C64.06,18.91,65.84,18.9,67.62,18.9Z" transform="translate(-23.48 -18.51)"/><path class="cls-1" d="M48.76,26.29c1.75,0,3.51,0,5.27,0,.49,0,.67.14.66.67,0,1.43,0,2.86,0,4.28,0,.5-.09.71-.63.71q-5.31,0-10.62,0c-.49,0-.69-.13-.68-.67,0-1.43,0-2.86,0-4.28,0-.6.22-.71.73-.71C45.24,26.31,47,26.29,48.76,26.29Z" transform="translate(-23.48 -18.51)"/><path class="cls-1" d="M61.21,31.72c-1.73,0-3.46,0-5.19,0-.51,0-.72-.12-.7-.68,0-1.35,0-2.69,0-4,0-.5.09-.72.67-.72,3.51,0,7,0,10.54,0,.52,0,.73.13.72.69,0,1.34,0,2.69,0,4,0,.61-.22.73-.77.73C64.73,31.7,63,31.72,61.21,31.72Z" transform="translate(-23.48 -18.51)"/><path class="cls-1" d="M55,38.82H49.74c-.46,0-.71-.06-.7-.62,0-1.39,0-2.8,0-4.19,0-.46.13-.62.6-.62H60.36c.47,0,.61.15.6.61,0,1.4,0,2.8,0,4.2,0,.55-.23.63-.69.62Z" transform="translate(-23.48 -18.51)"/><path class="cls-1" d="M37.06,46a4.61,4.61,0,0,1,.45.2,65.54,65.54,0,0,1,6,3.43c.48.31.62.59.33,1.13-.49.89-.9,1.81-1.43,2.68-.25.4-.48.52-.92.27a33.8,33.8,0,0,1-3.74-2.38,3.41,3.41,0,0,1-1.34-3.7c.09-.46.19-.91.29-1.36C36.71,46.1,36.74,45.93,37.06,46Z" transform="translate(-23.48 -18.51)"/><path class="cls-1" d="M38.79,54.34c-.14.62-.58.78-1,.91s-.64.31-.18.74c.64.6,1.2,1.27,1.82,1.9a.68.68,0,0,1,.1.94c-.39.66-.76,1.34-1.08,2s-.48.41-.8,0c-1.61-1.83-3.24-3.64-4.86-5.47-.23-.27-.7-.47-.47-.94a1.48,1.48,0,0,1,1.23-1,6.7,6.7,0,0,1,1.55.17Z" transform="translate(-23.48 -18.51)"/><path class="cls-1" d="M39,44.39a3.41,3.41,0,0,1,3.73.14c.9.62,1.83,1.19,2.75,1.79s0,1-.09,1.45-.54.31-.86.16A29.46,29.46,0,0,1,39.62,45,1.48,1.48,0,0,1,39,44.39Z" transform="translate(-23.48 -18.51)"/></svg>
