<svg id="Layer_1" data-name="Layer 1" xmlns="http://www.w3.org/2000/svg" viewBox="0 0 76.22 76.29"><defs><style>.cls-1{fill:#4c4c4c;}</style></defs><title>Electrical</title><path class="cls-1" d="M34.22,16.86A8.5,8.5,0,0,1,38,18.73a6.31,6.31,0,0,1,0,9.13,1.85,1.85,0,0,0-.62,1.52c0,1.45,0,2.91,0,4.37,0,.77.19,1,1,1a3.8,3.8,0,0,1,4,3,3.88,3.88,0,0,1-3.57,4.69c-1.42,0-1.42,0-1.42,1.45,0,.84.06,1.7,0,2.53s.25,1,1,.94a19.48,19.48,0,0,1,3.15,0A4,4,0,0,1,45,51.26a4,4,0,0,1-4,3.86c-1,0-1.92,0-2.88,0-.53,0-.73.15-.71.69,0,1.14,0,2.28,0,3.41,0,.67.21.85.85.84,2.65,0,5.31,0,8,0a3.76,3.76,0,0,1,3.65,2.59A3.88,3.88,0,0,1,46,67.78c-2.59,0-5.19,0-7.78,0-.65,0-.92.11-.9.84.06,1.92,0,3.85,0,5.77,0,.59.12.84.76.81a4.07,4.07,0,0,1,4.35,4.44c-.13,1.65,0,3.32,0,5,0,.52.13.77.68.7a2.13,2.13,0,0,1,1.84.81c1.51,1.54,3,3.07,4.58,4.58A1.35,1.35,0,0,1,50,92.19a1.39,1.39,0,0,1-1.35.93,4.64,4.64,0,0,1-.53,0q-14.55,0-29.12,0a1.93,1.93,0,0,1-2.07-1.21v-.35c.28-.22.25-.61.52-.87q2.36-2.26,4.67-4.59a2.1,2.1,0,0,1,1.83-.81c.54.07.7-.16.69-.69,0-1.51,0-3,0-4.55a7.66,7.66,0,0,1,.09-1.91,4,4,0,0,1,4.11-3c.69,0,.9-.19.89-.88-.05-1.93-.05-3.85,0-5.77,0-.62-.17-.79-.78-.78-2.6,0-5.19,0-7.78,0a4.54,4.54,0,0,1-1-.11,4.25,4.25,0,0,1-3.18-3.21V63.23c.06-.06.14-.11.16-.18.83-2.21,1.94-3,4.24-3h7.6c.55,0,.8-.13.78-.73,0-1.19,0-2.39,0-3.58,0-.45-.16-.63-.61-.62-1,0-2,0-3,0a3.9,3.9,0,0,1-.4-7.78c1.1-.08,2.22,0,3.32,0,.49,0,.67-.14.66-.64,0-1.11-.06-2.22,0-3.32,0-.79-.23-1.08-1-1a3.23,3.23,0,0,1-.44,0,3.86,3.86,0,0,1-3.54-4.83,3.82,3.82,0,0,1,3.8-2.88c1.15,0,1.15,0,1.15-1.19,0-1.4,0-2.8,0-4.19a1.79,1.79,0,0,0-.61-1.45A6.34,6.34,0,0,1,31.7,17.19c.26-.08.58-.06.77-.33Zm-.79,68.45c1.87,0,3.73,0,5.6,0,.62,0,.79-.19.78-.79,0-1.69,0-3.38,0-5.08,0-1.16-.38-1.52-1.52-1.53H28.74c-1.06,0-1.5.42-1.51,1.46,0,1.75,0,3.5,0,5.25,0,.54.18.7.71.69C29.75,85.3,31.59,85.31,33.43,85.31Zm.11-22.6H21c-.72,0-1.27.22-1.34,1a1.2,1.2,0,0,0,1.16,1.36,3.1,3.1,0,0,0,.43,0H45.77c1,0,1.58-.44,1.57-1.22s-.45-1.18-1.56-1.18Zm12,27.63c-.77-.73-1.37-1.27-1.93-1.86a1.35,1.35,0,0,0-1.08-.43c-6,0-12,0-18,0-.28,0-.59-.06-.83.17l-2.15,2.11Zm-15.72-67a3.69,3.69,0,0,0,7.38.07,3.69,3.69,0,1,0-7.38-.07Zm3.79,29.05H41c.89,0,1.3-.37,1.32-1.14s-.42-1.18-1.29-1.18H26A1.15,1.15,0,0,0,24.8,51.6a1.11,1.11,0,0,0,1.21.79Zm0-15c-1.64,0-3.27,0-4.9,0-.87,0-1.45.49-1.47,1.18s.59,1.25,1.48,1.25h9.52c.94,0,1.54-.47,1.56-1.18s-.59-1.25-1.56-1.25C36.68,37.33,35.14,37.34,33.6,37.34Zm1.13,34.21V69.46c0-1.71,0-1.68-1.69-1.7-.63,0-.77.21-.76.8,0,1.63,0,3.26,0,4.88,0,1.85,0,1.83,1.82,1.76.51,0,.64-.22.63-.69C34.72,73.52,34.73,72.53,34.73,71.55ZM32.29,57.63c0,.26,0,.52,0,.78,0,1.83-.37,1.61,1.68,1.65.55,0,.78-.16.76-.75,0-1,0-2,0-3,0-1.3.23-1.28-1.25-1.28-1.19,0-1.19,0-1.19,1.17Zm0-25.51V33c0,1.84,0,1.84,1.86,1.7h.08c.39,0,.51-.18.5-.53v-4c0-.23,0-.45-.34-.48-2.1-.13-2.1-.14-2.1,2Zm0,12.69v.79c0,1.88,0,1.86,1.9,1.73.42,0,.55-.17.55-.57,0-1.25,0-2.5,0-3.74,0-.22.06-.55-.25-.57a5.46,5.46,0,0,0-2,0c-.45.15-.15.83-.2,1.27S32.29,44.47,32.29,44.81Z" transform="translate(-16.89 -16.86)"/><path class="cls-1" d="M77.09,16.86a7.76,7.76,0,0,1,4,1.94,6.28,6.28,0,0,1,.14,8.86,2.46,2.46,0,0,0-.81,2.06,36.8,36.8,0,0,1,0,3.93c0,.84.2,1.1,1,1.07a3.79,3.79,0,0,1,3.87,2.66,3.87,3.87,0,0,1-3.56,5c-.26,0-.53,0-.79,0-.42,0-.56.18-.56.58,0,1.26,0,2.51,0,3.76,0,.5.22.58.63.57,1,0,2.1,0,3.15,0a4,4,0,0,1,3.85,3.59,3.91,3.91,0,0,1-2.74,4,12.3,12.3,0,0,1-3.83.19c-.82,0-1.14.17-1.07,1a26,26,0,0,1,0,3.06c0,.67.2.86.85.85,2.68,0,5.37,0,8,0a3.75,3.75,0,0,1,3.55,2.5,3.8,3.8,0,0,1-1,4.15,4,4,0,0,1-2.78,1.07c-2.6,0-5.19,0-7.79,0-.75,0-.92.22-.9.93,0,1.9,0,3.8,0,5.69,0,.59.13.84.77.81a4,4,0,0,1,4.34,4.44c-.13,1.62,0,3.26,0,4.89,0,.6.14.87.77.8a1.93,1.93,0,0,1,1.69.72c1.49,1.55,3,3.08,4.57,4.58A1.45,1.45,0,0,1,93,92.26a1.39,1.39,0,0,1-1.47.87H61.67a1.4,1.4,0,0,1-1-2.54c1.5-1.47,3-3,4.45-4.45A2.23,2.23,0,0,1,67,85.31c.54.07.62-.21.62-.67,0-1.75,0-3.5,0-5.25a3.86,3.86,0,0,1,4-4.18c1,0,1.09-.32,1.06-1.15,0-1.83,0-3.67,0-5.51,0-.61-.16-.79-.78-.78q-4,0-8.05,0a3.9,3.9,0,0,1-3.79-3.22,3.82,3.82,0,0,1,2.74-4.38,4.62,4.62,0,0,1,1.38-.13c2.54,0,5.08,0,7.61,0,.7,0,.92-.2.89-.89a31.83,31.83,0,0,1,0-3.24c0-.69-.23-.83-.86-.82a20.33,20.33,0,0,1-3.31-.06A3.87,3.87,0,0,1,69,47.33a26.15,26.15,0,0,1,2.8,0c.74.05,1-.12,1-.94s0-1.86,0-2.8c0-1.17,0-1.17-1.15-1.18a3.86,3.86,0,1,1-.14-7.71c.26,0,.52,0,.79,0s.51-.15.51-.52c0-1.78,0-3.56,0-5.34a1.07,1.07,0,0,0-.44-.8,6,6,0,0,1-1.85-6.42A6.13,6.13,0,0,1,75.66,17c.08,0,.14-.09.21-.14Zm-.54,68.45c1.84,0,3.67,0,5.51,0,.58,0,.83-.12.81-.76,0-1.72,0-3.44,0-5.16,0-1.11-.38-1.47-1.48-1.47H71.84c-1.11,0-1.54.42-1.55,1.52,0,1.69,0,3.38,0,5.07,0,.69.23.83.86.81C72.93,85.29,74.74,85.31,76.55,85.31Zm.11-22.6H64.15c-.94,0-1.4.39-1.41,1.15s.49,1.2,1.37,1.25H88.77c1.11,0,1.66-.43,1.63-1.25s-.46-1.15-1.59-1.15Zm-12,27.61H88.53c-.74-.73-1.37-1.32-2-1.95a1.08,1.08,0,0,0-.86-.31H67.52c-.26,0-.54,0-.75.16C66.1,88.88,65.43,89.56,64.67,90.32ZM80.26,23.37a3.69,3.69,0,0,0-7.38-.07,3.69,3.69,0,1,0,7.38.07Zm-3.71,29h7.51c.86,0,1.29-.41,1.27-1.19s-.52-1.12-1.26-1.12h-15a1.12,1.12,0,0,0-1.13.66c-.4.86.16,1.66,1.2,1.66C71.6,52.4,74.07,52.39,76.55,52.39Zm-.07-12.61h4.81c.93,0,1.53-.47,1.56-1.17s-.59-1.26-1.56-1.26q-4.71,0-9.44,0c-.94,0-1.53.46-1.56,1.17s.59,1.26,1.56,1.26ZM75.35,71.46c0,.69,0,1.39,0,2.09.05,1.88-.41,1.59,1.75,1.64.53,0,.71-.17.7-.7,0-1.65,0-3.31,0-5s0-1.79-1.79-1.75c-.48,0-.67.13-.66.64C75.37,69.42,75.35,70.44,75.35,71.46Zm0-14v.87c0,1.86,0,1.89,1.88,1.71.4,0,.57-.19.56-.59q0-1.92,0-3.84c0-.29-.06-.48-.4-.56-1.55-.36-2,0-2,1.53Zm2.44-25.29c0-.58,0-1.16,0-1.74s0-.92-.73-.7a2.13,2.13,0,0,1-1.12,0c-.54-.13-.6.1-.59.53,0,.93,0,1.86,0,2.79.05,1.92-.39,1.61,1.74,1.66.51,0,.74-.13.71-.68S77.79,32.81,77.79,32.19Zm0,12.69c0-.26,0-.52,0-.78-.06-2,.42-1.65-1.78-1.7-.47,0-.68.13-.67.64,0,1.21,0,2.43,0,3.65,0,.5.18.63.66.64,1.79.05,1.79.07,1.79-1.75Z" transform="translate(-16.89 -16.86)"/><path class="cls-1" d="M47.43,23.07l-2.26,3c-.32.43-.56.68-1.15.19-1.46-1.19-1.49-1.15-.35-2.67.84-1.11,1.68-2.23,2.53-3.34a1.39,1.39,0,0,1,2.5,0c.69.9,1.41,1.78,2,2.74.44.68.68.47,1,0,.7-1,1.42-1.92,2.16-2.86a1.23,1.23,0,0,1,2.13-.08c.79.92,1.5,1.92,2.23,2.9.36.49.62.8,1.09.05.59-.94,1.3-1.79,2-2.67.89-1.16,1.72-1.16,2.59,0,1.09,1.44,2.15,2.9,3.26,4.33.32.41.23.59-.15.88-1.62,1.23-1.6,1.23-2.86-.42-.5-.66-.87-1.79-1.57-1.81-.49,0-1,1.14-1.52,1.79-.39.5-.76,1-1.16,1.52a1.25,1.25,0,0,1-2.13,0c-.83-1-1.61-2.06-2.38-3.13-.29-.39-.44-.44-.75,0-.7,1-1.44,2-2.2,2.94s-1.58,1.05-2.4,0S48.36,24.28,47.43,23.07Z" transform="translate(-16.89 -16.86)"/><path class="cls-1" d="M54.29,56.29c.4-1.86.79-3.64,1.17-5.42s.73-3.35,1.12-5c.14-.59,0-.84-.65-.83-2.13,0-4.26,0-6.39,0-.42,0-.77,0-.5-.6,1.83-4.37,3.63-8.75,5.45-13.12,0-.07.09-.12.28-.34-.24,1.73-.46,3.27-.68,4.82s-.4,2.87-.64,4.31c-.1.62.14.73.69.72,2.13,0,4.26,0,6.39,0,.51,0,.77,0,.49.67-2.19,4.88-4.35,9.77-6.52,14.66C54.49,56.18,54.43,56.2,54.29,56.29Z" transform="translate(-16.89 -16.86)"/></svg>