<svg id="Layer_1" data-name="Layer 1" xmlns="http://www.w3.org/2000/svg" viewBox="0 0 71.75 73.75"><defs><style>.cls-1{fill:#4c4c4c;}</style></defs><title>F&amp;amp;B Distribution</title><path class="cls-1" d="M19.13,86.67V18.77c.34-.09.49.21.69.37,2.78,2.24,5.57,4.49,8.32,6.77.54.45.77.36,1.11-.2,1.49-2.37,3-4.7,4.52-7.07.35-.56.55-.6,1-.12,1.83,1.9,3.71,3.75,5.54,5.64.4.41.64.42,1.09.07,2.45-1.95,4.94-3.85,7.39-5.8.5-.4.74-.34,1.13.12,1.86,2.17,3.76,4.3,5.61,6.47.4.47.62.44,1,0,1.93-2.18,3.9-4.33,5.82-6.52.44-.5.67-.5,1.12,0,2.37,2.68,4.79,5.31,7.17,8,.43.48.64.49,1,0,2-2.57,4-5.11,6-7.69.42-.56.6-.51,1,.05,1.46,2.26,3,4.47,4.44,6.73.35.55.55.59,1,.13,2-1.89,4-3.75,6-5.61.2-.19.35-.49.75-.48V84.77c0,.41,0,.83,0,1.25a6.16,6.16,0,0,1-6.13,5.85c-19.83-.06-39.66,0-59.49,0a5.78,5.78,0,0,1-5.77-4.25C19.36,87.28,19.39,86.92,19.13,86.67ZM20.28,21A1.73,1.73,0,0,0,20.17,22q0,31.32,0,62.66a11.57,11.57,0,0,0,0,1.32,5,5,0,0,0,5.39,4.81H84.51a7.32,7.32,0,0,0,1.33-.07c2.36-.42,4-2.6,4-5.4q0-31.41,0-62.82c0-.19.13-.45-.19-.6-1.88,1.75-3.78,3.48-5.64,5.27-.52.49-.76.58-1.19-.11C81.47,25,80,22.86,78.64,20.76c-.55-.83-.55-.83-1.19,0L71.88,27.9c-.63.8-.62.8-1.28.07-2.36-2.61-4.74-5.21-7.06-7.86-.53-.6-.77-.5-1.24,0-1.89,2.15-3.82,4.25-5.71,6.39-.42.48-.65.56-1.1,0-1.83-2.16-3.73-4.26-5.55-6.42-.5-.59-.79-.69-1.43-.17-2.06,1.68-4.18,3.29-6.28,4.93-.23.18-.53.3-.64.61a.54.54,0,0,0,.55.1c.86-.13,1.13.19,1.11,1.08-.06,2.46,0,4.93,0,7.4,0,.33-.21.82.47.83s.52-.5.53-.86c0-2.55,0-5.1,0-7.66,0-.72.29-.82.88-.79s1.08-.11,1.06.8c-.06,2.41,0,4.83,0,7.24,0,1.06,0,1.06,1.1,1.07,2,0,4-.06,6,0a5.8,5.8,0,0,1,5.57,6.43c-.48,5.58-.91,11.16-1.38,16.75-.05.59.16.75.72.8a27.36,27.36,0,0,1,3.13.42c.69.14.91,0,1-.73.28-3.14.46-6.3,1-9.42a1,1,0,0,0-.24-.83,6,6,0,0,1,1.21-8.68,10.77,10.77,0,0,1,3.76-1.71,1.89,1.89,0,0,0,.92-.52,9.67,9.67,0,0,1,12.8-.77,5.57,5.57,0,0,1,2.17,5.37,1.85,1.85,0,0,0,.23,1.32,5.91,5.91,0,0,1-1.39,7.91,7.64,7.64,0,0,1-3.58,1.84,5.69,5.69,0,0,0-3,1.63c-2.42,2.27-4.91,4.48-7.38,6.71a2.25,2.25,0,0,0,.86.59,10.08,10.08,0,0,1,5,6c.34,1.21.34,1.21-.93,1.21H26.62a4.13,4.13,0,0,0-.5,0c-.56,0-.73-.15-.6-.73a9.53,9.53,0,0,1,3.91-5.88,1,1,0,0,0,.5-1c-.15-1.51-.27-3-.39-4.55q-.66-8.13-1.31-16.25a5,5,0,0,1,1.44-4,6.09,6.09,0,0,1,4.58-2h6.33c.33,0,.78.12.78-.46V26.17c0-.17,0-.5-.29-.34-.49.27-.65-.13-.88-.35-1.77-1.77-3.53-3.53-5.27-5.33-.44-.46-.64-.39-1,.12-1.5,2.36-3,4.7-4.53,7.07-.31.5-.51.56-1,.17-2.43-2-4.89-4-7.35-6A1.82,1.82,0,0,0,20.28,21ZM71.21,37.47A12.27,12.27,0,0,1,75,38.78a6.36,6.36,0,0,1,3.12,3.63c.16.49.1.92-.41,1.1a.94.94,0,0,1-1.28-.43,5.14,5.14,0,0,1-.2-.55,4.65,4.65,0,0,0-1.81-2.22,7.46,7.46,0,0,0-8-.34,4.78,4.78,0,0,0-2.85,4.93,4.89,4.89,0,0,0,3.64,4.29c2.18.73,4.38,1.42,6.53,2.21a7.58,7.58,0,0,0,7.38-1.23,4.71,4.71,0,0,0,1.09-6.58A5.72,5.72,0,0,0,79.4,41.5c-.39-.16-.67-.41-.52-.89a.73.73,0,0,1,.91-.53,5.22,5.22,0,0,1,1,.31c.38.15.74.35,1.23.58a4.82,4.82,0,0,0-3-4.24A7.2,7.2,0,0,0,71.21,37.47ZM43.5,43.15H56c.54,0,.82-.11.82-.71s.08-1.05.11-1.57a4,4,0,0,0-4-4.32c-1,0-2,0-3.08,0-5.19,0-10.37,0-15.56,0a4,4,0,0,0-4.15,4.36,8.5,8.5,0,0,1,.11,1.32c-.06.83.35.93,1,.93C35.35,43.14,39.43,43.15,43.5,43.15ZM31.78,61.09a28.54,28.54,0,0,1,6.45-1.89,77.18,77.18,0,0,1,15.26-.83c.64,0,1.44.25,1.86,0s.21-1.24.31-1.88c.16-1,.12-1-.9-1h-23c-.28,0-.39.16-.37.43C31.49,57.59,31.63,59.3,31.78,61.09ZM43.5,45H35.6c-1.5,0-3,0-4.49,0-.52,0-.68.15-.61.68a20.39,20.39,0,0,1,.17,2.07c0,.5.25.63.74.63H55.7c.51,0,.68-.19.69-.67a13.83,13.83,0,0,1,.16-1.82c.11-.69-.1-.91-.82-.9C51.66,45,47.58,45,43.5,45Zm0,5.21c-3.94,0-7.88,0-11.82,0-.63,0-.85.16-.75.79a9.28,9.28,0,0,1,.14,1.74c0,.72.29.86.94.86,3.8,0,7.6,0,11.4,0s7.82,0,11.73,0c.56,0,.81-.13.81-.73a10.16,10.16,0,0,1,.15-1.82c.1-.66-.12-.84-.79-.84C51.38,50.24,47.45,50.22,43.51,50.22ZM74,53.7c.2,0,.65.18.72-.17s-.43-.34-.68-.43q-3.52-1.2-7.07-2.37C64.76,50,64.78,50,64.7,52.32c0,.54.19.67.65.7Zm-.09.55c-3-.24-5.78-.44-8.58-.71-1-.1-.71.58-.82,1s.27.6.67.63c1.93.15,3.87.22,5.78.5C72.26,55.91,73,55.24,73.87,54.25Zm-2.25,2c-2.4-.19-4.65-.42-6.9-.53-.67,0-.37.72-.48,1.13s.19.48.54.51c1.38.1,2.77.13,4.13.35S70.79,57.16,71.62,56.28Zm-2.34,2.14a1.72,1.72,0,0,0-.92-.19c-1.07-.09-2.14-.16-3.21-.26s-1-.11-1.12.91c-.05.5.06.7.59.71a6.36,6.36,0,0,1,1.8.16C67.79,60.15,68.49,59.29,69.28,58.42ZM59.34,61c-.88,0-1.4.5-1.31,1.25s.78.69,1.28.59c.71-.15,1.83-.28,1.81-1S60,61.09,59.34,61ZM39.09,62.68c.68,0,1.31-.52,1.26-1a.94.94,0,0,0-1-.91c-.56,0-1.27.67-1.22,1.16S38.66,62.61,39.09,62.68Zm6.64.86a5.3,5.3,0,0,0,.62-.13.77.77,0,0,0,.55-1c-.14-.47-.54-.5-.95-.41a2.09,2.09,0,0,0-.55.18c-.44.23-1.08.48-1,1S45.25,63.43,45.73,63.54Zm21.39-.46c-.22.05-.65,0-.42.41a2.2,2.2,0,0,0,1.4,1.1.71.71,0,0,0,.87-.47c.14-.38-.21-.53-.47-.67A3.77,3.77,0,0,0,67.12,63.08ZM48.86,60.41c.8.29,1.46.48,2.09,0,.22-.15.48-.37.36-.67s-.42-.26-.66-.25A3,3,0,0,0,48.86,60.41Zm-14.25,2.8a1.05,1.05,0,0,0-.83-1c-.42-.09-.61.25-.62.6a.9.9,0,0,0,.86.93C34.38,63.83,34.58,63.61,34.61,63.21Z" transform="translate(-19.13 -18.13)"/><path class="cls-1" d="M35.56,79.51c2.92-.09,6.3.12,9.68-.14a4.72,4.72,0,0,1,3.69,1.1,2.59,2.59,0,0,0,4-.55,1,1,0,0,1,.94-.37l8.49,0c3.85,0,7.7,0,11.56,0,.73,0,.83.27.73.87a5.66,5.66,0,0,1-2.48,3.79A17.53,17.53,0,0,1,65,86.83a88.56,88.56,0,0,1-18.4,1A59,59,0,0,1,33.2,86.33a14.84,14.84,0,0,1-5-2.14,5.74,5.74,0,0,1-2.57-3.83c-.1-.61,0-.87.75-.86C29.28,79.54,32.19,79.51,35.56,79.51Z" transform="translate(-19.13 -18.13)"/><path class="cls-1" d="M23.92,75.32c-1.38.37-2.21-.28-2.13-1.73a3,3,0,0,1,1.92-2.69,8.27,8.27,0,0,1,3.4-.69,44.54,44.54,0,0,1,4.9.13,54.61,54.61,0,0,0,9.22-.13,127.33,127.33,0,0,1,15.87,0c5.43.2,10.85.42,16.29.1a13.06,13.06,0,0,1,4.53.37,5.11,5.11,0,0,1,3.82,5.67c-.19,1-.43,1.13-1.28.55A4.05,4.05,0,0,1,79,75.25c-1.29-3-3.75-3.83-6.68-3.86-2,0-3.94.14-5.9.12-4.94-.06-9.87-.25-14.81-.2a9.81,9.81,0,0,0-3.87.75c-1.22.52-2.42,1.09-3.66,1.58-1.7.67-2.13.48-2.9-1.18A3.68,3.68,0,0,1,38,74.38,6.78,6.78,0,0,1,34.35,73a3.71,3.71,0,0,1-1.3,2.26c-.73.58-1.15.52-1.78-.25A18.85,18.85,0,0,1,30.19,77c-.76,1-1.56,1.07-2.41.19-.29-.3-.37,0-.5.08a4.56,4.56,0,0,1-1.64,1.1,1.77,1.77,0,0,1-2-.29c-.5-.55-.2-1.2,0-1.8a8.86,8.86,0,0,1,.4-.82c0-.07.1-.15,0-.2S24,75.29,23.92,75.32Z" transform="translate(-19.13 -18.13)"/><path class="cls-1" d="M50.59,80a1.44,1.44,0,0,1-.77-.3,2.29,2.29,0,0,1-.59-.57c-1.6-2.79-4.33-3.71-7.21-4.42-.35-.09-1.1-.05-1-.44s.77-.16,1.17,0a4.39,4.39,0,0,0,2.54,0q1.82-.59,3.63-1.2a14.79,14.79,0,0,1,4.81-.79c5.6,0,11.2.2,16.8-.1a13.67,13.67,0,0,1,5.8.8,2.72,2.72,0,0,1,1.36.92c.38.55.18,1-.5,1a1.64,1.64,0,0,1-.88-.17c-2.4-1.45-5-1.28-7.59-.92s-5.33.71-8,1.19a15.22,15.22,0,0,0-8,4.17A2.55,2.55,0,0,1,50.59,80Z" transform="translate(-19.13 -18.13)"/><path class="cls-1" d="M56.85,77.75a20.38,20.38,0,0,1,6.37-2.22,75.71,75.71,0,0,1,11.15-1A1.83,1.83,0,0,1,76,76.88a2.43,2.43,0,0,1-2.1,1.64,16.91,16.91,0,0,1-4.55,0C65.16,78.15,61,78.05,56.85,77.75Z" transform="translate(-19.13 -18.13)"/><path class="cls-1" d="M29.78,78a11.11,11.11,0,0,0,1.77-1.87c.16-.23.35,0,.52,0A2.14,2.14,0,0,0,35,74.77c.14-.34.28-.48.66-.4a62.2,62.2,0,0,1,10.81,3.4A157,157,0,0,1,29.78,78Z" transform="translate(-19.13 -18.13)"/><path class="cls-1" d="M23.92,75.32s.1-.09.12-.08.05.13,0,.2Z" transform="translate(-19.13 -18.13)"/></svg>