<svg id="Layer_1" data-name="Layer 1" xmlns="http://www.w3.org/2000/svg" viewBox="0 0 74.05 73.02"><defs><style>.cls-1{fill:#4c4c4c;}</style></defs><title>IndustrialDistribution</title><path class="cls-1" d="M31.64,18.48c.84,1.22.42,2.61.53,3.93.09,1.06-.49,2.46.25,3.07s2,.16,3,.19c.34,0,.69,0,1,0,1.4,0,1.75.35,1.75,1.75,0,3.79,0,7.57,0,11.35,0,1,.25,1.22,1.21,1.2,2.33,0,2.41.07,2.41,2.36,0,5.12,0,10.23,0,15.35,0,1.31.45,1.59,1.64,1.21a3.65,3.65,0,0,1-.41-2.1c0-3.4,0-6.79,0-10.19,0-1.6.27-1.86,1.89-1.86h9.46a3.57,3.57,0,0,1-.52-2.46V32.21c0-1.43.32-1.77,1.73-1.78,6.87,0,13.75,0,20.63,0,1.18,0,1.73.44,1.71,1.68,0,3.65,0,7.31,0,11a5.8,5.8,0,0,1-.4,1.67h9c2.16,0,2.3.14,2.3,2.25v9.8a3.06,3.06,0,0,1-.45,2.11,2.75,2.75,0,0,0,.44.12c.82.07,1.81-.26,2.28.76s-.46,1.57-1,2.21q-4.57,5.91-9.24,11.76c-.63.79-.78,1.13.4,1.45a33.42,33.42,0,0,1,10.4,5.25c.18,1-.62,1.46-1.15,2-.35.33-.78-.33-1.15-.58a47.13,47.13,0,0,0-4.53-2.71c-5.72-2.93-11.41-3.42-17.19,0a11.38,11.38,0,0,1-8.12,1.2,15.68,15.68,0,0,1-6.16-3.07c-2.9-2.1-5.71-2-8.5.25-.78.61-1.5,1.28-2.25,1.93Q37,84.23,31.81,78.92c-.95-1-1.83-2.06-2.82-3a4.08,4.08,0,0,0-5.61-.51,12.54,12.54,0,0,0-1.79,1.46c-.56.54-.94,1.37-1.58,1.66-.82.37-1.21-.92-2-1V77c.91-.3,1-1,1-1.84q0-7.15,0-14.31c0-.61-.08-1.32.55-1.61s.66-.9.66-1.49V41.92c0-.59-.14-1.35.47-1.64.84-.39.74-1,.74-1.7,0-3.74,0-7.48,0-11.22,0-1,.3-1.65,1.44-1.7s2.62.51,3.17-.26.18-2.22.2-3.38a13.45,13.45,0,0,0,0-1.42,3,3,0,0,1,.6-2.12ZM21.35,73.59c.21,0,.3,0,.37,0,4.28-2.32,6.73-1.91,10,1.68a33.53,33.53,0,0,0,2.68,2.78,4.2,4.2,0,0,0,5.86.11c1.08-.85,2.06-1.82,3.15-2.66a9,9,0,0,1,11.83.08c3.78,3,7.64,3.34,11.87,1.06a17.33,17.33,0,0,1,9.25-2.33,1.68,1.68,0,0,0,1.59-.8c2.9-3.73,5.84-7.43,8.76-11.16.19-.24.54-.42.42-.94h-41c-7.86,0-15.73,0-23.6,0-.9,0-1.27.15-1.25,1.18C21.39,66.22,21.35,69.88,21.35,73.59ZM65.94,32.81c-2.93,0-5.85,0-8.77,0-.71,0-1,.18-1,.93,0,2.54,0,5.08,0,7.61,0,.8.23,1,1,1q8.64,0,17.28,0c.79,0,1-.21,1-1,0-2.5-.06-5,0-7.48,0-.87-.24-1.09-1.07-1.07C71.61,32.84,68.77,32.81,65.94,32.81ZM55.12,47.11c-2.91,0-5.83,0-8.75,0-.69,0-1,.12-1,.91.05,2.57,0,5.15,0,7.72,0,.79.3.91,1,.91,5.75,0,11.5,0,17.24,0,.9,0,1.07-.32,1.05-1.13q-.08-3.66,0-7.34c0-.83-.2-1.1-1.06-1.09C60.79,47.15,58,47.11,55.12,47.11Zm21.55,0c-2.88,0-5.76,0-8.64,0-.7,0-1,.16-1,.92q.06,3.87,0,7.74c0,.68.23.88.89.88q8.72,0,17.41,0c.72,0,1-.19,1-.94,0-2.54,0-5.07,0-7.61,0-.83-.26-1-1-1C82.43,47.14,79.55,47.11,76.67,47.11ZM31,59c2.45,0,4.9,0,7.35,0,.73,0,1.06-.11,1-1,0-4.94,0-9.88,0-14.82,0-.77-.28-.92-1-.91-5,0-10,0-14.95,0-.76,0-.93.25-.93,1,0,4.9,0,9.79,0,14.69,0,.89.31,1.06,1.11,1C26.1,59,28.55,59,31,59ZM29.72,40c1.67,0,3.35,0,5,0,.4,0,1,.27,1-.55s-.59-.58-1-.59c-2.32,0-4.65,0-7,0-1.12,0-1.68-.47-1.67-1.61q0-3.16,0-6.32c0-1.15.5-1.64,1.64-1.63,2.32,0,4.64,0,7,0,.43,0,1,.19,1-.59s-.59-.6-1-.6c-3.35,0-6.71,0-10.06,0-.72,0-1,.18-1,.93,0,3.36,0,6.71,0,10.07,0,.76.26.94,1,.92C26.36,39.92,28,40,29.72,40Zm2.44-8.31c-.9,0-1.8,0-2.7,0-.63,0-.95.12-.91.84.06,1,0,2.06,0,3.08,0,.6.18.84.81.84,1.88,0,3.76,0,5.65,0,.52,0,.72-.18.77-.73.39-4,.4-4-3.51-4ZM29.78,23.4c0-.6,0-1.2,0-1.8s-.15-.73-.66-.71-.57.29-.57.68q0,1.74,0,3.48c0,.43.16.62.6.62s.64-.14.63-.59S29.78,24,29.78,23.4Z" transform="translate(-17.97 -18.48)"/><path class="cls-1" d="M41.45,91.49c-2.87-1.31-5.19-3.39-7.58-5.37-1.9-1.57-2.83-1.32-4.08.79a6.43,6.43,0,0,1-7.54,3.26,16.23,16.23,0,0,1-2.44-.81c-1.58-.64-1.56-.7-.68-2.15.33-.55.61-.57,1.12-.29a9.92,9.92,0,0,0,1.65.69c2.86,1,4.52.29,6-2.33s4-3.26,6.56-1.68a26.39,26.39,0,0,1,3.3,2.67,12.79,12.79,0,0,0,3,2.14,3.52,3.52,0,0,0,4.43-.9c.64-.69,1.2-1.45,1.82-2.17a6.54,6.54,0,0,1,8.8-1.45,38.46,38.46,0,0,1,3.68,2.81,17,17,0,0,0,2.11,1.47,4.47,4.47,0,0,0,5.58-.65c1-.86,1.79-1.86,2.71-2.76a5.64,5.64,0,0,1,8.2-.28c.87.76,1.65,1.63,2.48,2.44,2.34,2.31,4.54,2.52,7.27.69l.53-.38c.6-.48,1.13-1.25,1.8-1.38s1,1,1.79,1.26v.26a17.57,17.57,0,0,1-3.92,2.89c-3.24,1.44-5.61,1.49-8.38-.94-.87-.76-1.65-1.62-2.48-2.44-2.27-2.23-3.95-2.19-6.13.12-.74.79-1.47,1.58-2.25,2.31a7.07,7.07,0,0,1-8.64.84c-1.64-1-3-2.37-4.59-3.53-2.84-2.15-5-1.9-7.21.85-1.27,1.58-2.52,3.17-4.65,3.64-.11,0-.17.25-.26.38Z" transform="translate(-17.97 -18.48)"/><path class="cls-1" d="M22.56,65.83c0-3.26-.24-3.29,3.21-3.23a9.89,9.89,0,0,0,1.54,0c1-.15,1.31.25,1.29,1.26S28.3,65,27.42,65C25,65,24.9,65,25,67.44c0,1.07-.38,1.16-1.26,1.16s-1.3-.12-1.17-1.1A11.62,11.62,0,0,0,22.56,65.83Z" transform="translate(-17.97 -18.48)"/><path class="cls-1" d="M68.28,34h.77c1.71,0,1.81.13,1.63,1.78-.05.53-.27.64-.73.64-1.11,0-2.23,0-3.34,0-1,0-.74-.65-.71-1.15S65.54,34,66.61,34C67.16,34,67.72,34,68.28,34Z" transform="translate(-17.97 -18.48)"/><path class="cls-1" d="M73.05,34c.92-.18,1.3.09,1.29,1.11s-.24,1.33-1.28,1.32-1.23-.3-1.21-1.25S72,33.77,73.05,34Z" transform="translate(-17.97 -18.48)"/><path class="cls-1" d="M57.44,48.29a7.36,7.36,0,0,0,1.15,0c1.12-.18,1.33.34,1.31,1.36,0,.85-.27,1.13-1.11,1.07s-1.7,0-2.55,0c-.39,0-1,.26-1.12-.28a5.45,5.45,0,0,1,0-1.89c0-.28.43-.21.67-.22Z" transform="translate(-17.97 -18.48)"/><path class="cls-1" d="M61.08,49.38c-.3-1.1.38-1.07,1.21-1.12,1-.06,1.15.33,1.2,1.24.06,1.13-.45,1.18-1.35,1.23C61,50.79,61,50.23,61.08,49.38Z" transform="translate(-17.97 -18.48)"/><path class="cls-1" d="M79.12,48.29a5.79,5.79,0,0,0,1,0c1.11-.18,1.49.21,1.43,1.38,0,.87-.33,1.1-1.13,1.05s-1.54,0-2.3,0a1.38,1.38,0,0,1-1.42-2.08c.13-.32.36-.31.61-.32Z" transform="translate(-17.97 -18.48)"/><path class="cls-1" d="M85.09,49.41c.15.87,0,1.36-1.08,1.32s-1.36-.16-1.33-1.25c0-.93.22-1.27,1.21-1.22S85.37,48.33,85.09,49.41Z" transform="translate(-17.97 -18.48)"/><path class="cls-1" d="M31.1,44.75a5.94,5.94,0,1,1-6.16,5.8A6,6,0,0,1,31.1,44.75ZM31,54.26a3.57,3.57,0,1,0-.15-7.13,3.56,3.56,0,0,0-3.48,3.56A3.61,3.61,0,0,0,31,54.26Z" transform="translate(-17.97 -18.48)"/></svg>