<svg id="Layer_1" data-name="Layer 1" xmlns="http://www.w3.org/2000/svg" viewBox="0 0 76.68 103.83"><defs><style>.cls-1{fill:#fff;stroke:#4c4c4c;stroke-miterlimit:10;stroke-width:1.5px;}</style></defs><title>JanSanDistribution</title><path class="cls-1" d="M37.2,4C38.61,4.46,39,5.48,39,6.88c0,11.91,0,23.83,0,35.74,0,1.14.29,1.43,1.41,1.4,3.08-.08,6.15,0,9.23,0a1.13,1.13,0,0,0,1.29-.83,5.1,5.1,0,0,1,3.06-3c.39-.16.72-.25.81-.82a5.49,5.49,0,0,1,10.14-2.24l.27.33A7.25,7.25,0,0,1,69.33,34a6.87,6.87,0,0,1,8.2,3.47,1.24,1.24,0,0,0,1.27.85,6.62,6.62,0,0,1,6.08,3.84,1.68,1.68,0,0,0,1,.87,5.29,5.29,0,0,1,3.44,3.69.91.91,0,0,0,1.05.79c1.59,0,2.26.7,2.35,2.27,0,.81,0,1.63,0,2.45,0,1.73-.81,2.53-2.52,2.47-.91,0-1.2.3-1.35,1.13q-1.44,8.09-3,16.17a1.33,1.33,0,0,0,.46,1.41c2,1.87,1.49,4.64-1.11,5.68a1.17,1.17,0,0,0-.85,1.08,7.11,7.11,0,0,1-.51,2.15,3.22,3.22,0,0,1-3.19,1.91q-12.5,0-25,0c-.78,0-1.54-.11-2,.75-.29.5-.91.33-1.41.33-6.54,0-13.08,0-19.62.09-4,0-7.94,0-11.91.17a2.58,2.58,0,0,1-2.84-1.84c-.07-.18-.08-.39-.31-.46v-1.4c1-2.36,2.79-3.16,5.22-2.86.27,0,.55,0,.81,0,.82.11,1.16-.22,1-1a5.78,5.78,0,0,1,0-.93,2.17,2.17,0,0,1,2.47-2.42c1.09,0,2.18,0,3.27,0,.55,0,.75-.18.74-.74,0-1.09,0-2.18,0-3.27a2,2,0,0,1,1.56-2.17.82.82,0,0,0,.74-1c0-4,0-7.93,0-11.9,0-.64-.18-.86-.85-.89a2,2,0,0,1-2.12-2.14q-.06-3.21,0-6.42A1.92,1.92,0,0,1,32.36,44c1.09,0,1.06-.52,1.06-1.29,0-12,0-24,0-35.95,0-1.38.39-2.32,1.72-2.78Zm27.48,57.6c.09.08.18.17.27,0s-.08-.11-.13-.17a3.89,3.89,0,0,0-5.13-1.28,4.09,4.09,0,0,0-1.93,5.09,3.48,3.48,0,0,0,3.81,2.38c-.3-.17-.57-.31-.83-.47a3.31,3.31,0,0,1-1.55-4.09A3.27,3.27,0,0,1,63,61,12.89,12.89,0,0,1,64.68,61.62Zm-1.89-6.91c-7.55,0-15.11,0-22.66,0-.69,0-1.16,0-1.15.95.05,3.93,0,7.87,0,11.8,0,.53.12.83.69,1a2,2,0,0,1,1.52,2.2c0,1,0,2.11,0,3.16,0,.6.17.83.79.81,1.17,0,2.34,0,3.51,0a2.12,2.12,0,0,1,2.19,2c.11.79-.42,1.86.31,2.28s1.59.1,2.41.12H51a3.28,3.28,0,0,1,3.27,2,1.23,1.23,0,0,0,1.35.78q12.32,0,24.64,0c.79,0,1.49-.14,1.52-1s1-1.9-.55-2.68c-5.06-2.58-10.06-5.28-15-8a2.49,2.49,0,0,0-2.35-.15A6.53,6.53,0,1,1,68,62.73,1.46,1.46,0,0,0,68.88,64c4.5,2.38,9,4.75,13.48,7.21,1,.55,1.18.22,1.34-.7.86-4.86,1.71-9.73,2.68-14.56.22-1.13-.11-1.21-1-1.2C77.82,54.72,70.3,54.71,62.79,54.71Zm-26.66,29H50.49c.86,0,1.66-.16,1.64-1.19s-.79-1.12-1.61-1.11c-2.14,0-4.28,0-6.42,0-.83,0-1.52-.17-1.55-1.15s.67-1.33,1.56-1.25,1.09-.14,1.09-1-.44-.9-1.09-.9c-5.33,0-10.66,0-16,0-.77,0-1,.23-1,1s.22.93.93.92c3,0,6,0,9,0a1.3,1.3,0,0,1,1.45.91A1.13,1.13,0,0,1,38,81.2a1.94,1.94,0,0,1-1.25.19H22.11a4,4,0,0,0-1,.06,1.11,1.11,0,0,0,0,2.17,4.48,4.48,0,0,0,1,.06ZM64.55,52.2c8.21,0,16.42,0,24.63,0,.91,0,1.14-.29,1.08-1.13s.06-1.24-1-1.23c-8.79,0-17.59,0-26.38,0-.38,0-.77-.07-1,.36a2.41,2.41,0,0,1-2.33,1c-6.42,0-12.84,0-19.26,0h-.94c-.29,0-.39.2-.39.47s.11.46.4.48H64.55ZM53.24,44h6.45c1.68,0,2.49.74,2.47,2.39,0,.88.23,1.11,1.11,1.11,5,0,9.95,0,14.93,0,.24,0,.53.12.75-.2-.66-.75-1.52-.5-2.3-.52-1.6,0-1.74-.13-2.07-1.7a2.49,2.49,0,0,0-2.28-2,2.36,2.36,0,0,0-2.41,1.8c-.09.3-.12.61-.19.91a1.19,1.19,0,0,1-2.35-.16c0-.58,0-1.17,0-1.75s0-1-.42-1.24-.69.38-1,.64a1.53,1.53,0,0,1-1.6.42c-.68-.27-.64-.88-.68-1.47a10.07,10.07,0,0,0-.69-3.52A2.76,2.76,0,0,0,60,37a3,3,0,0,0-2.63,2c-.19.6-.19,1,.65,1.11a11.4,11.4,0,0,1,3.41.71,1.11,1.11,0,0,1,.64,1.62,1.07,1.07,0,0,1-1.56.58c-1.45-.82-3-.6-4.56-.68A2.8,2.8,0,0,0,53.24,44Zm-4,4.82c3.11,0,6.23,0,9.34,0,.9,0,1.12-.28,1.1-1.13s-.11-1.24-1.12-1.23c-6.19.05-12.37,0-18.56,0-.88,0-1.15.24-1.12,1.11S39,48.87,40,48.84C43.11,48.78,46.19,48.82,49.26,48.82Zm35.83,27c0-.55-.57-.77-1-1L63.15,63.69a2.76,2.76,0,0,0-.52-.25.8.8,0,0,0-1,.32.84.84,0,0,0,.18,1.16,7.27,7.27,0,0,0,.89.54l17.71,9.43c1.06.56,2.11,1.15,3.19,1.68C84.38,77,85.06,76.65,85.09,75.84ZM36.5,43.05V19.23c0-.31,0-.62,0-.93s0-.48-.38-.45-.29.23-.3.43,0,.46,0,.7V67.19c0,.23,0,.46,0,.7s.09.38.33.39.32-.15.33-.37,0-.62,0-.93ZM87,47.48a2.87,2.87,0,0,0-2.35-2.26,2,2,0,0,1-1.78-1.54,4.37,4.37,0,0,0-5.79-2.63c-1.28.5-1.4.77-.67,1.89.32.49.22,1.32,1.22,1.32A4.37,4.37,0,0,1,81.76,47a.75.75,0,0,0,.78.53C84,47.46,85.41,47.48,87,47.48ZM72.49,40.57c1.22.48,1.57-.78,2.37-1.12s.67-.68.3-1.26a4.49,4.49,0,0,0-7.55.05c-.49.77-.78,1.45.39,1.9a2.33,2.33,0,0,1,.87.76.76.76,0,0,0,1.17.22A4.57,4.57,0,0,1,72.49,40.57Zm-36.36,34c2.7,0,2.7,0,2.67-2.66a1,1,0,0,1,0-.24c.08-.64-.17-.91-.85-.88a27.44,27.44,0,0,1-3.27,0c-.93-.06-1.18.26-1.17,1.18C33.55,74.6,33.51,74.6,36.13,74.6ZM36.5,11c0-1.28,0-2.56,0-3.84,0-.25.07-.6-.35-.59s-.33.28-.33.52V14.8c0,.25,0,.51.33.53.44,0,.35-.33.35-.57C36.51,13.52,36.5,12.27,36.5,11Z" transform="translate(-16.82 -3.27)"/><path class="cls-1" d="M76.8,102.53c.68.17,1.53-.11,1.74.6s-.38,1.39-.91,1.9c-1.43,1.35-3.21,1.31-4.95,1a35.23,35.23,0,0,1-8.28-2.77,9.58,9.58,0,0,0-3.53-1.11c-.43,0-1-.09-1.14.35s.53.43.84.58a1.37,1.37,0,0,1,.36,2.48,3.61,3.61,0,0,1-3.08.72c-2.4-.3-4.5-1.5-6.65-2.44a66.92,66.92,0,0,0-13.86-4.32,27.52,27.52,0,0,1-15.28-9.09,7.14,7.14,0,0,1-1.62-3.32c-.14-.66,0-1.08.85-1.09q14.9-.11,29.78-.28a2.3,2.3,0,0,1,2.21.92,3.49,3.49,0,0,0,3.16,1.2,11.31,11.31,0,0,1,6.48,2,40.06,40.06,0,0,0,6,3c2.14.82,3.92,2,4.74,4.34a2.63,2.63,0,0,0,2.46,1.68c.62.06,1.23.14,1.85.24s1.33.27,1.41.85a1.7,1.7,0,0,1-1.11,1.63A4,4,0,0,0,76.8,102.53Z" transform="translate(-16.82 -3.27)"/><path class="cls-1" d="M64.82,61.47c.05.06.14.14.13.17s-.18.06-.27,0Z" transform="translate(-16.82 -3.27)"/></svg>