<svg id="Layer_1" data-name="Layer 1" xmlns="http://www.w3.org/2000/svg" viewBox="0 0 79.84 76.61"><defs><style>.cls-1{fill:#fff;stroke:#4c4c4c;stroke-miterlimit:10;stroke-width:2px;}</style></defs><title>PHVAC</title><path class="cls-1" d="M.5,22.78c.92-2.29,2.82-3,5-3a26.42,26.42,0,0,1,6.33.63,6.41,6.41,0,0,1,5.1,5.76,45.49,45.49,0,0,1,.28,8c-.06,1.8-.07,3.61-.07,5.41V66.87c0,1,0,1,1,.67a2.2,2.2,0,0,0,1.73-2.15c.13-1.92-.06-3.84-.12-5.75,0-1.48-.09-3-.09-4.43,0-6.94-.6-13.87-.35-20.81a29.19,29.19,0,0,1,1.36-8.8c1-2.88,2.73-5.08,6-5.48,3.47-.44,5.92,1.27,7.8,4,1.18,1.75,1.32,3.76,1.49,5.76.36,4.21.36,8.43.44,12.65.16,7.77-.14,15.54-.11,23.3,0,1.13,0,1.13,1,.84,1.36-.38,1.53-.61,1.53-2,0-12.17.09-24.34,0-36.51a8,8,0,1,1,16-.75,99.91,99.91,0,0,1,.58,12c.08,6.12,0,12.23,0,18.35,0,2.8-.06,5.61-.13,8.41,0,.64.11.89.81.87,1.68,0,1.68,0,1.68-1.67V41.07c0-3.64-.14-7.27-.29-10.89a20,20,0,0,1,.27-4.5c.57-3.28,2.26-5,5.54-5.57a16.64,16.64,0,0,1,2.81-.29c.74,0,.88-.35.89-1a1.32,1.32,0,0,1,1.18-1.45,1.3,1.3,0,0,1,1,.3q4.24,2.46,8.49,5c.88.51.88.52.13,1.29a20.73,20.73,0,0,1-4.14,3c-2,1.18-4,2.21-6.08,3.27-.54.28-.74.2-.71-.43s0-1.3,0-2c0-.46-.16-.6-.62-.62-1.87-.09-1.89-.1-1.86,1.77.21,10.87.2,21.74.12,32.61,0,2-.12,4.07-.29,6.1a6.73,6.73,0,0,1-4.55,5.91C53.94,76,48.4,72.39,48,66.19c-.58-10.42-.27-20.8-.27-31.27,0-2.27,0-4.55.12-6.82,0-.65-.14-.81-.8-.62-1.66.48-1.84.69-1.84,2.39v38a5.65,5.65,0,0,1-2,4,8.57,8.57,0,0,1-12.12-.14,8.75,8.75,0,0,1-1.62-2.34,8.94,8.94,0,0,1-.59-3.11c-.25-4.7-.21-9.39-.2-14.09q0-12.09.12-24.19c0-.61-.2-.62-.67-.51-1.75.42-1.92.65-1.92,2.48,0,11.43.35,22.86.16,34.29a33.4,33.4,0,0,1-.22,4c-.79,5.52-6,8.4-11.29,6.24a7.89,7.89,0,0,1-5.11-7.58V28.37c0-.86-.22-1.11-1.07-1.07-1.42.08-2.84,0-4.26,0A3.4,3.4,0,0,1,.7,24.78c-.06-.13-.06-.29-.22-.36Z" transform="translate(0.53 0.39)"/><path class="cls-1" d="M56.83,1.63a4.82,4.82,0,0,1-1.75,3.24c-.61.59-.58,1,0,1.69C56.42,8,57.66,9.56,59,11a.72.72,0,0,1,.13,1L59,12.1a10,10,0,0,1-4.63,4.15.76.76,0,0,1-.69,0c.68-1.33,1.32-2.67,2-4,.32-.58.28-.9-.31-1.27a14.39,14.39,0,0,1-2.82-2.4,6.75,6.75,0,0,1-1.09-1.51,2,2,0,0,1,.45-2.79l.07,0A13.93,13.93,0,0,1,56.83,1.63Z" transform="translate(0.53 0.39)"/><path class="cls-1" d="M37.83,1.63a20.09,20.09,0,0,1-2,3.49c-.38.51-.3.82.1,1.26,1.36,1.52,2.65,3.1,4,4.63A.76.76,0,0,1,40,12.09l0,.06a10,10,0,0,1-4.71,4.13l-.34.09a.52.52,0,0,1-.27-.08c.67-1.32,1.3-2.64,2-3.91.33-.6.33-.92-.3-1.33a13.27,13.27,0,0,1-3.34-3c-1.4-1.83-1.27-2.87.58-4.23A14.87,14.87,0,0,1,37.83,1.63Z" transform="translate(0.53 0.39)"/><path class="cls-1" d="M15.59,16.39c.71-1.4,1.38-2.77,2.09-4.12.26-.48.23-.75-.25-1.08a13.4,13.4,0,0,1-3.62-3.34c-1.16-1.68-1-2.69.62-3.92a13,13,0,0,1,4.32-2.15,21.12,21.12,0,0,1-2,3.36.92.92,0,0,0,0,1.3h0c1.35,1.72,2.62,3.5,4,5.22.42.54.51.84-.14,1.3a21,21,0,0,0-2.06,1.94A4.94,4.94,0,0,1,15.59,16.39Z" transform="translate(0.53 0.39)"/><path class="cls-1" d="M46.93,1.7A9,9,0,0,1,45,5.81c-.46.58-.41.91.21,1.3a14.21,14.21,0,0,1,3.29,2.8c1.24,1.46,1.16,2.73-.29,4a26.28,26.28,0,0,1-3.6,2.5,6.29,6.29,0,0,1,.62-2.21c.13-.33.29-.65.42-1,.56-1.5.55-1.49-.71-2.48a28.22,28.22,0,0,1-3.28-3.46,1,1,0,0,1,0-1.41l0,0A12.05,12.05,0,0,1,46.93,1.7Z" transform="translate(0.53 0.39)"/><path class="cls-1" d="M27.79,1.86a7.72,7.72,0,0,1-1.47,3.26,1.5,1.5,0,0,0,0,2.11,1.56,1.56,0,0,0,.2.16c1.21,1.15,2.28,2.46,3.45,3.66.39.39.36.67.13,1.14-1,2-2.71,3.09-4.58,4.26a12.17,12.17,0,0,1,1-3A2.12,2.12,0,0,0,26,10.73c-1.22-1.1-2.24-2.42-3.39-3.61a.7.7,0,0,1-.14-1l.06-.07a11.29,11.29,0,0,1,5-4.14.62.62,0,0,1,.33,0Z" transform="translate(0.53 0.39)"/><path class="cls-1" d="M27.8,1.87l.06-.09a0,0,0,0,1,0,.05H27.8Z" transform="translate(0.53 0.39)"/></svg>