<svg id="Layer_1" data-name="Layer 1" xmlns="http://www.w3.org/2000/svg" viewBox="0 0 68.07 68.07"><defs><style>.cls-1{fill:#4c4c4c;}</style></defs><title>ElectronicComponents&amp;amp;Accessories</title><path class="cls-1" d="M85.63,35.71V27.77a1.14,1.14,0,0,0-.33-.8,1.15,1.15,0,0,0-.8-.33H83.36V22.1a1.14,1.14,0,0,0-2.27,0v4.54H80a1.14,1.14,0,0,0-.8.33,1.1,1.1,0,0,0-.34.8v7.94H76.55V27.77a1.13,1.13,0,0,0-1.13-1.13H74.29V22.1a1.14,1.14,0,0,0-2.27,0v4.54H70.88a1.13,1.13,0,0,0-1.13,1.13v7.94H67.48V27.77a1.14,1.14,0,0,0-.33-.8,1.16,1.16,0,0,0-.81-.33H65.21V22.1a1.14,1.14,0,0,0-2.27,0v4.54H61.81A1.18,1.18,0,0,0,61,27a1.14,1.14,0,0,0-.33.8v7.94H58.4V27.77a1.13,1.13,0,0,0-1.13-1.13H56.13V22.1a1.13,1.13,0,1,0-2.26,0v4.54H52.73a1.13,1.13,0,0,0-1.13,1.13v7.94H49.33V27.77A1.14,1.14,0,0,0,49,27a1.18,1.18,0,0,0-.81-.33H47.06V22.1a1.14,1.14,0,0,0-2.27,0v4.54H43.66a1.16,1.16,0,0,0-.81.33,1.14,1.14,0,0,0-.33.8v7.94H40.25V27.77a1.13,1.13,0,0,0-1.13-1.13H38V22.1a1.14,1.14,0,0,0-2.27,0v4.54H34.58a1.13,1.13,0,0,0-1.13,1.13v7.94H31.18V27.77a1.1,1.1,0,0,0-.34-.8,1.14,1.14,0,0,0-.8-.33H28.91V22.1a1.14,1.14,0,0,0-2.27,0v4.54H25.5a1.15,1.15,0,0,0-.8.33,1.14,1.14,0,0,0-.33.8v7.94A3.41,3.41,0,0,0,21,39.12V51.6a1.13,1.13,0,0,0,1.13,1.13,2.27,2.27,0,0,1,0,4.54A1.13,1.13,0,0,0,21,58.4V70.88a3.41,3.41,0,0,0,3.4,3.41v7.94a1.14,1.14,0,0,0,.33.8,1.15,1.15,0,0,0,.8.33h1.14V87.9a1.14,1.14,0,0,0,2.27,0V83.36H30a1.14,1.14,0,0,0,.8-.33,1.1,1.1,0,0,0,.34-.8V74.29h2.27v7.94a1.13,1.13,0,0,0,1.13,1.13h1.13V87.9a1.14,1.14,0,0,0,2.27,0V83.36h1.14a1.13,1.13,0,0,0,1.13-1.13V74.29h2.27v7.94a1.14,1.14,0,0,0,.33.8,1.16,1.16,0,0,0,.81.33h1.13V87.9a1.14,1.14,0,0,0,2.27,0V83.36h1.13A1.18,1.18,0,0,0,49,83a1.14,1.14,0,0,0,.33-.8V74.29H51.6v7.94a1.13,1.13,0,0,0,1.13,1.13h1.14V87.9a1.13,1.13,0,1,0,2.26,0V83.36h1.14a1.13,1.13,0,0,0,1.13-1.13V74.29h2.27v7.94A1.14,1.14,0,0,0,61,83a1.18,1.18,0,0,0,.81.33h1.13V87.9a1.14,1.14,0,0,0,2.27,0V83.36h1.13a1.16,1.16,0,0,0,.81-.33,1.14,1.14,0,0,0,.33-.8V74.29h2.27v7.94a1.13,1.13,0,0,0,1.13,1.13H72V87.9a1.14,1.14,0,0,0,2.27,0V83.36h1.13a1.13,1.13,0,0,0,1.13-1.13V74.29h2.27v7.94a1.1,1.1,0,0,0,.34.8,1.14,1.14,0,0,0,.8.33h1.13V87.9a1.14,1.14,0,0,0,2.27,0V83.36H84.5a1.15,1.15,0,0,0,.8-.33,1.14,1.14,0,0,0,.33-.8V74.29A3.41,3.41,0,0,0,89,70.88V39.12A3.41,3.41,0,0,0,85.63,35.71Zm-4.54-6.8h2.27v2.27H81.09Zm0,4.54h2.27v2.26H81.09ZM72,28.91h2.27v2.27H72Zm0,4.54h2.27v2.26H72Zm-9.08-4.54h2.27v2.27H62.94Zm0,4.54h2.27v2.26H62.94Zm-9.07-4.54h2.26v2.27H53.87Zm0,4.54h2.26v2.26H53.87Zm-9.08-4.54h2.27v2.27H44.79Zm0,4.54h2.27v2.26H44.79Zm-9.08-4.54H38v2.27H35.71Zm0,4.54H38v2.26H35.71Zm-9.07-4.54h2.27v2.27H26.64Zm0,4.54h2.27v2.26H26.64Zm2.27,47.64H26.64V78.82h2.27v2.27Zm0-4.54H26.64V74.29h2.27v2.26ZM38,81.09H35.71V78.82H38Zm0-4.54H35.71V74.29H38Zm9.08,4.54H44.79V78.82h2.27Zm0-4.54H44.79V74.29h2.27Zm9.07,4.54H53.87V78.82h2.26Zm0-4.54H53.87V74.29h2.26Zm9.08,4.54H62.94V78.82h2.27Zm0-4.54H62.94V74.29h2.27Zm9.08,4.54H72V78.82h2.27Zm0-4.54H72V74.29h2.27Zm9.07,4.54H81.09V78.82h2.27Zm0-4.54H81.09V74.29h2.27Zm3.4-5.67A1.13,1.13,0,0,1,85.63,72H24.37a1.13,1.13,0,0,1-1.13-1.14V59.39a4.53,4.53,0,0,0,0-8.78V39.12A1.13,1.13,0,0,1,24.37,38H85.63a1.13,1.13,0,0,1,1.13,1.14V70.88Z" transform="translate(-20.97 -20.97)"/><path class="cls-1" d="M55,42.52A12.48,12.48,0,1,0,67.48,55,12.48,12.48,0,0,0,55,42.52Zm1.13,2.34a10.11,10.11,0,0,1,5.27,2.2H56.13Zm-2.26,0v2.2H48.6A10.11,10.11,0,0,1,53.87,44.86Zm0,20.28a10.11,10.11,0,0,1-5.27-2.2h5.27Zm2.26,0v-2.2H61.4A10.11,10.11,0,0,1,56.13,65.14Zm7.35-4.47h-17a10.14,10.14,0,0,1,0-11.34h17A10.14,10.14,0,0,1,63.48,60.67Z" transform="translate(-20.97 -20.97)"/><path class="cls-1" d="M57.27,51.6H52.73a2.27,2.27,0,0,0-2.27,2.27v2.26a2.27,2.27,0,0,0,2.27,2.27h4.54a2.27,2.27,0,0,0,2.27-2.27V53.87A2.27,2.27,0,0,0,57.27,51.6Zm-4.54,4.53V53.87h4.54v2.26Z" transform="translate(-20.97 -20.97)"/><path class="cls-1" d="M35.71,40.25H26.64a1.14,1.14,0,1,0,0,2.27h9.07a1.14,1.14,0,1,0,0-2.27Z" transform="translate(-20.97 -20.97)"/><path class="cls-1" d="M41.39,40.25H40.25a1.14,1.14,0,0,0,0,2.27h1.14a1.14,1.14,0,0,0,0-2.27Z" transform="translate(-20.97 -20.97)"/><path class="cls-1" d="M83.36,67.48H74.29a1.14,1.14,0,1,0,0,2.27h9.07a1.14,1.14,0,1,0,0-2.27Z" transform="translate(-20.97 -20.97)"/><path class="cls-1" d="M69.75,67.48H68.61a1.14,1.14,0,0,0,0,2.27h1.14a1.14,1.14,0,0,0,0-2.27Z" transform="translate(-20.97 -20.97)"/></svg>