<svg id="Layer_1" data-name="Layer 1" xmlns="http://www.w3.org/2000/svg" viewBox="0 0 82.31 75.45"><defs><style>.cls-1{fill:#fff;}</style></defs><title>B1</title><path class="cls-1" d="M23.45,76.26a2.75,2.75,0,1,1-2.74-2.74A2.75,2.75,0,0,1,23.45,76.26Z" transform="translate(-13.85 -17.27)"/><path class="cls-1" d="M92,76.26a2.75,2.75,0,1,1-2.75-2.74A2.75,2.75,0,0,1,92,76.26Z" transform="translate(-13.85 -17.27)"/><path class="cls-1" d="M41.28,74.89H44v2.75H41.28Z" transform="translate(-13.85 -17.27)"/><path class="cls-1" d="M66,74.89h2.75v2.75H66Z" transform="translate(-13.85 -17.27)"/><path class="cls-1" d="M67.35,85.87A1.38,1.38,0,1,1,66,84.49,1.38,1.38,0,0,1,67.35,85.87Z" transform="translate(-13.85 -17.27)"/><path class="cls-1" d="M72.83,80.38H37.17v11H72.83ZM42.65,87.24H39.91V84.49h2.74Zm5.49,0H45.4V84.49h2.74Zm5.49,0H50.88V84.49h2.75Zm5.49,0H56.37V84.49h2.75ZM66,90a4.12,4.12,0,1,1,4.12-4.11A4.11,4.11,0,0,1,66,90Z" transform="translate(-13.85 -17.27)"/><path class="cls-1" d="M37.17,72.15H72.83v-11H37.17ZM66,62.55a4.12,4.12,0,1,1-4.11,4.11A4.11,4.11,0,0,1,66,62.55Zm-9.6,2.74h2.75V68H56.37Zm-5.49,0h2.75V68H50.88Zm-5.48,0h2.74V68H45.4Zm-5.49,0h2.74V68H39.91Z" transform="translate(-13.85 -17.27)"/><path class="cls-1" d="M67.35,66.66A1.38,1.38,0,1,1,66,65.29,1.37,1.37,0,0,1,67.35,66.66Z" transform="translate(-13.85 -17.27)"/><path class="cls-1" d="M49.75,50.2h1.13a1.37,1.37,0,0,1,1.38,1.37v6.86h5.48V51.57a1.37,1.37,0,0,1,1.38-1.37h1.13L55,44.08Z" transform="translate(-13.85 -17.27)"/><path class="cls-1" d="M82.44,31a1.37,1.37,0,0,1-1.38-1.37,6.85,6.85,0,0,0-11.77-4.77,1.42,1.42,0,0,1-1.18.4,1.39,1.39,0,0,1-1-.72,13.7,13.7,0,0,0-25.69,4.75,1.37,1.37,0,0,1-2.31.82,6.86,6.86,0,0,0-11.54,5,1.47,1.47,0,0,1-.46,1.1,1.44,1.44,0,0,1-1.1.37,7.72,7.72,0,0,0-1.18-.1,8.23,8.23,0,0,0,0,16.46h22a1.36,1.36,0,0,1-1-2.26L54,41.08a1.41,1.41,0,0,1,2.08,0l8.23,9.6a1.36,1.36,0,0,1-1,2.26H82.44a11,11,0,0,0,0-21.95Zm-9.61,0H70.09V28.25h2.74Zm2.75-2.74h2.74V31H75.58Zm4.11,22H77V47.46h2.74Zm2.75,0V47.46A5.48,5.48,0,0,0,87.92,42h2.75A8.24,8.24,0,0,1,82.44,50.2Z" transform="translate(-13.85 -17.27)"/><path class="cls-1" d="M84,74.89H78.32v2.75H84A5.34,5.34,0,0,1,84,74.89ZM87.92,59.8V71a5.34,5.34,0,0,1,2.75,0V59.8Zm1.37,22a4.57,4.57,0,0,1-1.37-.18V92.73h2.75V81.57A4.59,4.59,0,0,1,89.29,81.75Z" transform="translate(-13.85 -17.27)"/><path class="cls-1" d="M93.41,66.66h2.74V69.4H93.41Z" transform="translate(-13.85 -17.27)"/><path class="cls-1" d="M93.41,61.17h2.74v2.75H93.41Z" transform="translate(-13.85 -17.27)"/><path class="cls-1" d="M93.41,88.61h2.74v2.74H93.41Z" transform="translate(-13.85 -17.27)"/><path class="cls-1" d="M93.41,83.12h2.74v2.75H93.41Z" transform="translate(-13.85 -17.27)"/><path class="cls-1" d="M13.85,66.66h2.74V69.4H13.85Z" transform="translate(-13.85 -17.27)"/><path class="cls-1" d="M13.85,61.17h2.74v2.75H13.85Z" transform="translate(-13.85 -17.27)"/><path class="cls-1" d="M13.85,88.61h2.74v2.74H13.85Z" transform="translate(-13.85 -17.27)"/><path class="cls-1" d="M13.85,83.12h2.74v2.75H13.85Z" transform="translate(-13.85 -17.27)"/><path class="cls-1" d="M19.33,59.8V71a5.34,5.34,0,0,1,2.75,0V59.8Zm1.38,22a4.59,4.59,0,0,1-1.38-.18V92.73h2.75V81.57A4.57,4.57,0,0,1,20.71,81.75ZM26,74.89a5.34,5.34,0,0,1,0,2.75h5.67V74.89Z" transform="translate(-13.85 -17.27)"/></svg>