<svg id="Layer_1" data-name="Layer 1" xmlns="http://www.w3.org/2000/svg" viewBox="0 0 83.1 83.1"><defs><style>.cls-1{fill:#fff;}</style></defs><title>B2</title><path class="cls-1" d="M28.37,51.93c-2.27,0-4.55.22-6.8,0a8.57,8.57,0,0,1-7.39-5.33c-.25-.54-.49-1.1-.73-1.65V41.27c1.75-4.73,4.92-7.37,10.21-7,1.41.1,1.57-1,1.7-2.13A7.37,7.37,0,0,1,37.14,26.8c2.08,1.45,2.81,1.14,3.34-1.34A14.57,14.57,0,0,1,50.9,14c.5-.17,1.14,0,1.5-.58h4.83c4.67,1.15,8.44,3.51,10.9,7.82.76,1.32,1.82.78,2.79,0a7.4,7.4,0,0,1,12.24,5.1c.11,1.4.74,1.93,2.09,2a11.71,11.71,0,0,1,7.66,3.29c2,1.83,2.88,4.22,3.64,6.7v4.08c-.44.26-.35.75-.48,1.14A11.92,11.92,0,0,1,84.45,52c-.92,0-1.84,0-2.76,0l0,0c0-3.15-.07-6.3,0-9.45,0-1.71-.54-2.56-2.35-2.46-1.1.07-2.48.36-3.26-.16s-.23-2.06-.36-3.14a4.39,4.39,0,0,0-4.32-4.06q-16.41-.09-32.82,0c-2.64,0-4.31,2-4.39,4.75s-.08,2.64-2.61,2.64c-3.3,0-3.33,0-3.33,3.3l0,8.53Zm64-11.81c-1,.11-1.65-.21-1.84.88a5.86,5.86,0,0,1-5,5c-1.61.33-.74,1.56-.8,2.36-.08,1.05.85.62,1.35.54a9,9,0,0,0,7.36-7.16C93.74,40.43,93.38,39.91,92.37,40.12ZM72.74,25.36c-1.42-.35-1.39.52-1.45,1.55-.07,1.21.42,1.39,1.49,1.42s1.55-.33,1.55-1.54S73.94,25.09,72.74,25.36Zm7.45,1.5c.27-1.23-.22-1.62-1.45-1.57-1,0-1.6.12-1.51,1.38.07,1,0,1.77,1.42,1.66C79.7,28.25,80.53,28.24,80.19,26.86Z" transform="translate(-13.45 -13.45)"/><path class="cls-1" d="M16.42,96.55c0-2.53,0-5,0-7.58,0-1,.3-1.36,1.35-1.35q7.58.07,15.15,0c1.05,0,1.38.3,1.35,1.35-.07,2.53,0,5,0,7.58Z" transform="translate(-13.45 -13.45)"/><path class="cls-1" d="M46.1,96.55c0-2.53,0-5,0-7.58,0-1,.31-1.36,1.35-1.35q7.57.07,15.16,0c1,0,1.37.3,1.35,1.35-.07,2.53,0,5,0,7.58Z" transform="translate(-13.45 -13.45)"/><path class="cls-1" d="M75.77,96.55c0-2.53,0-5,0-7.58,0-1,.3-1.36,1.35-1.35q7.58.07,15.15,0c1,0,1.38.3,1.35,1.35-.07,2.53,0,5,0,7.58Z" transform="translate(-13.45 -13.45)"/><path class="cls-1" d="M55.1,35.71H70.28c2.19,0,2.51.31,2.52,2.42,0,2.47,0,4.94,0,7.4,0,1.38-.57,2.06-2,2.06q-15.82,0-31.66,0c-1.41,0-2-.67-2-2,0-2.59,0-5.19,0-7.78,0-1.52.73-2.06,2.18-2C44.6,35.73,49.85,35.71,55.1,35.71ZM43.16,41.44c-.14,1.05-.12,1.9,1.33,1.71.84-.11,1.8.19,1.62-1.25-.11-.86.3-1.95-1.28-1.75C44,40.26,42.78,39.86,43.16,41.44ZM56.5,40.2c-1.27-.3-1.55.3-1.54,1.47s.21,1.55,1.42,1.5c1.06-.05,1.7-.1,1.63-1.46C58,40.6,57.83,39.88,56.5,40.2Zm5.85,0c-1.41-.35-1.38.52-1.45,1.55-.07,1.21.42,1.39,1.49,1.42S64,42.84,64,41.63,63.55,39.93,62.35,40.2Zm7.45,1.53c.26-1.18-.14-1.63-1.42-1.61s-1.59.32-1.55,1.54c0,1.05.18,1.59,1.41,1.5C69.25,43.09,70.16,43.16,69.8,41.73Z" transform="translate(-13.45 -13.45)"/><path class="cls-1" d="M55,62.42H39.8c-2.32,0-2.6-.28-2.6-2.52,0-2.41,0-4.82,0-7.22,0-1.47.59-2.14,2.09-2.14q15.75,0,31.48,0c1.52,0,2.09.71,2.07,2.16,0,2.4,0,4.81,0,7.22,0,2.16-.32,2.49-2.45,2.5Zm-9-6.07c.52-1.44-.48-1.31-1.5-1.38s-1.46.32-1.45,1.45S43.32,58,44.6,58,46.35,57.7,46,56.35ZM56.58,55c-1.16-.25-1.65.1-1.62,1.4s.28,1.62,1.53,1.57c1,0,1.61-.14,1.51-1.39C57.92,55.63,58,54.68,56.58,55ZM61,56.37c-.2,1-.11,1.79,1.32,1.62.83-.11,1.8.19,1.62-1.25-.11-.86.29-2-1.29-1.76C61.75,55.1,60.59,54.7,61,56.37Zm8.81.23c.2-1,.12-1.8-1.31-1.62-.84.1-1.81-.19-1.62,1.25.11.86-.3,2,1.28,1.75C69,57.87,70.18,58.27,69.79,56.6Z" transform="translate(-13.45 -13.45)"/><path class="cls-1" d="M39.14,69.84c4.26,0,8.53-.06,12.79,0,1.34,0,1.78-.41,1.6-1.67-.07-.42,0-.87,0-1.29-.17-1.21.31-1.55,1.52-1.57s1.49.51,1.48,1.62c0,2.88,0,2.88,2.91,2.88H83.53c2.38,0,2.62.26,2.63,2.69,0,.5,0,1,0,1.49,0,.87.3,1.82-1.27,1.81-1.39,0-1.94-.38-1.7-1.76.2-1.14-.43-1.28-1.39-1.28q-12,0-23.92,0c-1.19,0-1.57.39-1.39,1.48S56.18,75.8,55,75.82s-1.63-.5-1.45-1.62-.36-1.42-1.45-1.42q-11.88.07-23.74,0c-1.19,0-1.74.3-1.52,1.53s-.45,1.48-1.57,1.51-1.42-.39-1.43-1.49c0-4.49-.07-4.49,4.39-4.49Z" transform="translate(-13.45 -13.45)"/><path class="cls-1" d="M78.83,51.93c-2.94.26-2.93.25-3.89-2.42-.11-.3-.23-.55,0-.84,1-1.35.92-2.92.83-4.46-.07-1.17.63-1.12,1.4-1.08s1.64-.3,1.61,1.08c-.07,2.59,0,5.18,0,7.78Z" transform="translate(-13.45 -13.45)"/><path class="cls-1" d="M31.29,52.05c0-2.53.05-5.07-.06-7.59-.06-1.3.55-1.33,1.54-1.36s1.58.22,1.48,1.42A6.9,6.9,0,0,0,35,48.63c.62,1.09-1,3.39-2.28,3.4-.5,0-1,0-1.48,0Z" transform="translate(-13.45 -13.45)"/><path class="cls-1" d="M31.24,52a9.27,9.27,0,0,1,0,1.29c-.2,1.33.24,2,1.67,1.71,1.28-.24,1.31.54,1.33,1.51S34.07,58,32.86,58c-4.59.06-4.59.11-4.57-4.42,0-.54.05-1.09.08-1.65l-.05.06,3,.06Z" transform="translate(-13.45 -13.45)"/><path class="cls-1" d="M81.69,52c0,1.24,0,2.48,0,3.71.09,1.7-.7,2.38-2.34,2.27-.62,0-1.24,0-1.86,0-.87,0-1.81.3-1.8-1.28,0-1.41.39-1.92,1.76-1.7.94.16,1.38-.2,1.28-1.21a12.83,12.83,0,0,1,.07-1.85l0,.06,3,.06Z" transform="translate(-13.45 -13.45)"/><path class="cls-1" d="M25,84.68c.87-3,.87-3,3.56-3,1.42,0,2.83.08,4.24,0,1.17-.09,1.48.35,1.42,1.46,0,.94,0,1.61-1.32,1.56C30.32,84.6,27.7,84.68,25,84.68Z" transform="translate(-13.45 -13.45)"/><path class="cls-1" d="M54.67,84.68c.47-2.13,1.31-3.34,3.62-3a24.37,24.37,0,0,0,4.6,0c1.23,0,1,.76,1,1.47s.35,1.55-.93,1.53C60.23,84.65,57.49,84.68,54.67,84.68Z" transform="translate(-13.45 -13.45)"/><path class="cls-1" d="M84.37,84.61c.41-2.29,1.51-3.23,3.72-2.94a23.19,23.19,0,0,0,4.41,0c1.17-.07,1.13.63,1.08,1.4s.33,1.65-1,1.61c-2.34-.08-4.67,0-7,0C85.17,84.68,84.81,84.64,84.37,84.61Z" transform="translate(-13.45 -13.45)"/></svg>