<svg id="Layer_1" data-name="Layer 1" xmlns="http://www.w3.org/2000/svg" viewBox="0 0 82.12 82.12"><defs><style>.cls-1{fill:#fff;}</style></defs><title>B3</title><path class="cls-1" d="M96.06,50.83c-.45.14-.41.59-.53.92A10.94,10.94,0,0,1,85.15,59.4c-3.31.11-6.62,0-9.93.05-.94,0-1.24-.35-1.18-1.22a14.23,14.23,0,0,0,0-1.6,4.34,4.34,0,0,0-4.71-4.53c-6.09,0-12.18,0-18.27,0-3.37,0-6.73,0-10.1,0S36,53.73,36,57c-.06,2.46-.06,2.45-2.48,2.47-3.16,0-6.31.06-9.31-1.18A16,16,0,0,1,14.54,47.6c-.16-.53-.07-1.18-.6-1.58V40.24c.49-.2.44-.7.55-1.07a16,16,0,0,1,16.13-12,2.35,2.35,0,0,0,2.51-1.68A18.78,18.78,0,0,1,45.25,14.7c.79-.25,1.69-.18,2.37-.76H53.4c.15.39.52.28.81.34A18.79,18.79,0,0,1,68,25.36a2.62,2.62,0,0,0,2.63,1.81,13.43,13.43,0,0,1,12.52,8.46,2.66,2.66,0,0,0,2.62,1.82,11,11,0,0,1,9.85,7.93c.1.32-.06.78.41,1ZM55,26.29c-8.28.39-14.5,4.09-18.4,11.53a6.63,6.63,0,0,0-.54,1.33,1.3,1.3,0,0,0,.81,1.7,1.36,1.36,0,0,0,1.8-.6c.21-.37.38-.76.58-1.14,3.35-6.3,8.57-9.75,15.72-9.77S67.35,32.76,70.73,39a11,11,0,0,0,.75,1.4,1.34,1.34,0,0,0,1.74.38A1.22,1.22,0,0,0,74,39.39a5.73,5.73,0,0,0-.54-1.5C69.57,30.45,63.37,26.7,55,26.29Zm-.37,6.94a13.48,13.48,0,0,0-10.31,5.24,13,13,0,0,0-1.66,2.72c-.4.92-.5,1.81.59,2.31s1.61-.13,2-1c.12-.24.23-.49.35-.72A10.52,10.52,0,0,1,56.5,36.33a10.35,10.35,0,0,1,7.77,5.3c.17.28.29.57.43.86.46.92,1.12,1.5,2.17.95s.84-1.35.49-2.22C65.51,36.63,60.27,33.24,54.62,33.23Zm.35,7a6.53,6.53,0,0,0-5.84,3.55c-.49.89-.61,1.77.41,2.35s1.57,0,2.09-.81c1.95-3,4.78-2.93,6.75,0,.54.8,1.15,1.33,2.11.77s.88-1.39.44-2.23A6.56,6.56,0,0,0,55,40.19ZM55,46.24a1.32,1.32,0,0,0-1.46,1.36,1.34,1.34,0,0,0,1.48,1.51,1.44,1.44,0,0,0,0-2.87Z" transform="translate(-13.94 -13.94)"/><path class="cls-1" d="M39.6,96.06a3.18,3.18,0,0,1-.72-2q.07-3.86,0-7.69c0-1.45.64-2,2-2H69.1c1.38,0,2.05.6,2,2q-.08,3.84,0,7.68a3.27,3.27,0,0,1-.72,2Zm19-4.43h7.52c1.07,0,2-.19,2-1.49s-.92-1.43-1.92-1.43h-15c-1.07,0-2,.23-2,1.53s.92,1.39,1.91,1.39ZM44,91.62c1,.07,2.12-.05,2.11-1.45,0-1.24-1-1.48-2-1.47s-2.17,0-2.23,1.42S42.88,91.67,44,91.62Z" transform="translate(-13.94 -13.94)"/><path class="cls-1" d="M55,55H68.94c1.81,0,2.15.35,2.16,2.17,0,2.51,0,5,0,7.54,0,1.43-.62,2.06-2,2.06H40.89c-1.38,0-2-.62-2-2.06,0-2.51,0-5,0-7.53,0-1.83.34-2.17,2.15-2.18Zm3.85,4.43H51.17c-1.06,0-2,.18-2,1.5s.92,1.42,1.92,1.42h15c1.06,0,2-.26,2-1.54s-.93-1.39-1.93-1.38ZM44,59.44c-1.13,0-2.22.06-2.17,1.47s1.14,1.44,2.21,1.45,2-.2,2.06-1.45S45.1,59.37,44,59.44Z" transform="translate(-13.94 -13.94)"/><path class="cls-1" d="M55.06,69.7c4.65,0,9.29,0,13.94,0,1.49,0,2.15.54,2.12,2.07-.06,2.56,0,5.12,0,7.68,0,1.35-.55,1.95-1.91,1.94q-14.19,0-28.36,0c-1.34,0-2-.53-2-1.9,0-2.56,0-5.12,0-7.69,0-1.49.56-2.12,2.08-2.1C45.66,69.73,50.36,69.7,55.06,69.7ZM58.52,77h7.54c1,0,2-.16,2.08-1.44S67.12,74,66,74H51.28c-1,0-2,.14-2.08,1.44s1,1.58,2.11,1.58Zm-14.66,0c1.14,0,2.25-.1,2.29-1.46S45.15,74,44.06,74s-2.15.08-2.2,1.45S42.88,77,43.86,77.05Z" transform="translate(-13.94 -13.94)"/></svg>