<svg id="Layer_1" data-name="Layer 1" xmlns="http://www.w3.org/2000/svg" viewBox="0 0 79.93 79.55"><defs><style>.cls-1{fill:#fff;}</style></defs><title>B4</title><g id="Cloud_password_encryption" data-name="Cloud password encryption"><path class="cls-1" d="M86.4,81.93a4.29,4.29,0,0,0-4.28-4.29H27.87a4.29,4.29,0,0,0-4.29,4.29v8.56a4.29,4.29,0,0,0,4.29,4.29H82.12a4.29,4.29,0,0,0,4.28-4.29ZM36.58,87.11a1.44,1.44,0,0,1,.53,2,1.42,1.42,0,0,1-1.94.54h0l-1.57-.91v1.81a1.43,1.43,0,0,1-2.86,0V88.68l-1.57.91a1.43,1.43,0,0,1-1.43-2.48l1.58-.9-1.58-.91a1.43,1.43,0,0,1,1.43-2.47l1.57.91V81.93a1.43,1.43,0,1,1,2.86,0v1.81l1.57-.91a1.43,1.43,0,0,1,1.44,2.46h0L35,86.21Zm11.42,0a1.44,1.44,0,0,1,.53,2,1.42,1.42,0,0,1-1.94.54h0L45,88.68v1.81a1.43,1.43,0,0,1-2.86,0V88.68l-1.57.91a1.43,1.43,0,0,1-1.44-2.47h0l1.57-.9-1.57-.91a1.42,1.42,0,0,1,1.42-2.47l1.57.91V81.93a1.43,1.43,0,1,1,2.86,0v1.81l1.57-.91A1.43,1.43,0,0,1,48,85.3l-1.57.91Zm11.42,0a1.44,1.44,0,0,1,.53,2A1.42,1.42,0,0,1,58,89.6h0l-1.57-.91v1.81a1.43,1.43,0,1,1-2.85,0V88.68L52,89.59a1.43,1.43,0,0,1-1.44-2.47h0l1.57-.9-1.57-.91A1.42,1.42,0,0,1,52,82.83l1.58.91V81.93a1.43,1.43,0,1,1,2.85,0v1.81L58,82.83a1.43,1.43,0,0,1,1.43,2.47l-1.57.91Zm11.42,0a1.43,1.43,0,1,1-1.41,2.49h0l-1.57-.91v1.81a1.43,1.43,0,1,1-2.85,0V88.68l-1.57.91A1.43,1.43,0,0,1,62,87.12h0l1.57-.9L62,85.3a1.42,1.42,0,0,1-.51-2,1.44,1.44,0,0,1,1.94-.52l1.57.91V81.93a1.43,1.43,0,1,1,2.85,0v1.81l1.57-.91a1.43,1.43,0,0,1,1.43,2.47l-1.57.91Zm11.42,0a1.43,1.43,0,1,1-1.41,2.49h0l-1.57-.91v1.81a1.43,1.43,0,1,1-2.85,0V88.68l-1.57.91a1.43,1.43,0,0,1-1.45-2.47h0l1.57-.9-1.57-.91a1.42,1.42,0,0,1-.51-2,1.44,1.44,0,0,1,1.94-.52l1.57.91V81.93a1.43,1.43,0,1,1,2.85,0v1.81l1.57-.91a1.43,1.43,0,0,1,1.43,2.47l-1.57.91Z" transform="translate(-15.03 -15.22)"/><circle class="cls-1" cx="39.96" cy="31.01" r="2.86"/><path class="cls-1" d="M79.26,32a15.42,15.42,0,0,0-6.58,1.44,1.42,1.42,0,0,1-1.89-.7.77.77,0,0,1-.07-.16,2.24,2.24,0,0,1-.08-.57,18.56,18.56,0,0,0-37,2.72,19.6,19.6,0,0,0,.26,2,1.43,1.43,0,0,1-1.12,1.68,1.39,1.39,0,0,1-.73,0,12.85,12.85,0,1,0-4.17,25h10V42A7.16,7.16,0,0,1,45,34.81V30.53a10,10,0,0,1,20,0v4.28A7.14,7.14,0,0,1,72.12,42V63.37h7.14a15.71,15.71,0,1,0,0-31.41ZM25,54.8H22.16V52H25Zm10,0H27.87V52H35Zm47.11,0H75V52h7.14Zm5.71,0H85V52h2.86Z" transform="translate(-15.03 -15.22)"/><path class="cls-1" d="M69.27,42A4.28,4.28,0,0,0,65,37.67H45A4.28,4.28,0,0,0,40.72,42V64.79A4.28,4.28,0,0,0,45,69.08H65a4.29,4.29,0,0,0,4.28-4.29Zm-10,12.85v2.86H56.42V60.5h2.86v2.86H56.42v2.86H53.57V51.74a5.71,5.71,0,1,1,2.85,0V54.8Z" transform="translate(-15.03 -15.22)"/><path class="cls-1" d="M55,23.39a7.16,7.16,0,0,0-7.14,7.14v4.28H62.13V30.53A7.15,7.15,0,0,0,55,23.39Z" transform="translate(-15.03 -15.22)"/></g></svg>