<svg id="Layer_1" data-name="Layer 1" xmlns="http://www.w3.org/2000/svg" viewBox="0 0 75.19 68.33"><defs><style>.cls-1{fill:#c64f51;}</style></defs><title>Constant Growth</title><path class="cls-1" d="M36.57,74.22a4.65,4.65,0,0,0-1.19,2.87V89.16h7V70.08c0-.93-.53-1.15-1.19-.5Z" transform="translate(-17.41 -20.84)"/><path class="cls-1" d="M67.36,62.78a4.68,4.68,0,0,0-1.19,2.87V89.16h7V58.63c0-.93-.53-1.15-1.18-.49Z" transform="translate(-17.41 -20.84)"/><path class="cls-1" d="M77.62,52.5a4.68,4.68,0,0,0-1.19,2.87V89.16H83V48.86c0-.93-.53-1.15-1.19-.49Z" transform="translate(-17.41 -20.84)"/><path class="cls-1" d="M57.3,72.83s-.31.32-.7.7a4,4,0,0,0-.69,2.38V89.16h7V68.9c0-.92-.53-1.15-1.19-.49Z" transform="translate(-17.41 -20.84)"/><path class="cls-1" d="M46.83,69.27c-.65-.65-1.19-.43-1.19.49v19.4h7V76.76A4.52,4.52,0,0,0,51.53,74L50.4,72.84Z" transform="translate(-17.41 -20.84)"/><path class="cls-1" d="M27.74,83.05l-2.26,2.26a4.23,4.23,0,0,0-1.19,2.52v1.33h7.83V80.34c0-.92-.53-1.14-1.19-.49Z" transform="translate(-17.41 -20.84)"/><path class="cls-1" d="M91.41,48.55c.65.66,1.18.44,1.18-.49v-24a3.42,3.42,0,0,0-3.35-3.22H65.38c-.93,0-1.15.53-.49,1.18l8.48,8.5L69.91,34,53.86,50l-8.5-8.49a1.67,1.67,0,0,0-2.37,0L19.37,65.18a6.71,6.71,0,0,0,0,9.5l.16.17a6.72,6.72,0,0,0,9.5,0L44.17,59.7l8.5,8.49a1.68,1.68,0,0,0,2.37,0l28-28Z" transform="translate(-17.41 -20.84)"/></svg>