<svg id="Layer_1" data-name="Layer 1" xmlns="http://www.w3.org/2000/svg" viewBox="0 0 70.44 78.4"><defs><style>.cls-1{fill:#c64f51;}.cls-2{fill:#fff;}</style></defs><title>Customer Orientation</title><path class="cls-1" d="M75.13,72.94l-7.88-2.63H42.75l-7.88,2.63c-8.1,2.7-13.56,11.19-13.56,19.73H88.69C88.69,84.13,83.23,75.64,75.13,72.94Z" transform="translate(-19.78 -15.8)"/><path class="cls-2" d="M70.26,40.51,66.64,40a25.9,25.9,0,0,1-14.7-7.35,12.25,12.25,0,0,0-9.8,4.9l-2.39,3.19a95.62,95.62,0,0,0,1,10.75c.65,4.3,1.19,8.35,5.46,12.05l-.08.08-3.35,6.7a59.63,59.63,0,0,0,8.87,16.94L55,92.67l3.38-5.42a61.1,61.1,0,0,0,4.15-6.34,60.2,60.2,0,0,0,4.72-10.6l-3.35-6.7-.08-.08a15.12,15.12,0,0,0,4.93-8.82c.3-1.8.4-2.38.54-3.29a96.33,96.33,0,0,0,1-10.91Z" transform="translate(-19.78 -15.8)"/><path class="cls-1" d="M56.37,23.46a14,14,0,0,1,13.94,14c0,.78,0,2,0,3.06L66.64,40a25.9,25.9,0,0,1-14.7-7.35,12.25,12.25,0,0,0-9.8,4.9l-2.39,3.19c0-1.07-.06-2.32-.06-3.28a14,14,0,0,1,13.94-14h2.74Z" transform="translate(-19.78 -15.8)"/><path class="cls-1" d="M21.31,94.2H88.69a1.53,1.53,0,0,0,1.53-1.53c0-9.45-6.14-18.36-14.61-21.18l-7.27-2.43-2.62-5.23A16.68,16.68,0,0,0,70.26,55l.33-2h2.79A4.6,4.6,0,0,0,78,48.42V38.77a23,23,0,1,0-45.94,0v9.65a4.62,4.62,0,0,0,3.06,4.33v1.79a4.6,4.6,0,0,0,4.6,4.59H41a16.53,16.53,0,0,0,2.57,4c.22.25.44.49.68.73l-2.62,5.22-7.27,2.43c-8.47,2.82-14.61,11.73-14.61,21.18A1.53,1.53,0,0,0,21.31,94.2ZM55,89.77l-2.08-3.33-.07-.11a57.06,57.06,0,0,1-3.45-5.15l5.46-5.78,5.75,5.76a58.18,58.18,0,0,1-3.46,5.17C57.08,86.43,57.18,86.27,55,89.77Zm7.16-11.4L57,73.17l6.55-6.92,2.08,4.17A57.06,57.06,0,0,1,62.16,78.37ZM54.8,71l-3-3a15.56,15.56,0,0,0,3.19.33,16,16,0,0,0,2.5-.2Zm-8.57-4.24,6.46,6.46-4.85,5.14a57.58,57.58,0,0,1-3.43-8ZM87.1,91.14H57.76l1.88-3a59.56,59.56,0,0,0,4.22-6.45l0,0h0a61.68,61.68,0,0,0,4.31-9.38l6.45,2.15C81.44,76.66,86.49,83.55,87.1,91.14ZM36.62,50a1.54,1.54,0,0,1-1.53-1.53V40.3H38.2c0,.16,0,.32,0,.48v0h0c.11,3.07.36,6.2.74,9.15ZM68.77,38.74h0l-1.92-.27A24.65,24.65,0,0,1,53,31.56a1.53,1.53,0,0,0-1.08-.45,13.85,13.85,0,0,0-10.65,5A12.44,12.44,0,0,1,53.63,25h2.74A12.44,12.44,0,0,1,68.78,37.45C68.78,37.93,68.78,38.35,68.77,38.74Zm6.14,9.68A1.54,1.54,0,0,1,73.38,50H71c.39-3,.65-6.23.75-9.39,0-.09,0-.17,0-.26h3.11ZM55,18.86A19.94,19.94,0,0,1,74.85,37.24h-3A15.52,15.52,0,0,0,56.37,21.92H53.63A15.52,15.52,0,0,0,38.16,37.24h-3A19.9,19.9,0,0,1,55,18.86ZM38.16,54.54V53h1.25l.33,2c.06.37.14.74.22,1.11h-.27A1.53,1.53,0,0,1,38.16,54.54Zm9.45,4.59a4.59,4.59,0,0,0,4.33,3.07H55A4.6,4.6,0,0,0,55,53H51.94a4.61,4.61,0,0,0-4.34,3.06H43.14c-.77-2.55-1.65-10-1.84-14.86l2.06-2.75a10.79,10.79,0,0,1,8-4.27,27.77,27.77,0,0,0,15.09,7.32l2.26.32c-.16,3.2-.46,6.41-.9,9.36h0c-.14,1-.26,1.56-.54,3.27A13,13,0,0,1,58,64.92a12,12,0,0,1-13.52-5.79Zm2.8-1.53a1.53,1.53,0,0,1,1.53-1.53H55a1.53,1.53,0,0,1,0,3.06H51.94A1.52,1.52,0,0,1,50.41,57.6ZM35.35,74.39l6.45-2.15a60.89,60.89,0,0,0,4.36,9.46h0a59.64,59.64,0,0,0,4.19,6.4l1.88,3H22.9C23.51,83.55,28.56,76.66,35.35,74.39Z" transform="translate(-19.78 -15.8)"/></svg>