<svg id="Layer_1" data-name="Layer 1" xmlns="http://www.w3.org/2000/svg" viewBox="0 0 103.99 83.99"><defs><style>.cls-1{fill:#fdfbfb;}.cls-2{fill:#c65254;}.cls-3{fill:#c9595b;}.cls-4{fill:#c95c5e;}.cls-5{fill:#ca5e60;}.cls-6{fill:#f5e4e4;}</style></defs><title>Employee DNA</title><path class="cls-1" d="M77.2,64.69c3.25,4.49,9,5.66,13.31,9.91-5.33.78-7.86-4.22-12.1-4.28,0,.58-.16.92,0,1.18,1,2.52,6.8,2.15,4.25,7.1-.32.62,1.3,2.33,3.27,2.25a11.3,11.3,0,0,0,10.5-13.14c-.71-4-2.85-7.4-5-10.77-1.14-1.79-2.9-3.34-3.2-5.93,2.48.66,4.08,3.17,6.72,1.15C92.37,49.68,88,49.34,86,44.81c5.86,1.68,9.2,6.24,14.5,5.84a82.63,82.63,0,0,0-8.66-5.89c-1.46-.95-3.81-1.19-4-3.34-.14-1.78-.65-3.14-2.4-3.09s-2.22,1.78-2.77,3.18c-2.31,5.81.1,10.66,3,15.47,1.53,2.51,4,4.63,4.16,8.08-3-.61-5-3.89-8.45-2.19,3.34,3.05,8,3.93,10.24,7.87C86.32,69.87,82.59,65.42,77.2,64.69Zm-3,19.9c-1.25-2.18-3.54-3-3.44-5.65a2.51,2.51,0,0,0-3.17-2.34,13.69,13.69,0,0,0-9.15,5.48C57.11,84,58,86.52,60.16,85.7c3.53-1.37,5.23,1.06,7.61,2.14,2.72,1.24,5,3.5,9.22,4.3C73.57,87,67.93,86.48,64.76,82.6,68.55,80.84,70.33,85.73,74.2,84.59ZM44.92,89.84A60.39,60.39,0,0,0,48.52,83c.79-2.09-.14-4.37-1.26-6-.93-1.38-3.17-1.15-4.61-.41-2.11,1.08-1.78,3.53-1.76,5.35C40.91,84.8,42.8,87,44.92,89.84Zm0-21.71c-1.9.25-4.43-.7-4,2.77.3,2.2.43,3.94,3.54,4.17,4.07.3,3.65-2.7,4-4.78C49,67.1,46.18,68.67,44.93,68.13Z" transform="translate(-4.01 -14.01)"/><path class="cls-2" d="M4,84a13.33,13.33,0,0,1,2.61-5.18A52.47,52.47,0,0,1,26,64.24c3.63-1.63,5.26-1.76,6.06,3a53.31,53.31,0,0,0,9.3,22.39c3.15,4.39,3.4,4.38,6.51.17C52.93,83,55.58,75.14,57.6,67c.36-1.45-.23-4.44,1.72-4,2.65.59,6.53.76,7.36,4.11.78,3.13,3,7.44-3.5,8.23-3.06.38-5.54,3-7.18,5.81-2,3.41.17,7.78,4,7.35,6.12-.67,9.08,4.37,15.31,6.1C69.3,96.88,65.23,96.43,60,98H29c-3.63-.62-5.23-1.34-7.89-1.83C15.33,95.09,9.23,95.32,4,92Z" transform="translate(-4.01 -14.01)"/><path class="cls-2" d="M49,14c9,3.16,13.16,9.51,11.94,19-.37,2.91,2.62,4.78,1.87,7.53C60.66,48.46,57.52,56,50.62,60.89c-5.47,3.85-12.7,1.6-16.78-4.63A99.76,99.76,0,0,1,28,45.92c-2.68-5.41.19-22.31,4.1-26.93,2.42-2.86,5.57-3.91,8.89-5ZM34,41a2.56,2.56,0,0,0,3,1.82c.82,1.31,1.54,1.06,2.21-.13,3.34.35,3.9-2.84,5.51-4.49,1.51.32.79,2.81,2.86,2.42L48.19,37h8.23c-3.56-1.56-5.88-.83-8.11-1.06C44.4,34,40.22,35.27,36.17,35c-1.67-.09-4.18-1-4.82,1.26A4,4,0,0,0,34,41.05Zm17.41.17a1.19,1.19,0,0,0-1.19,1.29,1.23,1.23,0,0,0,1.66,1.25,1.19,1.19,0,0,0,.92-1.49C52.67,41.43,52.07,41.23,51.38,41.19Zm6.45-2.11c-.5-.39-.81-.82-1.14-.85s-1.09.2-1.18.48c-.24.75.33,1.16,1,1.12C56.9,39.81,57.25,39.43,57.83,39.08Z" transform="translate(-4.01 -14.01)"/><path class="cls-3" d="M79,98c-.27-.6-.89-1.32-.74-1.79,2.47-7.45-1.51-13.07-5.17-18.82a28.43,28.43,0,0,1-3.64-9.21C68.08,62.06,74.05,55,80.19,55.34c2.34.13,2.48,2.23,3.47,3.62-.82,1.39-2.14.78-3.17,1-5.86,1.29-7.62,4.49-5.69,10.2,1.29,3.83,3.5,7.14,5.67,10.46C84.1,86.2,85,91.9,82,98Z" transform="translate(-4.01 -14.01)"/><path class="cls-3" d="M108,54c-2.39,1.66-4,4.2-7,5.26-3.21,1.14-5.41,1-6.23-3,3.5-.86,7-1.85,9.27-5,1.16-1.61,2.62-.71,4-.21Z" transform="translate(-4.01 -14.01)"/><path class="cls-4" d="M77.2,64.69c5.39.73,9.12,5.18,14.5,6-2.27-3.94-6.9-4.82-10.24-7.87,3.45-1.7,5.42,1.58,8.45,2.19-.18-3.45-2.63-5.57-4.16-8.08-2.93-4.81-5.34-9.66-3-15.47.55-1.4,1.07-3.14,2.77-3.18s2.26,1.31,2.4,3.09c.18,2.15,2.53,2.39,4,3.34a82.63,82.63,0,0,1,8.66,5.89c-5.3.4-8.64-4.16-14.5-5.84,2,4.53,6.33,4.87,8.85,7.35-2.64,2-4.24-.49-6.72-1.15.3,2.59,2.06,4.14,3.2,5.93,2.16,3.37,4.3,6.74,5,10.77a11.3,11.3,0,0,1-10.5,13.14c-2,.08-3.59-1.63-3.27-2.25,2.55-4.95-3.21-4.58-4.25-7.1-.11-.26,0-.6,0-1.18,4.24.06,6.77,5.06,12.1,4.28C86.15,70.35,80.45,69.18,77.2,64.69Z" transform="translate(-4.01 -14.01)"/><path class="cls-5" d="M74.2,84.59c-3.87,1.14-5.65-3.75-9.44-2C67.93,86.48,73.57,87,77,92.14c-4.23-.8-6.5-3.06-9.22-4.3-2.38-1.08-4.08-3.51-7.61-2.14-2.12.82-3-1.7-1.72-3.62a13.69,13.69,0,0,1,9.15-5.48,2.51,2.51,0,0,1,3.17,2.34C70.66,81.54,73,82.41,74.2,84.59Z" transform="translate(-4.01 -14.01)"/><path class="cls-3" d="M44.92,89.84c-2.12-2.82-4-5-4-7.91,0-1.82-.35-4.27,1.76-5.35,1.44-.74,3.68-1,4.61.41,1.12,1.65,2.05,3.93,1.26,6A60.39,60.39,0,0,1,44.92,89.84Z" transform="translate(-4.01 -14.01)"/><path class="cls-5" d="M44.93,68.13c1.25.54,4.08-1,3.58,2.16-.34,2.08.08,5.08-4,4.78-3.11-.23-3.24-2-3.54-4.17C40.5,67.43,43,68.38,44.93,68.13Z" transform="translate(-4.01 -14.01)"/><path class="cls-6" d="M48.19,37l-.67,3.61c-2.07.39-1.35-2.1-2.86-2.42-1.61,1.65-2.17,4.84-5.51,4.49.26-2.12,4.39-3,2.23-5.66-1.28-1.58-3.73-.83-5.65-.61-3.39.38-.8,3.19-1.74,4.61a4,4,0,0,1-2.64-4.76C32,34.06,34.5,34.94,36.17,35c4,.24,8.23-1,12.14.94Z" transform="translate(-4.01 -14.01)"/><path class="cls-5" d="M34,41.05c.94-1.42-1.65-4.23,1.74-4.61,1.92-.22,4.37-1,5.65.61,2.16,2.67-2,3.54-2.23,5.66-.67,1.19-1.39,1.44-2.21.13-.3-1.74-1.25-2.42-3-1.82Z" transform="translate(-4.01 -14.01)"/><path class="cls-5" d="M51.38,41.19c.69,0,1.29.24,1.39,1.05a1.19,1.19,0,0,1-.92,1.49,1.23,1.23,0,0,1-1.66-1.25A1.19,1.19,0,0,1,51.38,41.19Z" transform="translate(-4.01 -14.01)"/><path class="cls-5" d="M48.19,37,48.31,36c2.23.23,4.55-.5,8.11,1.06Z" transform="translate(-4.01 -14.01)"/><path class="cls-5" d="M57.83,39.08c-.58.35-.93.73-1.3.75-.69,0-1.26-.37-1-1.12.09-.28.78-.51,1.18-.48S57.33,38.69,57.83,39.08Z" transform="translate(-4.01 -14.01)"/><path class="cls-6" d="M34,41c1.72-.6,2.67.08,3,1.82A2.56,2.56,0,0,1,34,41Z" transform="translate(-4.01 -14.01)"/><ellipse class="cls-2" cx="40.09" cy="25.88" rx="14.77" ry="10.22"/></svg>