<svg id="Layer_1" data-name="Layer 1" xmlns="http://www.w3.org/2000/svg" viewBox="0 0 65.69 82.27"><defs><style>.cls-1{fill:#c64f51;}</style></defs><title>Excellence</title><path class="cls-1" d="M87,51.1l-1-1.38a4.35,4.35,0,0,1,0-5.1l1-1.4a4.37,4.37,0,0,0-1.49-6.37L83.94,36a4.36,4.36,0,0,1-2.24-4.58l.29-1.7a4.35,4.35,0,0,0-4.12-5.08l-1.72-.07a4.39,4.39,0,0,1-4-3.15l-.47-1.65A4.35,4.35,0,0,0,65.75,17l-1.59.67a4.39,4.39,0,0,1-5-1.09L58,15.32a4.37,4.37,0,0,0-6.55,0l-1.13,1.29a4.37,4.37,0,0,1-5,1.18l-1.58-.65a4.36,4.36,0,0,0-5.88,2.87l-.45,1.65a4.4,4.4,0,0,1-4,3.22l-1.72.1a4.35,4.35,0,0,0-4,5.15l.3,1.68a4.38,4.38,0,0,1-2.17,4.61l-1.5.85A4.35,4.35,0,0,0,23,43.71l1,1.38a4.35,4.35,0,0,1,0,5.1l-1,1.4A4.38,4.38,0,0,0,24.54,58l1.52.81a4.35,4.35,0,0,1,2.24,4.57L28,65.05a4.36,4.36,0,0,0,4.12,5.09l1.72.06a4.39,4.39,0,0,1,4,3.15L38.33,75a4.36,4.36,0,0,0,5.92,2.8l1.59-.68a4.37,4.37,0,0,1,5,1.1L52,79.5a4.38,4.38,0,0,0,6.55,0l1.13-1.3a4.39,4.39,0,0,1,5-1.18l1.58.66a4.37,4.37,0,0,0,5.88-2.88l.45-1.65a4.4,4.4,0,0,1,4-3.22l1.72-.1a4.35,4.35,0,0,0,4-5.15L81.92,63a4.39,4.39,0,0,1,2.17-4.61l1.5-.84A4.36,4.36,0,0,0,87,51.1ZM55,69.28A21.88,21.88,0,1,1,76.86,47.4,21.9,21.9,0,0,1,55,69.28Z" transform="translate(-22.15 -13.87)"/><path class="cls-1" d="M77.83,74.65l-.76,0-.37,1.35a9.22,9.22,0,0,1-8.87,6.76,9.1,9.1,0,0,1-3.5-.69l-1.28-.54-.4.47,6.24,11.37a2.58,2.58,0,0,0,1.75,1.26l7.53,1.39A2.54,2.54,0,0,0,81,94.53l2.84-7.11a2.46,2.46,0,0,0-.13-2.15Z" transform="translate(-22.15 -13.87)"/><path class="cls-1" d="M46.14,82.24A9.1,9.1,0,0,1,42.5,83a9.23,9.23,0,0,1-8.83-6.63L33.28,75,31.93,75,26.28,85.29a2.49,2.49,0,0,0-.14,2.15L29,94.54a2.52,2.52,0,0,0,2.81,1.55l7.52-1.4a2.52,2.52,0,0,0,1.75-1.26l6.41-11.66,0,0Z" transform="translate(-22.15 -13.87)"/><path class="cls-1" d="M67.58,46.17a2.77,2.77,0,0,0-.37-3.47c-2-1.87-7.57-.62-7.57-.62h0c-.39.07-.79.15-1.23.25,0,0-1.92.89,0-4.91s-1.28-6.72-2.63-6.72-.89,2.88-.89,2.88-2.88,7.93-5.62,10a6.26,6.26,0,0,0-1.33,2.24,2.46,2.46,0,0,0-1.6-.59H42.65a2.46,2.46,0,0,0-2.45,2.46v9.83A2.45,2.45,0,0,0,42.65,60h3.69a2.33,2.33,0,0,0,1.36-.42,2.51,2.51,0,0,0,.58-1.93V51.54c0,.23,0,7.57,4.25,8,1.52.1,3.39.18,5.26.15a18.64,18.64,0,0,0,4.94-.15c4.89-1,3.67-4.45,3.67-4.45a3.34,3.34,0,0,0,1.15-4.46A3,3,0,0,0,67.58,46.17Z" transform="translate(-22.15 -13.87)"/></svg>