<svg id="Layer_1" data-name="Layer 1" xmlns="http://www.w3.org/2000/svg" viewBox="0 0 77.56 77.61"><defs><style>.cls-1{fill:#c64f51;}</style></defs><title>Fairness &amp;amp; Transparency</title><path class="cls-1" d="M45.3,42.5a2.77,2.77,0,1,1-2.77-2.77A2.77,2.77,0,0,1,45.3,42.5Z" transform="translate(-16.22 -16.19)"/><path class="cls-1" d="M37,42.5a5.67,5.67,0,0,1,3.74-5.26A19.62,19.62,0,0,0,29.1,42.5a19.14,19.14,0,0,0,11.63,5.26A5.66,5.66,0,0,1,37,42.5Z" transform="translate(-16.22 -16.19)"/><path class="cls-1" d="M48.07,42.5a5.67,5.67,0,0,1-3.74,5.26A19.51,19.51,0,0,0,56,42.5a19.26,19.26,0,0,0-11.63-5.26A5.68,5.68,0,0,1,48.07,42.5Z" transform="translate(-16.22 -16.19)"/><path class="cls-1" d="M62.61,63.55,71.75,73.8,74,71.58,64.68,61.2C64,62,63.3,62.86,62.61,63.55Z" transform="translate(-16.22 -16.19)"/><path class="cls-1" d="M42.53,63.27A20.77,20.77,0,1,0,21.76,42.5,20.74,20.74,0,0,0,42.53,63.27Zm9.69-6.92H32.84V53.58H52.22ZM32.84,28.66H52.22v2.77H32.84ZM26.19,43.33l-.55-.83.69-1a22.08,22.08,0,0,1,31.15-1.38,12.87,12.87,0,0,1,1.39,1.38l.14.14.69.83-.69,1a22.09,22.09,0,0,1-31.16,1.39A17.9,17.9,0,0,1,26.19,43.33Z" transform="translate(-16.22 -16.19)"/><path class="cls-1" d="M66.48,59l10,11.22h1a3.77,3.77,0,0,1,2.91,1.24L86.84,78V27.27a4.08,4.08,0,0,0-4.16-4.15H64.13A29,29,0,0,1,66.48,59Zm17.59,5.68H75.76V61.89h8.31Zm0-6.93H74.38V55h9.69Zm0-6.92H74.38V48h9.69Zm0-6.92H74.38V41.12h9.69Zm0-6.93H74.38V34.2h9.69ZM71.61,27.27H84.07V30H71.61Z" transform="translate(-16.22 -16.19)"/><path class="cls-1" d="M42.53,68.81A26.31,26.31,0,1,0,16.22,42.5,26.3,26.3,0,0,0,42.53,68.81Zm0-49.85A23.54,23.54,0,1,1,19,42.5,23.53,23.53,0,0,1,42.53,19Z" transform="translate(-16.22 -16.19)"/><path class="cls-1" d="M92.79,87.78l-14.4-14.4a1.23,1.23,0,0,0-1-.41H76.31L73,76.29V77.4a1.26,1.26,0,0,0,.42,1l14.4,14.4a3.51,3.51,0,0,0,5,0A3.64,3.64,0,0,0,92.79,87.78Z" transform="translate(-16.22 -16.19)"/><path class="cls-1" d="M70.22,77.4V76.29L60.53,65.35A28.94,28.94,0,0,1,23.14,64.1V82.66a4.08,4.08,0,0,0,4.16,4.15H78L71.47,80.3A4,4,0,0,1,70.22,77.4ZM25.91,74.35H63.3v2.77H25.91Zm42.93,8.31H25.91V79.89H68.84Z" transform="translate(-16.22 -16.19)"/></svg>