<svg id="Layer_1" data-name="Layer 1" xmlns="http://www.w3.org/2000/svg" viewBox="0 0 79.93 79.94"><defs><style>.cls-1{fill:#0757b3;}</style></defs><title>GlobalReach</title><path class="cls-1" d="M94.57,29.15A13.29,13.29,0,0,0,71,24.33a33.81,33.81,0,0,0-3.94-1.76,1.29,1.29,0,0,0-.91-.34,34.64,34.64,0,0,0-20.72-.53,33.25,33.25,0,0,0-4.74,1.75A13.31,13.31,0,1,0,22.51,40.31l.12.06c.27.13.54.25.82.36a34.5,34.5,0,0,0,0,28.54,13.3,13.3,0,0,0-.94,24.33l.12.06a13.14,13.14,0,0,0,11.45,0l.12-.06a13.39,13.39,0,0,0,6.53-7A34.6,34.6,0,0,0,55,89.64c1,0,2,0,2.93-.14A34.55,34.55,0,0,0,87.86,44.13,13.3,13.3,0,0,0,94.57,29.15ZM20.36,35c0,.14,0,.27,0,.4a10.66,10.66,0,1,1,15.91,0c0-.13,0-.26,0-.4a8,8,0,0,0-3.46-6.56,5.21,5.21,0,0,0,.79-2.77,5.33,5.33,0,1,0-9.86,2.77A8,8,0,0,0,20.36,35ZM31,25.69A2.67,2.67,0,1,1,28.36,23,2.66,2.66,0,0,1,31,25.69ZM23,35a5.32,5.32,0,0,1,2.78-4.67,5.14,5.14,0,0,0,5.09,0A5.32,5.32,0,0,1,33.68,35a5.11,5.11,0,0,1-1,3.06,10.47,10.47,0,0,1-8.67,0A5.18,5.18,0,0,1,23,35Zm0,20a31.78,31.78,0,0,1,3-13.53,13,13,0,0,0,8-1.1l.12-.06a13.2,13.2,0,0,0,7.27-14.24,32.18,32.18,0,0,1,4-1.57,4.52,4.52,0,0,1,.84,5.75c-.24.31-.5.6-.75.89a11.12,11.12,0,0,0-1.33,1.72c-1.76,2.94-.47,6.27.56,9l.11.27a2.89,2.89,0,0,1,.32,1.8A3.8,3.8,0,0,1,44,45.12c-1.94,1.5-3.88,3-5.85,4.48l-.11.09a13.17,13.17,0,0,0-3.85,4.05A11,11,0,0,0,33.46,60a13.39,13.39,0,0,1,0,3.74,13.84,13.84,0,0,1-2.58,4.81,12.5,12.5,0,0,0-4.8,0A31.86,31.86,0,0,1,23,55Zm9.66,36.37a10.49,10.49,0,0,1-8.67,0,5.18,5.18,0,0,1-1-3.06,5.35,5.35,0,0,1,2.78-4.68,5.09,5.09,0,0,0,5.09,0,5.35,5.35,0,0,1,2.78,4.68A5.11,5.11,0,0,1,32.69,91.37ZM25.69,79a2.67,2.67,0,1,1,2.67,2.67A2.66,2.66,0,0,1,25.69,79Zm10.63,9.73c0-.13,0-.27,0-.4a8,8,0,0,0-3.46-6.56A5.21,5.21,0,0,0,33.68,79a5.33,5.33,0,1,0-9.86,2.77,8,8,0,0,0-3.46,6.56c0,.13,0,.27,0,.4a10.66,10.66,0,1,1,15.92,0ZM55,87a31.57,31.57,0,0,1-13.54-3,12.9,12.9,0,0,0-.37-6.2,2.1,2.1,0,0,1,.82-.1,5.4,5.4,0,0,1,2.28,1.23A9.34,9.34,0,0,0,47,80.46a9.05,9.05,0,0,0,3.44.18,10.77,10.77,0,0,1,1.5-.08,1.42,1.42,0,0,1,.42.08,1.33,1.33,0,0,1,.29.29,14.85,14.85,0,0,1,1.86,3.66c.32.79.64,1.59,1,2.37Zm3.45-.23a17.57,17.57,0,0,1-1.52-3.15,17.22,17.22,0,0,0-2.24-4.32,3.25,3.25,0,0,0-2.63-1.37,15.09,15.09,0,0,0-1.9.07,6.62,6.62,0,0,1-2.43-.07,7,7,0,0,1-1.95-1.17A7.39,7.39,0,0,0,42.22,75a4.5,4.5,0,0,0-2.15.29,13.43,13.43,0,0,0-6.53-5.92A14.07,14.07,0,0,0,36,64.31a15.57,15.57,0,0,0,.07-4.52A8.89,8.89,0,0,1,36.55,55a11.35,11.35,0,0,1,3.12-3.17l.09-.07c2-1.48,3.91-3,5.84-4.47a5.72,5.72,0,0,0,2.13-2.39,5.1,5.1,0,0,0-.33-3.74l-.1-.26c-.92-2.36-1.86-4.8-.76-6.63a8.74,8.74,0,0,1,1-1.31c.31-.35.61-.69.92-1.1a7.13,7.13,0,0,0-.18-8.08,32,32,0,0,1,15.34.5,13.34,13.34,0,0,0-1.41,14.7c.46.82,1,1.62,1.55,2.39,1.91,2.74,3,4.54,1.66,6.79a6.4,6.4,0,0,1-2.93,2.41c-2.07.9-7.54,3.28-7.59,7.79,0,2.39,1.51,4.2,2.86,5.79.38.45.76.9,1.1,1.36a11.19,11.19,0,0,1,2,7.94,4.51,4.51,0,0,0,2.31,4.46A4.25,4.25,0,0,0,68,77.39l.11-.1a16.14,16.14,0,0,0,4.41-4.86A16.26,16.26,0,0,0,74,66.53,12.75,12.75,0,0,1,75.37,61a3.69,3.69,0,0,1,2.52-1.79c1.33-.18,2.22.61,3.58,1.89.38.36.76.72,1.16,1.06a7,7,0,0,0,3.13,1.43A32.12,32.12,0,0,1,58.45,86.75ZM86.4,61a4,4,0,0,1-2.07-.88c-.35-.29-.69-.61-1-.93-1.38-1.31-3.11-2.95-5.75-2.6a6.27,6.27,0,0,0-4.44,3,15.07,15.07,0,0,0-1.8,6.63,14,14,0,0,1-1.14,5,14.57,14.57,0,0,1-3.84,4.1,1.57,1.57,0,0,1-1.82.19,1.79,1.79,0,0,1-.93-1.82A13.86,13.86,0,0,0,61,63.87c-.38-.51-.79-1-1.21-1.49-1.15-1.36-2.24-2.65-2.23-4.05,0-2.49,3.43-4.25,6-5.37a8.8,8.8,0,0,0,4.15-3.49c2.3-3.84.05-7.07-1.76-9.67-.52-.75-1-1.46-1.42-2.18a10.76,10.76,0,0,1,1.86-12.46,32.1,32.1,0,0,1,3.23,1.44A13.26,13.26,0,0,0,75.8,44.31l.12.06a13.15,13.15,0,0,0,9.47.76A31.71,31.71,0,0,1,86.4,61ZM86,42.08a1.11,1.11,0,0,1-.19.09h0a10.59,10.59,0,0,1-8.46-.1,5.11,5.11,0,0,1-1-3.06,5.35,5.35,0,0,1,2.78-4.68,5.09,5.09,0,0,0,5.09,0A5.35,5.35,0,0,1,87,39,5.18,5.18,0,0,1,86,42.08ZM79,29.69a2.67,2.67,0,1,1,2.66,2.67A2.66,2.66,0,0,1,79,29.69Zm7.2,2.76A5.27,5.27,0,0,0,87,29.69a5.33,5.33,0,1,0-10.65,0,5.18,5.18,0,0,0,.79,2.76A8,8,0,0,0,73.65,39c0,.13,0,.26,0,.4a10.66,10.66,0,1,1,15.92,0c0-.14,0-.27,0-.4A8,8,0,0,0,86.18,32.45Z" transform="translate(-15.03 -15.03)"/></svg>