<svg id="Layer_1" data-name="Layer 1" xmlns="http://www.w3.org/2000/svg" viewBox="0 0 72.81 65.22"><defs><style>.cls-1{fill:#c64f51;}</style></defs><title>Management Approach</title><circle class="cls-1" cx="36.41" cy="7.91" r="7.91"/><path class="cls-1" d="M26.51,87.61a7.92,7.92,0,0,0,2.37-15.47V66.87H52.63v5.27a7.91,7.91,0,1,0,4.74,0V66.87H81.12v5.27a7.92,7.92,0,1,0,4.75,0V64.5a2.39,2.39,0,0,0-2.38-2.38H57.37v-4.9h8.71a2.38,2.38,0,0,0,2.37-2.38V50.09a13.45,13.45,0,0,0-4.94-10.41,12.65,12.65,0,0,1-17,0,13.45,13.45,0,0,0-4.94,10.41v4.75a2.38,2.38,0,0,0,2.37,2.38h8.71v4.9H26.51a2.39,2.39,0,0,0-2.38,2.38v7.64a7.92,7.92,0,0,0,2.38,15.47Z" transform="translate(-18.59 -22.39)"/></svg>