<svg id="Layer_1" data-name="Layer 1" xmlns="http://www.w3.org/2000/svg" viewBox="0 0 75.19 75.2"><defs><style>.cls-1{fill:#c64f51;}</style></defs><title>Moral Fibre</title><path class="cls-1" d="M69.86,37.16A1.46,1.46,0,1,1,71.29,36,1.48,1.48,0,0,1,69.86,37.16Z" transform="translate(-17.41 -17.4)"/><path class="cls-1" d="M92.59,65.18h0A1.43,1.43,0,0,0,91.94,64h0L78.24,55.13a1.49,1.49,0,0,0-1.6,0l-4,2.58-7-6.25,5-3.23A1.47,1.47,0,0,0,71.33,47V42.41A1.5,1.5,0,0,0,70,40.9a1.46,1.46,0,0,0-1.57,1.46V46.2L56.47,53.91V39.17a1.24,1.24,0,0,0,0-.27l14.22-9.19a1.46,1.46,0,0,0,0-2.46L55.8,17.64a1.45,1.45,0,0,0-1.6,0l-14.85,9.6h0a1.49,1.49,0,0,0-.68,1.23h0V47a1.47,1.47,0,0,0,.67,1.23l5.22,3.37-6.9,6.17-.09.08-4.21-2.72a1.49,1.49,0,0,0-1.6,0L18.09,64h0a1.32,1.32,0,0,0-.64,1.14V82.27a1.46,1.46,0,0,0,.67,1.23l13.68,8.85,0,0a1.42,1.42,0,0,0,1.56,0l0,0L47.05,83.5a1.46,1.46,0,0,0,.67-1.23v-4.9H62.28v4.9A1.46,1.46,0,0,0,63,83.5l13.69,8.85,0,0a1.55,1.55,0,0,0,1.56,0l0,0L91.92,83.5a1.46,1.46,0,0,0,.67-1.23V65.18ZM77.44,58.11l11,7.1-11,7.11-11-7.11ZM55,20.62l12.16,7.86L55,36.34,42.84,28.48ZM41.61,31.18l12,7.73a1.09,1.09,0,0,0,0,.26V53.91L41.61,46.2Zm-9,26.93,11,7.1-11,7.11-11-7.11Zm-12.22,9.8,10.77,7a1.37,1.37,0,0,0,0,.19V88.42l-10.75-7ZM34,88.42V75.06a1.28,1.28,0,0,0,0-.19l10.76-7V81.47Zm13.69-14v-9.3A1.4,1.4,0,0,0,47,64h0l-6.92-4.47,7-6.25,7.08,4.58,0,0a1.47,1.47,0,0,0,1.55,0h0l7.3-4.73,7,6.25L63,64h0a1.35,1.35,0,0,0-.68,1.16v9.29Zm17.5-6.52,10.76,7a1.28,1.28,0,0,0,0,.19V88.42l-10.75-7ZM78.91,88.42V75.06a1.37,1.37,0,0,0,0-.19l10.77-7V81.47Z" transform="translate(-17.41 -17.4)"/></svg>