<svg id="Layer_1" data-name="Layer 1" xmlns="http://www.w3.org/2000/svg" viewBox="0 0 63.32 71.68"><defs><style>.cls-1{fill:#0757b3;}</style></defs><title>ProvenTrackRecord</title><path class="cls-1" d="M75.91,89.65V25.13a1.19,1.19,0,0,0-1.2-1.19H56.12l-.68-4.78H43.81l-.68,4.78H24.54a1.19,1.19,0,0,0-1.2,1.19V89.65a1.19,1.19,0,0,0,1.2,1.19H74.71A1.19,1.19,0,0,0,75.91,89.65Zm-31.18-60,1.15-8.07h7.49l1.15,8.07,7,2.35V33.5H37.68V32Zm24,1.49v43H59.18v9.55H30.51V31.11h4.78v4.77H64V31.11ZM67.05,76.5,61.57,82V76.5Zm6.47,12H25.73V26.33H42.79l-.21,1.49-2.71.9H28.12V86.06H60.87L71.13,75.8V28.72H59.38l-2.71-.9-.21-1.49H73.52Z" transform="translate(-23.34 -19.16)"/><path class="cls-1" d="M81.92,81.57a1.19,1.19,0,0,0,2.31,0L86.62,72a.48.48,0,0,0,0-.12,1.36,1.36,0,0,0,0-.17V27.52a1.19,1.19,0,0,0-1.2-1.19H80.69a1.19,1.19,0,0,0-1.2,1.19V71.73l0,.16a.48.48,0,0,1,0,.12Zm2.35-11H81.88V35.88h2.39Zm-1.19,5.83-.86-3.44h1.71Zm-1.2-47.64h2.39V33.5H81.88Z" transform="translate(-23.34 -19.16)"/><path class="cls-1" d="M38.87,38.27H34.09a1.19,1.19,0,0,0-1.19,1.2v4.78a1.19,1.19,0,0,0,1.19,1.19h4.78a1.19,1.19,0,0,0,1.2-1.19V39.47A1.2,1.2,0,0,0,38.87,38.27Zm-1.19,4.78H35.29V40.66h2.39Z" transform="translate(-23.34 -19.16)"/><path class="cls-1" d="M38.87,47.83H34.09A1.19,1.19,0,0,0,32.9,49v4.78A1.19,1.19,0,0,0,34.09,55h4.78a1.19,1.19,0,0,0,1.2-1.19V49A1.2,1.2,0,0,0,38.87,47.83Zm-1.19,4.78H35.29V50.22h2.39Z" transform="translate(-23.34 -19.16)"/><path class="cls-1" d="M38.87,57.39H34.09a1.19,1.19,0,0,0-1.19,1.19v4.78a1.19,1.19,0,0,0,1.19,1.2h4.78a1.2,1.2,0,0,0,1.2-1.2V58.58A1.19,1.19,0,0,0,38.87,57.39Zm-1.19,4.78H35.29V59.78h2.39Z" transform="translate(-23.34 -19.16)"/><path class="cls-1" d="M38.87,67H34.09a1.19,1.19,0,0,0-1.19,1.19v4.78a1.19,1.19,0,0,0,1.19,1.2h4.78a1.2,1.2,0,0,0,1.2-1.2V68.14A1.19,1.19,0,0,0,38.87,67Zm-1.19,4.78H35.29V69.34h2.39Z" transform="translate(-23.34 -19.16)"/><path class="cls-1" d="M42.46,38.27H62.77v2.39H42.46Z" transform="translate(-23.34 -19.16)"/><path class="cls-1" d="M42.46,43.05h7.16v2.39H42.46Z" transform="translate(-23.34 -19.16)"/><path class="cls-1" d="M42.46,47.83H62.77v2.39H42.46Z" transform="translate(-23.34 -19.16)"/><path class="cls-1" d="M42.46,52.61h7.16V55H42.46Z" transform="translate(-23.34 -19.16)"/><path class="cls-1" d="M42.46,57.39H62.77v2.39H42.46Z" transform="translate(-23.34 -19.16)"/><path class="cls-1" d="M42.46,62.17h7.16v2.39H42.46Z" transform="translate(-23.34 -19.16)"/><path class="cls-1" d="M42.46,67H62.77v2.39H42.46Z" transform="translate(-23.34 -19.16)"/><path class="cls-1" d="M42.46,71.73h7.16v2.39H42.46Z" transform="translate(-23.34 -19.16)"/></svg>