<svg id="Layer_1" data-name="Layer 1" xmlns="http://www.w3.org/2000/svg" viewBox="0 0 69.65 69.65"><defs><style>.cls-1{fill:#0757b3;}</style></defs><title>QualityControlandDelivery</title><path class="cls-1" d="M38.11,31.54a6.73,6.73,0,1,0-6.73,6.73A6.74,6.74,0,0,0,38.11,31.54Zm-11.21,0A4.49,4.49,0,1,1,31.38,36,4.49,4.49,0,0,1,26.9,31.54Z" transform="translate(-20.18 -20.18)"/><path class="cls-1" d="M80.55,27.86l1.59-1.58,1.58,1.58-1.58,1.59Z" transform="translate(-20.18 -20.18)"/><path class="cls-1" d="M77.38,31,79,29.44,80.55,31,79,32.61Z" transform="translate(-20.18 -20.18)"/><path class="cls-1" d="M74.29,34.12l1.51-1.51,1.58,1.59-1.5,1.5Z" transform="translate(-20.18 -20.18)"/><path class="cls-1" d="M86.3,67.41H80.08a28.06,28.06,0,0,0,2.86-12.33A27.77,27.77,0,0,0,78.05,39.3c.85-.59,1.67-1.21,2.48-1.86l6.89,6.9,2.4-2.41L86.46,31.85l.36-.36a5.88,5.88,0,0,0-8.31-8.31l-.36.36L68.06,20.18l-2.4,2.4,6.9,6.89c-.65.81-1.27,1.63-1.86,2.48a27.77,27.77,0,0,0-15.78-4.89A28.05,28.05,0,0,0,42.47,30a11.2,11.2,0,0,0-22.29,1.56v.31a11.2,11.2,0,0,0,1.88,6.22l6,9a28,28,0,0,0-1.17,8,27.67,27.67,0,0,0,1.88,10.09H28a3.36,3.36,0,0,0-1.12,6.52v2.44H20.18v3.76A11.94,11.94,0,0,0,32.11,89.82H44.52a12,12,0,0,0,10.74-6.73A27.65,27.65,0,0,0,65,81.22v5.24a3.36,3.36,0,0,0,3.36,3.36H86.3a3.35,3.35,0,0,0,3.36-3.36V70.77A3.37,3.37,0,0,0,86.3,67.41ZM74,69.65H80.7v2.24H74Zm-5.6-2.24H65a65.12,65.12,0,0,0,1.1-11.21H80.66a25.83,25.83,0,0,1-3.11,11.21ZM56,80.63l0-2H51.13l-3.58-7.15a3.4,3.4,0,0,0,1.56-1.82H62.23C60.72,75.69,58.36,79.68,56,80.63Zm-6.9-13.22a3.36,3.36,0,0,0-2.38-2.14A62.81,62.81,0,0,1,46,56.2H63.87a62.9,62.9,0,0,1-1.13,11.21ZM29.18,54a26.66,26.66,0,0,1,.67-4.88,3.12,3.12,0,0,0,1.53.4,3.23,3.23,0,0,0,2.68-1.43l3.53-5.3h7.23A65.12,65.12,0,0,0,43.72,54ZM47.11,42.75H62.75A65.07,65.07,0,0,1,63.87,54H46a62.84,62.84,0,0,1,1.14-11.21ZM54.92,29.3c2,0,4,2.26,5.68,6.18l-.85.85,1.46.74c.38,1.08.73,2.22,1,3.44H47.61C49.36,33.55,52.24,29.3,54.92,29.3Zm12.42,8.32-3.8-1.9.69-.69,3.94,1C67.88,36.54,67.61,37.08,67.34,37.62Zm-.94,2,0,.06a3.07,3.07,0,0,0-.21.79H64.54c-.16-.7-.34-1.38-.53-2ZM80.65,54H66.11A65.77,65.77,0,0,0,65,42.75H66.8a2.94,2.94,0,0,0,2.31,1.12,3,3,0,0,0,1.17-.24l.06,0,3.33,6.65,3.78-3.79L76,40.66l.18-.12A25.4,25.4,0,0,1,80.65,54ZM74,41.83l1,3.94-.69.69-1.9-3.8C72.92,42.39,73.46,42.12,74,41.83Zm13.11-1L82.24,36q.84-.75,1.65-1.56l.8-.8ZM82.67,23.7a3.63,3.63,0,0,1,2.57,6.2l-2.93,2.93A41,41,0,0,1,69.4,41.57a.76.76,0,0,1-1-.68.72.72,0,0,1,.06-.29,41,41,0,0,1,8.74-12.91l2.92-2.93h0A3.66,3.66,0,0,1,82.67,23.7Zm-13.51-.8,7.22,2.41-.8.8q-.81.81-1.56,1.65ZM69.34,34l-5.8-1.46-1.23,1.24a17.27,17.27,0,0,0-2.43-4,25.31,25.31,0,0,1,9.58,4l-.12.18ZM42.55,32.48A25.31,25.31,0,0,1,50,29.78c-2,2.34-3.62,6.08-4.73,10.73H39.08l1.63-2.44A11.29,11.29,0,0,0,42.55,32.48Zm-20.13-.63v-.31a9,9,0,0,1,17.93,0v.31a8.92,8.92,0,0,1-1.51,5l-6.65,10a1,1,0,0,1-1.62,0l-6.65-10A9,9,0,0,1,22.42,31.85ZM29.17,56.2H43.73a67.88,67.88,0,0,0,.72,9H31.2A25.59,25.59,0,0,1,29.17,56.2ZM28,67.41H46a1.12,1.12,0,0,1,0,2.24H28a1.12,1.12,0,1,1,0-2.24Zm1.12,4.48H45.26l3.36,6.73H33.2L31,74.13H29.14ZM44.52,87.58H32.11a9.7,9.7,0,0,1-9.69-9.69V76.38h7.15l2.24,4.48H53.75A9.74,9.74,0,0,1,44.52,87.58Zm15.29-7.19c2-2.34,3.62-6.08,4.73-10.74h.67a3.47,3.47,0,0,0-.2,1.12v8A25.36,25.36,0,0,1,59.81,80.39Zm27.61,6.07a1.12,1.12,0,0,1-1.12,1.12H68.37a1.12,1.12,0,0,1-1.12-1.12V70.77a1.12,1.12,0,0,1,1.12-1.12h3.36v4.48H82.94V69.65H86.3a1.12,1.12,0,0,1,1.12,1.12Z" transform="translate(-20.18 -20.18)"/><path class="cls-1" d="M82.94,83.1h2.24v2.24H82.94Z" transform="translate(-20.18 -20.18)"/><path class="cls-1" d="M78.46,83.1H80.7v2.24H78.46Z" transform="translate(-20.18 -20.18)"/><path class="cls-1" d="M38.11,74.13h2.24v2.25H38.11Z" transform="translate(-20.18 -20.18)"/><path class="cls-1" d="M42.59,74.13h2.24v2.25H42.59Z" transform="translate(-20.18 -20.18)"/><path class="cls-1" d="M33.62,74.13h2.25v2.25H33.62Z" transform="translate(-20.18 -20.18)"/><path class="cls-1" d="M49.32,58.44h2.24v2.24H49.32Z" transform="translate(-20.18 -20.18)"/><path class="cls-1" d="M58.28,58.44h2.24v2.24H58.28Z" transform="translate(-20.18 -20.18)"/><path class="cls-1" d="M53.8,58.44H56v2.24H53.8Z" transform="translate(-20.18 -20.18)"/><path class="cls-1" d="M58.28,49.48h2.24v2.24H58.28Z" transform="translate(-20.18 -20.18)"/><path class="cls-1" d="M53.8,49.48H56v2.24H53.8Z" transform="translate(-20.18 -20.18)"/><path class="cls-1" d="M49.32,49.48h2.24v2.24H49.32Z" transform="translate(-20.18 -20.18)"/></svg>