<svg id="Layer_1" data-name="Layer 1" xmlns="http://www.w3.org/2000/svg" viewBox="0 0 73.6 73.59"><defs><style>.cls-1{fill:#c64f51;}</style></defs><title>Respect</title><path class="cls-1" d="M49.61,39.9a3.24,3.24,0,0,0-3.24,3.23v7.55a2.16,2.16,0,1,1-4.31,0V43.13a7.43,7.43,0,0,1,1.57-4.57c3.35-4.32,6.06-9.23,6.83-14.63l.65-4.55a1,1,0,0,0-1-1.17,4.83,4.83,0,0,0-4.22,2.11L33.78,37.8A10.84,10.84,0,0,0,32,46.09l2.62,13.1a6.44,6.44,0,0,1-.81,4.57L49,73.24l2-3a10.82,10.82,0,0,0,1.81-6V43.13A3.23,3.23,0,0,0,49.61,39.9Z" transform="translate(-18.2 -18.2)"/><path class="cls-1" d="M26.47,70.76,43.23,81.93l3.4-5.1-15.85-9.9Z" transform="translate(-18.2 -18.2)"/><path class="cls-1" d="M19.07,77.34A2.33,2.33,0,0,0,18.2,79V89.64a2.16,2.16,0,0,0,2.15,2.16H35.59a2.17,2.17,0,0,0,1.8-1l3.45-5.32-17.7-11.8Z" transform="translate(-18.2 -18.2)"/><path class="cls-1" d="M91.79,78.89a2.14,2.14,0,0,0-.68-1.5l0,0-4.22-3.62L69.17,85.52l3.44,5.32a2.17,2.17,0,0,0,1.8,1H89.65a2.16,2.16,0,0,0,2.15-2.16V79S91.79,78.91,91.79,78.89Z" transform="translate(-18.2 -18.2)"/><path class="cls-1" d="M79.22,66.93l-15.85,9.9,3.4,5.1L83.53,70.76Z" transform="translate(-18.2 -18.2)"/><path class="cls-1" d="M75.34,59.19,78,46.09a10.84,10.84,0,0,0-1.74-8.29L64.08,20.32a4.79,4.79,0,0,0-4.35-2.1,1,1,0,0,0-.93,1.17l.66,4.48c.8,5.43,3.54,10.35,6.91,14.68a7.48,7.48,0,0,1,1.57,4.58v7.55a2.16,2.16,0,1,1-4.31,0V43.13a3.24,3.24,0,0,0-6.47,0V64.22a10.9,10.9,0,0,0,1.81,6l2,3,15.17-9.48A6.44,6.44,0,0,1,75.34,59.19Z" transform="translate(-18.2 -18.2)"/></svg>