<svg id="Layer_1" data-name="Layer 1" xmlns="http://www.w3.org/2000/svg" viewBox="0 0 79.35 75.68"><defs><style>.cls-1{fill:#0757b3;stroke:#0757b3;stroke-miterlimit:10;}</style></defs><title>Smart Solution</title><path class="cls-1" d="M55,64.84a.6.6,0,0,0-.62.61,2.43,2.43,0,0,1-.72,1.69,2.45,2.45,0,1,1-3.46-3.47.6.6,0,0,0,0-.86.62.62,0,0,0-.87,0A3.67,3.67,0,1,0,54.54,68a3.62,3.62,0,0,0,1.07-2.54A.61.61,0,0,0,55,64.84Z" transform="translate(-15.32 -17.16)"/><path class="cls-1" d="M50.71,46.93a3.67,3.67,0,1,0-2.44,6.42.61.61,0,0,0,0-1.22,2.45,2.45,0,1,1,1.63-4.28.61.61,0,0,0,.86-.05A.63.63,0,0,0,50.71,46.93Z" transform="translate(-15.32 -17.16)"/><path class="cls-1" d="M45.21,55.61a2.45,2.45,0,0,0-1,4.7.69.69,0,0,0,.24,0,.62.62,0,0,0,.25-1.18A1.21,1.21,0,0,1,44,58.06a1.23,1.23,0,0,1,1.23-1.22.62.62,0,0,0,0-1.23Z" transform="translate(-15.32 -17.16)"/><path class="cls-1" d="M45.85,50.78a3.1,3.1,0,0,0-3.7,3,3.07,3.07,0,0,0,3.06,3.06.62.62,0,0,0,0-1.23,1.84,1.84,0,0,1-1.84-1.83A1.87,1.87,0,0,1,45.6,52a.6.6,0,0,0,.72-.47A.62.62,0,0,0,45.85,50.78Z" transform="translate(-15.32 -17.16)"/><path class="cls-1" d="M52.55,43.37a3.06,3.06,0,1,0,0,6.12.61.61,0,1,0,0-1.22,1.84,1.84,0,1,1,1.84-1.84.61.61,0,1,0,1.22,0A3.06,3.06,0,0,0,52.55,43.37Z" transform="translate(-15.32 -17.16)"/><path class="cls-1" d="M51.73,58.27a4.87,4.87,0,0,0-3.46-1.44h0a4.83,4.83,0,0,0-3.46,1.44,4.89,4.89,0,0,0,3.47,8.36,6.3,6.3,0,0,0,.75,0,.62.62,0,0,0,.51-.7.61.61,0,0,0-.7-.51,3.68,3.68,0,0,1-3.17-6.23,3.65,3.65,0,0,1,2.6-1.08h0a3.65,3.65,0,0,1,2.6,1.08.6.6,0,0,0,.86,0A.62.62,0,0,0,51.73,58.27Z" transform="translate(-15.32 -17.16)"/><path class="cls-1" d="M60.66,62.81a.61.61,0,0,0-.86.86,2.45,2.45,0,1,1-4.19,1.78.6.6,0,0,0-.62-.61.62.62,0,0,0-.6.62A3.67,3.67,0,0,0,60.66,68,3.68,3.68,0,0,0,60.66,62.81Z" transform="translate(-15.32 -17.16)"/><path class="cls-1" d="M61.74,46a3.68,3.68,0,0,0-2.44.92.61.61,0,0,0,.81.92,2.45,2.45,0,1,1,1.63,4.28.61.61,0,1,0,0,1.22,3.67,3.67,0,0,0,0-7.34Z" transform="translate(-15.32 -17.16)"/><path class="cls-1" d="M64.8,55.61a.62.62,0,1,0,0,1.23,1.22,1.22,0,0,1,.49,2.34.62.62,0,0,0,.24,1.18.74.74,0,0,0,.25,0,2.46,2.46,0,0,0-1-4.7Z" transform="translate(-15.32 -17.16)"/><path class="cls-1" d="M64.16,50.78a.62.62,0,0,0-.48.73.61.61,0,0,0,.73.47,1.86,1.86,0,0,1,2.22,1.8,1.83,1.83,0,0,1-1.83,1.83.62.62,0,1,0,0,1.23,3.07,3.07,0,0,0,3.06-3.06A3.1,3.1,0,0,0,64.16,50.78Z" transform="translate(-15.32 -17.16)"/><path class="cls-1" d="M57.45,43.37a3.06,3.06,0,0,0-3.06,3.06.61.61,0,1,0,1.22,0,1.84,1.84,0,1,1,1.84,1.84.61.61,0,0,0,0,1.22,3.06,3.06,0,0,0,0-6.12Z" transform="translate(-15.32 -17.16)"/><path class="cls-1" d="M65.2,58.27a4.89,4.89,0,0,0-6.93,0,.62.62,0,0,0,.87.87,3.67,3.67,0,0,1,5.19,5.19,3.67,3.67,0,0,1-3.16,1,.6.6,0,0,0-.7.51.62.62,0,0,0,.51.7,6.3,6.3,0,0,0,.75,0,4.9,4.9,0,0,0,3.47-8.36Z" transform="translate(-15.32 -17.16)"/><path class="cls-1" d="M65.41,77.65H44.59a.61.61,0,0,0-.61.61v8.57a.62.62,0,0,0,.18.43l2.45,2.45a.58.58,0,0,0,.43.18H63a.58.58,0,0,0,.43-.18l2.45-2.45a.62.62,0,0,0,.18-.43V78.26A.61.61,0,0,0,65.41,77.65Zm-.62,8.93L62.7,88.67H47.3l-2.09-2.09V78.87H64.79Z" transform="translate(-15.32 -17.16)"/><path class="cls-1" d="M66.6,80.1,43.34,81.32a.62.62,0,0,0,0,1.23h0l23.26-1.23a.61.61,0,0,0,.58-.64A.61.61,0,0,0,66.6,80.1Z" transform="translate(-15.32 -17.16)"/><path class="cls-1" d="M66.6,83.77,43.34,85a.62.62,0,0,0,0,1.23h0L66.66,85a.61.61,0,1,0-.06-1.22Z" transform="translate(-15.32 -17.16)"/><path class="cls-1" d="M55,36A20.8,20.8,0,0,0,44,74.47v3.79a.61.61,0,0,0,.61.61H65.41a.61.61,0,0,0,.61-.61V74.47A20.8,20.8,0,0,0,55,36ZM65.09,73.6a.62.62,0,0,0-.3.52v3.53H45.21V74.12a.62.62,0,0,0-.3-.52,19.59,19.59,0,1,1,20.18,0Z" transform="translate(-15.32 -17.16)"/><path class="cls-1" d="M60.79,88.74A.61.61,0,0,0,60,89c0,.09-1.15,2.12-5,2.12s-4.92-2-5-2.12a.62.62,0,0,0-.82-.27.61.61,0,0,0-.28.82c.06.12,1.45,2.79,6.06,2.79s6-2.67,6.06-2.79A.6.6,0,0,0,60.79,88.74Z" transform="translate(-15.32 -17.16)"/><path class="cls-1" d="M28.68,56.22H16.44a.62.62,0,1,0,0,1.23H28.68a.62.62,0,0,0,0-1.23Z" transform="translate(-15.32 -17.16)"/><path class="cls-1" d="M93.56,56.22H81.32a.62.62,0,0,0,0,1.23H93.56a.62.62,0,1,0,0-1.23Z" transform="translate(-15.32 -17.16)"/><path class="cls-1" d="M32.74,69.69a.62.62,0,0,0-.84-.22L21.3,75.59a.61.61,0,0,0,.3,1.14.68.68,0,0,0,.31-.08l10.6-6.12A.61.61,0,0,0,32.74,69.69Z" transform="translate(-15.32 -17.16)"/><path class="cls-1" d="M88.92,37.25a.61.61,0,0,0-.83-.23l-10.6,6.13a.61.61,0,0,0,.31,1.14.67.67,0,0,0,.3-.08l10.6-6.13A.6.6,0,0,0,88.92,37.25Z" transform="translate(-15.32 -17.16)"/><path class="cls-1" d="M74.59,22.91a.62.62,0,0,0-.84.22L67.63,33.74a.6.6,0,0,0,.23.83.54.54,0,0,0,.3.08.62.62,0,0,0,.53-.3l6.12-10.6A.62.62,0,0,0,74.59,22.91Z" transform="translate(-15.32 -17.16)"/><path class="cls-1" d="M55.61,18.27a.61.61,0,1,0-1.22,0V30.51a.61.61,0,1,0,1.22,0Z" transform="translate(-15.32 -17.16)"/><path class="cls-1" d="M42.37,33.73l-6.12-10.6a.61.61,0,0,0-1.06.62l6.12,10.6a.62.62,0,0,0,.53.3.58.58,0,0,0,.31-.08A.62.62,0,0,0,42.37,33.73Z" transform="translate(-15.32 -17.16)"/><path class="cls-1" d="M88.71,75.59,78.1,69.46a.61.61,0,0,0-.83.23.62.62,0,0,0,.22.84l10.6,6.12a.68.68,0,0,0,.31.08.62.62,0,0,0,.53-.31A.6.6,0,0,0,88.71,75.59Z" transform="translate(-15.32 -17.16)"/><path class="cls-1" d="M32.51,43.14,21.91,37a.6.6,0,0,0-.83.23.61.61,0,0,0,.22.83L31.9,44.2a.58.58,0,0,0,.31.08.63.63,0,0,0,.53-.3A.61.61,0,0,0,32.51,43.14Z" transform="translate(-15.32 -17.16)"/><path class="cls-1" d="M55,45.82a.61.61,0,0,0-.61.61v19a.61.61,0,1,0,1.22,0v-19A.61.61,0,0,0,55,45.82Z" transform="translate(-15.32 -17.16)"/><path class="cls-1" d="M56.84,60.51a1.68,1.68,0,0,1-1.29-.89.61.61,0,0,0-1.1.55,2.9,2.9,0,0,0,2.39,1.56.61.61,0,0,0,0-1.22Z" transform="translate(-15.32 -17.16)"/><path class="cls-1" d="M55.27,59.35a.61.61,0,0,0-.82.27,1.68,1.68,0,0,1-1.29.89.61.61,0,0,0,0,1.22,2.86,2.86,0,0,0,2.38-1.56A.61.61,0,0,0,55.27,59.35Z" transform="translate(-15.32 -17.16)"/><path class="cls-1" d="M58.06,53.16c-2.34,0-2.44-1.65-2.45-1.84a.61.61,0,0,0-1.22,0c0,1.06.77,3.06,3.67,3.06a.62.62,0,0,0,0-1.23Z" transform="translate(-15.32 -17.16)"/><path class="cls-1" d="M55,50.72a.59.59,0,0,0-.62.6c0,.19-.1,1.84-2.44,1.84a.62.62,0,0,0,0,1.23c2.9,0,3.67-2,3.67-3.06A.61.61,0,0,0,55,50.72Z" transform="translate(-15.32 -17.16)"/></svg>