<svg id="Layer_1" data-name="Layer 1" xmlns="http://www.w3.org/2000/svg" viewBox="0 0 68.75 68.02"><defs><style>.cls-1{fill:#0757b3;}</style></defs><title>StrategicAlliance</title><g id="Paticipatation-2"><path class="cls-1" d="M89.05,74.21l-4.82-4.84a1.18,1.18,0,0,0-.81-.33h0a1.1,1.1,0,0,0-.8.34l-.81.8-.58-.58L79.7,63.48a1.13,1.13,0,0,0-.3-.53L67.51,51.05V36.91a1.11,1.11,0,0,0-.16-.59L64.1,30.91v-.83h1.14A1.13,1.13,0,0,0,66.38,29V22.12A1.14,1.14,0,0,0,65.24,21H47a1.14,1.14,0,0,0-1.13,1.13V29A1.13,1.13,0,0,0,47,30.08v.67L42.83,35a1.1,1.1,0,0,0-.34.8V49.42a3.43,3.43,0,0,0,.29,1.34L30.6,63a1.22,1.22,0,0,0-.3.53L28.78,69.6l-.59.58-.8-.8a1.15,1.15,0,0,0-1.61,0L21,74.21a1.12,1.12,0,0,0,0,1.6L33.82,88.68a1.15,1.15,0,0,0,1.61,0l4.82-4.83a1.13,1.13,0,0,0,0-1.6l.47-.47h6a1.14,1.14,0,0,0,.8-.33L55,73.93l7.51,7.52a1.14,1.14,0,0,0,.8.33h6l.47.47h0a1.13,1.13,0,0,0,0,1.6l4.82,4.83a1.15,1.15,0,0,0,1.61,0L89,75.81A1.13,1.13,0,0,0,89.05,74.21ZM48.18,23.26H64.1v4.55H48.18ZM49,32a1.14,1.14,0,0,0,.34-.81V30.08H61.83v1.14a1.11,1.11,0,0,0,.16.59l3.25,5.41V49.3a3.56,3.56,0,0,0-2.28,0V47.14H60.69v3.53l-.58-.59a3.46,3.46,0,0,0-1.7-.92v-2H56.14v2.32A3.18,3.18,0,0,0,54.63,51l-.15-.15a4,4,0,0,0-.61-.48V47.14H51.59v2.79a3.44,3.44,0,0,0-1.94,1,3.58,3.58,0,0,0-.5.66,4.53,4.53,0,0,0-.23-.57,3.29,3.29,0,0,0,.4-1.56V42.59H47V49.3a3.4,3.4,0,0,0-2.27,0V36.24ZM34.63,86.27,23.37,75l3.21-3.22L37.84,83.05Zm11.59-6.76h-6a1.14,1.14,0,0,0-.8.33l-.8.8L29.8,71.79l.81-.8a1.22,1.22,0,0,0,.3-.53l1.52-6.12L45.06,51.7a1.14,1.14,0,0,1,1.6,0l.05.06a1.14,1.14,0,0,1,0,1.57h0l-5.63,5.63,1.61,1.6,5.63-5.62h0a4,4,0,0,0,.5-.67,3.41,3.41,0,0,0,.85,1.47l.15.15a3,3,0,0,0-.95.66,3.41,3.41,0,0,0-1,2l-.49.49-3.11,3.12,1.6,1.6L48.58,61a2.55,2.55,0,0,0,.26.3l1.33,1.33-2.69,2.69L49.09,67l2.69-2.69.15.15.09.1,1.37,1.36-5.91,5.9,1.61,1.61,3-3a3.39,3.39,0,0,0,.81,1.35l.53.53Zm17.57,0-9.31-9.33a1.14,1.14,0,0,1,0-1.61h0a1,1,0,0,1,.52-.29,1.27,1.27,0,0,0,.28,0,1.08,1.08,0,0,1,.78.3h0l4.84,4.84,1.61-1.61L50.44,59.72a1.07,1.07,0,0,1-.32-.75,1.14,1.14,0,0,1,1.08-1.19h.13a1.17,1.17,0,0,1,.73.33L60.9,67l1.61-1.61L51.25,54.1a1.15,1.15,0,0,1,0-1.61h0a1.12,1.12,0,0,1,.81-.32,1,1,0,0,1,.35,0,1,1,0,0,1,.45.27L64.12,63.75l1.61-1.61-8.85-8.86a1.11,1.11,0,0,1-.32-.75,1.15,1.15,0,0,1,.33-.84,1.29,1.29,0,0,1,.67-.33h.13a1.19,1.19,0,0,1,.81.34l8.85,8.85L69,58.93,63.32,53.3a1.13,1.13,0,0,1,0-1.6h0a1.17,1.17,0,0,1,1.61,0L77.57,64.34l1.53,6.11a1.08,1.08,0,0,0,.3.53l.8.81-8.84,8.85-.8-.8a1.14,1.14,0,0,0-.8-.33Zm11.6,6.76-3.22-3.22L83.43,71.79,86.64,75Z" transform="translate(-20.62 -20.99)"/><path class="cls-1" d="M41,38.68,39.48,37a23.93,23.93,0,0,0-8.09,21.73l2.25-.34a21.88,21.88,0,0,1-.24-3.24A21.62,21.62,0,0,1,41,38.68Z" transform="translate(-20.62 -20.99)"/><path class="cls-1" d="M56.2,79l-.12-2.27a19.45,19.45,0,0,1-2.16,0L53.81,79c.39,0,.79,0,1.19,0S55.8,79,56.2,79Z" transform="translate(-20.62 -20.99)"/><path class="cls-1" d="M78.77,57.49A24.09,24.09,0,0,0,70.53,37l-1.48,1.73A21.62,21.62,0,0,1,76.61,55.1c0,.73,0,1.45-.11,2.16Z" transform="translate(-20.62 -20.99)"/><path class="cls-1" d="M29.42,60.55A26.19,26.19,0,0,1,44.11,31.32l-1-2.07A28.48,28.48,0,0,0,27.19,61Z" transform="translate(-20.62 -20.99)"/><path class="cls-1" d="M50.64,80.9l-.37,2.24a28.94,28.94,0,0,0,9.47,0l-.38-2.24A26.58,26.58,0,0,1,50.64,80.9Z" transform="translate(-20.62 -20.99)"/><path class="cls-1" d="M81.16,55.1a26.27,26.27,0,0,1-.57,5.45l2.23.47a28.48,28.48,0,0,0-13.6-30.54l-1.14,2A26.24,26.24,0,0,1,81.16,55.1Z" transform="translate(-20.62 -20.99)"/></g></svg>