<svg id="Layer_1" data-name="Layer 1" xmlns="http://www.w3.org/2000/svg" viewBox="0 0 71.88 71.88"><defs><style>.cls-1{fill:#0757b3;}</style></defs><title>StrongExpertise</title><path class="cls-1" d="M45.59,52.05h2.74a1.06,1.06,0,0,0,2.11,0V51a1.06,1.06,0,0,0-1.06-1.06H45.59a1.06,1.06,0,0,0,0,2.11Z" transform="translate(-19.06 -19.06)"/><path class="cls-1" d="M60.62,53.1a1,1,0,0,0,1.05-1.05h2.74a1.06,1.06,0,0,0,0-2.11H60.62A1.06,1.06,0,0,0,59.56,51v1A1.05,1.05,0,0,0,60.62,53.1Z" transform="translate(-19.06 -19.06)"/><path class="cls-1" d="M37.13,56.87a17.9,17.9,0,0,0,35.74,0A6,6,0,0,0,76.08,46.8a3.16,3.16,0,0,0-1.08-6A19.82,19.82,0,0,0,70.91,29a20.19,20.19,0,0,0-9.59-6.86V20.77a1.06,1.06,0,0,0-.79-1,22.51,22.51,0,0,0-11.06,0,1.06,1.06,0,0,0-.79,1v1.41A20.19,20.19,0,0,0,39.09,29,19.82,19.82,0,0,0,35,40.84a3.16,3.16,0,0,0-1.08,6,6,6,0,0,0,3.21,10.07ZM61.32,24.42a18,18,0,0,1,11.57,16.4H61.32Zm-12.64,0v5.52a1.06,1.06,0,0,0,2.11,0V21.61a20.25,20.25,0,0,1,8.42,0V40.82H50.79V34.15a1.06,1.06,0,0,0-2.11,0v6.67H37.11A18,18,0,0,1,48.68,24.42ZM35.34,42.92H74.66a1.06,1.06,0,0,1,0,2.11H35.34a1.06,1.06,0,0,1,0-2.11Zm1.76,4.36v1.61a1.06,1.06,0,0,0,2.11,0V47.14H70.79v1.75a1.06,1.06,0,0,0,2.11,0V47.28a3.86,3.86,0,0,1,0,7.43V53.1a1.06,1.06,0,0,0-2.11,0v2.81a15.79,15.79,0,1,1-31.58,0V53.1a1.06,1.06,0,0,0-2.11,0v1.61a3.86,3.86,0,0,1,0-7.43Z" transform="translate(-19.06 -19.06)"/><path class="cls-1" d="M50.75,59.41a6,6,0,0,0,8.5,0,1.05,1.05,0,1,0-1.48-1.49,3.91,3.91,0,0,1-5.54,0,1.05,1.05,0,1,0-1.48,1.49Z" transform="translate(-19.06 -19.06)"/><path class="cls-1" d="M81.46,75.92H35.91V65.39a8.43,8.43,0,1,0-16.85,0v24.5a1,1,0,0,0,1.05,1H89.89a1,1,0,0,0,1-1v-4.5A9.49,9.49,0,0,0,81.46,75.92ZM58.8,78l-1.4,4.21H52.6L51.2,78ZM29.59,88.83H21.17V71a8.39,8.39,0,0,0,6.31,2.86,8.71,8.71,0,0,0,2.11-.26Zm4.21,0H31.69V72.05a1,1,0,0,0-.49-.89,1,1,0,0,0-1-.06,6.32,6.32,0,1,1,3.61-5.71Zm5.41,0h-3.3V78h3.3Zm9.76,0H41.31V78H49l1.75,5.27Zm2.21,0,1.43-4.49h4.78l1.43,4.49Zm17.51,0H61l-1.76-5.54L61,78h7.67Zm2.1-.07V78h6.32v3.44A7.38,7.38,0,0,1,70.79,88.76Zm18,.07H75.69a9.46,9.46,0,0,0,3.53-7.37V78h2.24a7.38,7.38,0,0,1,7.37,7.37Z" transform="translate(-19.06 -19.06)"/></svg>