<svg id="Layer_1" data-name="Layer 1" xmlns="http://www.w3.org/2000/svg" viewBox="0 0 67.73 58.53"><defs><style>.cls-1{fill:#c64f51;}</style></defs><title>Work Culture</title><path class="cls-1" d="M22.67,52.63H29a1.52,1.52,0,0,1-.94-1L24.79,39.74a1.54,1.54,0,1,1,3-.82l3,10.73h11a1.54,1.54,0,0,1,.54,3h4.38a3.26,3.26,0,0,1-.61-1.9,3.29,3.29,0,0,1,2.11-3.06,1.28,1.28,0,0,1,.43-.1L56.74,47l5.87-5.13a8.31,8.31,0,1,1,8.21-1.4,6.28,6.28,0,0,1,3.79,3.89l6.5,18.4a4.34,4.34,0,0,1,.24,1.43A4.54,4.54,0,0,1,81,65.88h2.65L85.8,49.46a1.54,1.54,0,1,1,3,.4l-2.41,18.4V82.4a1.54,1.54,0,0,1-1.54,1.54H71.71a1.54,1.54,0,0,1-1.54-1.54V68.64H65.61a1.53,1.53,0,0,0-1.51,1.29L61.93,81.42a3.42,3.42,0,0,1-6.76-1.1L57.7,65.09a4.63,4.63,0,0,1,4.55-3.93h7a1.35,1.35,0,0,0,1.09-.56,1.33,1.33,0,0,0,.18-1.19L66.65,49.3v0a.4.4,0,0,0-.39-.27.36.36,0,0,0-.29.13l-.13.12-4.78,4a1.53,1.53,0,0,1-1.21,2.48H48.73V82.4a1.54,1.54,0,0,1-1.54,1.54H29.29a1.54,1.54,0,0,1-1.54-1.54V55.71H22.68a1.54,1.54,0,0,1,0-3.08Z" transform="translate(-21.14 -25.73)"/></svg>