<svg id="Layer_1" data-name="Layer 1" xmlns="http://www.w3.org/2000/svg" viewBox="0 0 62.53 69.14"><defs><style>.cls-1{fill:#fff;}</style></defs><title>1</title><rect class="cls-1" x="40.59" y="21.71" width="1.49" height="7.29"/><rect class="cls-1" x="27.06" y="24.09" width="1.49" height="4.91"/><path class="cls-1" d="M27.91,86.56a.79.79,0,1,0-.73-.85v.06A.76.76,0,0,0,27.91,86.56Z" transform="translate(-23.74 -20.43)"/><path class="cls-1" d="M23.74,82.29v6.84a.44.44,0,0,0,.44.44H46.64a.44.44,0,0,0,.44-.44V82.29a.45.45,0,0,0-.44-.45H24.18A.45.45,0,0,0,23.74,82.29Zm4.17.61a2.87,2.87,0,1,1-2.81,2.93v-.06A2.85,2.85,0,0,1,27.91,82.9Z" transform="translate(-23.74 -20.43)"/><path class="cls-1" d="M27.75,58V79.76H44.11V77.33a1,1,0,0,1,.94-1h0a3.64,3.64,0,0,0,3.63-3.65V67.56h-3a4.07,4.07,0,0,1-4.12-4v-.08l-.17.21,0,.66a3.73,3.73,0,0,0,.39,1.54,7.72,7.72,0,0,1-.35,7V75a1,1,0,0,1-2.08,0V72.6a1.1,1.1,0,0,1,.16-.58,5.37,5.37,0,0,0,.39-5.23,5.68,5.68,0,0,1-.57-2.45v-.06l.06-1.1a1,1,0,0,1,.3-.67l5-5a2.5,2.5,0,0,0,0-3.54h0l-.18-.18L33.91,62.19a1.06,1.06,0,0,1-1.48-.2,1,1,0,0,1,.15-1.44l9-7.15V45.15L28.71,55.46A3.61,3.61,0,0,0,27.75,58Z" transform="translate(-23.74 -20.43)"/><rect class="cls-1" x="33.75" y="17.25" width="1.64" height="11.75"/><path class="cls-1" d="M64.63,31.28h7.3L62.4,21.75v7.31a2.2,2.2,0,0,0,2.18,2.22Z" transform="translate(-23.74 -20.43)"/><path class="cls-1" d="M43.36,22.75V52l.56-.41a1.07,1.07,0,0,1,1.4.08l.85.84a4.59,4.59,0,0,1,0,6.48l-2.77,2.74v1.86a2.29,2.29,0,0,0,2.34,2.21H65.87a10.14,10.14,0,0,1-.31-2.69,11.19,11.19,0,0,1,7.69-10.63V33.07H64.63a4,4,0,0,1-4-4V20.43H45.7A2.39,2.39,0,0,0,43.36,22.75Zm14.5,39H51.62a.9.9,0,1,1,0-1.79h6.24a.9.9,0,0,1,0,1.79Zm4.69-20.52a.89.89,0,0,1,.89-.9h3.42a.89.89,0,0,1,.89.9v9.07a.89.89,0,0,1-.89.89H63.44a.89.89,0,0,1-.89-.89Zm2.3,13.53a.89.89,0,0,1,0,1.78H51.62a.89.89,0,1,1,0-1.78Zm-9.14-18a.89.89,0,0,1,.89-.89H60a.89.89,0,0,1,.89.89V50.32a.89.89,0,0,1-.89.89H56.6a.89.89,0,0,1-.89-.89ZM49,43.62a.89.89,0,0,1,.9-.89h3.42a.89.89,0,0,1,.89.89v6.7a.89.89,0,0,1-.89.89H49.91a.89.89,0,0,1-.9-.89Z" transform="translate(-23.74 -20.43)"/><path class="cls-1" d="M76.79,53.65a9.47,9.47,0,1,0,9.47,9.47A9.47,9.47,0,0,0,76.79,53.65ZM79.05,60h1.16a.9.9,0,0,1,0,1.79H79.05a4,4,0,0,1-3.45,2.89l3.28,3.08A.89.89,0,0,1,77.65,69l-4.89-4.63a.93.93,0,0,1-.22-1,.91.91,0,0,1,.83-.58h2a2.11,2.11,0,0,0,1.83-1H73.37a.9.9,0,0,1,0-1.79h3.79a2,2,0,0,0-1.83-1.19h-2a.89.89,0,0,1,0-1.78h6.84a.89.89,0,1,1,0,1.78H78.56A3.26,3.26,0,0,1,79.05,60Z" transform="translate(-23.74 -20.43)"/></svg>