<svg id="Layer_1" data-name="Layer 1" xmlns="http://www.w3.org/2000/svg" viewBox="0 0 51.63 76.76"><defs><style>.cls-1{fill:#fff;}</style></defs><title>2</title><path class="cls-1" d="M34.05,80.85h4.54v4.54H34.05Z" transform="translate(-29.18 -16.62)"/><path class="cls-1" d="M34.05,58.14h4.54V74H34.05Z" transform="translate(-29.18 -16.62)"/><path class="cls-1" d="M56.76,58.14h4.53v4.54H56.76Z" transform="translate(-29.18 -16.62)"/><path class="cls-1" d="M67.83,20.54a3.92,3.92,0,1,0-7.83,0v8.31l7.83.12Z" transform="translate(-29.18 -16.62)"/><path class="cls-1" d="M44.92,69.49h4.54V74H44.92Z" transform="translate(-29.18 -16.62)"/><path class="cls-1" d="M58.05,29.81V20.53a5.89,5.89,0,0,1,1.5-3.91H41.18a3.91,3.91,0,0,0-3.89,3.89V48.9H58.05ZM39.88,19.46h9.76a1,1,0,0,1,0,1.95H39.88a1,1,0,0,1,0-1.95Zm0,4.87h9.76a1,1,0,0,1,0,2H39.88a1,1,0,0,1,0-2Zm0,4.87h9.76a1,1,0,0,1,0,1.95H39.88a1,1,0,0,1,0-1.95Zm0,4.87h9.76a1,1,0,0,1,0,2H39.88a1,1,0,0,1,0-2Zm8.93,11.58h-.54a1,1,0,1,1,0-1.94h.54a1,1,0,0,1,0,1.94Zm.83-4.76H39.88a1,1,0,0,1,0-2h9.76a1,1,0,0,1,0,2Zm5.51,4.76H51.51a1,1,0,1,1,0-1.94h3.64a1,1,0,1,1,0,1.94Zm0-4.76h-2a1,1,0,0,1,0-2h2a1,1,0,1,1,0,2Zm0-4.87h-2a1,1,0,0,1,0-2h2a1,1,0,1,1,0,2Zm0-4.87h-2a1,1,0,0,1,0-1.95h2a1,1,0,1,1,0,1.95Zm0-4.87h-2a1,1,0,0,1,0-2h2a1,1,0,1,1,0,2Zm0-4.87h-2a1,1,0,0,1,0-1.95h2a1,1,0,1,1,0,1.95Z" transform="translate(-29.18 -16.62)"/><path class="cls-1" d="M60,41.11h1.29v7.78H60Z" transform="translate(-29.18 -16.62)"/><path class="cls-1" d="M44.92,80.85h4.54v4.54H44.92Z" transform="translate(-29.18 -16.62)"/><path class="cls-1" d="M44.92,58.14h4.54v4.54H44.92Z" transform="translate(-29.18 -16.62)"/><path class="cls-1" d="M35.34,36.25H29.83a.65.65,0,0,0-.65.65V91.55a.65.65,0,0,0,.65.65h28a15.58,15.58,0,0,1,8.34-28V36.9a.65.65,0,0,0-.65-.65H60v2.91h2.27a1,1,0,0,1,1,1v9.73a1,1,0,0,1-1,1H33.08a1,1,0,0,1-1-1V40.14a1,1,0,0,1,1-1h2.27ZM54.81,57.17a1,1,0,0,1,1-1h6.49a1,1,0,0,1,1,1v6.49a1,1,0,0,1-1,1H55.78a1,1,0,0,1-1-1ZM40.54,86.36a1,1,0,0,1-1,1H33.08a1,1,0,0,1-1-1V79.87a1,1,0,0,1,1-1h6.48a1,1,0,0,1,1,1ZM43,57.17a1,1,0,0,1,1-1h6.49a1,1,0,0,1,1,1v6.49a1,1,0,0,1-1,1H43.94a1,1,0,0,1-1-1Zm0,11.35a1,1,0,0,1,1-1h6.49a1,1,0,0,1,1,1V75a1,1,0,0,1-1,1H43.94a1,1,0,0,1-1-1Zm0,11.35a1,1,0,0,1,1-1h6.49a1,1,0,0,1,1,1v6.49a1,1,0,0,1-1,1H43.94a1,1,0,0,1-1-1ZM33.08,56.19h6.48a1,1,0,0,1,1,1V75a1,1,0,0,1-1,1H33.08a1,1,0,0,1-1-1V57.17A1,1,0,0,1,33.08,56.19Z" transform="translate(-29.18 -16.62)"/><path class="cls-1" d="M80.82,79.74A13.64,13.64,0,1,0,67.18,93.38,13.64,13.64,0,0,0,80.82,79.74Zm-20.06.58a1,1,0,0,1,.9-.6h0l3.13,0a3.72,3.72,0,0,0,3.62-2.7L61.7,77a1,1,0,1,1,0-1.94l6.72.07a3.73,3.73,0,0,0-3.56-2.79l-3.13,0a1,1,0,1,1,0-2h0l3.13,0,7.81.08a1,1,0,1,1,0,2h0l-3.54,0a5.71,5.71,0,0,1,1.28,2.76l2.23,0a1,1,0,0,1,0,2h0l-2.23,0a5.66,5.66,0,0,1-5.63,4.63H64.1l6,5.78a1,1,0,0,1,0,1.38,1,1,0,0,1-1.37,0L61,81.4a1,1,0,0,1-.22-1.08Z" transform="translate(-29.18 -16.62)"/><path class="cls-1" d="M34.05,41.11h1.29v7.78H34.05Z" transform="translate(-29.18 -16.62)"/></svg>