<svg id="Layer_1" data-name="Layer 1" xmlns="http://www.w3.org/2000/svg" viewBox="0 0 76.77 76.77"><defs><style>.cls-1{fill:#fff;}</style></defs><title>3</title><path class="cls-1" d="M72.21,33.82A21.18,21.18,0,1,0,93.38,55,21.2,21.2,0,0,0,72.21,33.82Zm8.45,34.42-8.45-5.08-8.46,5.08H59.58L72.21,39.83,84.83,68.24Z" transform="translate(-16.62 -16.62)"/><path class="cls-1" d="M56.32,82.8H19.26V27.2H56.32V37.29A24.35,24.35,0,0,1,59,35.2V24.56H16.62V85.44H59V74.8a24.35,24.35,0,0,1-2.65-2.09Z" transform="translate(-16.62 -16.62)"/><path class="cls-1" d="M59,20.59a4,4,0,0,0-4-4H20.59a4,4,0,0,0-4,4v1.32H59Z" transform="translate(-16.62 -16.62)"/><path class="cls-1" d="M16.62,89.41a4,4,0,0,0,4,4H55a4,4,0,0,0,4-4V88.09H16.62Z" transform="translate(-16.62 -16.62)"/><path class="cls-1" d="M53.68,40.06V29.85H21.91v50.3H53.68V69.94a23.15,23.15,0,0,1-2.07-3h-27V43.09H51.61A23.15,23.15,0,0,1,53.68,40.06ZM51,77.5H24.56V74.85H51Zm0-7.94v2.65H24.56V69.56Zm0-29.12H24.56V37.79H51Zm0-5.29H24.56V32.5H51Z" transform="translate(-16.62 -16.62)"/><path class="cls-1" d="M27.2,45.73V64.27H50.26a23.79,23.79,0,0,1,0-18.54Z" transform="translate(-16.62 -16.62)"/><path class="cls-1" d="M63.89,65.07l7-4.2V52.35h2.65v8.52l7,4.2L72.21,46.35Z" transform="translate(-16.62 -16.62)"/></svg>