<svg id="Layer_1" data-name="Layer 1" xmlns="http://www.w3.org/2000/svg" viewBox="0 0 79.93 85.48"><defs><style>.cls-1{fill:#fff;}</style></defs><title>4</title><path class="cls-1" d="M44.68,65.53l2-1.15a1.68,1.68,0,0,0,.61-2.3l-3.75-6.5a1.7,1.7,0,0,0-2.3-.62l-2,1.14a1.64,1.64,0,0,1-.84.23,1.69,1.69,0,0,1-1.69-1.69V52.36A1.69,1.69,0,0,0,35,50.67h-7.5a1.68,1.68,0,0,0-1.69,1.69v2.28a1.69,1.69,0,0,1-1.69,1.69,1.64,1.64,0,0,1-.84-.23l-2-1.14a1.74,1.74,0,0,0-.85-.22,1.68,1.68,0,0,0-1.46.84l-3.75,6.5a1.68,1.68,0,0,0,.62,2.3l2,1.15a1.69,1.69,0,0,1,0,2.92l-2,1.14a1.69,1.69,0,0,0-.62,2.31L19,78.4a1.68,1.68,0,0,0,1.46.84,1.65,1.65,0,0,0,.85-.23l2-1.14a1.64,1.64,0,0,1,.84-.23,1.69,1.69,0,0,1,1.69,1.69v2.29a1.69,1.69,0,0,0,1.69,1.69H35a1.69,1.69,0,0,0,1.69-1.69V79.33a1.69,1.69,0,0,1,1.69-1.69,1.64,1.64,0,0,1,.84.23l2,1.14a1.59,1.59,0,0,0,.84.23,1.68,1.68,0,0,0,1.46-.84l3.75-6.5a1.69,1.69,0,0,0-.61-2.31l-2-1.14A1.68,1.68,0,0,1,44.68,65.53ZM31.27,72a5,5,0,1,1,5-5A5,5,0,0,1,31.27,72Z" transform="translate(-15.03 -12.26)"/><path class="cls-1" d="M43.38,19.07a2.32,2.32,0,0,0-3.28,3.28l4.14,4.14A30.58,30.58,0,0,0,15.36,54.26l.35-.59a5.5,5.5,0,0,1,4.76-2.75h.13A26,26,0,0,1,44.14,31.14l-4,4a2.32,2.32,0,0,0,1.64,4,2.34,2.34,0,0,0,1.64-.68l8-8.06a2.32,2.32,0,0,0,.68-1.64,2.28,2.28,0,0,0-.68-1.64Z" transform="translate(-15.03 -12.26)"/><path class="cls-1" d="M72.66,30.93a9.34,9.34,0,1,0-9.33-9.34,9.34,9.34,0,0,0,9.33,9.34Z" transform="translate(-15.03 -12.26)"/><path class="cls-1" d="M90.84,56.09V43.26a8.22,8.22,0,0,0-5.65-7.81h0l-4.94-.81a.82.82,0,0,0-1,.51L73.61,50.5a1,1,0,0,1-1.9,0l-5.6-15.36a.83.83,0,0,0-.78-.55c-.08,0-5.18.85-5.18.85a8.28,8.28,0,0,0-5.67,7.86V56.09A3.47,3.47,0,0,0,58,59.56H87.37A3.47,3.47,0,0,0,90.84,56.09Z" transform="translate(-15.03 -12.26)"/><path class="cls-1" d="M95,59.15c-.2,2.66-2.37,4.28-5,4.47A25.93,25.93,0,0,1,66.06,85l4-4a2.32,2.32,0,0,0-3.28-3.28l-8.06,8.06a2.33,2.33,0,0,0,0,3.28l8.06,8.06a2.32,2.32,0,0,0,3.28-3.28L66,89.64A30.57,30.57,0,0,0,95,59.15Z" transform="translate(-15.03 -12.26)"/><path class="cls-1" d="M74.7,34.45a1.17,1.17,0,0,0-.85-.35H71.48a1.15,1.15,0,0,0-.85.35,1.11,1.11,0,0,0-.15,1.3l1.27,1.91-.59,5,1.17,3.11a.36.36,0,0,0,.67,0l1.17-3.11-.6-5,1.27-1.91A1.1,1.1,0,0,0,74.7,34.45Z" transform="translate(-15.03 -12.26)"/></svg>