<svg id="Layer_1" data-name="Layer 1" xmlns="http://www.w3.org/2000/svg" viewBox="0 0 70.44 70.11"><defs><style>.cls-1{fill:#fff;}</style></defs><title>4</title><path class="cls-1" d="M55,36.71a8.38,8.38,0,1,0-8.38-8.38A8.39,8.39,0,0,0,55,36.71Z" transform="translate(-19.78 -19.95)"/><path class="cls-1" d="M56.76,39.42a1,1,0,0,0-.73-.3H54a1,1,0,0,0-.73.3,1,1,0,0,0-.13,1.13l1.1,1.65-.51,4.34,1,2.7a.31.31,0,0,0,.58,0l1-2.7-.51-4.34,1.1-1.65a1,1,0,0,0-.13-1.13Z" transform="translate(-19.78 -19.95)"/><path class="cls-1" d="M42.09,58.79H67.91a1.19,1.19,0,0,0,1.19-1.2V46.84a7.33,7.33,0,0,0-5-6.93l-2.36-.72a.85.85,0,0,0-1,.52L55,55.2,49.36,39.71a.86.86,0,0,0-.8-.56.73.73,0,0,0-.25,0L46,39.91a7.32,7.32,0,0,0-5.07,6.93V57.59a1.19,1.19,0,0,0,1.19,1.2Z" transform="translate(-19.78 -19.95)"/><path class="cls-1" d="M28.16,41a8.39,8.39,0,1,0-8.38-8.39A8.39,8.39,0,0,0,28.16,41Z" transform="translate(-19.78 -19.95)"/><path class="cls-1" d="M42.43,64H35.76V50.85a7.6,7.6,0,0,0-15.19,0V68.77a7.29,7.29,0,0,0,7.29,7.29h8.66V88a2.06,2.06,0,0,0,2.06,2.06h8A2.06,2.06,0,0,0,48.64,88V70.25A6.21,6.21,0,0,0,42.43,64Z" transform="translate(-19.78 -19.95)"/><path class="cls-1" d="M81.84,41a8.39,8.39,0,1,0-8.39-8.39A8.39,8.39,0,0,0,81.84,41Z" transform="translate(-19.78 -19.95)"/><path class="cls-1" d="M81.84,43.26a7.59,7.59,0,0,0-7.6,7.59V64H67.57a6.21,6.21,0,0,0-6.21,6.21V88a2.06,2.06,0,0,0,2.06,2.06h8A2.06,2.06,0,0,0,73.48,88V76.06h8.66a7.29,7.29,0,0,0,7.29-7.29V50.85a7.59,7.59,0,0,0-7.59-7.59Z" transform="translate(-19.78 -19.95)"/></svg>