<svg id="Layer_1" data-name="Layer 1" xmlns="http://www.w3.org/2000/svg" viewBox="0 0 70.44 70.44"><defs><style>.cls-1{fill:#fff;}</style></defs><title>6</title><path class="cls-1" d="M73.37,31.81a6.15,6.15,0,0,0-1.82-4.38l-5.83-5.84a6.34,6.34,0,0,0-4.42-1.81H61V32.16H73.37v-.35Z" transform="translate(-19.78 -19.78)"/><path class="cls-1" d="M57.47,62.37a8.16,8.16,0,0,1,2-3.22l14-13.92V36.29H58.92a2,2,0,0,1-2-2.06V19.78H26A6.2,6.2,0,0,0,19.78,26V84A6.2,6.2,0,0,0,26,90.22H67.18A6.24,6.24,0,0,0,73.42,84V68.63l-2.26,2.21a8.31,8.31,0,0,1-3.21,2L61.39,75l-1,0a5.15,5.15,0,0,1-4.89-6.79ZM30.1,56.93H50.67a2.06,2.06,0,0,1,0,4.12H30.1a2.06,2.06,0,1,1,0-4.12ZM28,50.74a2.07,2.07,0,0,1,2.07-2.07H50.67a2.07,2.07,0,0,1,0,4.13H30.1A2.07,2.07,0,0,1,28,50.74Zm0,16.5a2.07,2.07,0,0,1,2.07-2.06H50.67a2.07,2.07,0,0,1,0,4.13H30.1A2.07,2.07,0,0,1,28,67.24ZM58.92,77.56a2.07,2.07,0,1,1,0,4.13H46.54a2.07,2.07,0,0,1,0-4.13Zm-28.82-33a2.06,2.06,0,1,1,0-4.12H58.92a2.06,2.06,0,1,1,0,4.12Z" transform="translate(-19.78 -19.78)"/><path class="cls-1" d="M61.21,64.19l-1.8,5.39a1,1,0,0,0,1.31,1.3l5.38-1.8Z" transform="translate(-19.78 -19.78)"/><path class="cls-1" d="M77.23,47.2,63.64,60.79l5.86,5.86L83.09,53.06Z" transform="translate(-19.78 -19.78)"/><path class="cls-1" d="M89,41.28a4.31,4.31,0,0,0-5.86,0l-3,3L86,50.14l3-3A4.16,4.16,0,0,0,89,41.28Z" transform="translate(-19.78 -19.78)"/><path class="cls-1" d="M89,47.14Z" transform="translate(-19.78 -19.78)"/><path class="cls-1" d="M89,47.13l0,0Z" transform="translate(-19.78 -19.78)"/><path class="cls-1" d="M89,47.11Z" transform="translate(-19.78 -19.78)"/></svg>