<svg id="Layer_1" data-name="Layer 1" xmlns="http://www.w3.org/2000/svg" viewBox="0 0 66.91 80.4"><defs><style>.cls-1{fill:#fff;}</style></defs><title>7</title><path class="cls-1" d="M57,15.27c3.2,1.67,5.73,3.83,5.88,7.81a8.11,8.11,0,0,1-6.43,8.59,7.88,7.88,0,0,1-9-5,8.47,8.47,0,0,1,3.38-10.27,6.81,6.81,0,0,1,1.95-1.12A4.94,4.94,0,0,1,57,15.27Z" transform="translate(-21.54 -14.8)"/><path class="cls-1" d="M29.48,83l14-5.48c.86,4.67.86,4.66-3.2,6.3-3.17,1.27-6.34,2.56-9.58,3.88.7,1.09,1.87,1.11,2.7,1.67a2.31,2.31,0,0,1,.9,3.17,2.06,2.06,0,0,1-2.88,1c-3.18-1.48-6.52-2.65-9.49-4.57a2.46,2.46,0,0,1,0-2.61c1.64-1.91,2-4.42,3.14-6.59.73-1.47,1.25-3.43,3.41-2.59s1.66,2.67.86,4.35a5.68,5.68,0,0,0-.27,1c-.06.18-.13.37-.2.55Z" transform="translate(-21.54 -14.8)"/><path class="cls-1" d="M87.79,64.42c-1.59,2.06-2.16,4.61-3.25,6.91-.69,1.46-1.4,3.14-3.39,2.29s-1.61-2.57-.83-4.2a20.1,20.1,0,0,0,.71-2L66.1,73.4c-.48-4.83-.48-4.82,3.52-6.43,3.12-1.26,6.23-2.53,9.38-3.82-.57-1-1.63-1-2.43-1.5a2.36,2.36,0,0,1-1.16-3.3,2.12,2.12,0,0,1,3.09-1,88.92,88.92,0,0,1,9.29,4.45C89.08,62.83,88.15,63.55,87.79,64.42Z" transform="translate(-21.54 -14.8)"/><path class="cls-1" d="M75.77,94.74c-2.23-2.68-2-3.29,2.87-5.94l-8.7-4c-4.26-1.93-4.26-1.92-3.88-6.87l7.14,3.18,7.09,3.19c.32-1.19-.38-2-.65-2.84a2.29,2.29,0,0,1,1.23-3,2,2,0,0,1,3,1.22c1.19,2.88,2.34,5.79,3.32,8.75.54,1.65-.6,2.53-2,3.15-2.42,1.08-5.06,1.64-7.28,3.18C76.22,95.58,76.26,95.07,75.77,94.74Z" transform="translate(-21.54 -14.8)"/><path class="cls-1" d="M46.35,75.65a18.42,18.42,0,0,1,0-2.35,17,17,0,0,0-4.08-14,5.07,5.07,0,0,1-1.12-3.62c.07-4.09,0-8.19,0-12.28,0-4.3,1.84-6.53,5.86-7.86,1.54-.5,2.12-.21,2.62,1.29,1.24,3.79,2.65,7.53,4,11.29.23.64.23,1.54,1.08,1.61,1.08.09,1.07-1,1.32-1.64,1.35-3.76,2.75-7.5,4-11.29.5-1.53,1.11-1.78,2.63-1.26,4.05,1.38,5.79,3.57,5.84,7.87,0,1.83-.15,3.68,0,5.49.6,5.76-.39,11-4.35,15.48a4.42,4.42,0,0,0-.87,3.18c0,5.49,0,11,0,16.46,0,1.74-.35,2.46-2.27,2.39-4.18-.14-8.37-.15-12.54,0-1.95.07-2.34-.68-2.26-2.41C46.44,81.23,46.35,78.44,46.35,75.65Z" transform="translate(-21.54 -14.8)"/><path class="cls-1" d="M29.37,67.33c.4,1.81,2.17,4.1-.72,5.08S25.7,70.53,25,68.83c-.81-1.91-1.46-3.89-2.24-5.82a2.45,2.45,0,0,1,1.51-3.56c2.55-1.07,5.15-2.05,7.71-3.1a2.12,2.12,0,0,1,3,1.1c.68,1.43.09,2.51-1.24,3.24-.81.44-1.86.45-2.55,1.42,2.86,1.3,5.67,2.59,8.49,3.86,4.26,1.92,4.26,1.92,4,6.88l-13.77-6a.76.76,0,0,0-1-.21Z" transform="translate(-21.54 -14.8)"/><path class="cls-1" d="M54.88,46.32a7.32,7.32,0,0,1-1.18-5c.24-1.5.56-3.09-.64-4.45a.93.93,0,0,1,.24-1.55,4.56,4.56,0,0,1,3.05,0,.83.83,0,0,1,.44,1.29c-1.52,1.88-.78,3.95-.67,6C56.19,43.78,55.59,44.86,54.88,46.32Z" transform="translate(-21.54 -14.8)"/><path class="cls-1" d="M29.48,83l-.62.11c.07-.18.14-.37.2-.55Z" transform="translate(-21.54 -14.8)"/><path class="cls-1" d="M29.37,67.33l-.47-.69a.76.76,0,0,1,1,.21Z" transform="translate(-21.54 -14.8)"/></svg>