<svg id="Layer_1" data-name="Layer 1" xmlns="http://www.w3.org/2000/svg" viewBox="0 0 68.48 79.75"><defs><style>.cls-1{fill:#fff;}</style></defs><title>8</title><path class="cls-1" d="M90.64,82.69c-2.41,0-4.82,0-7.23,0-1.08,0-1.48-.21-1.76-1.45-1.29-5.66,1.49-10.42,3.11-15.45.29-.88,1-.9,1.7-.76,1.78.35,3.2,1.16,3.74,3,0,2.72-.07,5.44,0,8.16.08,1.82-.5,3.71.4,5.47Z" transform="translate(-22.15 -16.99)"/><path class="cls-1" d="M56,96.74c-.17-.33-.5-.67-.49-1,.18-4.68.4-9.35.61-14.08.39.1.63.13.63.18.27,4.48.5,9,.79,13.45,0,.64-.44,1-.61,1.44Z" transform="translate(-22.15 -16.99)"/><path class="cls-1" d="M72.43,32.65c0,3,0,5.94,0,8.9,0,.69.34,1.69-1,1.64s-.91-1-.91-1.73c0-5.07-.08-10.14,0-15.21,0-1.89-.45-2.76-2.49-2.6a40.39,40.39,0,0,1-5.61,0c-1.72-.1-2.35.51-2.32,2.28.09,5.15,0,10.3.07,15.45,0,1.46-.4,1.85-1.83,1.82-5.15-.08-10.31-.06-15.46,0-2.08,0-2.94-.85-2.9-3s1.13-2.59,3-2.59c5.27,0,4.62.72,4.65-4.78q0-4.68,0-9.36c0-.89,0-1.51,1.2-1.47s1,.71,1,1.43a45.61,45.61,0,0,1,0,5.61c-.44,3.56.75,6.54,2.72,9.36,1.25,1.79,1.63,1.68,3,.08,3.19-3.7,2.76-8.07,2.72-12.41,0-4,0-4,4-3.95,2.89,0,5.78.1,8.67,0,1.26,0,1.56.4,1.53,1.59C72.38,26.72,72.43,29.69,72.43,32.65Z" transform="translate(-22.15 -16.99)"/><path class="cls-1" d="M41.07,86.47c0-2-.07-3.91,0-5.85a6.34,6.34,0,0,1,6.1-6.21c1.09-.07,1.65.16,2,1.37,1.26,5,2.7,9.92,4,14.9.78,3.08.29,3.59-2.92,3.59-2.5,0-5-.06-7.49,0-1.36,0-1.74-.43-1.66-1.75C41.15,90.53,41.06,88.5,41.07,86.47Z" transform="translate(-22.15 -16.99)"/><path class="cls-1" d="M71.38,86.62c0,2-.07,4,0,6.07.06,1.22-.31,1.64-1.55,1.61-2.8-.08-5.61-.11-8.4,0-1.5.06-1.94-.51-1.82-1.87a63.32,63.32,0,0,1,1.88-8.64c.59-2.58,1.36-5.12,1.78-7.72.27-1.64,1.09-1.79,2.4-1.62a6.25,6.25,0,0,1,5.66,6.09C71.44,82.57,71.38,84.6,71.38,86.62Z" transform="translate(-22.15 -16.99)"/><path class="cls-1" d="M62,61.08c0,4.06-1.22,6.23-4,7.1a5.74,5.74,0,0,1-6.45-2.07C50,64,49.9,58.56,51.42,56.28A5.73,5.73,0,0,1,57.77,54C60.75,54.76,62,56.92,62,61.08Z" transform="translate(-22.15 -16.99)"/><path class="cls-1" d="M22.27,82.63,22.15,68.5a3.87,3.87,0,0,1,2.37-3c2-1,2.88-.64,3.7,1.43a37.88,37.88,0,0,0,1.72,4.33c1.81,3.26,1.67,6.67,1.27,10.19-.12,1-.53,1.28-1.47,1.25C27.25,82.66,24.76,82.66,22.27,82.63Z" transform="translate(-22.15 -16.99)"/><path class="cls-1" d="M62.46,37.59c0-3.27.08-6.54,0-9.8-.05-1.47.39-2,1.83-1.79a17.44,17.44,0,0,0,2.8,0c.72,0,1.21.1,1.16,1,0,.71.1,1.46-1,1.35-.88-.09-1.68.28-1.66,1.19s.83,1.23,1.72,1.15c.67-.05,1,.2,1,.93s-.37.93-1,.88c-.88-.07-1.69.23-1.66,1.17s.81,1.25,1.7,1.17c.66-.05,1,.12,1,.89s-.43.89-1.06.87c-.84,0-1.69.2-1.63,1.21s.91,1.16,1.75,1.12,1,.28.94,1-.42.74-.93.71c-.87-.05-1.68.24-1.76,1.14s.74,1.29,1.6,1.22c1.06-.09,1.1.55,1.08,1.31s0,1.4,0,2.1c0,3,0,2.86-3.07,3.1-2.33.18-2.87-.6-2.72-2.8C62.61,43.68,62.46,40.63,62.46,37.59Z" transform="translate(-22.15 -16.99)"/><path class="cls-1" d="M40.05,35.33c0-5.36-.12-10.86.05-16.36.08-2.64,2.38-1.78,3.95-2,1.8-.2,1.28,1.13,1.29,2,0,4.81-.06,9.63,0,14.45,0,1.61-.5,2-2,1.88C42.37,35.24,41.29,35.33,40.05,35.33Z" transform="translate(-22.15 -16.99)"/><path class="cls-1" d="M77,76.78c-.15,1.69-.37,3.08-.36,4.47s-.57,1.48-1.7,1.52c-1.32,0-1.28-.67-1.28-1.59,0-3.84-1.61-6.78-5.21-8.34-1.09-.48-1.2-1.15-1.21-2.15,0-2.18.57-4,2.58-5.1s3-.74,3.85,1.42c1,2.45,1.92,4.91,2.89,7.35A3.66,3.66,0,0,1,77,76.78Z" transform="translate(-22.15 -16.99)"/><path class="cls-1" d="M35.83,76.49c-.24-1.24.65-2.53,1.08-3.92.52-1.7,1.18-3.37,1.78-5,1-2.87,3.11-3.25,5.22-.93,1,1.1,1.09,2.46,1.31,3.87.3,1.86-1,2.13-2.09,2.77A8.72,8.72,0,0,0,38.75,81c0,.75.44,1.74-1.07,1.78S36.28,82,36.23,81C36.16,79.61,36,78.22,35.83,76.49Z" transform="translate(-22.15 -16.99)"/><path class="cls-1" d="M37.78,54.22c0,3.6-1.39,5.5-4.12,5.59-3.14.1-4.69-2.22-4.44-6.68a4.21,4.21,0,0,1,4.94-4.25C36.59,49.2,37.77,51,37.78,54.22Z" transform="translate(-22.15 -16.99)"/><path class="cls-1" d="M83.22,54.41c0,3.6-1.65,5.55-4.53,5.39s-4.36-2.54-4-6.86a4.2,4.2,0,0,1,4.9-4.06C82.08,49.19,83.23,50.93,83.22,54.41Z" transform="translate(-22.15 -16.99)"/><path class="cls-1" d="M54,36.13a7.66,7.66,0,0,1-1.92-5.93c.14-2.79.06-5.6,0-8.4,0-1.41-.31-2.62,2-2.58s1.87,1.16,1.87,2.47c0,3-.12,6.07,0,9.09A7.18,7.18,0,0,1,54,36.13Z" transform="translate(-22.15 -16.99)"/><path class="cls-1" d="M56.49,72.59a3.28,3.28,0,0,1,.7,0c1.17.26,3.21-.69,3.25,1.17,0,1.5-.68,3.64-2.41,4.15-1.41.41-3.33.88-4.41-1.32C51.78,72.84,51.93,72.54,56.49,72.59Z" transform="translate(-22.15 -16.99)"/><path class="cls-1" d="M79.06,63c1.19.42,3.11-.79,3.44,1.38a3.72,3.72,0,0,1-3.47,4,3.65,3.65,0,0,1-3.29-3.93C75.94,62.2,77.9,63.44,79.06,63Z" transform="translate(-22.15 -16.99)"/><path class="cls-1" d="M33.61,63c1.21.4,3.12-.76,3.44,1.39a3.65,3.65,0,0,1-3.37,3.85,3.55,3.55,0,0,1-3.39-3.8C30.51,62.19,32.47,63.45,33.61,63Z" transform="translate(-22.15 -16.99)"/></svg>