<svg id="Layer_1" data-name="Layer 1" xmlns="http://www.w3.org/2000/svg" viewBox="0 0 78.59 83.62"><defs><style>.cls-1{fill:#fff;stroke:#4c4c4c;stroke-miterlimit:10;stroke-width:2.5px;}</style></defs><title>Aerospace-1</title><path class="cls-1" d="M90.62,14.44c2.31,1,2.92,2.4,2,4.83A11.24,11.24,0,0,1,91.11,22Q85.55,29.74,80,37.5a1.5,1.5,0,0,0-.27,1.43q1.58,5.87,3.08,11.75c.16.62.34.76.92.46s1.36-.56,2-.89a1.4,1.4,0,0,1,1.81.41,2.65,2.65,0,0,1,0,3.67c-1.15,1.24-2.3,2.48-3.48,3.69a1,1,0,0,0-.28,1.13c.76,2.47,1.51,4.94,2.19,7.42.19.71.46.73,1,.45.71-.36,1.45-.66,2.18-1a1.69,1.69,0,0,1,2.58,1.53,2.77,2.77,0,0,1-.62,2c-1.17,1.62-2.3,3.26-3.47,4.88a1.29,1.29,0,0,0-.22,1.27c.82,2.83,1.54,5.69,2.39,8.51a5.23,5.23,0,0,1-.65,4.49,14.22,14.22,0,0,1-1.59,2c-1,1.13-1.94,1.05-2.71-.26L78.73,80Q72.64,69.57,66.57,59.18a5.39,5.39,0,0,0-.52-.76c-1.13-1.36-2.34-1.48-3.64-.27C61.44,59,60.55,60,59.62,61Q52.8,67.91,46,74.84a1.6,1.6,0,0,0-.48,1.63c.88,4.89,1.72,9.8,2.6,14.69a1.81,1.81,0,0,1-.34,1.39A7.69,7.69,0,0,1,44,95.43a1.4,1.4,0,0,1-1.86-.66c-2.51-3.8-5.09-7.55-7.62-11.33a2.91,2.91,0,0,0-1.31-1.09c-3.87-1.65-7.73-3.33-11.59-5a1.83,1.83,0,0,1-1.28-2.24,7.58,7.58,0,0,1,1.6-3.68,2.85,2.85,0,0,1,2.64-1.14c4.63.28,9.27.44,13.91.67a1.25,1.25,0,0,0,1.23-.58q6.77-9.33,13.56-18.65c.14-.2.28-.4.41-.61,1.09-1.8.67-3.09-1.3-3.84l-34-12.87c-1.6-.61-1.83-1.58-.66-2.84.25-.28.52-.53.79-.79,2.83-2.67,3.31-2.78,7.15-2.25,2.43.34,4.89.52,7.33.8.42.05.61-.22.84-.45l4.55-4.59a1.89,1.89,0,0,1,2.29-.68A2,2,0,0,1,41.53,26c-.17.91-.37,1.81-.56,2.71-.08.42,0,.67.51.72,2.9.26,5.81.56,8.71.86a.85.85,0,0,0,.83-.43c1.17-1.55,2.38-3.06,3.55-4.61a1.69,1.69,0,0,1,2-.77,1.79,1.79,0,0,1,1.2,1.88c0,1,0,2,0,3.05,0,.53.18.66.68.71q5.93.51,11.84,1.08a1.46,1.46,0,0,0,1.29-.49c4.5-4.38,9-8.72,13.52-13.11a11.27,11.27,0,0,1,4.62-3.17Z" transform="translate(-15.7 -13.19)"/></svg>