<svg id="Layer_1" data-name="Layer 1" xmlns="http://www.w3.org/2000/svg" viewBox="0 0 72.38 72.39"><defs><style>.cls-1{fill:#4c4c4c;}</style></defs><title>Defense&amp;amp;MROServices</title><path class="cls-1" d="M19,25.44l4.82,8.44a1.2,1.2,0,0,0,.75.57L29,35.58,44.48,51l1.71-1.7L30.51,33.63a1.24,1.24,0,0,0-.56-.31l-4.32-1.09L21.52,25,25,21.52l7.19,4.11L33.32,30a1.09,1.09,0,0,0,.32.56L49.31,46.19,51,44.49,35.58,29.05l-1.12-4.5a1.2,1.2,0,0,0-.57-.75L25.44,19a1.21,1.21,0,0,0-1.44.2L19.17,24A1.21,1.21,0,0,0,19,25.44Z" transform="translate(-18.81 -18.81)"/><path class="cls-1" d="M69.1,42.57,42.57,69.1l-1.7-1.7L67.4,40.87Z" transform="translate(-18.81 -18.81)"/><path class="cls-1" d="M37.93,70a1.21,1.21,0,0,0-1-.58H29.66a1.21,1.21,0,0,0-1,.58l-3.62,6a1.2,1.2,0,0,0,0,1.24l3.62,6a1.22,1.22,0,0,0,1,.59H36.9a1.22,1.22,0,0,0,1-.59l3.62-6a1.2,1.2,0,0,0,0-1.24ZM36.21,81.51H30.34l-2.89-4.82,2.89-4.82h5.87l2.9,4.82Z" transform="translate(-18.81 -18.81)"/><path class="cls-1" d="M76.69,47.75A14.43,14.43,0,0,0,91.16,33.38a14.6,14.6,0,0,0-.44-3.6,1.21,1.21,0,0,0-1.46-.88,1.25,1.25,0,0,0-.56.32l-7.51,7.5-6-2-2-6,7.5-7.5a1.21,1.21,0,0,0,0-1.71,1.13,1.13,0,0,0-.56-.32,14.42,14.42,0,0,0-18,14,14.16,14.16,0,0,0,.29,2.83L36.1,62.51a14.06,14.06,0,0,0-2.82-.29A14.47,14.47,0,1,0,47.75,76.69a14.06,14.06,0,0,0-.29-2.82l6.32-6.33,2.76,2.77a1.21,1.21,0,0,0,1.71,0l.6-.6a1.35,1.35,0,0,1,1.92,1.91h0l-.6.6a1.21,1.21,0,0,0,0,1.71L74.55,88.31a9.73,9.73,0,0,0,13.82-13.7l-.06-.06L73.93,60.16a1.21,1.21,0,0,0-1.71,0l-.6.61a1.35,1.35,0,1,1-1.92-1.91h0l.61-.6a1.21,1.21,0,0,0,0-1.71l-2.77-2.76,6.33-6.32A14,14,0,0,0,76.69,47.75Zm4.74,41a7.27,7.27,0,0,1-2.57-.47l9.42-9.42a7.32,7.32,0,0,1-6.85,9.89ZM67.77,57.41a3.76,3.76,0,0,0,5.3,5.3L86.61,76.25l.41.46L76.71,87c-.16-.13-.31-.27-.46-.41L62.71,73.06a3.77,3.77,0,0,0-5.31-5.3l-1.93-1.93L65.84,55.48Zm4.87-12.13L45.28,72.63A1.22,1.22,0,0,0,45,73.78,12.14,12.14,0,1,1,36.19,65a1.22,1.22,0,0,0,1.15-.32L64.69,37.34A1.22,1.22,0,0,0,65,36.19,12,12,0,0,1,77.38,21.24L71,27.6a1.23,1.23,0,0,0-.29,1.24l2.41,7.23a1.19,1.19,0,0,0,.77.76l7.23,2.42A1.23,1.23,0,0,0,82.37,39l6.36-6.36c0,.23,0,.45,0,.68A12,12,0,0,1,73.78,45a1.22,1.22,0,0,0-1.15.32Z" transform="translate(-18.81 -18.81)"/><path class="cls-1" d="M81.16,79.46l-1.7,1.7L67.4,69.1l1.7-1.7Z" transform="translate(-18.81 -18.81)"/></svg>