<svg id="Layer_1" data-name="Layer 1" xmlns="http://www.w3.org/2000/svg" viewBox="0 0 105.88 106.32"><defs><style>.cls-1{fill:#fff;stroke:#4c4c4c;stroke-miterlimit:10;stroke-width:3px;}</style></defs><title>Defence</title><path class="cls-1" d="M55.67,3.54a9.61,9.61,0,0,1,1.8,3.4c1.3,3.9,2.74,7.78,3.83,11.74a60.9,60.9,0,0,1,1.21,7.55c.52,3.49,1,7,1.55,10.48.4,2.47,1.89,4.54,2.81,6.82A33.23,33.23,0,0,0,68.45,47a8.32,8.32,0,0,1,1.18,5.17c-.1.73.27,1,.87,1.31q9.07,4.1,18.11,8.26c.91.42,1,.16,1-.69a9.66,9.66,0,0,1,.31-3.74c.18-.47.36-1,1-1.07s.87.58,1.07,1.08a5,5,0,0,1,.32,1.85c0,1.18,0,2.36,0,3.54,0,.89.63,1.13,1.18,1.16s.34-.65.35-1c.06-1.45,0-2.91.1-4.36.06-.91.15-2.19,1.27-2.21s1.19,1.29,1.24,2.13c.13,2,.11,3.93.08,5.89a1.28,1.28,0,0,0,.87,1.43q2.78,1.17,5.47,2.49c.89.43,1.07.15,1.05-.72a16.75,16.75,0,0,1,.17-4c.16-.75.26-1.77,1.19-1.82s1,1,1.22,1.74a7,7,0,0,1,.17,1.52c0,5.34,0,10.69,0,16,0,1-.33,1.21-1.21,1.13s-1.66.29-1.61-1.13c.07-2.35,0-2.35-2.32-2.35-11.32,0-22.64,0-34,0-1.11,0-1.52.25-1.46,1.42.1,2,.06,4,0,6a1.35,1.35,0,0,0,1,1.54c8.56,3.11,17.09,6.27,25.65,9.38.88.32,1.32.72,1.18,1.68A9.47,9.47,0,0,0,94,100c0,2.51,0,2.51-2.34,3.23-1.42.44-2.89.77-4.27,1.32A23.93,23.93,0,0,1,77.54,106c-3.46-.11-6.92,0-10.38,0a2.13,2.13,0,0,1-1.69-.8,6.63,6.63,0,0,1-2-5.94,15,15,0,0,0,0-2.6c0-.31.21-.82-.3-.87s-.5.5-.57.85c-.34,1.77-.65,3.55-1,5.32-.24,1.35-.51,2.7-.72,4.06-.1.61-.37.84-1,.84-3.07,0-6.13,0-9.2,0-.8,0-1-.32-1.11-1-.53-3-1.1-6.1-1.67-9.15-.06-.35,0-.94-.51-.91-.66,0-.35.66-.37,1a11.33,11.33,0,0,0,0,2.47,6.73,6.73,0,0,1-2.16,6,1.79,1.79,0,0,1-1.4.68q-7.55,0-15.09,0a7.48,7.48,0,0,1-2.29-.52c-2.89-.88-5.77-1.79-8.67-2.64a1.09,1.09,0,0,1-.95-1.32c.13-1.35-.5-3,.26-4s2.38-1.06,3.62-1.52q11.49-4.24,23-8.45a1.26,1.26,0,0,0,1-1.44c0-2.17,0-4.33,0-6.49,0-.77-.25-1-1-1q-17.87,0-35.73,0c-.75,0-1.12.18-1,1,0,.39,0,.79,0,1.18.14,1-.2,1.4-1.28,1.33-1.73-.11-1.49.15-1.49-1.54,0-5.15,0-10.3,0-15.45a6.76,6.76,0,0,1,.33-2.32c.18-.51.34-1.16,1-1.16s.91.64,1.09,1.22a8.49,8.49,0,0,1,.35,2.55c0,.75,0,1.5,0,2.24s.29.91,1,.58c1.88-.89,3.77-1.76,5.68-2.59a1.06,1.06,0,0,0,.73-1.16c0-1.73,0-3.46,0-5.19A5.65,5.65,0,0,1,14.37,57c.17-.41.4-.81.91-.79s.66.38.84.74a3.82,3.82,0,0,1,.43,1.69c0,1.42,0,2.83.06,4.25,0,.34-.3,1,.39,1,.5,0,1.17-.25,1.14-1.09-.05-1.18,0-2.36,0-3.54a5.26,5.26,0,0,1,.34-2c.18-.48.38-1,1-1.05s.82.54,1,1a9.22,9.22,0,0,1,.33,3.73c0,.85,0,1.23,1,.75,6-2.8,12.06-5.54,18.11-8.27a1.15,1.15,0,0,0,.83-1.33A8.77,8.77,0,0,1,41.92,47c1.4-2.85,2.7-5.76,4-8.67.77-1.75.73-3.68,1-5.53.7-4.5,1.24-9,2-13.51a35.14,35.14,0,0,1,1.57-4.92c.94-2.83,1.67-5.73,2.79-8.5A5,5,0,0,1,55,3.54Z" transform="translate(-2.27 -2.04)"/></svg>