<svg id="Layer_1" data-name="Layer 1" xmlns="http://www.w3.org/2000/svg" viewBox="0 0 73.26 73.27"><defs><style>.cls-1{fill:#4c4c4c;}</style></defs><title>DefenseManufacturing</title><path class="cls-1" d="M46.51,18.37c.62.18,1.26.34,1.87.56a10.05,10.05,0,0,1,5.93,5.5.8.8,0,0,0,.85.57A6.88,6.88,0,0,1,62,30a.71.71,0,0,0,.82.59c1.8,0,3.6,0,5.41,0a3,3,0,0,1,.9.11,1.29,1.29,0,0,1,1,1.3,1.2,1.2,0,0,1-1,1.37,50.67,50.67,0,0,1-8.71,0c-.8-.08-1-.9-1-1.63a4,4,0,0,0-2.15-3.34,4.14,4.14,0,0,0-5.46,1.28c-.1.13-.18.28-.27.41a1.44,1.44,0,0,1-2,.45,1.4,1.4,0,0,1-.44-2,6.09,6.09,0,0,1,2.13-2.29c.53-.33.56-.64.27-1.14a7.08,7.08,0,0,0-6.21-3.85,7,7,0,0,0-6.34,3.46,9.17,9.17,0,0,0-.46.88c-.54,1.15-1,1.37-2.24,1a2.64,2.64,0,1,0-.78,5.11c5.75,0,11.49,0,17.23,0a5.89,5.89,0,0,1,.84,0,1.39,1.39,0,0,1,1.19,1.47,1.35,1.35,0,0,1-1.23,1.34,4.8,4.8,0,0,1-.66,0H35.58c-3.59,0-5.9-2.38-5.73-5.94,0-.62-.16-.78-.73-.73a18.81,18.81,0,0,0-2.48.12,4.89,4.89,0,0,0-3.95,4.8c0,2,0,4,0,6,0,.56.11.78.72.78,1.79,0,1.79,0,1.8-1.84a3.48,3.48,0,0,1,2.91-3.62,1.5,1.5,0,0,1,1.95,1c.21.87-.24,1.49-1.3,1.73a.81.81,0,0,0-.71.87v.09c-.07,1.69-.07,1.69,1.6,1.7,1.42,0,1.89.47,1.89,1.9,0,4.8,0,9.6,0,14.4,0,.69.18.88.88.88q10.15,0,20.31,0c.72,0,.86-.23.86-.9,0-4.66,0-9.32,0-14v-.58a1.49,1.49,0,0,1,2.38-1.39c2.7,1.42,5.38,2.87,8.07,4.31l1.32.68c0-1.26,0-2.41,0-3.55,0-1.53,1-2.14,2.38-1.42,2.84,1.5,5.69,3,8.51,4.54.63.34.86.32.82-.47s0-1.83,0-2.75a1.46,1.46,0,0,1,2.34-1.36l11.3,6a1.71,1.71,0,0,1,1,1.68q0,21.18,0,42.37c0,1.19-.53,1.72-1.73,1.72H20.13a1.93,1.93,0,0,1-1.76-1V40.51c.29-.28.44-.74.88-.83s.59-.52.59-1c0-2.08,0-4.16,0-6.24A7.73,7.73,0,0,1,26,25.18,30.71,30.71,0,0,1,30.93,25a1.56,1.56,0,0,0,1-.32,4.92,4.92,0,0,1,3.54-1.17,1.2,1.2,0,0,0,1.25-.67,9.78,9.78,0,0,1,4.71-3.8c.68-.26,1.39-.47,2.09-.7Zm13.64,70.4c9.21,0,18.43,0,27.64,0,.8,0,1-.19,1-1q0-19.31,0-38.62a5.61,5.61,0,0,1,0-.58.66.66,0,0,0-.42-.72q-3.93-2.09-7.85-4.19c-.53-.28-.61-.07-.6.41,0,.89,0,1.78,0,2.66,0,1.76-1,2.34-2.56,1.51Q73.09,46,68.84,43.72c-.51-.28-.73-.29-.69.39,0,.89,0,1.78,0,2.66,0,1.72-1,2.32-2.49,1.51-2.79-1.47-5.58-3-8.37-4.45-.84-.45-.84-.44-.85.54,0,4.74.06,9.49,0,14.23,0,.9-.32,1-1.1,1-7.32,0-14.65,0-22,0-1.81,0-1.76,0-1.83,1.83,0,.86.21,1,1.05,1q26.47,0,52.94,0c.3,0,.61,0,.91,0A1.34,1.34,0,0,1,87.66,64c0,.92-.66,1.36-1.91,1.36q-26.64,0-53.27,0c-.74,0-1,.17-1,.95q0,10.82,0,21.64c0,.74.2.91.92.91C41.67,88.76,50.91,88.77,60.15,88.77ZM21.22,65.48c0,5.57,0,11.14,0,16.72,0,.57.09.84.76.82C24,83,26,83,28,83c.51,0,.65-.17.65-.67q0-16.75,0-33.52c0-.55-.17-.7-.7-.69-2,0-3.94,0-5.91,0-.69,0-.88.18-.87.88C21.23,54.5,21.22,60,21.22,65.48Zm3.72-23.1H23.36c-2.17,0-2.14,0-2.16,2.16,0,.65.23.78.82.77,1.49,0,3,0,4.49,0,2.25,0,2.24,0,2.19-2.28,0-.53-.2-.65-.68-.64C27,42.4,26,42.38,24.94,42.38ZM25,88.77H26.6c2.12,0,2.1,0,2.1-2.11,0-.57-.15-.77-.74-.75-1.52,0-3,0-4.56,0-2.31,0-2.3,0-2.19,2.29,0,.42.14.58.58.57C22.86,88.76,23.94,88.77,25,88.77Z" transform="translate(-18.37 -18.37)"/><path class="cls-1" d="M75.2,80.3c-1.08,0-2.16,0-3.24,0a1.46,1.46,0,0,1-1.62-1.6c0-2.16,0-4.33,0-6.49A1.49,1.49,0,0,1,72,70.54c2.17,0,4.33,0,6.5,0a1.47,1.47,0,0,1,1.61,1.61c0,2.17,0,4.33,0,6.5a1.47,1.47,0,0,1-1.65,1.64C77.37,80.31,76.28,80.3,75.2,80.3Zm2-4.91c0-2,0-2-1.93-2s-2.08,0-2.08,2,0,2,1.93,2S77.2,77.45,77.2,75.39Z" transform="translate(-18.37 -18.37)"/><path class="cls-1" d="M47.75,80.3c-1.09,0-2.17,0-3.25,0a1.46,1.46,0,0,1-1.62-1.59c0-2.19,0-4.38,0-6.57a1.47,1.47,0,0,1,1.56-1.59q3.31,0,6.65,0a1.46,1.46,0,0,1,1.54,1.61q0,3.28,0,6.57A1.46,1.46,0,0,1,51,80.29C49.91,80.31,48.83,80.3,47.75,80.3Zm0-6.86h-.08c-2,0-2,0-2,1.93s0,2.08,2.06,2.08,2,0,2-2S49.78,73.44,47.76,73.44Z" transform="translate(-18.37 -18.37)"/><path class="cls-1" d="M61.49,80.29c-1.08,0-2.16,0-3.24,0a1.41,1.41,0,0,1-1.6-1.58q0-3.28,0-6.57a1.4,1.4,0,0,1,1.51-1.59q3.31-.06,6.65,0a1.41,1.41,0,0,1,1.52,1.59c0,2.19,0,4.38,0,6.57a1.43,1.43,0,0,1-1.59,1.59C63.65,80.31,62.57,80.29,61.49,80.29Zm0-2.84c2,0,2,0,2-1.92,0-2.09,0-2.09-2-2.09s-2,0-2,1.92C59.49,77.45,59.49,77.45,61.53,77.45Z" transform="translate(-18.37 -18.37)"/></svg>