<svg id="Layer_1" data-name="Layer 1" xmlns="http://www.w3.org/2000/svg" viewBox="0 0 67.11 74.18"><defs><style>.cls-1{fill:#4c4c4c;}</style></defs><title>DefenseElectronics</title><path class="cls-1" d="M88.55,31.29a22.07,22.07,0,0,0-.94,4.61Q85,50.6,82.52,65.31c-.46,2.66-1,5.32-1.36,8a2.26,2.26,0,0,1-1.06,1.59Q68,83.28,56,91.68a6.26,6.26,0,0,0-.49.41h-1c-3.63-2.55-7.27-5.12-10.91-7.66q-6.84-4.79-13.71-9.54a2.35,2.35,0,0,1-1.07-1.68q-2.52-14.8-5.09-29.61c-.66-3.82-1.31-7.64-2-11.46-.05-.28,0-.66-.3-.85V29.76a2.8,2.8,0,0,1,1.33-.83q11.85-4.07,23.69-8.16c2.69-.94,5.43-1.75,8.05-2.86h1c.22.27.55.28.84.38l30.9,10.64a2.8,2.8,0,0,1,1.33.83ZM55,20.32l-.82.26L43,24.42c-6.1,2.1-12.2,4.22-18.31,6.29-.66.22-.76.47-.64,1.14.59,3.19,1.1,6.4,1.65,9.59Q28.36,56.77,31,72.1a1.74,1.74,0,0,0,.75,1.24q11.31,7.84,22.58,15.72a1,1,0,0,0,1.32,0q11.29-7.92,22.64-15.77A1.52,1.52,0,0,0,79,72.23q3.47-20.22,7-40.44c.11-.65,0-.87-.62-1.07Q70.53,25.67,55.75,20.57Z" transform="translate(-21.45 -17.91)"/><path class="cls-1" d="M26.76,33.52c-.05-1,.5-1.23,1.14-1.44L39,28.26c4.95-1.71,9.92-3.4,14.87-5.13a3.17,3.17,0,0,1,2.21,0Q69,27.59,81.94,32c1.27.44,1.46.73,1.24,2q-2.5,14.58-5,29.15c-.42,2.45-.86,4.89-1.25,7.34a2.16,2.16,0,0,1-1,1.55Q66,79,56,86A1.58,1.58,0,0,1,54,86Q44,79,34.05,72.1a2.09,2.09,0,0,1-.94-1.47Q30,52.44,26.85,34.24C26.8,34,26.77,33.67,26.76,33.52Zm2.48.82c.06.36.09.52.12.67l2,11.85q1.93,11.25,3.86,22.49a2,2,0,0,0,.86,1.37Q45.24,77,54.31,83.38a1,1,0,0,0,1.39,0c5.69-4,11.36-8,17.1-11.88A4.7,4.7,0,0,0,75,68c1.83-11,3.75-22,5.67-33,.12-.7,0-1-.72-1.22q-12.1-4.12-24.17-8.3a2.18,2.18,0,0,0-1.55,0c-4,1.4-8.06,2.78-12.08,4.16s-8.06,2.77-12.08,4.17C29.72,33.93,29.14,33.88,29.24,34.34Z" transform="translate(-21.45 -17.91)"/><path class="cls-1" d="M57.45,50.31c5.43,1.48,8.89,4.82,9.78,10.41a47.7,47.7,0,0,1,.1,8c0,.78-.61,1-1.33,1H44.3c-1.39,0-1.68-.28-1.66-1.69a54.6,54.6,0,0,1,.12-7.35c.76-5.29,4.37-9,10-10.42a8.48,8.48,0,0,1-4.89-4.16,7.78,7.78,0,0,1-.34-6.3A8,8,0,0,1,62.87,41C63.68,44.84,61.89,47.93,57.45,50.31ZM55,67.45c3.09,0,6.18,0,9.27,0,.64,0,.8-.19.79-.8,0-1.49,0-3,0-4.49a10,10,0,0,0-19.9-1.51,50.28,50.28,0,0,0-.18,6c0,.62.15.8.78.79C48.82,67.43,51.91,67.45,55,67.45ZM49.34,42.61a5.66,5.66,0,1,0,11.32,0,5.66,5.66,0,0,0-11.32,0Z" transform="translate(-21.45 -17.91)"/><path class="cls-1" d="M74.52,43.05c.29-1.71.55-3.4.87-5.09.12-.59,0-.83-.59-1-1.91-.61-3.79-1.28-5.68-2-.9-.32-1.23-1.12-.76-1.77a1.14,1.14,0,0,1,1.43-.44c2.43.85,4.86,1.68,7.29,2.51a1.2,1.2,0,0,1,.9,1.47q-.56,3.24-1.12,6.48c-.13.76-.55,1.23-1.38,1.12S74.5,43.73,74.52,43.05Z" transform="translate(-21.45 -17.91)"/><path class="cls-1" d="M72.12,64.81A1.12,1.12,0,0,1,71,63.46q.87-5.22,1.81-10.44a1.07,1.07,0,0,1,1.36-1,1.14,1.14,0,0,1,.91,1.51q-.85,4.95-1.69,9.88C73.26,64.14,73.05,64.8,72.12,64.81Z" transform="translate(-21.45 -17.91)"/><path class="cls-1" d="M67.35,32.83a1.1,1.1,0,0,1-1.48,1c-1.69-.54-3.36-1.13-5-1.73A1.14,1.14,0,0,1,61.52,30c1.75.56,3.49,1.17,5.22,1.8A1,1,0,0,1,67.35,32.83Z" transform="translate(-21.45 -17.91)"/></svg>