<svg id="Layer_1" data-name="Layer 1" xmlns="http://www.w3.org/2000/svg" viewBox="0 0 85.03 75.74"><defs><style>.cls-1{fill:#4c4c4c;}</style></defs><title>MetalFabrication</title><path class="cls-1" d="M12.49,34.72c.55-.67,1-1.4,2-1.56.55-.09.31-.57.31-.87,0-4.69,0-9.37,0-14,0-.91.25-1.12,1.13-1.11,4.68,0,9.36,0,14,0,.64,0,1,.1.9.83-.49,4.15,1.36,7.8,2.43,11.62.22.78.75.45,1.17.36,2.85-.62,5.7-1.27,8.55-1.9,1-.23,1.75.3,1.66,1.36s.2,1.29,1.21,1.24a11.74,11.74,0,0,1,3.69.15,5.63,5.63,0,0,1,4.29,5.48c0,3.54,0,7.09,0,10.63,0,.64.18.89.8,1a3.37,3.37,0,0,1,2.69,3.57c0,4.78,0,9.56,0,14.34A1.26,1.26,0,0,0,57.73,67c3.26,2.77,6.51,5.57,10,8.57,0-2.65-.13-5.06,0-7.46a12.56,12.56,0,0,1,2.68-6.74L69.72,61a5.59,5.59,0,0,1-3.19-5.19q0-11.37,0-22.73a5.76,5.76,0,0,1,5.92-5.92h4.09a3.46,3.46,0,0,1,3.4,2,.73.73,0,0,0,.92.45A14.85,14.85,0,0,1,97.51,44.84a14.52,14.52,0,0,1-7.39,12.43L89,57.91s0,.06-.09.16A16.11,16.11,0,0,1,92.15,61a13.54,13.54,0,0,1,3.07,8.54c0,5.86,0,11.71,0,17.56,0,.72-.17.93-.91.93q-12.84,0-25.66,0a6.71,6.71,0,0,1-4.47-1.64q-3.27-2.79-6.49-5.62c-.42-.36-.64-.51-1,.08a3.3,3.3,0,0,1-2.91,1.47c-.72,0-1.44,0-2.15,0a3.42,3.42,0,0,1-3.44-3.49q0-13.75,0-27.51A3.25,3.25,0,0,1,50.78,48a.89.89,0,0,0,.8-1c0-3.45,0-6.89,0-10.34a3.37,3.37,0,0,0-3.65-3.64c-.81,0-1.63,0-2.44,0-.58,0-.86.14-.77.76,0,.19,0,.39,0,.58.15.88-.28,1-1.05,1-1.88-.1-3.77-.1-5.65-.16a1,1,0,0,0-1.07.51c-.25.49.25.68.48.94,1.94,2.14,3.9,4.27,5.85,6.41.17.18.43.32.4.72l-6.31-1.41-2.94-.66c-1-.21-1.19,0-1.22,1q-.06,1.95,0,3.9a2.36,2.36,0,0,1-1.77,2.67.72.72,0,0,0-.53.72,7.85,7.85,0,0,0,0,1q0,20.4,0,40.78c0,1.4.16,1.22-1.26,1.22q-6.74,0-13.46,0c-1.53,0-1.31.22-1.32-1.36q0-20.58,0-41.16c0-.7,0-1.16-.88-1.29s-1-.91-1.46-1.46Zm4.28,8.77h0c.21-.25.39-.51.61-.75l5.85-6.4c.17-.18.46-.34.37-.63s-.42-.23-.67-.23h-7.5c-.46,0-.63.14-.62.61q0,5.11,0,10.23c0,.51.18.66.68.66H28.06c.54,0,.69-.13.5-.68-.48-1.45-.93-2.9-1.36-4.37-.13-.43-.29-.54-.75-.43-1.41.35-2.84.68-4.27.94A33.35,33.35,0,0,1,16.77,43.49ZM28.62,70c0-6.57,0-13.13,0-19.7,0-.8-.2-1.07-1-1-3.19,0-6.37,0-9.56,0-.73,0-.93.2-.93.93q0,19.74,0,39.5c0,.71.17,1,.92.94q4.73-.07,9.46,0c.86,0,1.15-.19,1.15-1.11C28.6,83,28.62,76.45,28.62,70ZM74,85.34l.21.28a1.1,1.1,0,0,0,.26.06c5.88,0,11.77,0,17.65,0,.74,0,.75-.37.75-.91,0-5.13.07-10.27,0-15.41-.09-4.47-2.28-7.74-6.16-9.93a2.74,2.74,0,0,0-2-.31,11.49,11.49,0,0,1-3.88,0,.76.76,0,0,0-1,.5,3.38,3.38,0,0,1-3.24,1.94c-.91,0-1.82,0-2.73,0a1.33,1.33,0,0,0-1.18.53,12,12,0,0,0-2.37,4.43c-.68,2.46-.3,5-.39,7.47,0,.19-.13.46.32.63.19-.23.4-.52.65-.78L81.59,63.28a5.1,5.1,0,0,1,5-1.52,4.92,4.92,0,0,1,3.84,3.62A5,5,0,0,1,89,70.64q-7,7-14.07,14.07A6.9,6.9,0,0,1,74,85.34Zm4-40.92V42.76c0-3.87,0-7.74,0-11.61,0-1.18-.34-1.66-1.29-1.68-1.56,0-3.12-.06-4.68,0a3.37,3.37,0,0,0-3.2,3.41c0,.88,0,1.76,0,2.63,0,.67.24.84.85.81.81,0,1.63,0,2.44,0A3.47,3.47,0,0,1,75.7,40c0,1.59,0,3.19,0,4.78,0,1-.59.8-1.14.79s-1.27.23-1.22-.83c.07-1.53,0-3.06,0-4.59,0-1.13-.38-1.49-1.53-1.51-.72,0-1.44,0-2.15,0s-.89.18-.88.87q0,4.88,0,9.75c0,.65.13,1,.85.89s1.5,0,2.24,0c1.11,0,1.47-.34,1.45-1.46,0-.7.22-.94.89-.86a6.4,6.4,0,0,0,1,0c.32,0,.42.14.47.46a3.57,3.57,0,0,1-3.47,4.17c-.91,0-1.82,0-2.73,0-.51,0-.69.17-.67.68,0,.91,0,1.82,0,2.73A3.36,3.36,0,0,0,72.3,59.3c1.33,0,2.67,0,4,0S78,59,78,57.58ZM68.66,85.68A4.39,4.39,0,0,0,72,84.38c2.47-2.44,4.91-4.92,7.39-7.35.42-.41.35-.63,0-1-1-1-2.06-2-3-3-.49-.54-.78-.42-1.22,0-1.26,1.31-2.57,2.58-3.85,3.87-.86.85-.88.88.06,1.67.49.41.55.72.06,1.14a2.83,2.83,0,0,0-.51.58c-.34.55-.63.45-1.06.07-1.93-1.7-3.89-3.36-5.83-5l-8.36-7.16a3.07,3.07,0,0,0-4.83.72,2.82,2.82,0,0,0,.92,3.56q6.9,6,13.83,12A4.44,4.44,0,0,0,68.66,85.68ZM95.22,44.44A10.92,10.92,0,0,0,95,42.3,12.71,12.71,0,0,0,81.5,31.81c-.83.08-1.3.31-1.19,1.28a17.8,17.8,0,0,1,0,2.53c0,.48.11.69.65.72.82,0,1.85-.4,2.42.24a6.74,6.74,0,0,1,.88,2.34l.06.19a1.27,1.27,0,0,0,.92,1,4.35,4.35,0,0,1,3.07,4.11,4.29,4.29,0,0,1-2.61,4.31c-.67.32-.74.65-.55,1.27a7.79,7.79,0,0,0,4,4.58,1,1,0,0,0,1.29-.09A12.66,12.66,0,0,0,95.22,44.44Zm-72.33-25c-1.66,0-3.31,0-5,0-.57,0-.8.13-.79.75,0,2.37,0,4.74,0,7.11,0,.53.19.7.7.81Q22,29,26.17,30c.63.14.88,0,1.13-.65a21.32,21.32,0,0,0,1.28-9.16c0-.63-.28-.75-.83-.74C26.13,19.49,24.51,19.47,22.89,19.47Zm.7,12.46c1,1.12,1.77,2.1,2.67,2.91s.69,1.23-.05,1.92-1.58,1.71-2.37,2.58a18.31,18.31,0,0,0,3.86-.64c.79-.22,1.1,0,1.3.77.32,1.23.75,2.43,1.13,3.65a21.79,21.79,0,0,0,1.44-3.88c.16-.56.43-.73,1-.59,1.1.27,2.21.51,3.32.76.19,0,.4.35.58,0s-.08-.42-.24-.59c-.7-.77-1.36-1.58-2.12-2.28s-.65-1,0-1.56a16.11,16.11,0,0,0,1.58-1.72c.34-.39.82-.67,1-1.31-1.41.31-2.72.54-4,.89-.72.2-1,0-1.14-.69-.35-1.29-.8-2.54-1.21-3.81A24.33,24.33,0,0,0,29,32.07c-.2.72-.44,1-1.28.78C26.47,32.47,25.16,32.27,23.59,31.93ZM87.4,56l-.79-.57a9.43,9.43,0,0,1-4-7.81c0-.74.16-1,1-1A2.24,2.24,0,0,0,86,44.41a2.26,2.26,0,0,0-2.48-2.28.77.77,0,0,1-.87-.68c-.22-.78-.53-1.54-.76-2.31s-.67-.48-1.1-.5-.5.3-.5.65q0,8.41,0,16.85c0,.41.1.7.55.75A12.28,12.28,0,0,0,87.4,56Zm-2,7.92a2.44,2.44,0,0,0-1.88.68c-2,1.91-3.86,3.85-5.81,5.77-.3.3-.31.5,0,.8C78.84,72.29,80,73.4,81,74.51c.28.28.5.33.8,0,1.92-1.94,3.89-3.84,5.77-5.82a2.65,2.65,0,0,0,.4-3.17A2.72,2.72,0,0,0,85.42,64ZM50.49,60.28c0,1.62,0,3.25,0,4.87,0,.48.09.66.61.41a5,5,0,0,1,3.22-.42c.54.11.74,0,.73-.63q0-4.53,0-9.06c0-.58-.22-.71-.75-.7-1,0-2,0-3,0-.68,0-.82.25-.81.86C50.51,57.16,50.49,58.72,50.49,60.28Zm0,14.22c0,1.66,0,3,0,4.36a1,1,0,0,0,1,1.1A14.14,14.14,0,0,0,54,80a1,1,0,0,0,.74-1.7C53.45,77,52.07,75.87,50.49,74.5Zm2.29-22h1.16c1.11,0,1.33-.27,1.07-1.39a1.15,1.15,0,0,0-1.2-.92c-.71,0-1.43,0-2.13,0-.89,0-1.2.55-1.21,1.63s.67.63,1.15.67A11.2,11.2,0,0,0,52.78,52.45ZM21.37,33.16l-4.23-4.61v4c0,.32,0,.58.46.57Zm18-.22c.88,0,1.5,0,2.1,0,.78.08,1.07-.22,1-1,0-.19,0-.39,0-.58s.16-.63-.25-.74a.83.83,0,0,0-.89.19C40.66,31.49,40.08,32.12,39.33,32.94Z" transform="translate(-12.49 -17.13)"/><path class="cls-1" d="M72.43,42.41A1.07,1.07,0,0,1,71.3,43.6a1,1,0,0,1-1.09-1.1,1.11,1.11,0,0,1,2.22-.09Z" transform="translate(-12.49 -17.13)"/><path class="cls-1" d="M16.77,43.49l-.06.11s0-.05,0-.06l.07,0Z" transform="translate(-12.49 -17.13)"/></svg>