<svg id="Layer_1" data-name="Layer 1" xmlns="http://www.w3.org/2000/svg" viewBox="0 0 72.03 85.82"><defs><style>.cls-1{fill:#4c4c4c;}</style></defs><title>MRO&amp;amp;ServiceProviders</title><path class="cls-1" d="M19,91V63.27c2.52,0,5.05,0,7.57,0a1.22,1.22,0,0,0,1.08-.65c1.19-1.6,1.6-3.22.36-5a.59.59,0,0,1-.12-.27c-.11-.72-.61-1-1.25-1.2-1.41-.43-2.79-.94-4.2-1.38a.79.79,0,0,1-.67-.89c0-4.82,0-9.65,0-14.47a.86.86,0,0,1,.75-.95c.94-.29,1.85-.7,2.8-.9a3.4,3.4,0,0,0,3.06-2.8,2.74,2.74,0,0,1,.4-.89,1.17,1.17,0,0,0,0-1.28c-.7-1.34-1.33-2.71-2-4a1,1,0,0,1,.25-1.44c2.9-2.85,5.76-5.74,8.64-8.61.62-.63,1.19-1.56,1.94-1.74s1.72.54,2.44,1.05a4.91,4.91,0,0,0,5.94.25,1.66,1.66,0,0,0,.87-.95c.46-1.47,1-2.92,1.45-4.39a.85.85,0,0,1,1-.71q7.19,0,14.36,0c.54,0,.85.14,1,.69.2.76.56,1.48.72,2.24.4,2,1.33,3.49,3.5,3.88a1.13,1.13,0,0,1,.45.2,1.07,1.07,0,0,0,1.19,0c1.39-.73,2.82-1.4,4.21-2.13a.78.78,0,0,1,1.1.14Q80.84,22.24,86,27.38a.75.75,0,0,1,.17,1c-.42.78-.72,1.63-1.21,2.36a4,4,0,0,0-.2,4.94,1.62,1.62,0,0,1,.22.54,1.12,1.12,0,0,0,.86.83c1.47.47,2.92,1,4.39,1.43a.91.91,0,0,1,.78,1q0,7.18,0,14.37a.84.84,0,0,1-.73,1,26.74,26.74,0,0,1-2.71.88,3.6,3.6,0,0,0-3.24,3,2.21,2.21,0,0,1-.32.72,1.17,1.17,0,0,0,0,1.28c.71,1.33,1.33,2.7,2,4a1,1,0,0,1-.23,1.44c-2.54,2.51-5,5.05-7.56,7.6C77,75.1,75.57,76.27,75,78.11c-.11.35-.18.55,0,.86a4,4,0,0,1,0,4.62.77.77,0,0,0,0,1A4.13,4.13,0,0,1,71.33,91c-2.59,0-5.18,0-7.77,0C62,91,62,91,61.9,92.58a5.53,5.53,0,0,1-11-.23c0-1.45.26-1.34-1.37-1.34s-3.55,0-5.32,0a1.73,1.73,0,0,1-1.38-.58c-1-1-2-2-3.05-3.07a1.34,1.34,0,0,0-1-.52c-3.12,0-6.23,0-9.35,0-.5,0-.71.17-.69.68,0,.86-.05,1.71,0,2.56s-.24.94-1,.93C24.82,91,21.9,91,19,91ZM75.21,72.89c2.49-2.48,5-5,7.45-7.43a.77.77,0,0,0,.13-1c-.64-1.22-1.22-2.47-1.86-3.69a1.19,1.19,0,0,1,0-1.27A23,23,0,0,0,82.77,55a1.21,1.21,0,0,1,.92-.89c1.25-.39,2.47-.86,3.73-1.23a1,1,0,0,0,.83-1.09c0-3.41,0-6.82,0-10.23a.92.92,0,0,0-.74-1.06c-1.29-.38-2.55-.86-3.83-1.25a1.2,1.2,0,0,1-.9-.91A22.61,22.61,0,0,0,81,34a1.35,1.35,0,0,1,0-1.46c.62-1.15,1.17-2.35,1.78-3.5a.86.86,0,0,0-.17-1.2c-2.48-2.44-4.93-4.9-7.38-7.38a.81.81,0,0,0-1.11-.18c-1.19.63-2.41,1.2-3.6,1.82a1.28,1.28,0,0,1-1.37,0,23.27,23.27,0,0,0-4.44-1.85,1.21,1.21,0,0,1-.88-.93c-.4-1.28-.87-2.54-1.26-3.83-.16-.55-.44-.69-1-.69-3.45,0-6.89,0-10.33,0a.9.9,0,0,0-1,.77c-.39,1.29-.86,2.54-1.26,3.83a1.14,1.14,0,0,1-.83.85,23.34,23.34,0,0,0-4.44,1.84,1.32,1.32,0,0,1-1.38,0c-1.16-.61-2.35-1.16-3.51-1.78a.92.92,0,0,0-1.28.2q-3.61,3.68-7.3,7.3a.86.86,0,0,0-.19,1.2c.64,1.21,1.22,2.46,1.86,3.68a1.13,1.13,0,0,1,0,1.19A22.06,22.06,0,0,0,30,38.35a1.3,1.3,0,0,1-1,.95c-1.26.38-2.48.84-3.74,1.22a.92.92,0,0,0-.76,1q0,5.16,0,10.33a.86.86,0,0,0,.72,1c1.23.38,2.42.83,3.65,1.19a1.5,1.5,0,0,1,1.16,1.15,8.48,8.48,0,0,0,1,2.55c1.21,1.74.94,3.25-.22,4.87A33.78,33.78,0,0,0,29,66H40.57c-5.47-4.8-8.6-10.64-9-17.77a24.19,24.19,0,0,1,6.73-18.6,24.79,24.79,0,0,1,32.61-3.16,23.77,23.77,0,0,1,9.8,14.83c2,9.83-1,18.06-8.47,24.75,3.4,1.24,4.34,3.54,2.81,6.62-.12.11-.36.23-.15.41S75.13,73,75.21,72.89ZM50.85,71.15,50.62,71l-2.73,2.77c-1.28,1.3-1.26,1.27-2.55,0-.53-.51-.64-.81-.05-1.38,2-1.89,3.88-3.83,5.78-5.77a1.87,1.87,0,0,1,1.47-.6q6.59,0,13.18,0c1.12,0,1.68-.46,1.71-1.33s-.6-1.43-1.73-1.43c-5.44,0-10.88,0-16.32,0a1.59,1.59,0,0,0-1.28.57c-1.4,1.42-2.85,2.81-4.23,4.26a2.25,2.25,0,0,1-1.81.73c-4.1,0-8.2,0-12.3,0-.76,0-1.1.14-1.09,1q.06,6.65,0,13.28c0,.79.25,1,1,1,3.25,0,6.5,0,9.74,0a2,2,0,0,1,1.63.69c1,1,2,2,3,3a1.34,1.34,0,0,0,1,.49c1.7,0,3.41,0,5.11,0,.5,0,.7-.14.7-.67Q50.85,79.36,50.85,71.15Zm3.48-32.29v2.55c0,2.54,0,2.54,2.51,2.54,1.45,0,1.61-.16,1.61-1.66V35.11c0-.41-.09-.83.58-.92a7.39,7.39,0,0,1,8.41,7.35c0,2.13,0,4.26,0,6.39a1.63,1.63,0,0,1-.54,1.29c-1.5,1.47-3,3-4.46,4.45a1.39,1.39,0,0,0-.55,1.09c0,1.7,0,3.41,0,5.11,0,.25-.06.64.3.62,1.39-.1,2.83.46,4.16-.55A16.57,16.57,0,0,0,52.91,30.49c-6.89,1.6-11.34,6-12.75,12.93s1,12.44,6.52,16.7a1.55,1.55,0,0,0,1.06.42c.79,0,1.58,0,2.36,0,.63,0,.79-.22.76-.8a19.4,19.4,0,0,1,0-3.05,4.41,4.41,0,0,0-1.74-4.26c-1.35-1.13-3-2.29-3.61-3.81s-.2-3.54-.2-5.34A14.26,14.26,0,0,1,45.47,40c.93-3.75,3.78-5.81,7.91-5.77.71,0,1,.19,1,.94C54.29,36.36,54.33,37.61,54.33,38.86Zm15.87,25a1.07,1.07,0,0,0,.3-.13,7.22,7.22,0,0,0,.6-.5,21.78,21.78,0,0,0,7.37-15.16c.94-13.85-11.33-25.37-25-23.3-9.24,1.4-15.57,6.72-18.21,15.69s-.12,16.68,6.73,23c1.38,1.28,1.39,1.21,2.74-.07.6-.56.6-.81-.07-1.36-5.86-4.73-8.42-10.86-7.33-18.33A19.36,19.36,0,1,1,69.45,61c-.24.22-.82.4-.33.9A6.31,6.31,0,0,1,70.2,63.87Zm-18.65-23c0-1,0-2,0-3.05,0-.8-.32-.95-.93-.54a5,5,0,0,0-2.52,4.1c0,1.8,0,3.61,0,5.41A1.5,1.5,0,0,0,48.57,48c1.27,1.23,2.52,2.49,3.75,3.75a1.4,1.4,0,0,0,1.12.48c2,0,3.94,0,5.9,0a1.43,1.43,0,0,0,1.12-.49c1.21-1.24,2.44-2.48,3.68-3.68a1.61,1.61,0,0,0,.54-1.3c0-1.74,0-3.48,0-5.21a5.07,5.07,0,0,0-2.37-4.19c-.25-.19-.57-.43-.89-.24s-.18.53-.18.81c0,1.8,0,3.61,0,5.41a2.73,2.73,0,0,1-.82,2A3.52,3.52,0,0,1,57,46.73a10.4,10.4,0,0,0-2.16,0A2.45,2.45,0,0,1,53,46a3.56,3.56,0,0,1-1.42-3.51A11.73,11.73,0,0,0,51.55,40.88ZM25.92,77.14V67.41c0-1.35,0-1.35-1.4-1.35a17.42,17.42,0,0,1-1.77,0c-.77-.07-1,.2-1,1,0,3,0,6.09,0,9.14V87c0,1.25,0,1.25,1.29,1.25.62,0,1.25,0,1.87,0s1-.2,1-1C25.89,83.89,25.92,80.52,25.92,77.14Zm27.7,3.74c0,3.81,0,7.61,0,11.42a2.75,2.75,0,0,0,5.42.76,13.14,13.14,0,0,0,.1-1.67.87.87,0,0,0-.54-.92,4,4,0,0,1-1.52-5.88.81.81,0,0,0,0-1,3.83,3.83,0,0,1,0-4.44A.93.93,0,0,0,57,77.9a3.79,3.79,0,0,1-.62-2.33c0-1,.84-1.74.86-2.54s-.83-1.64-.88-2.63c0-.51.43-1.17,0-1.45s-1.07-.1-1.63-.12a1.21,1.21,0,0,1-.19,0c-.75-.12-.94.21-.93.94C53.64,73.47,53.62,77.18,53.62,80.88ZM66,77.16c1.73,0,3.47,0,5.21,0,1.15,0,1.75-.51,1.74-1.4s-.6-1.36-1.69-1.36q-5.2,0-10.41,0c-1.07,0-1.7.53-1.72,1.35s.64,1.4,1.76,1.41C62.61,77.17,64.32,77.16,66,77.16Zm0-5.56c1.74,0,3.47,0,5.21,0,1.15,0,1.74-.51,1.72-1.41s-.61-1.35-1.7-1.35c-3.47,0-6.94,0-10.41,0-1.05,0-1.68.55-1.69,1.37s.61,1.38,1.66,1.39C62.56,71.61,64.3,71.6,66,71.6Zm0,8.33c-1.7,0-3.41,0-5.11,0-1.13,0-1.77.53-1.75,1.39s.64,1.36,1.7,1.37H71.28c1.08,0,1.67-.52,1.68-1.37s-.58-1.39-1.74-1.39C69.49,79.92,67.75,79.93,66,79.93Zm0,5.54H60.86c-1.06,0-1.69.51-1.7,1.34s.63,1.41,1.66,1.41c3.5,0,7,0,10.51,0,1,0,1.65-.55,1.63-1.41s-.58-1.34-1.69-1.34ZM59.14,58c0-.92,0-1.68,0-2.43,0-.42-.15-.58-.57-.58-1.44,0-2.89,0-4.33,0-.47,0-.63.16-.62.63,0,1.44,0,2.88,0,4.33,0,.42.15.58.57.57.76,0,1.51,0,2.26,0s1.94.35,2.48-.15S59,58.71,59.14,58Z" transform="translate(-18.99 -12.09)"/><path class="cls-1" d="M79.85,78.69c-.1.15-.24.39-.42.23s0-.36.18-.5Z" transform="translate(-18.99 -12.09)"/></svg>