<svg id="Layer_1" data-name="Layer 1" xmlns="http://www.w3.org/2000/svg" viewBox="0 0 75.64 76.33"><defs><style>.cls-1{fill:#fefefe;}</style></defs><title>Aerospace&amp;amp;MROServices-01</title><path class="cls-1" d="M17.52,79.33q0-30.73,0-61.46c0-.6.12-.72.72-.72q37.1,0,74.2,0c.6,0,.72.12.72.72q0,37.46,0,74.9c0,.6-.12.72-.72.72q-37.1,0-74.2,0c-.6,0-.72-.12-.72-.72,0-3.84,0-7.68,0-11.52.2.1.15.29.18.45a8,8,0,0,0,2,4.26c1.68,1.73,3.38,3.46,5.14,5.1a8.17,8.17,0,0,0,10.43.4C38,89.3,40.49,87,43.09,84.76a7.61,7.61,0,0,0,1.58-2c2.23-3.75,4.48-7.47,6.71-11.22a1.85,1.85,0,0,1,1.12-.87c1.33-.41,2.64-.87,4-1.33s1.61-1.47.59-2.49Q50.48,60.32,43.9,53.75c-1.1-1.1-2.09-.87-2.61.61-.43,1.23-.85,2.46-1.22,3.71A2.23,2.23,0,0,1,39,59.45q-5.31,3.16-10.59,6.38a9.09,9.09,0,0,0-2.23,1.5q-3.23,3.73-6.44,7.46a8.67,8.67,0,0,0-2,4.09C17.68,79,17.73,79.24,17.52,79.33Zm61.4,11.39A12.23,12.23,0,0,0,83.33,90c1.62-.56,1.85-1.54.63-2.76-2.42-2.43-4.84-4.87-7.29-7.27-.4-.4-.42-.6,0-1,1.47-1.41,2.92-2.84,4.32-4.32.48-.51.7-.39,1.12,0C84.53,77.1,87,79.54,89.44,82c1,1,2.09.78,2.59-.6A14.18,14.18,0,0,0,75.1,62.85a1.23,1.23,0,0,1-1.37-.36q-4.44-4.5-9-9c-.53-.52-.4-.76,0-1.2,3.37-3.34,6.75-6.68,10.06-10.07A16.81,16.81,0,0,1,79.22,39c1.84-.94,3.6-2,5.41-3a2.17,2.17,0,0,0,1-1c1.14-2.29,2.26-4.58,3.43-6.85a1.44,1.44,0,0,0-.31-1.88c-1.44-1.43-2.89-2.87-4.32-4.32a1.44,1.44,0,0,0-1.83-.26c-2.12,1.06-4.24,2.15-6.38,3.19a3.67,3.67,0,0,0-1.66,1.6C73.29,28.76,72,31,70.76,33.27a4.56,4.56,0,0,1-.66.92q-6,5.94-11.91,11.92c-.36.37-.53.3-.86,0q-4.86-4.89-9.75-9.75a.94.94,0,0,1-.26-1.07,13.8,13.8,0,0,0,.31-6A13.6,13.6,0,0,0,43,20.9a13.87,13.87,0,0,0-14.33-2.65,1.34,1.34,0,0,0-1,1.63A2.17,2.17,0,0,0,28.45,21q3.54,3.56,7.1,7.09c.45.44.53.68,0,1.16q-2.17,2.07-4.26,4.25c-.43.45-.66.43-1.08,0-2.47-2.5-5-5-7.47-7.47a1.37,1.37,0,0,0-2.41.52,13.68,13.68,0,0,0-.67,7.62A14.19,14.19,0,0,0,37.37,45.22a1,1,0,0,1,1.13.33Q51.6,58.68,64.73,71.78a.9.9,0,0,1,.28,1,13.6,13.6,0,0,0-.38,5.68A14.22,14.22,0,0,0,78.92,90.72Z" transform="translate(-17.5 -17.15)"/><path d="M17.52,79.33c.21-.09.16-.29.19-.45a8.67,8.67,0,0,1,2-4.09q3.22-3.72,6.44-7.46a9.09,9.09,0,0,1,2.23-1.5Q33.68,62.62,39,59.45a2.23,2.23,0,0,0,1.08-1.38c.37-1.25.79-2.48,1.22-3.71.52-1.48,1.51-1.71,2.61-.61q6.57,6.57,13.15,13.15c1,1,.78,2-.59,2.49s-2.63.92-4,1.33a1.85,1.85,0,0,0-1.12.87c-2.23,3.75-4.48,7.47-6.71,11.22a7.61,7.61,0,0,1-1.58,2C40.49,87,38,89.3,35.3,91.46a8.17,8.17,0,0,1-10.43-.4c-1.76-1.64-3.46-3.37-5.14-5.1a8,8,0,0,1-2-4.26c0-.16,0-.35-.18-.45Zm12.77,11a5.47,5.47,0,0,0,4-1.52c1.62-1.42,3.29-2.78,4.87-4.23a14.38,14.38,0,0,0,3-2.88q3.7-6.15,7.38-12.32a2,2,0,0,1,1.16-1c.86-.25,1.7-.57,2.56-.84.47-.15.46-.32.13-.64A19.93,19.93,0,0,1,51.6,65.2c-.54-.66-.88-.51-1.42,0q-11,11.08-22.12,22.15c-.35.34-.69.71-1.06,1s-.49.6.05,1A5.52,5.52,0,0,0,30.29,90.38Zm-10-10.08a5.29,5.29,0,0,0,.59,2.63c.39.87.48.88,1.15.2L45.13,60.06l.31-.31c.23-.2.29-.4,0-.65l-1.79-1.79c-.34-.34-.47-.14-.57.2-.21.63-.46,1.25-.63,1.9a3.24,3.24,0,0,1-1.64,2.09c-4,2.35-7.91,4.75-11.86,7.14a4.88,4.88,0,0,0-1.21,1c-1.68,2-3.38,3.92-5.08,5.87C21.47,76.88,20.21,78.27,20.32,80.3Zm29.1-17.45c-.44-.37-.88-.71-1.28-1.09-.82-.79-.81-.8-1.59,0L24.48,83.82c-.5.51-1.4,1-1.36,1.56s.9,1,1.34,1.52.62.36,1,0c2.9-2.93,5.83-5.85,8.75-8.76L48.76,63.56C48.94,63.38,49.11,63.19,49.42,62.85Z" transform="translate(-17.5 -17.15)"/><path d="M78.92,90.72A14.22,14.22,0,0,1,64.63,78.51,13.6,13.6,0,0,1,65,72.83a.9.9,0,0,0-.28-1Q51.6,58.67,38.5,45.55a1,1,0,0,0-1.13-.33A14.19,14.19,0,0,1,19.69,34.16a13.68,13.68,0,0,1,.67-7.62A1.37,1.37,0,0,1,22.77,26c2.5,2.48,5,5,7.47,7.47.42.44.65.46,1.08,0q2.09-2.18,4.26-4.25c.5-.48.42-.72,0-1.16Q32,24.57,28.45,21a2.17,2.17,0,0,1-.79-1.12,1.34,1.34,0,0,1,1-1.63A13.87,13.87,0,0,1,43,20.9a13.6,13.6,0,0,1,4.66,8.33,13.8,13.8,0,0,1-.31,6,.94.94,0,0,0,.26,1.07q4.89,4.86,9.75,9.75c.33.33.5.4.86,0q5.94-6,11.91-11.92a4.56,4.56,0,0,0,.66-.92C72,31,73.29,28.76,74.52,26.5a3.67,3.67,0,0,1,1.66-1.6c2.14-1,4.26-2.13,6.38-3.19a1.44,1.44,0,0,1,1.83.26c1.43,1.45,2.88,2.89,4.32,4.32A1.44,1.44,0,0,1,89,28.17c-1.17,2.27-2.29,4.56-3.43,6.85a2.17,2.17,0,0,1-1,1c-1.81,1-3.57,2.06-5.41,3a16.81,16.81,0,0,0-4.34,3.29C71.57,45.66,68.19,49,64.82,52.34c-.44.44-.57.68,0,1.2q4.52,4.44,9,9a1.23,1.23,0,0,0,1.37.36A14.18,14.18,0,0,1,92,81.39c-.5,1.38-1.55,1.63-2.59.6C87,79.54,84.53,77.1,82.1,74.63c-.42-.42-.64-.54-1.12,0-1.4,1.48-2.85,2.91-4.32,4.32-.41.41-.39.61,0,1,2.45,2.4,4.87,4.84,7.29,7.27,1.22,1.22,1,2.2-.63,2.76A12.23,12.23,0,0,1,78.92,90.72ZM31.56,20.25c.32.34.51.55.71.75l6.17,6.18c1.26,1.26,1.27,1.69,0,2.94-2.12,2.12-4.25,4.23-6.36,6.36-1,1.05-1.63,1.06-2.69,0l-6.55-6.54c-.13-.13-.23-.39-.47-.27s-.16.3-.16.47a19.38,19.38,0,0,0,.05,3A11.44,11.44,0,0,0,37.55,42.3a1.7,1.7,0,0,1,2,.44l28,28A1.66,1.66,0,0,1,68,72.57c-1.54,4.61-.7,8.73,2.74,12.18a11.17,11.17,0,0,0,10.07,3.12c-.3-.32-.49-.53-.69-.73l-6.35-6.36c-1.06-1.07-1.08-1.57,0-2.63q3.32-3.34,6.66-6.67c.92-.91,1.5-.89,2.43,0L89.27,78c.19.19.34.47.66.53a10.31,10.31,0,0,0,0-4.32,11.46,11.46,0,0,0-15.09-8.43,1.78,1.78,0,0,1-2.1-.49l-27.95-28a1.52,1.52,0,0,1-.39-1.8A11.47,11.47,0,0,0,31.56,20.25ZM62.37,51.18c.25-.31.41-.6.63-.82L74.41,38.94a7.49,7.49,0,0,1,1.79-1.36c2.14-1.16,4.25-2.37,6.38-3.56a2,2,0,0,0,.93-.87c.8-1.65,1.61-3.28,2.45-4.91a.75.75,0,0,0-.15-1.06c-.79-.73-1.56-1.49-2.28-2.28-.36-.39-.63-.34-1-.13-1.57.81-3.16,1.6-4.75,2.37a2.34,2.34,0,0,0-1,1c-1.17,2.14-2.37,4.26-3.55,6.39a7.8,7.8,0,0,1-1.35,1.79C67.94,40.15,64.11,44,60.25,47.84c-.45.44-.53.7,0,1.15C60.94,49.63,61.57,50.36,62.37,51.18Z" transform="translate(-17.5 -17.15)"/></svg>