<svg id="Layer_1" data-name="Layer 1" xmlns="http://www.w3.org/2000/svg" viewBox="0 0 72.81 72.81"><defs><style>.cls-1{fill:#fff;}</style></defs><title>B1</title><path id="Shape" class="cls-1" d="M56.82,44.6H71.38A2,2,0,0,0,73,41.69L65.7,27.41a1.76,1.76,0,0,0-3.19,0L55.23,41.69a2,2,0,0,0,0,1.89,2,2,0,0,0,1.6,1Zm6-13a1.3,1.3,0,1,1,2.6,0v3.9a1.3,1.3,0,0,1-2.6,0Zm1.3,7.8a1.3,1.3,0,1,1-1.3,1.3A1.3,1.3,0,0,1,64.1,39.4Z" transform="translate(-18.59 -18.59)"/><circle id="Oval" class="cls-1" cx="16.9" cy="13" r="2.6"/><path class="cls-1" d="M18.59,19.89V61.5a1.3,1.3,0,0,0,1.3,1.3H58.94A19.45,19.45,0,0,1,78.4,55.39V19.89a1.3,1.3,0,0,0-1.3-1.3H19.89A1.31,1.31,0,0,0,18.59,19.89ZM35.5,60.2H26.39a1.3,1.3,0,0,1,0-2.6H35.5a1.3,1.3,0,1,1,0,2.6ZM44.6,55H26.39a1.3,1.3,0,0,1,0-2.6H44.6a1.3,1.3,0,0,1,0,2.6Zm28.6-2.6H55a1.3,1.3,0,1,1,0-2.6H73.2a1.3,1.3,0,0,1,0,2.6ZM52.92,40.51,60.2,26.23a4.36,4.36,0,0,1,7.82,0L75.3,40.51a4.55,4.55,0,0,1-3.92,6.69H56.82a4.56,4.56,0,0,1-3.9-6.69ZM21.19,23.79a2.61,2.61,0,0,1,2.6-2.6H47.2a2.61,2.61,0,0,1,2.6,2.6V47.2a2.61,2.61,0,0,1-2.6,2.6H23.79a2.61,2.61,0,0,1-2.6-2.6Z" transform="translate(-18.59 -18.59)"/><path class="cls-1" d="M35.5,42a6.5,6.5,0,0,0-6.37,5.2H41.87A6.51,6.51,0,0,0,35.5,42Z" transform="translate(-18.59 -18.59)"/><path class="cls-1" d="M35.5,39.4a9.1,9.1,0,0,1,9,7.8H47.2V23.79H23.79V47.2H26.5A9.11,9.11,0,0,1,35.5,39.4Zm0-13a5.21,5.21,0,1,1-5.2,5.21A5.2,5.2,0,0,1,35.5,26.39Z" transform="translate(-18.59 -18.59)"/><path class="cls-1" d="M66.7,73.2a1.3,1.3,0,0,0-1.3,1.3v2.6a1.3,1.3,0,0,0,2.6,0V74.5A1.3,1.3,0,0,0,66.7,73.2Z" transform="translate(-18.59 -18.59)"/><path class="cls-1" d="M81,77.1a1.31,1.31,0,0,0,2.61,0V74.5a1.31,1.31,0,0,0-2.61,0Z" transform="translate(-18.59 -18.59)"/><path class="cls-1" d="M57.6,74.5A16.91,16.91,0,1,0,74.5,57.6,16.91,16.91,0,0,0,57.6,74.5Zm26-5.2v1.54a3.91,3.91,0,0,1,2.6,3.66v2.6a3.91,3.91,0,0,1-7.81,0V74.5A3.91,3.91,0,0,1,81,70.84V69.3a6.5,6.5,0,0,0-13,0v1.54a3.89,3.89,0,0,1,2.6,3.66v2.6A3.89,3.89,0,0,1,68,80.77V82.3a1.31,1.31,0,0,0,1.3,1.31h2.6a1.3,1.3,0,0,1,0,2.6H69.3a3.91,3.91,0,0,1-3.9-3.91V80.77a3.92,3.92,0,0,1-2.6-3.67V74.5a3.91,3.91,0,0,1,2.6-3.66V69.3a9.11,9.11,0,0,1,18.21,0Z" transform="translate(-18.59 -18.59)"/></svg>