<svg id="Layer_1" data-name="Layer 1" xmlns="http://www.w3.org/2000/svg" viewBox="0 0 84.68 74.82"><defs><style>.cls-1{fill:#fff;}</style></defs><title>B2</title><path class="cls-1" d="M93.7,64.31H92.14a8.13,8.13,0,0,1-4.73-1.91L81.2,56.46a8.19,8.19,0,0,0-5.17-2,3.85,3.85,0,0,0-.49,0L57.92,56.2a21,21,0,0,1-2.11.09,29.62,29.62,0,0,1-3.69-.22l-9.95-1.43a6.23,6.23,0,0,0-.77,0,8.31,8.31,0,0,0-5,1.72l-7.59,6.45a14.09,14.09,0,0,1-4.93,2.49l-7.81,1.81a4.61,4.61,0,0,0-3.42,4.3V81.43a3.65,3.65,0,0,0,3.64,3.64h5.82a10.19,10.19,0,0,0,19.56,0h22a10.18,10.18,0,0,0,19.55,0H93.7a3.65,3.65,0,0,0,3.64-3.64V68A3.68,3.68,0,0,0,93.7,64.31Zm-61.8,23A5.06,5.06,0,1,1,37,82.22,5.05,5.05,0,0,1,31.9,87.28Zm24.53-22H35.24c-1.33,0-1.52-.62-.43-1.37l5-3.45a9.08,9.08,0,0,1,4.41-1.38H56.43Zm17,22a5.06,5.06,0,1,1,5-5.06A5.05,5.05,0,0,1,73.45,87.28Zm7.37-22H62.26v-6.2H72.9a8.23,8.23,0,0,1,4.33,1.49l4.11,3.22C82.39,64.58,82.15,65.25,80.82,65.25Z" transform="translate(-12.66 -17.59)"/><path class="cls-1" d="M24,51.75H92.07a2.32,2.32,0,0,0,2.31-2.32V44.26a2.32,2.32,0,0,0-2.31-2.32H72.93a4.33,4.33,0,0,1-2.72-1.18l-3-3.26A5.27,5.27,0,0,0,63.75,36H63.6a1.34,1.34,0,0,1-1.34-1.34V19.91a2.32,2.32,0,0,0-2.32-2.32H56.82a2.32,2.32,0,0,0-2.32,2.32V34.67A1.34,1.34,0,0,1,53.17,36h-.85a5.27,5.27,0,0,0-3.43,1.49l-3,3.26a4.3,4.3,0,0,1-2.71,1.18H24a2.32,2.32,0,0,0-2.32,2.32v5.17A2.32,2.32,0,0,0,24,51.75Z" transform="translate(-12.66 -17.59)"/><path class="cls-1" d="M77.33,38.34a1.08,1.08,0,0,0,.83.39,1.09,1.09,0,0,0,.83-.39l3.42-4.05a.78.78,0,0,0-.62-1.35H80.55a.22.22,0,0,1-.22-.22V25.9a1.2,1.2,0,0,0-1.2-1.2H77.19A1.2,1.2,0,0,0,76,25.9v6.82a.22.22,0,0,1-.22.22H74.53a.78.78,0,0,0-.62,1.35Z" transform="translate(-12.66 -17.59)"/><path class="cls-1" d="M36.62,38.34a1.08,1.08,0,0,0,.83.39,1.09,1.09,0,0,0,.83-.39l3.42-4.05a.84.84,0,0,0,.19-.91.83.83,0,0,0-.81-.44H39.84a.22.22,0,0,1-.22-.22V25.9a1.2,1.2,0,0,0-1.2-1.2H36.48a1.2,1.2,0,0,0-1.2,1.2v6.82a.22.22,0,0,1-.22.22H33.82a.78.78,0,0,0-.62,1.35Z" transform="translate(-12.66 -17.59)"/></svg>