<svg id="Layer_1" data-name="Layer 1" xmlns="http://www.w3.org/2000/svg" viewBox="0 0 71.71 79.1"><defs><style>.cls-1{fill:#fff;}</style></defs><title>B3</title><path class="cls-1" d="M90.85,84V94.55H19.15V84c0-5,4.28-11.09,9.51-13.57L40.3,64.93l8.09,16.84,4.13-11.22a13.73,13.73,0,0,0,2.48.36,13.73,13.73,0,0,0,2.48-.36L61.4,81.22l7.93-16.48,12,5.72C86.57,72.94,90.85,79.06,90.85,84ZM29.72,47.16v-7.6a3.63,3.63,0,0,1,1.69-3.07,23.76,23.76,0,0,1,47.2,0,3.64,3.64,0,0,1,1.68,3.07v7.6a3.66,3.66,0,0,1-7.31,0v-1.6c-2,9.95-9.26,19.18-18,19.18S39,55.51,37,45.56v1.6a3.65,3.65,0,0,1-2.57,3.47,21.35,21.35,0,0,0,9.14,12,3.75,3.75,0,0,1,2.87.3c1.61.84,2.44,2.48,1.83,3.65s-2.42,1.43-4,.59a3.51,3.51,0,0,1-2-2.64A23.64,23.64,0,0,1,32,50.54,3.66,3.66,0,0,1,29.72,47.16ZM33.9,35.64a.89.89,0,0,1,.32,0,1.18,1.18,0,0,1,.59.51,3.63,3.63,0,0,1,1.81,1.71C37.7,27.81,45.5,22.46,55,22.46s17.3,5.35,18.38,15.45a3.64,3.64,0,0,1,2.77-2,21.4,21.4,0,0,0-42.25-.31Z" transform="translate(-19.15 -15.45)"/></svg>