<svg id="Layer_1" data-name="Layer 1" xmlns="http://www.w3.org/2000/svg" viewBox="0 0 77.56 77.56"><defs><style>.cls-1{fill:#fff;}</style></defs><title>B4</title><path class="cls-1" d="M34.94,55a10.7,10.7,0,1,0,8.47,17.22,19.58,19.58,0,0,1,2.2-5.73c0-.27,0-.53,0-.79A10.71,10.71,0,0,0,34.94,55ZM28.25,70.12A8,8,0,0,1,39.36,59l-1.47,2.23a5.34,5.34,0,0,0-7.41,7.4Zm6.69,3.6a8,8,0,0,1-4.42-1.33L32,70.16a5.34,5.34,0,0,0,7.4-7.41l2.23-1.47a8,8,0,0,1-6.69,12.44Z" transform="translate(-16.22 -16.22)"/><path class="cls-1" d="M43,76.36a13.35,13.35,0,1,1,5.08-13.27A20.87,20.87,0,0,1,50.23,61a15.6,15.6,0,0,0-1.37-3.22L48.43,57l1.79-2.49-4.08-4.07-2.49,1.78-.75-.43a15.68,15.68,0,0,0-3.75-1.55L38.32,50l-.5-3H32.06l-.5,3-.83.22A15.68,15.68,0,0,0,27,51.78l-.75.43-2.49-1.79L19.67,54.5,21.45,57l-.43.75a15.68,15.68,0,0,0-1.55,3.75l-.22.83-3,.5v5.76l3,.5.22.83A15.85,15.85,0,0,0,21,73.66l.43.75L19.67,76.9,23.74,81l2.49-1.78.75.43a15.68,15.68,0,0,0,3.75,1.55l.83.22.5,3h5.76l.51-3,.82-.22a16.1,16.1,0,0,0,3.75-1.55l.32-.19a20.19,20.19,0,0,1-.26-3Z" transform="translate(-16.22 -16.22)"/><path class="cls-1" d="M63,59A17.39,17.39,0,1,0,80.41,76.4,17.41,17.41,0,0,0,63,59Zm0,32.1a14.7,14.7,0,0,1-11.38-24l2.07,1.69a12.1,12.1,0,0,0-2.64,6.28h2.59v2.67H51.07A12.05,12.05,0,0,0,61.69,88.35V85.76h2.67v2.59a12.1,12.1,0,0,0,6.28-2.64l1.69,2.07A14.7,14.7,0,0,1,63,91.11Zm4-16v2.67H61.69v-8h2.67v5.35ZM74.41,85.7,72.34,84A12,12,0,0,0,75,77.73H72.38V75.06H75A12.05,12.05,0,0,0,64.36,64.44V67H61.69v-2.6a12,12,0,0,0-6.28,2.64L53.71,65A14.71,14.71,0,0,1,74.41,85.7Z" transform="translate(-16.22 -16.22)"/><path class="cls-1" d="M85.76,16.22v2.67h3.45l-7.47,7.47-4-4-6.3,6.31a4,4,0,0,0-1.72-.4,4,4,0,0,0-4,4,4,4,0,0,0,.5,1.9l-7,7.77a3.92,3.92,0,0,0-1.54-.31H57.6L52.22,27.3a4,4,0,1,0-6.58-3.06,3.84,3.84,0,0,0,.11.91l-8.37,6.63a4,4,0,0,0-2.44-.85,4,4,0,0,0-3.76,2.67H24a4,4,0,1,0,0,2.68h7.18A4,4,0,0,0,39,34.94a3.91,3.91,0,0,0-.11-.91l8.37-6.62a4,4,0,0,0,2.44.85h.07L55.1,42.59a4,4,0,0,0,2.57,7.06,4,4,0,0,0,4-4,4,4,0,0,0-.51-1.9l7-7.77a4,4,0,0,0,5.55-3.7,4,4,0,0,0-.4-1.72l4.41-4.42,4,4,9.37-9.36v3.45h2.67v-8ZM20.23,36.28a1.34,1.34,0,1,1,1.34-1.34A1.34,1.34,0,0,1,20.23,36.28Zm14.71,0a1.34,1.34,0,1,1,1.34-1.34A1.34,1.34,0,0,1,34.94,36.28Zm13.37-12a1.34,1.34,0,1,1,1.34,1.34A1.34,1.34,0,0,1,48.31,24.24ZM57.67,47A1.34,1.34,0,1,1,59,45.64,1.34,1.34,0,0,1,57.67,47Zm12-13.38a1.34,1.34,0,1,1,1.34-1.33A1.34,1.34,0,0,1,69.71,33.6Z" transform="translate(-16.22 -16.22)"/><path class="cls-1" d="M67,45.64v11.1a19.68,19.68,0,0,1,5.34,1.92v-13Z" transform="translate(-16.22 -16.22)"/><path class="cls-1" d="M56.34,52.32V57.5a20.11,20.11,0,0,1,5.35-1.1V52.32Z" transform="translate(-16.22 -16.22)"/><path class="cls-1" d="M77.73,62.79A20,20,0,0,1,83,75.06h.06V39H77.73Z" transform="translate(-16.22 -16.22)"/><path class="cls-1" d="M88.43,28.26h5.35v46.8H88.43Z" transform="translate(-16.22 -16.22)"/></svg>