<svg id="Layer_1" data-name="Layer 1" xmlns="http://www.w3.org/2000/svg" viewBox="0 0 75.19 75.19"><defs><style>.cls-1{fill:#fff;}</style></defs><title>B5</title><g id="Picture-2"><path class="cls-1" d="M68.37,37.55a1.34,1.34,0,0,1,1.09.55l3.83,5.32,2.14-2.69a1.36,1.36,0,0,1,1.89-.21,2.08,2.08,0,0,1,.21.21l4.32,5.41V36.2H61.71v9.7l5.57-7.78A1.33,1.33,0,0,1,68.37,37.55Z" transform="translate(-17.41 -17.41)"/><path class="cls-1" d="M74.92,45.68l.91,1.26h3.23l-2.58-3.22Z" transform="translate(-17.41 -17.41)"/><path class="cls-1" d="M64.27,46.94h8.25l-4.14-5.75Z" transform="translate(-17.41 -17.41)"/><path class="cls-1" d="M22.78,65.74H53.66V30.83H22.78Zm8-6.71H28.15V56.34h2.68Zm-2.68-9.4V46.94h2.68v2.69ZM38.89,63.06H32.18V60.37h6.71Zm0-4H33.52V56.34h5.37Zm1.34-4h-9.4V52.31h9.4Zm-6.71-5.37V46.94H44.26v2.69Zm10.74,6.71V59H41.57V56.34ZM37.55,44.26H30.83V41.57h6.72Zm12.08,18.8H41.57V60.37h8.06Zm0-13.43H46.94V46.94h2.69Zm-9.4-16.11h2.69V36.2H40.23Zm5.37,4v2.68h-4V37.55Zm-5.37,4h8.06v2.69H40.23Zm-1.34-1.34H33.52V37.55h5.37Zm-6.71-6.71h5.37V36.2H32.18Zm-1.35,6.71H28.15V37.55h2.68Zm-5.37-6.71h4V36.2h-4Zm0,18.79h2.69V55H25.46Z" transform="translate(-17.41 -17.41)"/><path class="cls-1" d="M56.34,65.74H87.22V30.83H56.34ZM84.54,59H64.4V56.34H84.54ZM64.4,55V52.31H75.14V55Zm20.14,0H77.82V52.31h6.72ZM59,34.86a1.34,1.34,0,0,1,1.34-1.34H83.2a1.34,1.34,0,0,1,1.34,1.34V48.29a1.34,1.34,0,0,1-1.34,1.34H60.37A1.34,1.34,0,0,1,59,48.29Zm0,17.45h2.68V55H59Zm0,4h2.68V59H59Zm0,4H84.54v2.69H59Z" transform="translate(-17.41 -17.41)"/><path class="cls-1" d="M22.78,28.15H87.22V22.78H22.78Zm13.42-4h2.69V26.8H36.2Zm-5.37,0h2.69V26.8H30.83Zm-5.37,0h2.69V26.8H25.46Z" transform="translate(-17.41 -17.41)"/><path class="cls-1" d="M92.59,21.43a4,4,0,0,0-4-4H21.43a4,4,0,0,0-4,4V69.77a4,4,0,0,0,4,4H88.57a4,4,0,0,0,4-4ZM89.91,67.08a1.34,1.34,0,0,1-1.34,1.35H21.43a1.34,1.34,0,0,1-1.34-1.35V21.43a1.34,1.34,0,0,1,1.34-1.34H88.57a1.34,1.34,0,0,1,1.34,1.34Z" transform="translate(-17.41 -17.41)"/><path class="cls-1" d="M79.17,87.22H30.83a2.69,2.69,0,0,0,0,5.37H79.17a2.69,2.69,0,0,0,0-5.37Z" transform="translate(-17.41 -17.41)"/><path class="cls-1" d="M46.94,76.48H63.06v8.06H46.94Z" transform="translate(-17.41 -17.41)"/></g></svg>