<svg id="Layer_1" data-name="Layer 1" xmlns="http://www.w3.org/2000/svg" viewBox="0 0 72.81 75.34"><defs><style>.cls-1{fill:#fff;}</style></defs><title>B6</title><path class="cls-1" d="M87.64,65.05v2.51a5,5,0,1,1-10,0V65.05H73.83v3.77a1.25,1.25,0,0,1-1.25,1.25H68.81a2.51,2.51,0,0,0,0,5h3.77a1.26,1.26,0,0,1,1.25,1.26v6.28H88.9a2.52,2.52,0,0,0,2.51-2.51V65.05Z" transform="translate(-18.59 -17.33)"/><path class="cls-1" d="M68.81,67.56h2.51V65.05H53.75V80.12a2.51,2.51,0,0,0,2.51,2.51H71.32v-5H68.81a5,5,0,0,1,0-10Z" transform="translate(-18.59 -17.33)"/><path class="cls-1" d="M88.9,45H73.83v2.51h2.51a5,5,0,0,1,0,10H73.83v5h5a1.25,1.25,0,0,1,1.26,1.26v3.76a2.51,2.51,0,1,0,5,0V63.8a1.25,1.25,0,0,1,1.26-1.26h5V47.48A2.51,2.51,0,0,0,88.9,45Z" transform="translate(-18.59 -17.33)"/><path class="cls-1" d="M69.18,50.35,65,54.49v-7H62.53V57l-1.25,1.25L60,57V52.5H57.51v2l-4.13-4.14L51.6,52.13l8.79,8.79a1.25,1.25,0,0,0,1.77,0L71,52.13Z" transform="translate(-18.59 -17.33)"/><rect class="cls-1" x="38.92" y="30.15" width="2.51" height="2.51"/><rect class="cls-1" x="38.92" y="25.12" width="2.51" height="2.51"/><rect class="cls-1" x="43.94" y="25.12" width="2.51" height="2.51"/><path class="cls-1" d="M73.83,24.88H70.07a1.25,1.25,0,0,1-1.26-1.26V19.86H53.75a2.51,2.51,0,0,0-2.52,2.51V35.25l-.35.13-7.35,3.55a10.22,10.22,0,0,0-2.86-2.58,10,10,0,1,0-13.48-4.48A10.16,10.16,0,0,0,31,36a10.06,10.06,0,0,0-5.32,6.46l-5,15.76a18.82,18.82,0,0,0,.81,13.51,16.31,16.31,0,0,1-.26,14.08l-2.52,5a1.26,1.26,0,0,0,.56,1.69,1.32,1.32,0,0,0,.56.13H33.66a1.25,1.25,0,0,0,1.25-1.26,6.23,6.23,0,0,0-3.35-5.54l.6-1.2a19,19,0,0,0,1.68-11.81l-.93-5.12a1.21,1.21,0,0,1,1-1.41.82.82,0,0,1,.22,0,1.21,1.21,0,0,1,1.19,1L37,76.68a25.61,25.61,0,0,1,.42,4.62V91.41a1.25,1.25,0,0,0,1.25,1.26H52.49a1.26,1.26,0,0,0,1.26-1.26,6.11,6.11,0,0,0,0-.73,5.53,5.53,0,0,0-3.09-4.36,6.09,6.09,0,0,0-4.53-.41l.84-4.17a28.8,28.8,0,0,0,.55-5.56V64.94L46,48.13,54.71,44a4.72,4.72,0,0,0,2.4-6.22L57,37.43H68.81V31.16a1.25,1.25,0,0,1,1.26-1.26h3.76a2.51,2.51,0,1,0,0-5Z" transform="translate(-18.59 -17.33)"/></svg>