<svg id="Layer_1" data-name="Layer 1" xmlns="http://www.w3.org/2000/svg" viewBox="0 0 77.56 81.79"><defs><style>.cls-1{fill:#fff;}</style></defs><title>B7</title><path class="cls-1" d="M44,23.06a1.28,1.28,0,1,0,0,2.56H54.54a7.85,7.85,0,0,1,1.13-2.56Z" transform="translate(-16.22 -14.11)"/><path class="cls-1" d="M92,14.11H37a1.76,1.76,0,0,0-1.77,1.76V52.73A1.76,1.76,0,0,0,37,54.49h9.17l0-3.52H38.77V17.63H90.25V51H72v3.52H92a1.76,1.76,0,0,0,1.76-1.76V15.87A1.76,1.76,0,0,0,92,14.11Z" transform="translate(-16.22 -14.11)"/><path class="cls-1" d="M62.34,21.9a5.62,5.62,0,0,0-3.88,9.69h7.76a5.62,5.62,0,0,0-3.88-9.69Z" transform="translate(-16.22 -14.11)"/><path class="cls-1" d="M87.21,26.54a2.8,2.8,0,0,0-1.09-.63l-.6-2.86a1.61,1.61,0,0,0-1.9-1.24,1.59,1.59,0,0,0-1.24,1.25H69a8.09,8.09,0,0,1,1.14,2.56H82.78L83.06,27l-5.51,5.85L67.62,34H55.08a6.44,6.44,0,0,0-6.42,6.39l-.1,19.73A2.71,2.71,0,0,0,51.26,63h0A2.7,2.7,0,0,0,54,60.34l0-5.8.07-14.13a.58.58,0,0,1,.58-.56.57.57,0,0,1,.56.57c0,25.33-.06,6-.06,41.06a9,9,0,0,1,3.23-.75v-.64a8.31,8.31,0,0,1,3.28-10.84V60h1.41V68.6a8.12,8.12,0,0,1,2.76-.47,8.29,8.29,0,0,1,3.75.89V39.23l9.58-1.12a2.74,2.74,0,0,0,1.66-.84l6.5-6.9A2.71,2.71,0,0,0,87.21,26.54Z" transform="translate(-16.22 -14.11)"/><path class="cls-1" d="M79.05,89.76a6.21,6.21,0,0,0-6.2-6.17H58.78a6.22,6.22,0,0,0-6.2,6.17l0,6.13h2.32a6.42,6.42,0,0,1,6.41-6.41h9.31A6.43,6.43,0,0,1,77,95.89h2.08Z" transform="translate(-16.22 -14.11)"/><path class="cls-1" d="M65.84,71a5.44,5.44,0,1,0,5.43,5.43A5.44,5.44,0,0,0,65.84,71Z" transform="translate(-16.22 -14.11)"/><path class="cls-1" d="M29.46,71a5.44,5.44,0,1,0,5.43,5.43A5.44,5.44,0,0,0,29.46,71Z" transform="translate(-16.22 -14.11)"/><path class="cls-1" d="M70.59,91.31H61.28a4.58,4.58,0,0,0-4.58,4.58H75.17A4.58,4.58,0,0,0,70.59,91.31Z" transform="translate(-16.22 -14.11)"/><path class="cls-1" d="M33.79,91.31H24.48a4.58,4.58,0,0,0-4.58,4.58H38.37A4.58,4.58,0,0,0,33.79,91.31Z" transform="translate(-16.22 -14.11)"/><path class="cls-1" d="M47.82,65a2.32,2.32,0,0,0-2.77,1.75L42.3,78.84l-6.48,4.75H22.45a6.22,6.22,0,0,0-6.2,6.17l0,6.13h1.85a6.42,6.42,0,0,1,6.41-6.41h9.31a6.39,6.39,0,0,1,3.27.9l0-2,8.65-6.33a2.3,2.3,0,0,0,.89-1.35l2.94-13A2.32,2.32,0,0,0,47.82,65Z" transform="translate(-16.22 -14.11)"/></svg>