<svg id="Layer_1" data-name="Layer 1" xmlns="http://www.w3.org/2000/svg" viewBox="0 0 77.56 77.56"><defs><style>.cls-1{fill:#fff;}</style></defs><title>B8</title><path class="cls-1" d="M43,68.37h2.68v8H43Z" transform="translate(-16.22 -16.22)"/><path class="cls-1" d="M75.77,32.34a30.64,30.64,0,0,0-19.43-8.06v5.38A25.23,25.23,0,0,1,72,36.14Z" transform="translate(-16.22 -16.22)"/><path class="cls-1" d="M48.31,68.37H51v8H48.31Z" transform="translate(-16.22 -16.22)"/><path class="cls-1" d="M57.12,60.35l1.75-1.75L55,43.13,51.13,58.6l1.75,1.75Z" transform="translate(-16.22 -16.22)"/><path class="cls-1" d="M53.66,29.66V24.28a30.64,30.64,0,0,0-19.43,8.06l3.8,3.8a25.23,25.23,0,0,1,15.63-6.48Z" transform="translate(-16.22 -16.22)"/><path class="cls-1" d="M36.13,38l-3.79-3.79a30.64,30.64,0,0,0-8.06,19.43h5.35A25.33,25.33,0,0,1,36.13,38Z" transform="translate(-16.22 -16.22)"/><path class="cls-1" d="M53.66,68.37h2.68v8H53.66Z" transform="translate(-16.22 -16.22)"/><path class="cls-1" d="M77.73,55a22.73,22.73,0,0,0-45.46,0,1.34,1.34,0,0,1-1.34,1.34H24.28a30.75,30.75,0,0,0,61.44,0H79.07A1.34,1.34,0,0,1,77.73,55ZM48.35,58.69l5.35-21.4a1.34,1.34,0,0,1,2.6,0l5.35,21.4A1.33,1.33,0,0,1,61.29,60l-2.67,2.67a1.34,1.34,0,0,1-.95.39H52.33a1.34,1.34,0,0,1-.95-.39L48.71,60a1.33,1.33,0,0,1-.36-1.27Zm21.36,19a1.34,1.34,0,0,1-1.34,1.34H41.63a1.34,1.34,0,0,1-1.34-1.34V67a1.34,1.34,0,0,1,1.34-1.34H68.37A1.34,1.34,0,0,1,69.71,67Z" transform="translate(-16.22 -16.22)"/><path class="cls-1" d="M59,68.37h2.68v8H59Z" transform="translate(-16.22 -16.22)"/><path class="cls-1" d="M55,16.22A38.78,38.78,0,1,0,93.78,55,38.83,38.83,0,0,0,55,16.22Zm0,72.21A33.43,33.43,0,1,1,88.43,55,33.47,33.47,0,0,1,55,88.43Z" transform="translate(-16.22 -16.22)"/><path class="cls-1" d="M80.37,53.66h5.35a30.64,30.64,0,0,0-8.06-19.43L73.87,38A25.33,25.33,0,0,1,80.37,53.66Z" transform="translate(-16.22 -16.22)"/><path class="cls-1" d="M64.36,68.37H67v8H64.36Z" transform="translate(-16.22 -16.22)"/></svg>