<svg id="Layer_1" data-name="Layer 1" xmlns="http://www.w3.org/2000/svg" viewBox="0 0 76.93 76.93"><defs><style>.cls-1{fill:#fefefe;}.cls-2{fill:#fdfdfd;}</style></defs><title>AftermarketParts&amp;amp;Service</title><path class="cls-1" d="M93.42,16.87c.11.06.3-.12.34.09a4.14,4.14,0,0,1,0,.61q0,37.74,0,75.46c0,.66-.17.75-.77.75q-37.69,0-75.38,0c-.69,0-.78-.2-.78-.82q0-18.7,0-37.39H17A33.82,33.82,0,0,0,20,68a34.34,34.34,0,0,0,23.41,19.6c.44.11.82.16.92.81a6.1,6.1,0,0,0,11.9.63,1.14,1.14,0,0,1,1.09-1,34.52,34.52,0,0,0,28.1-27.24.88.88,0,0,1,.73-.8,6.11,6.11,0,0,0,0-12,.86.86,0,0,1-.76-.78A13.53,13.53,0,0,0,84.83,45c-.28-.77,0-.87.69-.86,2.42,0,4.83,0,7.24,0,.52,0,.7-.15.7-.69q0-13.2,0-26.41Z" transform="translate(-16.86 -16.86)"/><path class="cls-2" d="M73.72,17.06v-.19h19.7V17H81.18Z" transform="translate(-16.86 -16.86)"/><path class="cls-2" d="M16.87,52.62H17v3h-.14Z" transform="translate(-16.86 -16.86)"/><path d="M19.5,55.33c0-.92,0-1.84,0-2.76A32.23,32.23,0,0,1,47.11,22.1,32.69,32.69,0,0,1,52,21.79c6.45,0,12.9,0,19.35,0,.7,0,1-.16.89-.89a10.42,10.42,0,0,1,0-1.37c2.31,0,4.62,0,6.94,0H90.48q0,12.27,0,24.53c0,.5-.16.65-.65.64-2.24,0-4.48,0-6.72,0-.63,0-.9.08-.65.8A12.62,12.62,0,0,1,83,47.58a.79.79,0,0,0,.7.72,5.68,5.68,0,0,1,0,11.12.81.81,0,0,0-.68.75A32.06,32.06,0,0,1,56.9,85.46a1.07,1.07,0,0,0-1,.9,5.67,5.67,0,0,1-11.05-.59c-.1-.6-.45-.65-.86-.75a31.91,31.91,0,0,1-21.74-18.2A31.45,31.45,0,0,1,19.5,55.33ZM46,66.46c-.07-.09-.19-.17-.27-.08s.08.15.14.22A16.29,16.29,0,0,0,61.7,70.4c5.79-1.59,9.29-5.73,11.39-11.16,1.77-4.6,1.61-9.34.85-14.11-.08-.52-.44-.5-.78-.45-.85.14-1.12-.23-1-1,0-.16,0-.33,0-.48.1-.65-.17-.81-.8-.81-3.78,0-7.55,0-11.33,0h-.83c.29.24.43.36.58.47a13.55,13.55,0,0,1,5.43,12.31A13.8,13.8,0,0,1,52,67.62,15.93,15.93,0,0,1,46,66.46ZM60.84,24.07h-8.9a32.35,32.35,0,0,0-5.56.47,29.77,29.77,0,1,0,34,21.85c-.45-1.72-.45-1.72-2.2-1.72-.48,0-1,0-1.45,0s-.55.15-.48.58a34,34,0,0,1,.48,6.68A23.14,23.14,0,0,1,73.32,64c-3.27,5.37-8,8.76-14.31,9.23-8.07.6-14.33-2.72-18.53-9.64a17,17,0,0,1-2.37-12.43,13.62,13.62,0,0,1,13.67-11q9.8,0,19.59,0c.61,0,.83-.12.82-.79q0-7.24,0-14.49c0-.67-.22-.79-.82-.78C67.86,24.08,64.35,24.07,60.84,24.07Zm22.81,8c0-3.18,0-6.36,0-9.54,0-.66-.19-.81-.82-.8q-3.84,0-7.68,0c-.57,0-.72.17-.72.73q0,9.58,0,19.17c0,.58.18.72.73.72q3.88,0,7.77,0c.57,0,.72-.17.72-.73C83.64,38.49,83.65,35.3,83.65,32.12Zm4.56.05v-8.9c0-1.49,0-1.46-1.48-1.49-.63,0-.81.15-.81.8,0,6.09,0,12.19,0,18.29,0,1.53,0,1.5,1.52,1.53.59,0,.77-.14.77-.76C88.2,38.48,88.21,35.33,88.21,32.17ZM50.44,46c0-.94,0-1.89,0-2.82,0-.63-.23-.74-.76-.64a12,12,0,0,0-4.87,2c-.41.29-.44.5-.06.86,1.31,1.28,2.59,2.58,3.88,3.88.33.33.58.59,1.16.36s.66-.58.65-1.1C50.42,47.73,50.44,46.87,50.44,46Zm0,15.73c0-.94,0-1.88,0-2.83a.71.71,0,0,0-.55-.83c-.39-.12-.69-.29-1.07.11-1.35,1.39-2.73,2.75-4.11,4.12-.29.28-.36.48,0,.75a11.84,11.84,0,0,0,5.09,2.13c.44.08.63,0,.62-.54C50.42,63.68,50.44,62.71,50.44,61.74Zm9-9c1,0,1.94,0,2.91,0,.47,0,.62-.13.54-.6a12,12,0,0,0-2.1-5c-.25-.34-.43-.47-.79-.1-1.35,1.39-2.72,2.77-4.12,4.11-.44.42-.18.75-.07,1.15s.42.48.8.47C57.57,52.71,58.51,52.72,59.46,52.72Zm0,2.28c-1,0-2,0-3,0-.6,0-.56.46-.76.76a.54.54,0,0,0,.12.77c1.41,1.38,2.81,2.77,4.18,4.18.35.36.54.29.8-.07a12.1,12.1,0,0,0,2.11-5c.08-.47-.07-.62-.54-.61C61.4,55,60.43,55,59.46,55ZM43.72,52.72c1,0,2,0,3,0,.4,0,.51-.21.59-.51s.42-.58,0-.95c-1.47-1.44-2.91-2.89-4.36-4.34-.22-.23-.39-.22-.58,0a11.28,11.28,0,0,0-2.18,5.24c-.05.39.1.52.49.52C41.73,52.71,42.73,52.72,43.72,52.72Zm0,2.28c-.94,0-1.88,0-2.82,0-.57,0-.77.14-.67.72a12,12,0,0,0,2.12,5c.25.34.43.29.69,0,1.4-1.42,2.8-2.83,4.23-4.22.35-.34.19-.6.06-.92s-.23-.62-.71-.6C45.69,55,44.72,55,43.75,55Zm9-9.07c0,1,0,2,0,3,0,.47.24.58.58.71s.6.29.94-.06c1.39-1.43,2.81-2.83,4.22-4.24.23-.22.34-.37,0-.62a11.75,11.75,0,0,0-5.16-2.19c-.48-.08-.6.13-.58.57C52.74,44.05,52.72,45,52.72,45.93Zm.44,19.27A11.53,11.53,0,0,0,58.47,63c.26-.2.25-.34,0-.57-1.44-1.42-2.88-2.85-4.29-4.29-.3-.31-.56-.21-.87-.06s-.63.13-.62.6q0,3.08,0,6.15C52.72,65.13,52.85,65.25,53.16,65.2Zm-1.6-13.61a2.22,2.22,0,0,0-2.26,2.24,2.24,2.24,0,0,0,2.28,2.31,2.28,2.28,0,1,0,0-4.55ZM50.9,88.21a3.19,3.19,0,0,0,2.42-1.63c.11-.17.31-.37.17-.58s-.35-.09-.53-.08a29.7,29.7,0,0,1-5.25-.24c-.63-.08-.55.18-.38.58A3.63,3.63,0,0,0,50.9,88.21ZM83.47,57a3.23,3.23,0,0,0,2.46-3,3.47,3.47,0,0,0-2-3.3c-.52-.19-.41.16-.39.4A27.1,27.1,0,0,1,83.47,57Z" transform="translate(-16.86 -16.86)"/><path class="cls-2" d="M45.37,67.71c-.07-.06-.25-.1-.15-.23s.21,0,.29.09Z" transform="translate(-16.86 -16.86)"/></svg>