<svg id="Layer_1" data-name="Layer 1" xmlns="http://www.w3.org/2000/svg" viewBox="0 0 78.53 78.42"><defs><style>.cls-1{fill:none;stroke:#000;stroke-miterlimit:10;stroke-width:2px;}</style></defs><title>AutomotiveOEM</title><path class="cls-1" d="M86.67,16.79c0,.13.15.16.27.17a6.86,6.86,0,0,1,4.44,2.31c.39.43.83.81,1.22,1.24a2.17,2.17,0,0,1,0,3.12,2.23,2.23,0,0,1-3.13.05c-.54-.48-1-1-1.55-1.52a2.21,2.21,0,0,0-3.26-.07c-1.49,1.42-2.92,2.9-4.39,4.35-.3.3-.25.5,0,.78.79.77,1.58,1.54,2.33,2.34.35.36.57.34.91,0,1.3-1.33,2.61-2.63,3.93-3.94A2.25,2.25,0,0,1,91.29,27a2.23,2.23,0,0,1-.77,1.93c-1.38,1.37-2.74,2.75-4.12,4.12a.78.78,0,0,0-.27,1,6.64,6.64,0,0,1-1.84,7.51c-1.21,1.17-1.2,1.19-2.38,0q-7-7-14.09-14.07c-.48-.47-.49-.73,0-1.22,1.49-1.54,3.09-2.82,5.36-2.88a6,6,0,0,1,2.63.41.87.87,0,0,0,1.13-.25c1.41-1.45,2.88-2.85,4.29-4.31A7,7,0,0,1,85.44,17c.14,0,.29,0,.36-.18Z" transform="translate(-15.73 -15.79)"/><path class="cls-1" d="M16.73,90.38a10.79,10.79,0,0,1,2.16-2.46.78.78,0,0,0,.24-1,6.51,6.51,0,0,1,1.61-7.25c1.4-1.44,1.41-1.44,2.85,0,2.5,2.5,5,5,7.5,7.48.45.44.54.72,0,1.16a21.13,21.13,0,0,1-2,1.81,6.53,6.53,0,0,1-6,.72.94.94,0,0,0-1.2.28c-.28.33-.61.62-.92.93-1.7,1.7-3.24,1.46-4.3-.67Z" transform="translate(-15.73 -15.79)"/><path class="cls-1" d="M57.49,32.81a6,6,0,0,1,2.37.39,1,1,0,0,0,1.35-.35c.79-.84,1.64-1.63,2.44-2.47.31-.33.5-.33.83,0Q72,37.93,79.55,45.44c.35.35.26.54,0,.83-.85.83-1.67,1.69-2.53,2.51A1,1,0,0,0,76.69,50a6.47,6.47,0,0,1-1.63,7c-1.6,1.64-3.23,3.25-4.83,4.89-.36.37-.57.48-1,0Q58.68,51.35,48.07,40.79c-.49-.48-.41-.73,0-1.16,1.64-1.6,3.24-3.24,4.86-4.86A6.6,6.6,0,0,1,57.49,32.81Z" transform="translate(-15.73 -15.79)"/><path class="cls-1" d="M41,41.16a2.62,2.62,0,0,1,2,.93L53.48,52.54,67.74,66.81c1.43,1.42,1.42,2.51,0,3.94-.86.86-1.72,1.73-2.59,2.58a2.27,2.27,0,0,1-3.57,0c-1.37-1.34-2.73-2.69-4-4.07-.41-.42-.64-.4-1,0-.64.7-1.37,1.34-2,2a.75.75,0,0,1-1.1.17Q46.72,67.7,40,64c-1.82-1-3.63-2.06-5.47-3-.67-.36-.85-.56-.2-1.18,2.13-2,4.18-4.18,6.3-6.24.46-.46.48-.7,0-1.16-1.34-1.27-2.64-2.6-4-3.92a2.31,2.31,0,0,1,0-3.7c.94-.94,1.89-1.88,2.83-2.83A2.41,2.41,0,0,1,41,41.16Z" transform="translate(-15.73 -15.79)"/><path class="cls-1" d="M37.82,85a6.32,6.32,0,0,1-4.4-1.84c-2.24-2.19-4.49-4.38-6.64-6.65a6.47,6.47,0,0,1-1.37-7c.18-.52.39-.58.87-.31q9.44,5.29,18.89,10.55c.47.26.49.44.11.8-.92.88-1.78,1.83-2.72,2.69A6.69,6.69,0,0,1,37.82,85Z" transform="translate(-15.73 -15.79)"/><path class="cls-1" d="M53.42,72.32c-1.27,1.47-1.27,1.47-2.81.61-6-3.38-12.06-6.77-18.11-10.12-.65-.36-.63-.54-.16-1.08s1-.68,1.8-.25C40.28,65,46.46,68.39,52.62,71.83,52.87,72,53.11,72.13,53.42,72.32Z" transform="translate(-15.73 -15.79)"/><path class="cls-1" d="M51.47,74.24c-1.19,1.49-1.19,1.5-2.75.64C42.66,71.5,36.61,68.1,30.54,64.73c-.59-.32-.67-.5-.17-1a1.24,1.24,0,0,1,1.82-.3c6.21,3.53,12.46,7,18.69,10.48C51.08,74,51.27,74.12,51.47,74.24Z" transform="translate(-15.73 -15.79)"/><path class="cls-1" d="M29.33,64.88l.7.36q9.42,5.27,18.87,10.53c.62.34.6.52.14,1a1.21,1.21,0,0,1-1.81.29c-6.14-3.48-12.31-6.91-18.46-10.36-.27-.15-.85-.24-.68-.61A3.35,3.35,0,0,1,29.33,64.88Z" transform="translate(-15.73 -15.79)"/><path class="cls-1" d="M47.71,78.34c-.41.33-.82.64-1.22,1s-.54,0-.78-.08l-8.33-4.66c-3.49-1.94-7-3.88-10.44-5.86-.26-.15-1.05-.1-.63-.82.54-.93,1-1.14,1.68-.77l8.33,4.65,10.6,5.93A1.71,1.71,0,0,1,47.71,78.34Z" transform="translate(-15.73 -15.79)"/></svg>