<svg id="Layer_1" data-name="Layer 1" xmlns="http://www.w3.org/2000/svg" viewBox="0 0 81.15 81.15"><defs><style>.cls-1{fill:#fff;stroke:#231f20;stroke-miterlimit:10;stroke-width:2px;}</style></defs><title>OEM_SV</title><path class="cls-1" d="M55,94.57A39.57,39.57,0,1,1,94.57,55,39.54,39.54,0,0,1,55,94.57ZM31.75,50.89c0,1.21-.05,2.42,0,3.63,0,.77-.24.92-.93.81A38,38,0,0,0,26,55c-.52,0-.7.15-.66.67a32.67,32.67,0,0,0,.57,5C28.8,73.12,36.5,80.85,48.85,84c1.16.29,1.2.25,1.4-.92a37.27,37.27,0,0,0,.57-9.83,18.15,18.15,0,0,0-5.2-11.76,20.6,20.6,0,0,0-9.72-5.18c-.67-.17-.92-.42-.9-1.14,0-2.33.06-4.66,0-7,0-.87.27-.89,1-.74a86.87,86.87,0,0,0,18.6,2.1A87,87,0,0,0,74.7,47.3c.73-.16.88,0,.87.7,0,2.48,0,5,0,7.44a.8.8,0,0,1-.71.93,25.41,25.41,0,0,0-5.69,2.33,18.71,18.71,0,0,0-9.24,10.94c-1.45,4.61-1.12,9.25-.11,13.89.19.85.74.56,1.18.46A29.8,29.8,0,0,0,84.71,55.64c0-.56-.2-.66-.68-.65a34.53,34.53,0,0,0-4.43.38c-.59.08-.79-.09-.79-.71q0-3.85,0-7.71a.75.75,0,0,1,.7-.85c.82-.21,1.61-.53,2.44-.7s.87-.52.58-1.24a29.5,29.5,0,0,0-37.66-17c-8.34,3.07-14.06,9-17.45,17.14-.3.72-.07.94.58,1.1,1,.26,2,.63,3.05.85.58.13.72.4.71.94C31.72,48.41,31.75,49.65,31.75,50.89ZM55.07,63a4.92,4.92,0,1,0-5-4.94A4.94,4.94,0,0,0,55.07,63Zm1-11.94c-.09-.58-.41-1-1-.92a.89.89,0,0,0-.9.93.9.9,0,0,0,1,1C55.73,52.05,56.05,51.67,56.1,51.07Zm-6.75,9.37c-.12-.54-.41-.92-1-.9a.88.88,0,0,0-.91.92.9.9,0,0,0,.95,1C49,61.44,49.27,61,49.35,60.44Zm13.29,0a.93.93,0,0,0-1.85,0,.87.87,0,0,0,1,1A.88.88,0,0,0,62.64,60.45Z" transform="translate(-14.43 -14.43)"/><path class="cls-1" d="M76.43,51.38c0-1.24,0-2.49,0-3.73a1.21,1.21,0,0,1,1.38-1.07c.25.07.21.26.21.43v8.08c0,.89-.76.66-1.19.75-.65.14-.38-.46-.39-.74C76.41,53.86,76.42,52.62,76.43,51.38Z" transform="translate(-14.43 -14.43)"/><path class="cls-1" d="M32.62,51.11c0-1.21,0-2.41,0-3.62,0-.26-.23-.81.31-.72s1.2-.13,1.19.75,0,1.87,0,2.81c0,1.57,0,3.14,0,4.71,0,.27.19.77-.39.68s-1.12.11-1.11-.71Z" transform="translate(-14.43 -14.43)"/></svg>