<svg id="Layer_1" data-name="Layer 1" xmlns="http://www.w3.org/2000/svg" viewBox="0 0 74.61 62.2"><defs><style>.cls-1{fill:none;stroke:#000;stroke-miterlimit:10;}</style></defs><title>SpecialtyVehicles</title><path class="cls-1" d="M74.25,85.6H72.39c-.1-.19-.28-.16-.44-.19A9.15,9.15,0,0,1,64.7,79.5c-.2-.51-.51-.52-.92-.52-3.52,0-7,0-10.55,0a1,1,0,0,0-1,.72,9.11,9.11,0,0,1-6.45,5.59,4.09,4.09,0,0,0-1.37.32H42.17c-.24-.3-.61-.25-.92-.33a8.33,8.33,0,0,1-5.86-4.55,2.61,2.61,0,0,0-3-1.77,4.77,4.77,0,0,1-3.31-.75c-1.76-1.59-3.9-3.06-3.89-5.94,0-.34-.07-.68-.08-1,0-1.85,0-3.7,0-5.54,0-.69-.1-1.09-.86-1.13a4.43,4.43,0,0,1-3.5-1.93,2.85,2.85,0,0,0-.42-.43,4.69,4.69,0,0,1-1.92-3.48c0-.18,0-.42-.24-.52V31c.42-.52.34-1.19.49-1.79a2,2,0,0,1,.47-1c.93-.93,1.83-1.88,2.74-2.82a1.14,1.14,0,0,1,.63-.43,22.48,22.48,0,0,1,3.57-.56q15.57,0,31.13,0a12.12,12.12,0,0,1,4.58.53c1.88.75,3,2.43,4.18,4,0,0,0,.11,0,.17a16.42,16.42,0,0,1,.49,4.37c0,.88-.38,2.05.14,2.59s1.71.18,2.6.19c2.47,0,5,0,7.42,0a4.86,4.86,0,0,1,1.25.15c1.8.48,2.87,1.93,3.82,3.35,2.85,4.22,5.61,8.51,8.32,12.83a11.83,11.83,0,0,1,1.68,5.81c.16,3.87,0,7.74.06,11.61a10.24,10.24,0,0,1-.58,4.34,8.53,8.53,0,0,1-3.88,4,7.7,7.7,0,0,1-4.14.58,1,1,0,0,0-1.12.73,9.08,9.08,0,0,1-6.46,5.56C75.16,85.39,74.66,85.31,74.25,85.6ZM42.37,60H59.92a1.87,1.87,0,0,0,2-2V31.19a1.88,1.88,0,0,0-2-2H24.81a1.85,1.85,0,0,0-2,2V58a1.86,1.86,0,0,0,2,2Zm2.5,4.77c-4.72,0-9.45,0-14.18,0-.74,0-1,.16-1,1,.06,2.08,0,4.16,0,6.24,0,1.56.66,2.24,2.18,2.24.56,0,1.13,0,1.69,0s.93-.14,1.15-.79a9.34,9.34,0,0,1,17.57,0,1,1,0,0,0,1.08.78c3.4,0,6.81,0,10.21,0,.62,0,.84-.22,1.07-.79a8.9,8.9,0,0,1,8.17-6.1c3.8-.24,7,1.26,8.69,4.78.92,1.93,2,2.31,3.75,2.12a2,2,0,0,0,1.9-2c0-4.37,0-8.73,0-13.09a5.52,5.52,0,0,0-1-3.23Q82.58,50.27,79,44.62c-.62-1-1.26-1.91-1.79-2.93A1.06,1.06,0,0,0,76.06,41c-2.89,0-5.79,0-8.69,0-.79,0-.91.27-.9,1,0,4.7,0,9.41,0,14.12A21.69,21.69,0,0,1,66,60.23a1.48,1.48,0,0,1-.42.73l-2.75,2.82a1.12,1.12,0,0,1-.62.43,21.49,21.49,0,0,1-3.49.55C54.1,64.75,49.49,64.76,44.87,64.76Zm-6.6,11.65a5.25,5.25,0,1,0,5.26-5.17A5.2,5.2,0,0,0,38.27,76.41Zm40.39,0a5.24,5.24,0,1,0-5.23,5.12A5.2,5.2,0,0,0,78.66,76.44Z" transform="translate(-17.69 -23.9)"/><path class="cls-1" d="M68.83,52.8V45.17a1.87,1.87,0,0,1,2-2h3a.71.71,0,0,1,.74.41,112.32,112.32,0,0,0,6,9.75A9.77,9.77,0,0,1,82.33,60c-.06.58.13,1.17-.36,1.71a2.2,2.2,0,0,1-1.81.83c-3.18-.05-6.36,0-9.54,0a1.87,1.87,0,0,1-1.79-1.85Zm2.23,0c0,2.16,0,4.33,0,6.49,0,.64.15.85.8.84,2.24,0,4.49,0,6.74,0,1.47,0,1.4,0,1.5-1.51A6.14,6.14,0,0,0,79,54.66q-2.55-3.88-4.88-7.89a2.06,2.06,0,0,0-2.19-1.25c-.73,0-.87.28-.86,1C71.09,48.58,71.06,50.69,71.06,52.8Z" transform="translate(-17.69 -23.9)"/></svg>