<svg id="Layer_1" data-name="Layer 1" xmlns="http://www.w3.org/2000/svg" viewBox="0 0 86.25 35.39"><defs><style>.cls-1{fill:#fff;stroke:#231f20;stroke-miterlimit:10;}</style></defs><title>Suppliers</title><path class="cls-1" d="M12.38,47.48a2.72,2.72,0,0,1,2.23-.8c6.46,0,12.93,0,19.39,0a4.92,4.92,0,0,1,.86,0,1.18,1.18,0,0,1,1.06,1.19,1.19,1.19,0,0,1-1,1.26,3.5,3.5,0,0,1-.86,0c-6.56,0-13.12,0-19.68,0a2.07,2.07,0,0,1-2-1Z" transform="translate(-11.88 -37.3)"/><path class="cls-1" d="M55.2,37.82c5.27,0,10.55,0,15.83,0,.78,0,1,.17,1,1,0,7.21,0,14.41,0,21.62,0,.32-.2.81.24.94a2.74,2.74,0,0,0,1.7,0c.33-.12.17-.58.17-.88,0-4.86,0-9.72,0-14.58,0-.84.16-1.16,1.09-1.14,3.12.06,6.25.07,9.36,0A4,4,0,0,1,88.59,47q2.86,5.35,5.66,10.75a5.57,5.57,0,0,1,.18,2.75c0,.8.13,1.19,1,1.1.69-.07,1.55-.28,1.85.72a4.28,4.28,0,0,1-.22,3.63c-.19.3-.55.29-.88.29-.93,0-1.86,0-2.79,0-.63,0-.82-.22-.92-.79a7.38,7.38,0,0,0-5.79-6.26,7.6,7.6,0,0,0-9.27,6.08c-.11.66-.36.83-1,.83Q67.11,66,57.75,66c-.64,0-.81-.26-.92-.79a7.63,7.63,0,0,0-15-.14c-.16.76-.47.9-1.14.88-1.54-.06-3.09-.08-4.63-.08-.48,0-.72-.15-.71-.66s-.05-1,0-1.54c.07-1.2.64-1.85,2-2,.77-.1.9-.39.9-1.08,0-7.2,0-14.41-.05-21.61,0-1,.31-1.19,1.24-1.19C44.71,37.85,50,37.82,55.2,37.82ZM83.82,56.5v-.09c2,0,3.92,0,5.87,0,.64,0,.7-.17.43-.7q-2-3.82-3.85-7.66a.94.94,0,0,0-1-.6c-2.47,0-5,0-7.42,0-.64,0-.82.19-.81.82,0,2.44,0,4.88,0,7.32,0,.77.3.91,1,.89C80,56.48,81.89,56.5,83.82,56.5Z" transform="translate(-11.88 -37.3)"/><path class="cls-1" d="M54.87,66.62a5.53,5.53,0,0,1-5.55,5.58,5.61,5.61,0,0,1-5.6-5.57A5.67,5.67,0,0,1,49.31,61,5.58,5.58,0,0,1,54.87,66.62Zm-2.9,0a2.69,2.69,0,0,0-2.69-2.7,2.75,2.75,0,0,0-2.64,2.68,2.7,2.7,0,0,0,2.72,2.68A2.65,2.65,0,0,0,52,66.64Z" transform="translate(-11.88 -37.3)"/><path class="cls-1" d="M85,72.2a5.58,5.58,0,0,1-5.58-5.57,5.59,5.59,0,1,1,11.17,0A5.58,5.58,0,0,1,85,72.2Zm2.69-5.6A2.69,2.69,0,1,0,85,69.3,2.74,2.74,0,0,0,87.66,66.6Z" transform="translate(-11.88 -37.3)"/><path class="cls-1" d="M26.47,44.77H18.56c-1,0-1.71-.51-1.69-1.28s.65-1.22,1.65-1.22q8,0,16,0c1.13,0,1.67.42,1.65,1.27s-.56,1.23-1.71,1.23Z" transform="translate(-11.88 -37.3)"/><path class="cls-1" d="M28,40.34H21.66c-1,0-1.59-.45-1.58-1.26s.55-1.24,1.6-1.24H34.4c1.05,0,1.58.44,1.57,1.26s-.53,1.24-1.59,1.24Z" transform="translate(-11.88 -37.3)"/></svg>