<svg id="Layer_1" data-name="Layer 1" xmlns="http://www.w3.org/2000/svg" viewBox="0 0 79.87 80.86"><defs><style>.cls-1{fill:#fff;stroke:#000;stroke-miterlimit:10;stroke-width:2px;}</style></defs><title>TireSuppliers</title><path class="cls-1" d="M16.06,56.15V53.82c.26-.11.19-.35.21-.54.2-1.47.13-3,.46-4.43.38-1.68,1.09-3,3.31-3.18-2.2-1.19-1.56-2.94-1.27-4.58A7.42,7.42,0,0,1,20,38.41a10.17,10.17,0,0,0,.74-1.52,7.82,7.82,0,0,1,3.61-4.37c.88-.44,1.44-.66,1.4-1.94-.07-2,1.5-3.27,3-4.4A13.69,13.69,0,0,0,30.09,25c1.83-1.84,3.94-3,6.72-2.58-.26-1.18.46-1.89,1.3-2.5A7,7,0,0,1,39.64,19a58.42,58.42,0,0,1,5.9-2,9.59,9.59,0,0,1,1.77-.19,2,2,0,0,1,1.94,1c.29.45.57.91,1,1.57.18-2.1.87-3.53,3-3.67h3.58A35.52,35.52,0,0,1,62,16.3c1.85.43,2.31,1,2.51,2.83,0,.19-.07.41.18.6.17-.21.35-.4.49-.61a2.37,2.37,0,0,1,2.79-1,26.3,26.3,0,0,1,8.82,4.37,1.77,1.77,0,0,1,.83,1.85c-.1.45.12.55.53.57a6.21,6.21,0,0,1,4.24,2c1.1,1.12,2.15,2.3,3.19,3.48a9.66,9.66,0,0,1,1.95,3.39,1.73,1.73,0,0,1,0,1.55c-.27.42,0,.55.32.7a5.62,5.62,0,0,1,2.91,3.13,49.86,49.86,0,0,1,1.94,5.46c.55,2,1,4-1.58,5.49a2.46,2.46,0,0,1,2.76,2.51A31.09,31.09,0,0,1,93.26,62a2.63,2.63,0,0,1-2.39,2.31,2.07,2.07,0,0,0-.47.19,2.48,2.48,0,0,1,1.4,2,6.53,6.53,0,0,1-.29,2.2,36.1,36.1,0,0,1-3.39,7.06,4.83,4.83,0,0,1-1.64,1.63,3,3,0,0,0-1.74,2.22A8.81,8.81,0,0,1,81.42,84a16.48,16.48,0,0,0-1.49,1.28c-1.44,1.39-3,2.55-5.14,2.56-.73,0-1.38-.08-1.19,1,0,.13-.13.32-.25.45A7.73,7.73,0,0,1,71.11,91a45,45,0,0,1-6.46,2.26c-2.07.61-3.14.07-4.25-1.75-.07-.12-.16-.23-.33-.48a3.26,3.26,0,0,1-3.34,3.32,33.78,33.78,0,0,1-8.09-.49,3.33,3.33,0,0,1-2-1.23,4.75,4.75,0,0,1-.8-2.77l-.47.61c-1.28,1.77-1.95,2-4,1.42a6,6,0,0,1-.92-.34c-1.66-.79-3.34-1.53-4.95-2.41s-2.7-2-2.66-4a2.83,2.83,0,0,1-1.23,0,8.06,8.06,0,0,1-5.05-3.42,9.2,9.2,0,0,0-1.06-1.19c-1.66-1.59-3-3.33-2.46-5.86.07-.31-.06-.42-.3-.53-2.3-1.1-3.36-3.1-4-5.43a5.69,5.69,0,0,0-.37-1.1,10.4,10.4,0,0,1-1.08-5A2.4,2.4,0,0,1,18.83,60s0-.1,0-.18a3.63,3.63,0,0,1-2.62-3.43A.28.28,0,0,0,16.06,56.15ZM80.29,55a25.24,25.24,0,1,0-25.81,25.6A25.34,25.34,0,0,0,80.29,55Z" transform="translate(-15.06 -14.57)"/><path class="cls-1" d="M53.24,15.7a.57.57,0,0,1,0-.13h3.57v.12Z" transform="translate(-15.06 -14.57)"/><path class="cls-1" d="M77.61,55.05A22.54,22.54,0,1,1,55.12,32.52,22.55,22.55,0,0,1,77.61,55.05ZM55.1,61a6,6,0,1,0-6-5.94A6,6,0,0,0,55.1,61Zm1.39,8.15c0,1.6,0,3.21,0,4.82,0,.55.17.73.73.67a19.64,19.64,0,0,0,10.31-4.31c.38-.3.39-.49,0-.83q-3.46-3.42-6.89-6.88c-.29-.3-.51-.4-.9-.13a7,7,0,0,1-2.69,1.13c-.5.11-.61.34-.61.79C56.5,66,56.49,67.55,56.49,69.13ZM40.91,53.61c1.58,0,3.15,0,4.73,0,.48,0,.76-.08.87-.63a7,7,0,0,1,1.13-2.69.55.55,0,0,0-.09-.84Q44.06,46,40.6,42.52c-.33-.33-.51-.26-.76.06a19.65,19.65,0,0,0-4.32,10.21c-.07.63.1.85.75.84C37.81,53.59,39.36,53.61,40.91,53.61Zm28.31,0c1.58,0,3.16,0,4.74,0,.57,0,.8-.14.72-.76a20.06,20.06,0,0,0-4.29-10.24c-.33-.41-.53-.39-.89,0q-3.36,3.4-6.76,6.76c-.36.36-.44.62-.14,1.06a6.53,6.53,0,0,1,1,2.54c.1.57.41.68.92.67C66.12,53.6,67.67,53.61,69.22,53.61ZM56.49,40.84c0,1.52,0,3,0,4.55,0,.63.11,1,.8,1.1a5.71,5.71,0,0,1,2.37,1c.47.33.75.24,1.13-.14,2.21-2.25,4.44-4.49,6.69-6.69.48-.47.33-.67-.09-1a20.16,20.16,0,0,0-10.09-4.2c-.65-.08-.83.12-.81.75C56.51,37.74,56.49,39.29,56.49,40.84Zm12.73,15.6c-1.58,0-3.16,0-4.73,0-.45,0-.72.11-.82.59a7.23,7.23,0,0,1-1.13,2.7c-.27.39-.14.62.15.91q3.42,3.39,6.82,6.82c.35.36.56.39.9,0a20.1,20.1,0,0,0,4.28-10.23c.07-.63-.17-.77-.74-.76C72.37,56.46,70.8,56.44,69.22,56.44ZM53.66,40.91c0-1.6,0-3.21,0-4.82,0-.57-.19-.72-.74-.65a20,20,0,0,0-10.17,4.23c-.41.34-.5.54-.07,1Q46.1,44,49.45,47.39a.7.7,0,0,0,1.06.1,6.61,6.61,0,0,1,2.46-1c.54-.1.71-.36.7-.9C53.64,44,53.66,42.46,53.66,40.91Zm0,28.31c0-1.61,0-3.21,0-4.82,0-.44-.08-.7-.59-.8a7.25,7.25,0,0,1-2.7-1.14.54.54,0,0,0-.83.1Q46.12,66,42.66,69.44c-.37.36-.38.57,0,.9a19.63,19.63,0,0,0,10.24,4.27c.55.06.74-.1.74-.66C53.64,72.38,53.66,70.8,53.66,69.22ZM40.92,56.44c-1.48,0-3,0-4.46,0-.78,0-1,.17-.93,1a19.8,19.8,0,0,0,4.22,10c.31.39.52.46.9.07q3.42-3.46,6.88-6.88a.59.59,0,0,0,.08-.9,6.48,6.48,0,0,1-1.07-2.52c-.11-.63-.42-.74-1-.73C44,56.46,42.47,56.44,40.92,56.44Z" transform="translate(-15.06 -14.57)"/></svg>