<svg id="Layer_1" data-name="Layer 1" xmlns="http://www.w3.org/2000/svg" viewBox="0 0 56.15 56.15"><defs><style>.cls-1{fill:#fff;}</style></defs><title>B1</title><ellipse class="cls-1" cx="23.52" cy="10.47" rx="23.52" ry="10.47"/><path class="cls-1" d="M55.89,75.85a4.35,4.35,0,0,1-3.19-3.41c-.74,0-1.49,0-2.25,0-13,0-23.53-4.68-23.53-10.47v8c0,5.79,10.53,10.47,23.53,10.47a50.23,50.23,0,0,0,5.42-.29A4.31,4.31,0,0,1,55.89,75.85Z" transform="translate(-26.92 -26.92)"/><path class="cls-1" d="M50.45,69.62c.73,0,1.45,0,2.17-.05v-1.2a4.35,4.35,0,0,1,3.29-4.22,4.43,4.43,0,0,1-.57-2.76c-1.58.14-3.21.22-4.89.22-13,0-23.53-4.68-23.53-10.47v8C26.93,64.93,37.45,69.62,50.45,69.62Z" transform="translate(-26.92 -26.92)"/><path class="cls-1" d="M50.45,58.74a51.14,51.14,0,0,0,6.68-.43l1.76-1.76a4.33,4.33,0,0,1,5.27-.68,4.35,4.35,0,0,1,4.21-3.25h3.26l.17,0A6.16,6.16,0,0,0,74,48.27v-8c0,5.79-10.53,10.48-23.53,10.48S26.93,46.05,26.93,40.26v8C26.93,54.05,37.45,58.74,50.45,58.74Z" transform="translate(-26.92 -26.92)"/><path class="cls-1" d="M83.08,71.63V68.37l-3.89-.64a9.42,9.42,0,0,0-1.06-2.58l2.26-3.22-2.31-2.31L74.9,61.91a9.2,9.2,0,0,0-2.59-1.07L71.63,57H68.37l-.63,3.85a9.44,9.44,0,0,0-2.6,1.07L62,59.62l-2.3,2.31,2.23,3.19a9.53,9.53,0,0,0-1.08,2.61L57,68.37v3.26l3.84.68a8.94,8.94,0,0,0,1.08,2.61l-2.27,3.16,2.31,2.31,3.2-2.24a9.14,9.14,0,0,0,2.6,1.07l.64,3.86h3.26l.69-3.87a9.34,9.34,0,0,0,2.58-1.08l3.22,2.26,2.31-2.31-2.3-3.19a9.29,9.29,0,0,0,1.06-2.58ZM70,74.58A4.56,4.56,0,1,1,74.58,70,4.56,4.56,0,0,1,70,74.58Z" transform="translate(-26.92 -26.92)"/></svg>