<svg id="Layer_1" data-name="Layer 1" xmlns="http://www.w3.org/2000/svg" viewBox="0 0 63.32 69.02"><defs><style>.cls-1{fill:#fff;}</style></defs><title>B2</title><path class="cls-1" d="M60.85,76.15l-7.19,3.27a5.29,5.29,0,0,1-2.24.49,5.37,5.37,0,0,1-2.59-.67H33.45a2,2,0,0,1,0-4H46.08a5.33,5.33,0,0,1,.44-2.93L47,71.16H33.45a2,2,0,0,1,0-4H48.87l.93-2.05v0a4.27,4.27,0,0,1,.82-1.17l.81-.81h-18a2,2,0,0,1,0-4h22l4.05-4H33.45a2,2,0,0,1,0-4.05H63.56L74,40.47l0,0V29.52a2,2,0,0,0-2-2H67.34v-5a2,2,0,0,0-4,0v5H59.06v-5a2,2,0,0,0-4,0v5H50.78v-5a2,2,0,1,0-4,0v5H42.5v-5a2,2,0,1,0-4,0v5H34.22v-5a2,2,0,1,0-4,0v5H25.36a2,2,0,0,0-2,2V83.44a6.07,6.07,0,0,0,6.07,6.07H68a6.07,6.07,0,0,0,6.06-6.07V63.29l-12,12A3.9,3.9,0,0,1,60.85,76.15ZM48.76,46.9H33.45a2,2,0,0,1,0-4H48.76a2,2,0,0,1,0,4Z" transform="translate(-23.34 -20.49)"/><path class="cls-1" d="M74,46.18,53.48,66.74,50.2,74A1.34,1.34,0,0,0,52,75.74l7.22-3.28h0L79.76,51.9,74,46.18Z" transform="translate(-23.34 -20.49)"/><path class="cls-1" d="M85.47,40.47a4,4,0,0,0-5.71,0L76.9,43.32,82.62,49l2.85-2.86A4,4,0,0,0,85.47,40.47Z" transform="translate(-23.34 -20.49)"/></svg>