<svg id="Layer_1" data-name="Layer 1" xmlns="http://www.w3.org/2000/svg" viewBox="0 0 47.23 66.92"><defs><style>.cls-1{fill:#fff;}</style></defs><title>B3</title><path class="cls-1" d="M36.11,30.28h12.2v9H36.11Z" transform="translate(-31.38 -21.54)"/><path class="cls-1" d="M53.39,63.44a.85.85,0,0,1,.44-.74l12.34-6.76a.69.69,0,0,1,0-.2V22.21L63,24.76a.83.83,0,0,1-1.05,0l-4-3.22-4,3.22a.83.83,0,0,1-1.05,0l-4-3.22-4,3.22a.83.83,0,0,1-1,0l-4-3.22-4,3.22a.83.83,0,0,1-1,0l-3.19-2.55V84.79l3.19-2.55a.84.84,0,0,1,1.06,0l4,3.22,4-3.22a.83.83,0,0,1,1.05,0l4,3.22,4-3.22a.83.83,0,0,1,1.1.05l3.29,3.17,1-.67a18.6,18.6,0,0,1-4.79-12.45Zm8.86-9.39H44.61a.84.84,0,0,1,0-1.68H62.25a.84.84,0,1,1,0,1.68Zm0-6.94H44.61a.84.84,0,0,1,0-1.68H62.25a.84.84,0,1,1,0,1.68ZM53.43,28.6h8.82a.84.84,0,1,1,0,1.68H53.43a.84.84,0,1,1,0-1.68Zm0,3.56h8.82a.84.84,0,1,1,0,1.68H53.43a.84.84,0,0,1,0-1.68Zm0,3.56h8.82a.84.84,0,1,1,0,1.68H53.43a.84.84,0,0,1,0-1.68Zm0,3.57h8.82a.84.84,0,1,1,0,1.68H53.43a.84.84,0,0,1,0-1.68Zm-19-9.85a.84.84,0,0,1,.84-.84H49.15a.84.84,0,0,1,.85.84V40.13a.85.85,0,0,1-.85.84H35.27a.85.85,0,0,1-.84-.84Zm6.88,17.67H38.85a.84.84,0,1,1,0-1.68h2.46a.84.84,0,1,1,0,1.68Zm.84,6.1a.85.85,0,0,1-.84.84H38.85a.84.84,0,1,1,0-1.68h2.46a.84.84,0,0,1,.84.84Zm-6.88-7.78h.33a.84.84,0,1,1,0,1.68h-.33a.84.84,0,1,1,0-1.68Zm0,6.94h.33a.84.84,0,1,1,0,1.68h-.33a.84.84,0,1,1,0-1.68Zm0,8.34h.33a.84.84,0,0,1,0,1.68h-.33a.84.84,0,0,1,0-1.68Zm3.87,10.07h.72a.84.84,0,1,1,0,1.68h-.72a3,3,0,0,1-2.31,2.07l2.12,2a.85.85,0,0,1,0,1.19.83.83,0,0,1-1.19,0L34.2,74.35a.86.86,0,0,1-.2-.92.85.85,0,0,1,.78-.53h1.47a1.31,1.31,0,0,0,1-.47l-2.46,0a.84.84,0,1,1,0-1.68h0l2.46,0-.08-.09a1.32,1.32,0,0,0-.93-.4l-1.45,0a.83.83,0,0,1-.83-.84.84.84,0,0,1,.84-.84h0l1.44,0,3.6,0a.84.84,0,1,1,0,1.68H39a2.15,2.15,0,0,1,.18.48Zm-.29-8.39a.84.84,0,0,1,0-1.68h2.46a.84.84,0,0,1,0,1.68Zm7.82,8.39h.71a.84.84,0,1,1,0,1.68h-.72a3,3,0,0,1-2.3,2.07l2.11,2a.84.84,0,1,1-1.17,1.21l-3.57-3.44a.86.86,0,0,1-.19-.93.84.84,0,0,1,.79-.52h1.45a1.29,1.29,0,0,0,.93-.37l.09-.1-2.47,0a.84.84,0,0,1,0-1.68h0l2.46,0-.08-.09a1.32,1.32,0,0,0-.93-.4l-1.45,0a.84.84,0,0,1-.83-.84.85.85,0,0,1,.84-.84h0l1.45,0,3.6,0a.83.83,0,0,1,.83.84.84.84,0,0,1-.84.84h-.92a3.19,3.19,0,0,1,.19.48Zm6.06-8.39H44.61a.84.84,0,0,1,0-1.68h8.12a.84.84,0,0,1,0,1.68Z" transform="translate(-31.38 -21.54)"/><path class="cls-1" d="M55.07,63.93v8.41A16.91,16.91,0,0,0,60,84.26a.71.71,0,0,1,.15.15,17,17,0,0,0,5.09,3.45l1.39.6,1.61-.69h0a16.93,16.93,0,0,0,10.38-15.6V63.94l-12-6.36Zm18.27,5.44a.85.85,0,0,1-.12,1.19l-7.84,6.37a.84.84,0,0,1-1.17-.11l-3.36-3.93a.84.84,0,1,1,1.28-1.1L65,75.11l7.19-5.86A.85.85,0,0,1,73.34,69.37Z" transform="translate(-31.38 -21.54)"/></svg>