<svg id="Layer_1" data-name="Layer 1" xmlns="http://www.w3.org/2000/svg" viewBox="0 0 70.44 73.32"><defs><style>.cls-1{fill:#fff;}</style></defs><title>B4</title><path class="cls-1" d="M29.74,33.61a1.85,1.85,0,0,0,2.59-.34,28.48,28.48,0,0,1,45.34,0,1.87,1.87,0,0,0,1.47.72,1.81,1.81,0,0,0,1.12-.38A1.85,1.85,0,0,0,80.61,31a32.2,32.2,0,0,0-51.22,0A1.85,1.85,0,0,0,29.74,33.61Z" transform="translate(-19.78 -18.34)"/><path class="cls-1" d="M74.64,43.47A5.77,5.77,0,1,0,80.4,37.7a5.77,5.77,0,0,0-5.76,5.77Z" transform="translate(-19.78 -18.34)"/><path class="cls-1" d="M86.31,51.15l-1.47-.45A1.73,1.73,0,0,0,83.3,51l-2.9,2.17L77.51,51A1.73,1.73,0,0,0,76,50.7l-1.47.45a5.71,5.71,0,0,0-3.91,5.43V65.3a1.75,1.75,0,0,0,.28.94L73.8,70.7V82.39a1.72,1.72,0,0,0,1.72,1.72h9.77A1.72,1.72,0,0,0,87,82.39V70.7l2.93-4.46a1.75,1.75,0,0,0,.28-.94V56.58a5.71,5.71,0,0,0-3.91-5.43Z" transform="translate(-19.78 -18.34)"/><path class="cls-1" d="M29.59,49.24a5.77,5.77,0,1,0-5.76-5.77A5.77,5.77,0,0,0,29.59,49.24Z" transform="translate(-19.78 -18.34)"/><path class="cls-1" d="M35.5,51.15,34,50.7a1.73,1.73,0,0,0-1.54.27l-2.9,2.17L26.7,51a1.73,1.73,0,0,0-1.54-.27l-1.47.45a5.71,5.71,0,0,0-3.91,5.43V65.3a1.75,1.75,0,0,0,.28.94L23,70.7V82.39a1.72,1.72,0,0,0,1.72,1.72h9.77a1.72,1.72,0,0,0,1.72-1.72V70.7l2.93-4.46a1.75,1.75,0,0,0,.28-.94V56.58A5.71,5.71,0,0,0,35.5,51.15Z" transform="translate(-19.78 -18.34)"/><path class="cls-1" d="M62.44,35.34A7.44,7.44,0,1,0,55,42.78,7.45,7.45,0,0,0,62.44,35.34Z" transform="translate(-19.78 -18.34)"/><path class="cls-1" d="M63.17,46.38h0L61,45.73a.67.67,0,0,0-.82.4L55.76,58.39a.81.81,0,0,1-1.52,0L49.78,46.13a.67.67,0,0,0-.62-.43c-.07,0-2.32.68-2.32.68a6.59,6.59,0,0,0-4.52,6.26v13a.68.68,0,0,0,.1.36l4.66,7.09V91a.66.66,0,0,0,.66.66H62.26a.66.66,0,0,0,.66-.66V73.06L67.58,66a.68.68,0,0,0,.1-.36v-13a6.57,6.57,0,0,0-4.51-6.23Z" transform="translate(-19.78 -18.34)"/><path class="cls-1" d="M56.74,46.13a1,1,0,0,0-.72-.31H54a1,1,0,0,0-.73.31,1,1,0,0,0-.12,1.11l1.09,1.64-.51,4.3,1,2.66a.31.31,0,0,0,.58,0l1-2.66-.51-4.3,1.09-1.64A.94.94,0,0,0,56.74,46.13Z" transform="translate(-19.78 -18.34)"/></svg>