<svg id="Layer_1" data-name="Layer 1" xmlns="http://www.w3.org/2000/svg" viewBox="0 0 68.86 68.74"><defs><style>.cls-1{fill:#fff;}</style></defs><title>B5</title><path class="cls-1" d="M78,54.41l-1.33-9.69A3.22,3.22,0,0,0,73,41.92l-9.69,1.33a3.26,3.26,0,0,0,.87,6.46l1.29-.17-3,4.29L56.66,43.26a3.26,3.26,0,0,0-5.29-.43l-7.93,9.39H40.35a3.24,3.24,0,0,0,0,6.47h4.56a3.13,3.13,0,0,0,2.49-1.17l5.87-6.91,6,11a3.07,3.07,0,0,0,5.43.29l6.41-9.13.34,2.51c.9,3.25,3.53,2.8,3.67,2.8A3.33,3.33,0,0,0,78,54.41Z" transform="translate(-20.57 -20.63)"/><path class="cls-1" d="M80.09,30a31.86,31.86,0,0,0-47.28,42.6L21.57,83.82a3.22,3.22,0,1,0,4.55,4.56L37.36,77.14A31.86,31.86,0,0,0,80.09,30ZM57.55,78.44a25.95,25.95,0,1,1,26-25.95A26,26,0,0,1,57.55,78.44Z" transform="translate(-20.57 -20.63)"/></svg>