<svg id="Layer_1" data-name="Layer 1" xmlns="http://www.w3.org/2000/svg" viewBox="0 0 88.62 79.97"><defs><style>.cls-1{fill:#fff;}</style></defs><title>B6</title><path class="cls-1" d="M88.22,72.68,99.31,61.59,88.22,50.49,90,48.71a7.93,7.93,0,0,0-5.61-13.54,7.85,7.85,0,0,0-5.6,2.32L77,39.28,65.91,28.19l-3.28,3.27v5.17a13.16,13.16,0,0,1,0,25.61v16H53L51.12,80.2,65.91,95,77,83.89l1.54,1.55A7.93,7.93,0,0,0,89.76,74.22Z" transform="translate(-10.69 -15.01)"/><path class="cls-1" d="M57.93,72.71V57h2.18a7.93,7.93,0,1,0,0-15.86H57.93V25.47H42.24V22.94a7.93,7.93,0,1,0-15.86,0v2.53H10.69V41.16h2.18a8,8,0,0,1,7.78,6.36,2.72,2.72,0,0,1,.5,1.57,2.77,2.77,0,0,1-.5,1.57A8,8,0,0,1,12.87,57H10.69V72.71H26.38V70.18a7.93,7.93,0,0,1,15.86,0v2.53Z" transform="translate(-10.69 -15.01)"/></svg>