<svg id="Layer_1" data-name="Layer 1" xmlns="http://www.w3.org/2000/svg" viewBox="0 0 72.02 72.02"><defs><style>.cls-1{fill:#fff;}.cls-2{font-size:36px;fill:#c15e5e;font-family:RupeeForadian, Rupee Foradian;}</style></defs><title>B7</title><path class="cls-1" d="M46.56,91c6.22,0,11-.59,14.91-1.81a7.54,7.54,0,0,1-.14-1.35,7.37,7.37,0,0,1,2.23-5.28,7.35,7.35,0,0,1,0-10.55,7.35,7.35,0,0,1,0-10.55,7.33,7.33,0,0,1,.81-11.21,31,31,0,0,0-4-3.09,4.14,4.14,0,0,0,1-2.58,4.22,4.22,0,0,0-4.22-4.22H36a4.22,4.22,0,0,0-4.22,4.22,4.14,4.14,0,0,0,1,2.58A30.19,30.19,0,0,0,19,72C19,89,34.78,91,46.56,91Z" transform="translate(-18.99 -18.99)"/><path class="cls-1" d="M87.85,84.68H68.72a3.17,3.17,0,1,0,0,6.33H87.85a3.17,3.17,0,0,0,0-6.33Z" transform="translate(-18.99 -18.99)"/><path class="cls-1" d="M87.85,74.13H68.72a3.17,3.17,0,1,0,0,6.33H87.85a3.17,3.17,0,0,0,0-6.33Z" transform="translate(-18.99 -18.99)"/><path class="cls-1" d="M87.85,63.58H68.72a3.17,3.17,0,1,0,0,6.33H87.85a3.17,3.17,0,0,0,0-6.33Z" transform="translate(-18.99 -18.99)"/><path class="cls-1" d="M87.85,53H68.72a3.17,3.17,0,1,0,0,6.33H87.85a3.17,3.17,0,0,0,0-6.33Z" transform="translate(-18.99 -18.99)"/><path class="cls-1" d="M52.5,23.21a6.31,6.31,0,0,0-11.91,0H33.9a2.11,2.11,0,0,0-2,2.78l3.29,10.16H57.93L61.22,26a2.11,2.11,0,0,0-2-2.78Z" transform="translate(-18.99 -18.99)"/><text class="cls-2" transform="translate(16.82 62.13)">`</text></svg>