<svg id="Layer_1" data-name="Layer 1" xmlns="http://www.w3.org/2000/svg" viewBox="0 0 67.27 80.21"><defs><style>.cls-1{fill:#fff;}</style></defs><title>Im1</title><circle class="cls-1" cx="35.69" cy="30.67" r="3.04"/><path class="cls-1" d="M63.84,36.32l-.14-.11a10.78,10.78,0,0,1-4.3-6.59H54.71a10.78,10.78,0,0,1-4.3,6.6l-.14.1a10.89,10.89,0,0,1-7.63,2.07l-1.45,4.46A10.69,10.69,0,0,1,46.13,49l.06.17A11,11,0,0,1,45.8,57l3.8,2.76A10.82,10.82,0,0,1,56.88,57h.35a10.86,10.86,0,0,1,7.29,2.82L68.31,57a11,11,0,0,1-.38-7.91A1.09,1.09,0,0,1,68,49a10.73,10.73,0,0,1,4.94-6.11l-1.45-4.46a10.89,10.89,0,0,1-7.63-2.07Zm-6.78,17a7.74,7.74,0,1,1,7.74-7.74,7.75,7.75,0,0,1-7.74,7.74Z" transform="translate(-21.36 -14.89)"/><path class="cls-1" d="M57.38,14.89A31.29,31.29,0,0,0,26.13,46.15v4.1L21.46,65.68a2.35,2.35,0,0,0,1.48,2.9l8,2.76v11a2.35,2.35,0,0,0,2.35,2.35H45.19v8a2.36,2.36,0,0,0,2.35,2.35h28.6a2.35,2.35,0,0,0,2.35-2.35V69.2A31.26,31.26,0,0,0,57.38,14.89ZM72.47,50.36c0,.08,0,.17-.08.25a6.14,6.14,0,0,0,.82,5.55l.1.15a2.35,2.35,0,0,1-.52,3.28l-7.23,5.26a2.36,2.36,0,0,1-3.29-.52l-.11-.15a6.07,6.07,0,0,0-4.93-2.5h-.3a6.09,6.09,0,0,0-5,2.5l-.11.15a2.35,2.35,0,0,1-3.28.52l-7.24-5.26a2.29,2.29,0,0,1-.94-1.53,2.32,2.32,0,0,1,.42-1.75l.11-.15a6.17,6.17,0,0,0,.81-5.55,2.41,2.41,0,0,0-.08-.25,6,6,0,0,0-3.89-3.92l-.18-.06a2.35,2.35,0,0,1-1.51-3l2.77-8.51A2.31,2.31,0,0,1,40,33.55a2.28,2.28,0,0,1,1.79-.14l.18.05a6.13,6.13,0,0,0,5.51-.92l.2-.15a6.06,6.06,0,0,0,2.55-4.93v-.19a2.35,2.35,0,0,1,2.35-2.35h9a2.35,2.35,0,0,1,2.35,2.35v.19a6.06,6.06,0,0,0,2.55,4.93l.2.15a6.13,6.13,0,0,0,5.51.92l.18-.06a2.36,2.36,0,0,1,3,1.51l2.77,8.51a2.35,2.35,0,0,1-1.51,3l-.18.06h0a6,6,0,0,0-3.89,3.92Z" transform="translate(-21.36 -14.89)"/></svg>