<svg id="Layer_1" data-name="Layer 1" xmlns="http://www.w3.org/2000/svg" viewBox="0 0 78.35 78.35"><defs><style>.cls-1{fill:#fff;}</style></defs><title>Im2</title><path class="cls-1" d="M45.74,46.89H49.6V43A5.4,5.4,0,0,0,45.74,46.89Z" transform="translate(-15.82 -15.82)"/><path class="cls-1" d="M56.35,48.25A5.41,5.41,0,0,0,52.3,43V53.46A5.4,5.4,0,0,0,56.35,48.25Z" transform="translate(-15.82 -15.82)"/><path class="cls-1" d="M57.79,28A4.12,4.12,0,0,1,60.9,29.4l.85,1V26.63H18.53V59.05H61.75V44l-7.19-9a4.1,4.1,0,0,1-.91-2.58v-.29A4.15,4.15,0,0,1,57.79,28ZM23.93,52.3h-2.7V49.6h2.7Zm16.21,0H26.63V49.6H40.14Zm0-5.41H21.23v-2.7h2.7V37.44h2.7v6.75h2.7V33.39H32v10.8h2.71V29.33h2.7V44.19h2.7Zm18.91,1.36A8.11,8.11,0,1,1,51,40.14,8.1,8.1,0,0,1,59.05,48.25Z" transform="translate(-15.82 -15.82)"/><path class="cls-1" d="M29.33,67.16H51v2.7H29.33Z" transform="translate(-15.82 -15.82)"/><path class="cls-1" d="M82,34.74a5.41,5.41,0,0,0,5.4-5.41v-2.7a5.41,5.41,0,0,0-10.81,0v2.7A5.42,5.42,0,0,0,82,34.74Z" transform="translate(-15.82 -15.82)"/><path class="cls-1" d="M81.86,42.83l-1.12,9L82,53.09l1.28-1.28-1.13-9h-.31Z" transform="translate(-15.82 -15.82)"/><path class="cls-1" d="M49.6,53.46V49.6H45.74A5.39,5.39,0,0,0,49.6,53.46Z" transform="translate(-15.82 -15.82)"/><path class="cls-1" d="M64.46,21.23H51.74l-5.4-5.41H34l-5.41,5.41H15.82v2.7H64.46Zm-17.57,0H33.39v-2.7h13.5Z" transform="translate(-15.82 -15.82)"/><path class="cls-1" d="M84.72,38.42V37a8,8,0,0,1-5.4,0v1.45A3.45,3.45,0,0,0,82,40.14,3.49,3.49,0,0,0,84.72,38.42Z" transform="translate(-15.82 -15.82)"/><path class="cls-1" d="M15.82,61.75H64.46v2.71H15.82Z" transform="translate(-15.82 -15.82)"/><path class="cls-1" d="M83.37,94.18h5.4V61.75h-5.4Z" transform="translate(-15.82 -15.82)"/><path class="cls-1" d="M75.26,61.75h5.41V94.18H75.26Z" transform="translate(-15.82 -15.82)"/><path class="cls-1" d="M48.87,72.56l8.41,21.62h2.5L51.37,72.56Z" transform="translate(-15.82 -15.82)"/><path class="cls-1" d="M91.86,41l-5.12-.73a7.14,7.14,0,0,1-1.94,1.8l1.34,10.74L82,56.91l-4.13-4.12,1.34-10.74a7.08,7.08,0,0,1-1.93-1.8L68,41.58l-9.1-10.41a1.44,1.44,0,0,0-2.52.95v.29a1.39,1.39,0,0,0,.32.89L66.05,45a1.34,1.34,0,0,0,1,.5h8.16V59.05H88.77V45.54h2.7V64.46a1.36,1.36,0,0,0,2.71,0V43.66A2.72,2.72,0,0,0,91.86,41Z" transform="translate(-15.82 -15.82)"/><path class="cls-1" d="M28.91,72.56,20.5,94.18H23l8.4-21.62Z" transform="translate(-15.82 -15.82)"/><path class="cls-1" d="M38.79,72.56h2.7V94.18h-2.7Z" transform="translate(-15.82 -15.82)"/></svg>