<svg id="Layer_1" data-name="Layer 1" xmlns="http://www.w3.org/2000/svg" viewBox="0 0 67.27 76.95"><defs><style>.cls-1{fill:#fff;}</style></defs><title>Im3</title><path class="cls-1" d="M45.45,54.43l5.07,8.39,5.06-8.39V25.76H45.45Z" transform="translate(-21.36 -16.53)"/><path class="cls-1" d="M45.45,16.53H55.58v7H45.45Z" transform="translate(-21.36 -16.53)"/><path class="cls-1" d="M34.48,59.53V21.27H26.34a5,5,0,0,0-5,5v35.3a7.16,7.16,0,0,1,5-2Z" transform="translate(-21.36 -16.53)"/><path class="cls-1" d="M57.76,54.74a1.09,1.09,0,0,1-.15.56L51.45,65.5a1.09,1.09,0,0,1-1.87,0L43.43,55.3a1,1,0,0,1-.16-.56V31.2l-6.61-.07v29.5a1.09,1.09,0,0,1-1.09,1.09H26.34a5,5,0,0,0-5,5v3.17a5,5,0,0,0,5,5H64V44.19a1.09,1.09,0,0,1,1.09-1.1H81.52a1.09,1.09,0,0,1,1.09,1.1v8.88a.92.92,0,0,1,0,.52v7.57a.92.92,0,0,1,0,.52v7.48a.92.92,0,0,1,0,.52v5.15h6V31.47L57.76,31.3Z" transform="translate(-21.36 -16.53)"/><path class="cls-1" d="M66.2,93.47H80.43v-15H75.84a1.09,1.09,0,0,1,0-2.18h4.59V70.51H75.84a1.09,1.09,0,0,1,0-2.18h4.59V62.51H75.84a1.09,1.09,0,0,1,0-2.18h4.59V54.42H75.84a1.09,1.09,0,1,1,0-2.18h4.59v-7H66.2Zm7-11.07a4,4,0,1,1-4,4A4,4,0,0,1,73.2,82.4Z" transform="translate(-21.36 -16.53)"/><circle class="cls-1" cx="51.84" cy="69.86" r="1.81"/></svg>