<svg id="Layer_1" data-name="Layer 1" xmlns="http://www.w3.org/2000/svg" viewBox="0 0 78.43 78.35"><defs><style>.cls-1{fill:#fff;}</style></defs><title>Im4</title><path class="cls-1" d="M51.52,33.43A18.21,18.21,0,0,0,50,69.78,23.21,23.21,0,0,1,69.66,50.13a18.2,18.2,0,0,0-18.14-16.7Z" transform="translate(-15.78 -15.82)"/><path class="cls-1" d="M49.84,71.81A20.25,20.25,0,1,1,71.67,49.92c.45,0,.87,0,1.32,0a23,23,0,0,1,14.16,4.85V47.16l-7-.68a1,1,0,0,1-.86-.8,27.76,27.76,0,0,0-4-9.48A1,1,0,0,1,75.32,35l4.52-5.46-6.21-6.29-5.45,4.51a1,1,0,0,1-1.21.07,28.6,28.6,0,0,0-9.49-4,1,1,0,0,1-.81-.91L56,15.82H47.05l-.68,7.08a1,1,0,0,1-.8.91,27.81,27.81,0,0,0-9.49,4,1,1,0,0,1-1.22-.06l-5.45-4.52-6.3,6.3L27.63,35a1,1,0,0,1,.08,1.2,28.65,28.65,0,0,0-4,9.5,1,1,0,0,1-.88.8l-7,.68v9l7,.68a1,1,0,0,1,.86.8,27.78,27.78,0,0,0,4,9.48,1,1,0,0,1-.07,1.22l-4.51,5.46,6.3,6.3,5.45-4.52a1,1,0,0,1,1.21-.07,28.6,28.6,0,0,0,9.49,4,1,1,0,0,1,.81.91l.68,7.07h7.8a23,23,0,0,1-5-14.4C49.81,72.64,49.82,72.23,49.84,71.81Z" transform="translate(-15.78 -15.82)"/><path class="cls-1" d="M80.07,82.25H77.73a4.82,4.82,0,0,1-9.47,0H66a5.43,5.43,0,0,0-5.37,5.42v2.47a21.2,21.2,0,0,0,24.87,0V87.67A5.43,5.43,0,0,0,80.07,82.25Z" transform="translate(-15.78 -15.82)"/><path class="cls-1" d="M73,78h.07a6.69,6.69,0,0,0,6.59-6.69V68.21l0-.75a4.16,4.16,0,0,0-1.86-3.56,4.07,4.07,0,0,0-.86-.43,15.91,15.91,0,0,1-10.54,7.35v.61A6.61,6.61,0,0,0,73,78Z" transform="translate(-15.78 -15.82)"/><path class="cls-1" d="M73,51.93A21.17,21.17,0,0,0,52,71c-.07.7-.1,1.4-.1,2.1a21.14,21.14,0,0,0,6.69,15.4v-.78A7.46,7.46,0,0,1,66,80.21h2.3v-.45A14.7,14.7,0,0,1,61,67.6a11.94,11.94,0,0,1,1.18-5.79,12.42,12.42,0,0,1,7.74-6.29A8.52,8.52,0,0,1,80.15,60c1.71,0,3.27,1.23,4.11,3.32a11.46,11.46,0,0,1-.16,8.79,19.14,19.14,0,0,1-4.21,6A19.63,19.63,0,0,1,77.78,80v.19h2.29a7.46,7.46,0,0,1,7.42,7.46v.81A21.1,21.1,0,0,0,73,51.93Z" transform="translate(-15.78 -15.82)"/><path class="cls-1" d="M73,80.08a8.25,8.25,0,0,1-2.74-.46v1.79a2.73,2.73,0,0,0,5.45,0v-1.8a8.44,8.44,0,0,1-2.68.47Z" transform="translate(-15.78 -15.82)"/><path class="cls-1" d="M65.5,68.89a13.57,13.57,0,0,0,10-7.08,1,1,0,0,1,1-.52,5.64,5.64,0,0,1,2.36.91,6.22,6.22,0,0,1,2.76,5.29l0,.74v3.11a8.68,8.68,0,0,1-.15,1.44,12.41,12.41,0,0,0,.67-1.43,9.45,9.45,0,0,0,.15-7.23c-.92-2.28-2.35-2.07-2.62-2a1,1,0,0,1-1.21-.67l0-.12a6.78,6.78,0,0,0-3.14-3.45,6.58,6.58,0,0,0-4.87-.4A10.43,10.43,0,0,0,64,62.72a10,10,0,0,0-1,4.8A13.22,13.22,0,0,0,64.48,73a8.48,8.48,0,0,1-.15-1.59V70.1A1.21,1.21,0,0,1,65.5,68.89Z" transform="translate(-15.78 -15.82)"/></svg>