<svg id="Layer_1" data-name="Layer 1" xmlns="http://www.w3.org/2000/svg" viewBox="0 0 76.77 76.77"><defs><style>.cls-1{fill:#fff;}</style></defs><title>Im5</title><circle class="cls-1" cx="34.41" cy="60.89" r="5.29"/><path class="cls-1" d="M76.18,85.44H73.53a9.28,9.28,0,0,0-9.17,7.94h21A9.29,9.29,0,0,0,76.18,85.44Z" transform="translate(-16.62 -16.62)"/><circle class="cls-1" cx="10.59" cy="60.89" r="5.29"/><circle class="cls-1" cx="58.24" cy="60.89" r="5.29"/><path class="cls-1" d="M28.53,85.44H25.88a9.28,9.28,0,0,0-9.17,7.94h21a9.29,9.29,0,0,0-9.17-7.94Z" transform="translate(-16.62 -16.62)"/><path class="cls-1" d="M19.26,45.73V39.12h2.65V62.28a2,2,0,1,0,4,0V44.41h2.65V62.28a2,2,0,1,0,4,0V32.5H47.06a1.33,1.33,0,0,0,0-2.65H25.88a9.27,9.27,0,0,0-9.26,9.27v4A2.64,2.64,0,0,0,19.26,45.73Z" transform="translate(-16.62 -16.62)"/><circle class="cls-1" cx="10.59" cy="5.29" r="5.29"/><path class="cls-1" d="M52,64.27h3.53l6.36-10.59H58.4Z" transform="translate(-16.62 -16.62)"/><path class="cls-1" d="M52.35,85.44H49.71a9.3,9.3,0,0,0-9.18,7.94h21a9.28,9.28,0,0,0-9.17-7.94Z" transform="translate(-16.62 -16.62)"/><path class="cls-1" d="M16.62,72.21H21.3a7.9,7.9,0,0,1,11.81,0h12a7.89,7.89,0,0,1,11.8,0H69a7.9,7.9,0,0,1,11.81,0H93.38v-5.3H16.62Z" transform="translate(-16.62 -16.62)"/><path class="cls-1" d="M84.43,64.27,78.08,53.68H74.54L80.9,64.27Z" transform="translate(-16.62 -16.62)"/><path class="cls-1" d="M43.09,16.62V27.2h2.64V19.26H66.91V32.5H50.79a4,4,0,0,1-3.73,2.65h-4V51H93.38V16.62Zm5.29,31.76H45.73V45.73h2.65Zm0-5.29H45.73V40.44h2.65ZM69.56,19.26h2.65v2.65H69.56ZM90.74,48.38H59V45.73h2.65V35.15h2.65V45.73h2.64V43.09h2.65v2.64h2.65V37.79h2.64v7.94H77.5V40.44h2.65v5.29H82.8V32.5h2.64V45.73h2.65V29.85h2.65Zm0-21.18H69.56V24.56H90.74Zm0-5.29H74.85V19.26H90.74Z" transform="translate(-16.62 -16.62)"/><path class="cls-1" d="M50.79,29.85H64.27V21.91H48.38v5.54A4,4,0,0,1,50.79,29.85Z" transform="translate(-16.62 -16.62)"/><path class="cls-1" d="M66.91,53.68h2.65V64.27H66.91Z" transform="translate(-16.62 -16.62)"/></svg>