<svg id="Layer_1" data-name="Layer 1" xmlns="http://www.w3.org/2000/svg" viewBox="0 0 81.52 75.75"><defs><style>.cls-1{fill:#fff;}</style></defs><title>Im6</title><path class="cls-1" d="M62.25,47.49c0,.23,0,2.13,0,3.81a1,1,0,0,1-.07.39l-3.44,9h5.12a1.11,1.11,0,0,1,1.16,1v4.7h5.13a1,1,0,0,1,1.07,1h0l0,1.29,3.75,0a5.17,5.17,0,0,0,5.11-5.21l0-1.61a6.69,6.69,0,0,1-5.4-6.46v-.7A6.65,6.65,0,0,1,76.53,50a6.46,6.46,0,0,1,3.65-1.91V31h-.26A17.45,17.45,0,0,0,62.25,47.49Z" transform="translate(-14.24 -17.12)"/><path class="cls-1" d="M62.72,71.44h0l6.38-.08,0-2.78H62.69A1.4,1.4,0,0,0,61.27,70v0A1.46,1.46,0,0,0,62.72,71.44Z" transform="translate(-14.24 -17.12)"/><path class="cls-1" d="M76.78,54.7v.69a4.51,4.51,0,0,0,4.53,4.43h0a4.46,4.46,0,0,0,4.49-4.44v-.76a4.51,4.51,0,0,0-4.53-4.44h0a4.48,4.48,0,0,0-4.49,4.46Z" transform="translate(-14.24 -17.12)"/><path class="cls-1" d="M93.53,38.89a15.84,15.84,0,0,0-11.21-7.74V48.06A6.65,6.65,0,0,1,88,54.57v.7A6.66,6.66,0,0,1,82.2,62V63.5A7.31,7.31,0,0,1,75,70.88H73.9a3.75,3.75,0,0,1,3.24,2.83l1.36,5.4H93.59c-.28-1.25-.69-3-1.07-5.16a46.62,46.62,0,0,1-.91-12c.2-2.17,2-6.77,2.25-7.29l0-.09A16.18,16.18,0,0,0,93.53,38.89Z" transform="translate(-14.24 -17.12)"/><path class="cls-1" d="M34,32.67a1.07,1.07,0,0,0,1.27.83h0l8.22-1.74a1.07,1.07,0,0,0,.83-1.27,1.09,1.09,0,0,0-.47-.68l-4-2.57a21.89,21.89,0,0,1,30.81-3c.35.29.7.6,1,.91A1.08,1.08,0,0,0,73.2,23.6a24,24,0,0,0-34,1.14c-.4.42-.78.87-1.15,1.32l-4.2-2.73a1.07,1.07,0,0,0-1.63,1.12Z" transform="translate(-14.24 -17.12)"/><path class="cls-1" d="M67.69,83.94l4.19,2.73a1.07,1.07,0,0,0,1.48-.32,1,1,0,0,0,.15-.8l-1.74-8.22a1.07,1.07,0,0,0-1.27-.83h0l-8.22,1.74a1.07,1.07,0,0,0-.82,1.27,1.08,1.08,0,0,0,.46.68l4,2.57a21.88,21.88,0,0,1-30.81,3c-.36-.29-.7-.6-1-.91a1.07,1.07,0,0,0-1.46,1.57,24,24,0,0,0,34-1.14C66.94,84.83,67.32,84.39,67.69,83.94Z" transform="translate(-14.24 -17.12)"/><path class="cls-1" d="M33.54,75.85V71.44H14.24v4.41a2.52,2.52,0,0,0,2.46,2.56H31A2.6,2.6,0,0,0,33.54,75.85Zm-9.69,1.83A2.64,2.64,0,1,1,26.48,75,2.64,2.64,0,0,1,23.85,77.68Z" transform="translate(-14.24 -17.12)"/><circle class="cls-1" cx="9.6" cy="57.92" r="0.49"/><path class="cls-1" d="M33.54,45H30.92a1.07,1.07,0,0,1,0-2.14h2.62V41.3A2.6,2.6,0,0,0,31,38.74H16.7a2.52,2.52,0,0,0-2.46,2.56v1.55h10a1.07,1.07,0,1,1,0,2.14h-10v24.3h19.3Zm-6.29-2.14h.63a1.07,1.07,0,1,1,0,2.14h-.63a1.07,1.07,0,0,1,0-2.14Zm-6.16,7.5h2a1.08,1.08,0,0,1,0,2.15h-2a1.08,1.08,0,0,1,0-2.15Zm-3,0h.15a1.08,1.08,0,0,1,0,2.15h-.15a1.08,1.08,0,1,1,0-2.15Zm0,5.72h2.65a1.08,1.08,0,0,1,0,2.15H18.07a1.08,1.08,0,1,1,0-2.15Zm3.06,8H18.07a1.07,1.07,0,1,1,0-2.14h3.06a1.07,1.07,0,0,1,0,2.14Zm1.39-7a1.07,1.07,0,0,1,1.08-1.07h1.93a1.08,1.08,0,1,1,0,2.15H23.6A1.08,1.08,0,0,1,22.52,57.14Zm3.43,7H24A1.07,1.07,0,1,1,24,62H26a1.07,1.07,0,0,1,0,2.14Zm3.68,0h-.06a1.07,1.07,0,0,1,0-2.14h.06a1.07,1.07,0,0,1,0,2.14Zm0-5.89h-.47a1.08,1.08,0,0,1,0-2.15h.47a1.08,1.08,0,0,1,0,2.15Zm0-5.72H26.75a1.08,1.08,0,0,1,0-2.15h2.88a1.08,1.08,0,0,1,0,2.15Z" transform="translate(-14.24 -17.12)"/></svg>