<svg id="Layer_1" data-name="Layer 1" xmlns="http://www.w3.org/2000/svg" viewBox="0 0 46.34 73.16"><defs><style>.cls-1{fill:#4c4c4c;}</style></defs><title>ElectricalAppliances&amp;amp;Components</title><path class="cls-1" d="M78.17,39.15V34.27c0-3.59-6.53-5.9-14.63-6.84V19.64a1.22,1.22,0,0,0-2.44,0V27.2C59.1,27,57.05,27,55,27s-4.1.09-6.1.25V19.64a1.22,1.22,0,1,0-2.44,0v7.79c-8.1.94-14.63,3.25-14.63,6.84v4.88a4.3,4.3,0,0,0,2.45,3.49v2c-1.63.84-2.46,1.85-2.46,3V84.27c0,3.75,7.13,6.1,15.74,7l.11,0h0c2.36.23,4.82.35,7.28.35s4.92-.12,7.28-.35h0l.11,0c8.61-.85,15.74-3.2,15.74-7V47.68c0-1.17-.83-2.18-2.44-3v-2A4.31,4.31,0,0,0,78.17,39.15ZM46.46,88.65c-7.94-1-12.19-3.12-12.19-4.38V51.18c3.28,2,9.06,3,12.19,3.35Zm0-36.57c-8.28-1-12.17-3.16-12.19-4.39,0,0,.2-.38,1.14-.86a2.43,2.43,0,0,0,1.3-2.16v-.85A40.32,40.32,0,0,0,46.46,46Zm0-8.55a32.23,32.23,0,0,1-10.39-2.66c-1.33-.72-1.8-1.36-1.8-1.72V37.71c2.61,1.67,7.08,2.81,12.19,3.4ZM61.1,88.9c-1.87.15-3.9.24-6.1.24s-4.23-.09-6.1-.24V41.35c2,.15,4.05.24,6.1.24s4.1-.09,6.1-.24ZM55,39.15c-13.41,0-20.73-3.22-20.73-4.88,0-1.26,4.25-3.42,12.19-4.39v4.39a1.22,1.22,0,0,0,2.44,0V29.64c1.87-.15,3.9-.25,6.1-.25s4.23.1,6.1.25v4.63a1.22,1.22,0,0,0,2.44,0V29.88c7.94,1,12.19,3.13,12.19,4.39C75.73,35.93,68.41,39.15,55,39.15Zm19.59,7.68c1,.51,1.13.85,1.14.85,0,1.23-3.89,3.4-12.19,4.4V46c.71-.08,1.46-.18,2.29-.31a36.05,36.05,0,0,0,7.46-1.86v.84A2.42,2.42,0,0,0,74.59,46.83Zm1.14,37.44c0,1.26-4.25,3.42-12.19,4.38V54.53c3.13-.37,8.91-1.3,12.19-3.35ZM73.94,40.86a28.15,28.15,0,0,1-8.47,2.42c-.7.11-1.33.19-1.93.26V41.11c5.11-.59,9.58-1.73,12.19-3.4v1.44C75.73,39.51,75.26,40.15,73.94,40.86Z" transform="translate(-31.83 -18.42)"/><path class="cls-1" d="M51.34,48.9v7.32a2.44,2.44,0,0,0,2.44,2.44h2.44a2.44,2.44,0,0,0,2.44-2.44V48.9a2.45,2.45,0,0,0-2.44-2.44H53.78A2.45,2.45,0,0,0,51.34,48.9Zm4.88,7.32H53.78V48.9h2.44Z" transform="translate(-31.83 -18.42)"/><path class="cls-1" d="M56.22,72.07H53.78a2.44,2.44,0,0,0-2.44,2.44v7.32a2.45,2.45,0,0,0,2.44,2.44h2.44a2.45,2.45,0,0,0,2.44-2.44V74.51A2.44,2.44,0,0,0,56.22,72.07Zm-2.44,9.76V74.51h2.44v7.32Z" transform="translate(-31.83 -18.42)"/></svg>