<svg id="Layer_1" data-name="Layer 1" xmlns="http://www.w3.org/2000/svg" viewBox="0 0 78.58 67.71"><defs><style>.cls-1{fill:#4c4c4c;}</style></defs><title>HeavyMachinery</title><path class="cls-1" d="M43.33,43.57a2.55,2.55,0,0,0-2.49-1.83H31.42a2.63,2.63,0,0,0-2.62,2.62V50.9a2.63,2.63,0,0,0,2.62,2.62H42.8a2.31,2.31,0,0,0,2-1.05,2.6,2.6,0,0,0,.39-2.35ZM31.42,50.9V44.36h9.42l2,6.54Z" transform="translate(-15.71 -21.14)"/><path class="cls-1" d="M34,81a1.31,1.31,0,1,0,1.31,1.31A1.24,1.24,0,0,0,34,81Z" transform="translate(-15.71 -21.14)"/><path class="cls-1" d="M40.58,81a1.31,1.31,0,1,0,1.31,1.31A1.24,1.24,0,0,0,40.58,81Z" transform="translate(-15.71 -21.14)"/><path class="cls-1" d="M47.12,81a1.31,1.31,0,1,0,1.31,1.31A1.24,1.24,0,0,0,47.12,81Z" transform="translate(-15.71 -21.14)"/><path class="cls-1" d="M53.67,81A1.31,1.31,0,1,0,55,82.31,1.24,1.24,0,0,0,53.67,81Z" transform="translate(-15.71 -21.14)"/><path class="cls-1" d="M60.21,81a1.31,1.31,0,1,0,1.31,1.31A1.24,1.24,0,0,0,60.21,81Z" transform="translate(-15.71 -21.14)"/><path class="cls-1" d="M72,75.77H70.22l4.39-12.44a3.2,3.2,0,0,0-2.88-4.58H59.34L85.08,32v13.8a7.89,7.89,0,0,0-6.55,7.74,7.61,7.61,0,0,0,1.57,4.71,1.31,1.31,0,0,0,2.1-1.57,5.24,5.24,0,1,1,9.42-3.14,5.35,5.35,0,0,1-1,3.14,1.39,1.39,0,0,0,.26,1.83,1.85,1.85,0,0,0,.78.26,1.2,1.2,0,0,0,1-.52,7.55,7.55,0,0,0,1.57-4.71,7.88,7.88,0,0,0-6.54-7.74V28.65s0-.1,0-.15A5.38,5.38,0,0,0,88,26.3a5.56,5.56,0,0,0-2.1-3.93,5.48,5.48,0,0,0-7.46.52L53,49.74l-2.64-11.8a5.19,5.19,0,0,0-5.1-4h-3.4V31.27a5.24,5.24,0,1,0-10.47,0v2.62H27.49a5.24,5.24,0,0,0-5.23,5.23V75.77a6.55,6.55,0,1,0,0,13.09H72a6.55,6.55,0,0,0,0-13.09ZM66.72,86.24H27.52a6.66,6.66,0,0,0,0-7.85h39.2a6.7,6.7,0,0,0,0,7.85ZM80.37,24.86a3,3,0,0,1,3.92-.27,2.31,2.31,0,0,1,1,2,2.94,2.94,0,0,1-.79,2.09L55.76,58.75h-.65l-.94-3.92-.48-2.12ZM34,31.27a2.62,2.62,0,0,1,5.24,0v2.62H34V31.27Zm-9.16,7.85a2.63,2.63,0,0,1,2.62-2.62H45.16a2.68,2.68,0,0,1,2.62,2.1l4.58,20.15H24.87V39.12Zm0,32.72h28.8a1.31,1.31,0,0,0,0-2.62H24.87V66.61H45.81a1.31,1.31,0,1,0,0-2.62H24.87V61.5H71.73c.26,0,.52.13.52.26a.65.65,0,0,1,0,.53L67.54,75.51a.68.68,0,0,1-.52.26H24.87ZM18.33,82.31a3.93,3.93,0,1,1,3.93,3.93A3.85,3.85,0,0,1,18.33,82.31ZM72,86.24a3.93,3.93,0,1,1,3.93-3.93A3.86,3.86,0,0,1,72,86.24Z" transform="translate(-15.71 -21.14)"/><path class="cls-1" d="M94.24,67.78l-1.31-5.23a1,1,0,0,0-.65-.92L87,59a1.37,1.37,0,0,0-1.57.26l-5.23,5.23a1.05,1.05,0,0,0-.4,1.18l1.31,5.24a1.5,1.5,0,0,0,1,.91l6.54,1.31H89a1.89,1.89,0,0,0,.92-.26L93.85,69A1.06,1.06,0,0,0,94.24,67.78ZM88.61,70.4l-5.1-1-.92-3.67,4.06-4.06,3.79,2,1,3.92Z" transform="translate(-15.71 -21.14)"/></svg>