<svg id="Layer_1" data-name="Layer 1" xmlns="http://www.w3.org/2000/svg" viewBox="0 0 72.6 65.53"><defs><style>.cls-1{fill:#4c4c4c;}</style></defs><title>Ind.Machinery</title><path class="cls-1" d="M36.25,74.46a4.24,4.24,0,1,0,4.23,4.23A4.23,4.23,0,0,0,36.25,74.46Zm0,6.05a1.82,1.82,0,1,1,1.81-1.82A1.82,1.82,0,0,1,36.25,80.51Z" transform="translate(-18.7 -22.23)"/><path class="cls-1" d="M68.91,82.93a4.24,4.24,0,1,0-4.23-4.24A4.24,4.24,0,0,0,68.91,82.93Zm0-6.05a1.82,1.82,0,1,1-1.81,1.81A1.81,1.81,0,0,1,68.91,76.88Z" transform="translate(-18.7 -22.23)"/><path class="cls-1" d="M78,78.69a9.1,9.1,0,0,0-10-9l-.93-2.78-.52-2.59,1.7-11L76.12,46a2.61,2.61,0,0,0,.27-.06l1-.29.67,1.49a1.19,1.19,0,0,0,1.1.72H90.09a1.21,1.21,0,0,0,.85-2.07l-4.58-4.58-3.68-18a1.2,1.2,0,0,0-.79-.9,1.23,1.23,0,0,0-1.19.23l-5.94,5.21a1.21,1.21,0,0,0-.4.71l-1.19,7.09a1.26,1.26,0,0,0,.08.69L74,37.88l-1.27,1a4.24,4.24,0,0,0-1,1.21L58,50.09a1.21,1.21,0,0,0-.49,1l.68,13.37-.65,5.12H53.79a1.21,1.21,0,0,0-1.21,1.21H50.16V67.2H55A1.21,1.21,0,0,0,56.21,66V63.57a1.15,1.15,0,0,0-.06-.37l-6-19.35A1.19,1.19,0,0,0,49,43V40.58H46.53V43H39.27V40.58H36.85V43a1.21,1.21,0,0,0-1.21,1.21V58.73H30.8V51.47A4.84,4.84,0,0,0,26,46.63H24.75v2.42H26a2.42,2.42,0,0,1,2.42,2.42v7.26H23.54V57.52h1.21A1.21,1.21,0,0,0,26,56.31V52.68a1.21,1.21,0,0,0-1.21-1.21H19.91a1.21,1.21,0,0,0-1.21,1.21v3.63a1.21,1.21,0,0,0,1.21,1.21h1.21v1.21H19.91a1.21,1.21,0,0,0-1.21,1.21V80.51a1.21,1.21,0,0,0,1.21,1.21H27.7a9.23,9.23,0,0,0,2.4,3.63H18.7v2.42H91.3V85.35H75.06A9,9,0,0,0,78,78.69ZM21.12,53.89h2.42V55.1H21.12Zm54.45,24.8A6.66,6.66,0,1,1,68.91,72,6.66,6.66,0,0,1,75.57,78.69Zm1.1-49.42,4.06-3.55L84.06,42a1.26,1.26,0,0,0,.33.61l2.78,2.78H80l-.78-1.74-2.58-5.81-1-2.29ZM74.25,40.78l.75-.61,1.43,3.22-.71.2a1.59,1.59,0,0,1-1.91-.87,1.63,1.63,0,0,1,.44-1.94Zm-2.79,2.53a3.16,3.16,0,0,0,.16.43,3.89,3.89,0,0,0,1.5,1.71l-6.84,6.34a1.24,1.24,0,0,0-.38.71l-1.25,8.18a3.93,3.93,0,0,0-4.23-.24L60,51.66ZM58.63,72A1.22,1.22,0,0,0,59.83,71l.8-6.38v0l.1-.79a1.61,1.61,0,0,1,1.55-1.43A1.63,1.63,0,0,1,64,63.67l.75,3.76a.83.83,0,0,0,0,.15l.89,2.66a9.07,9.07,0,0,0-5.79,8.45c0,.21,0,.41,0,.61H55V72Zm-6.05,1.21v3.63H50.16V73.25Zm0-13.31H42.9V50.26h6.67ZM36.85,61.15a1.21,1.21,0,0,0,1.21-1.21V45.42h10l.76,2.42H41.69a1.21,1.21,0,0,0-1.21,1.21v12.1a1.21,1.21,0,0,0,1.21,1.21H53.35l.44,1.39v1H32a1.24,1.24,0,0,0-.8.3l-8.12,7.16h-2V61.15ZM21.12,79.3V74.66h2.42a1.22,1.22,0,0,0,.8-.3l8.13-7.16H47.74V79.3H45.29c0-.2,0-.4,0-.61a9.08,9.08,0,0,0-18.15,0c0,.21,0,.41,0,.61Zm8.47-.61a6.66,6.66,0,1,1,6.66,6.66A6.66,6.66,0,0,1,29.59,78.69ZM42.4,85.35a9.1,9.1,0,0,0,2.39-3.63H49a1.21,1.21,0,0,0,1.21-1.21V79.3h2.42v1.21a1.21,1.21,0,0,0,1.21,1.21h6.58a9,9,0,0,0,2.4,3.63Z" transform="translate(-18.7 -22.23)"/><path class="cls-1" d="M23.54,63.57H26V66H23.54Z" transform="translate(-18.7 -22.23)"/></svg>