<svg id="Layer_1" data-name="Layer 1" xmlns="http://www.w3.org/2000/svg" viewBox="0 0 83.72 83.71"><defs><style>.cls-1{fill:#4c4c4c;}</style></defs><title>Ind.EquipmentMfg</title><g id="Conveyor-Machine-2"><path class="cls-1" d="M82.91,27.09a4.19,4.19,0,1,0-4.19-4.19A4.18,4.18,0,0,0,82.91,27.09Zm0-5.58a1.4,1.4,0,0,1,0,2.79,1.4,1.4,0,1,1,0-2.79Z" transform="translate(-13.14 -13.14)"/><path class="cls-1" d="M39.65,27.09a4.19,4.19,0,1,0-4.18-4.19A4.19,4.19,0,0,0,39.65,27.09Zm0-5.58a1.4,1.4,0,1,1-1.39,1.39A1.4,1.4,0,0,1,39.65,21.51Z" transform="translate(-13.14 -13.14)"/><path class="cls-1" d="M64.77,55h-1.4V51.51a3.49,3.49,0,1,0-7,0V55H22.91V51.51a3.49,3.49,0,1,0-7,0V55H14.54a1.39,1.39,0,0,0-1.4,1.39V95.46a1.4,1.4,0,0,0,1.4,1.4H64.77a1.4,1.4,0,0,0,1.39-1.4V56.39A1.39,1.39,0,0,0,64.77,55Zm-5.58-3.49a.7.7,0,1,1,1.39,0V55H59.19Zm-40.47,0a.7.7,0,0,1,1.4,0V55h-1.4Zm44.65,6.28v2.79H15.93V57.79Zm0,5.58V88.48H15.93V63.37ZM15.93,94.07v-2.8H63.37v2.8Z" transform="translate(-13.14 -13.14)"/><path class="cls-1" d="M28.49,85.69a4.18,4.18,0,0,0,4.18-4.18V70.34a4.19,4.19,0,0,0-8.37,0V81.51A4.19,4.19,0,0,0,28.49,85.69Zm-1.4-15.35a1.4,1.4,0,0,1,2.79,0V81.51a1.4,1.4,0,0,1-2.79,0Z" transform="translate(-13.14 -13.14)"/><path class="cls-1" d="M39.65,85.69a4.19,4.19,0,0,0,4.19-4.18V70.34a4.19,4.19,0,0,0-8.37,0V81.51A4.18,4.18,0,0,0,39.65,85.69ZM38.26,70.34a1.4,1.4,0,0,1,2.79,0V81.51a1.4,1.4,0,0,1-2.79,0Z" transform="translate(-13.14 -13.14)"/><path class="cls-1" d="M50.81,85.69A4.18,4.18,0,0,0,55,81.51V70.34a4.19,4.19,0,0,0-8.37,0V81.51A4.18,4.18,0,0,0,50.81,85.69ZM49.42,70.34a1.4,1.4,0,0,1,2.79,0V81.51a1.4,1.4,0,0,1-2.79,0Z" transform="translate(-13.14 -13.14)"/><path class="cls-1" d="M96.63,86.31,91,77.94a1.37,1.37,0,0,0-1.16-.62V29.73a9.76,9.76,0,0,0-13.8-13.8H46.47a9.76,9.76,0,0,0-13.8,13.8v5.73H31.28a1.4,1.4,0,0,0-1.4,1.4v5.58a1.4,1.4,0,0,0,1.4,1.39h1.39V48a1.43,1.43,0,0,0,.41,1l2.79,2.79,2-2-2.38-2.38V43.83h8.37v3.61l-2.38,2.38,2,2L46.22,49a1.43,1.43,0,0,0,.41-1V43.83H48a1.4,1.4,0,0,0,1.4-1.39V36.86a1.4,1.4,0,0,0-1.4-1.4H46.63V29.88h29.3V77.32a1.38,1.38,0,0,0-1.16.62l-5.58,8.37a1.43,1.43,0,0,0-.24.78v8.37a1.4,1.4,0,0,0,1.4,1.4H95.46a1.4,1.4,0,0,0,1.4-1.4V87.09A1.42,1.42,0,0,0,96.63,86.31ZM82.91,15.93a7,7,0,1,1-7,7A7,7,0,0,1,82.91,15.93ZM74.1,27.09H48.46a9.6,9.6,0,0,0,0-8.37H74.1A9.6,9.6,0,0,0,74.1,27.09ZM39.65,15.93a7,7,0,1,1-7,7A7,7,0,0,1,39.65,15.93Zm7,25.11h-14V38.25h14ZM35.47,35.46V31.71a9.6,9.6,0,0,0,8.37,0v3.75Zm43.25-3.75a9.6,9.6,0,0,0,8.37,0V77.32H78.72Zm-2,48.4H89.14l3.72,5.58H73Zm-4.94,14V88.48H94.07v5.59Z" transform="translate(-13.14 -13.14)"/></g></svg>