<svg id="Layer_1" data-name="Layer 1" xmlns="http://www.w3.org/2000/svg" viewBox="0 0 70.44 70.44"><defs><style>.cls-1{fill:#4c4c4c;}</style></defs><title>Ind.Power</title><path class="cls-1" d="M88,88h2.27v2.27H88Z" transform="translate(-19.78 -19.78)"/><path class="cls-1" d="M19.78,88h2.27v2.27H19.78Z" transform="translate(-19.78 -19.78)"/><path class="cls-1" d="M65.43,49.32h10v1.14a3.41,3.41,0,0,0,6.82,0V49.32h2.27V45.06L65.23,39.38V36.82H75.45V38a3.41,3.41,0,0,0,6.82,0V36.82h2.27V32.56L65.23,26.88V22.05H63V19.78H60.68v2.27H49.32V19.78H47.05v2.27H44.77v4.83L25.46,32.56v4.26h2.27V38a3.41,3.41,0,1,0,6.82,0V36.82H44.77v2.56L25.46,45.06v4.26h2.27v1.14a3.41,3.41,0,0,0,6.82,0V49.32h10L38.13,88H24.32v2.27H85.68V88H71.87ZM63.07,65.23,55,71.54l-8.07-6.31ZM47,63l8-6.26,8,6.26Zm18.94,3L68.6,82.19,56.84,73Zm-9-10.65,6.43-5L65.2,61.74Zm3.93-5.93L55,53.81l-5.78-4.49ZM49.57,47.05,55,43.31l5.43,3.74ZM63,46,57,41.93,63,37.85Zm-2.52-9.2L55,40.56l-5.43-3.74Zm-9.09-2.27L55,33l3.66,1.6Zm6.49-2.84L63,29.47V34ZM55,30.47l-3.66-1.6h7.32Zm-2.83,1.24L47.05,34V29.47Zm-5.12,6.14L53,41.93,47.05,46Zm6.1,17.4L44.8,61.74l1.92-11.49Zm0,17.73L41.4,82.19,44.11,65.9ZM55,74.42l11.47,9H43.53Zm25-24a1.14,1.14,0,0,1-2.27,0V49.32H80Zm2.28-3.7v.29h-17v-5.3ZM80,38a1.14,1.14,0,0,1-2.27,0V36.82H80Zm2.28-3.7v.29h-17v-5.3ZM63,24.32V26.6H47.05V24.32ZM32.28,38A1.14,1.14,0,0,1,30,38V36.82h2.27Zm-4.55-3.41v-.29l17-5v5.3Zm0,12.21,17-5v5.3h-17Zm4.55,3.7a1.14,1.14,0,0,1-2.27,0V49.32h2.27Zm8.53,35.22H69.19L69.57,88H40.43Z" transform="translate(-19.78 -19.78)"/></svg>