<svg id="Layer_1" data-name="Layer 1" xmlns="http://www.w3.org/2000/svg" viewBox="0 0 75.19 64.61"><defs><style>.cls-1{fill:#4c4c4c;}</style></defs><title>Transport</title><path class="cls-1" d="M65.57,22.69H49.13a1.18,1.18,0,1,0,0,2.35H65.57a1.18,1.18,0,1,0,0-2.35Z" transform="translate(-17.41 -22.69)"/><path class="cls-1" d="M59.7,22.69a1.18,1.18,0,0,0-1.18,1.18v5.87a1.18,1.18,0,1,0,2.35,0V23.87A1.17,1.17,0,0,0,59.7,22.69Z" transform="translate(-17.41 -22.69)"/><path class="cls-1" d="M59.7,28.57H55a1.18,1.18,0,0,0,0,2.35h4.7a1.18,1.18,0,0,0,0-2.35Z" transform="translate(-17.41 -22.69)"/><path class="cls-1" d="M55,22.69a1.17,1.17,0,0,0-1.17,1.18v5.87a1.17,1.17,0,1,0,2.34,0V23.87A1.17,1.17,0,0,0,55,22.69Z" transform="translate(-17.41 -22.69)"/><path class="cls-1" d="M49.13,46.19H35a1.18,1.18,0,1,0,0,2.35h14.1a1.18,1.18,0,0,0,0-2.35Z" transform="translate(-17.41 -22.69)"/><path class="cls-1" d="M65.57,43.84A1.17,1.17,0,0,0,64.4,45V65a1.18,1.18,0,0,0,2.35,0V45A1.18,1.18,0,0,0,65.57,43.84Z" transform="translate(-17.41 -22.69)"/><path class="cls-1" d="M91.42,73.21h-3.5a1.18,1.18,0,1,0,0,2.35h3.5a1.18,1.18,0,0,0,0-2.35Z" transform="translate(-17.41 -22.69)"/><path class="cls-1" d="M91.42,73.21a1.17,1.17,0,0,0-1.18,1.17v4.7a1.18,1.18,0,1,0,2.35,0v-4.7A1.17,1.17,0,0,0,91.42,73.21Z" transform="translate(-17.41 -22.69)"/><path class="cls-1" d="M29.15,77.91h0l-8.22,0a1.18,1.18,0,0,0,0,2.35h0l8.23,0a1.18,1.18,0,0,0,0-2.35Z" transform="translate(-17.41 -22.69)"/><path class="cls-1" d="M90.24,67.34H89.07a1.17,1.17,0,1,0,0,2.34h1.17a1.17,1.17,0,1,0,0-2.34Z" transform="translate(-17.41 -22.69)"/><path class="cls-1" d="M90.24,59.11a1.17,1.17,0,0,0-1.17,1.18V74.38a1.18,1.18,0,1,0,2.35,0V60.29A1.18,1.18,0,0,0,90.24,59.11Z" transform="translate(-17.41 -22.69)"/><path class="cls-1" d="M83.2,43.84H65.57a1.18,1.18,0,0,0,0,2.35H83.2a1.18,1.18,0,0,0,0-2.35Z" transform="translate(-17.41 -22.69)"/><path class="cls-1" d="M91.31,59.79l-7-15.27a1.17,1.17,0,1,0-2.13,1l7.05,15.27a1.17,1.17,0,0,0,1.06.68,1.1,1.1,0,0,0,.5-.11A1.17,1.17,0,0,0,91.31,59.79Z" transform="translate(-17.41 -22.69)"/><path class="cls-1" d="M20.93,73.21a1.17,1.17,0,0,0-1.17,1.17v4.78a1.18,1.18,0,0,0,2.35,0V74.38A1.17,1.17,0,0,0,20.93,73.21Z" transform="translate(-17.41 -22.69)"/><path class="cls-1" d="M18.58,57.94a1.17,1.17,0,0,0-1.17,1.17V74.38a1.18,1.18,0,1,0,2.35,0V59.11A1.17,1.17,0,0,0,18.58,57.94Z" transform="translate(-17.41 -22.69)"/><path class="cls-1" d="M65.57,57.94h-47a1.18,1.18,0,0,0,0,2.35h47a1.18,1.18,0,1,0,0-2.35Z" transform="translate(-17.41 -22.69)"/><path class="cls-1" d="M24.46,73.21H18.58a1.18,1.18,0,0,0,0,2.35h5.88a1.18,1.18,0,0,0,0-2.35Z" transform="translate(-17.41 -22.69)"/><path class="cls-1" d="M36.2,70.86a8.23,8.23,0,1,0,8.23,8.22A8.23,8.23,0,0,0,36.2,70.86Zm0,14.1a5.88,5.88,0,1,1,5.88-5.88A5.88,5.88,0,0,1,36.2,85Z" transform="translate(-17.41 -22.69)"/><path class="cls-1" d="M36.2,75.56a3.53,3.53,0,1,0,3.53,3.52A3.53,3.53,0,0,0,36.2,75.56Zm0,4.7a1.18,1.18,0,1,1,1.18-1.18A1.17,1.17,0,0,1,36.2,80.26Z" transform="translate(-17.41 -22.69)"/><path class="cls-1" d="M75,75.56a3.53,3.53,0,1,0,3.53,3.52A3.53,3.53,0,0,0,75,75.56Zm0,4.7a1.18,1.18,0,1,1,1.18-1.18A1.17,1.17,0,0,1,75,80.26Z" transform="translate(-17.41 -22.69)"/><path class="cls-1" d="M75,70.86a8.23,8.23,0,1,0,8.23,8.22A8.23,8.23,0,0,0,75,70.86ZM75,85a5.88,5.88,0,1,1,5.88-5.88A5.88,5.88,0,0,1,75,85Z" transform="translate(-17.41 -22.69)"/><path class="cls-1" d="M68,77.91H43.25a1.18,1.18,0,0,0,0,2.35H68a1.18,1.18,0,1,0,0-2.35Z" transform="translate(-17.41 -22.69)"/><path class="cls-1" d="M91.42,77.91H82a1.18,1.18,0,0,0,0,2.35h9.4a1.18,1.18,0,0,0,0-2.35Z" transform="translate(-17.41 -22.69)"/><path class="cls-1" d="M90.24,59.11H76.15a1.18,1.18,0,1,0,0,2.35H90.24a1.18,1.18,0,1,0,0-2.35Z" transform="translate(-17.41 -22.69)"/><path class="cls-1" d="M76.15,59.11a3.53,3.53,0,0,1-3.53-3.52,1.18,1.18,0,1,0-2.35,0,5.88,5.88,0,0,0,5.88,5.87,1.18,1.18,0,0,0,0-2.35Z" transform="translate(-17.41 -22.69)"/><path class="cls-1" d="M71.45,43.84A1.18,1.18,0,0,0,70.27,45V55.59a1.18,1.18,0,0,0,2.35,0V45A1.17,1.17,0,0,0,71.45,43.84Z" transform="translate(-17.41 -22.69)"/><path class="cls-1" d="M65.57,22.69a1.17,1.17,0,0,0-1.17,1.18V59.11a1.18,1.18,0,1,0,2.35,0V23.87A1.18,1.18,0,0,0,65.57,22.69Z" transform="translate(-17.41 -22.69)"/><path class="cls-1" d="M49.13,22.69A1.18,1.18,0,0,0,48,23.87V59.11a1.18,1.18,0,1,0,2.35,0V23.87A1.17,1.17,0,0,0,49.13,22.69Z" transform="translate(-17.41 -22.69)"/><path class="cls-1" d="M35,32.09a1.18,1.18,0,0,0-1.18,1.18V59.11a1.18,1.18,0,1,0,2.35,0V33.27A1.17,1.17,0,0,0,35,32.09Z" transform="translate(-17.41 -22.69)"/><path class="cls-1" d="M42.08,46.19a1.18,1.18,0,0,0-1.18,1.17v3.53a1.18,1.18,0,0,0,2.35,0V47.36A1.17,1.17,0,0,0,42.08,46.19Z" transform="translate(-17.41 -22.69)"/><path class="cls-1" d="M49.13,32.09H35a1.18,1.18,0,1,0,0,2.35h14.1a1.18,1.18,0,0,0,0-2.35Z" transform="translate(-17.41 -22.69)"/><path class="cls-1" d="M42.08,32.09a1.18,1.18,0,0,0-1.18,1.18v2.35a1.18,1.18,0,0,0,2.35,0V33.27A1.17,1.17,0,0,0,42.08,32.09Z" transform="translate(-17.41 -22.69)"/><path class="cls-1" d="M20.93,40.32a1.17,1.17,0,0,0-1.17,1.17V59.11a1.18,1.18,0,1,0,2.35,0V41.49A1.17,1.17,0,0,0,20.93,40.32Z" transform="translate(-17.41 -22.69)"/><path class="cls-1" d="M35,40.32H20.93a1.17,1.17,0,0,0,0,2.34H35a1.17,1.17,0,1,0,0-2.34Z" transform="translate(-17.41 -22.69)"/><path class="cls-1" d="M25.63,40.32a1.17,1.17,0,0,0-1.17,1.17V45a1.17,1.17,0,1,0,2.34,0V41.49A1.17,1.17,0,0,0,25.63,40.32Z" transform="translate(-17.41 -22.69)"/><path class="cls-1" d="M30.33,43.84h-4.7a1.18,1.18,0,0,0,0,2.35h4.7a1.18,1.18,0,0,0,0-2.35Z" transform="translate(-17.41 -22.69)"/><path class="cls-1" d="M30.33,40.32a1.17,1.17,0,0,0-1.18,1.17V45a1.18,1.18,0,1,0,2.35,0V41.49A1.17,1.17,0,0,0,30.33,40.32Z" transform="translate(-17.41 -22.69)"/></svg>