<svg id="Layer_1" data-name="Layer 1" xmlns="http://www.w3.org/2000/svg" viewBox="0 0 72.02 80.83"><defs><style>.cls-1{fill:#fff;}</style></defs><title>S1</title><path class="cls-1" d="M74.05,38.45A4.87,4.87,0,0,0,72.55,37a25,25,0,0,0-.26-3.47c.14-1.67.62-10.86-5-15a18.92,18.92,0,0,0-11.17-3.91,14.59,14.59,0,0,0-8.37,2.5A12.12,12.12,0,0,0,44,21.22a7.48,7.48,0,0,0-7,5.45c-1.54,4.42-.3,7.15.61,8.41-.06.73-.08,1.38-.08,1.89A4.87,4.87,0,0,0,36,38.45c-1,1.57-1.18,3.66-.51,6.24,1.26,4.81,4.2,5.87,5.76,6.08,1,1.93,3.09,5.87,5.21,7.85a10.29,10.29,0,0,0,3.28,2,14.46,14.46,0,0,0,10.62,0,10.29,10.29,0,0,0,3.28-2c2.12-2,4.24-5.92,5.21-7.85,1.56-.21,4.5-1.27,5.76-6.08C75.23,42.11,75.06,40,74.05,38.45ZM71,43.75c-.77,2.93-2.14,3.37-2.89,3.37H68a1.72,1.72,0,0,0-2,1c-.74,1.57-3,6-4.89,7.76A6.64,6.64,0,0,1,59,57.17a10.78,10.78,0,0,1-7.9,0,6.64,6.64,0,0,1-2.12-1.25c-1.85-1.73-4.15-6.19-4.89-7.76a1.78,1.78,0,0,0-1.59-1.1,1.65,1.65,0,0,0-.43.06h-.11c-.75,0-2.12-.44-2.89-3.37a4.53,4.53,0,0,1,0-3.24,1.14,1.14,0,0,1,.64-.53,1.75,1.75,0,0,0,1.51-2,17.49,17.49,0,0,1,0-2.19,15.09,15.09,0,0,0,5-3.48,11.31,11.31,0,0,0,2-3.16,23.47,23.47,0,0,0,5.31,3.23c4,1.76,11.92,2.6,15.28,2.88a17.89,17.89,0,0,1,0,2.71,1.74,1.74,0,0,0,1.51,2,1.19,1.19,0,0,1,.64.53A4.53,4.53,0,0,1,71,43.75Zm11.86,24.7L66.67,62a1.8,1.8,0,0,0-1.44,0,1.83,1.83,0,0,0-1,1.06L60.18,74.3,59.38,72l1.28-3.13A1.85,1.85,0,0,0,59,66.31h-7.9a1.85,1.85,0,0,0-1.71,2.55L50.62,72l-.8,2.31L45.75,63.07a1.83,1.83,0,0,0-1-1.06,1.8,1.8,0,0,0-1.44,0L27.16,68.45A12.93,12.93,0,0,0,19,80.52v13a1.85,1.85,0,0,0,1.85,1.85H89.16A1.85,1.85,0,0,0,91,93.57v-13A12.93,12.93,0,0,0,82.84,68.45Zm-.56,17.4a1.85,1.85,0,0,1-1.85,1.85H68a1.84,1.84,0,0,1-1.84-1.85V80.09A1.84,1.84,0,0,1,68,78.24H80.43a1.85,1.85,0,0,1,1.85,1.85v5.76Z" transform="translate(-18.99 -14.58)"/></svg>