<svg id="Layer_1" data-name="Layer 1" xmlns="http://www.w3.org/2000/svg" viewBox="0 0 84.68 83.72"><defs><style>.cls-1{fill:#fff;}</style></defs><title>S2</title><circle class="cls-1" cx="15.98" cy="9.38" r="9.38"/><path class="cls-1" d="M81.36,13.14A9.38,9.38,0,1,1,72,22.52,9.37,9.37,0,0,1,81.36,13.14Z" transform="translate(-12.66 -13.14)"/><path class="cls-1" d="M88.39,30.91a10.26,10.26,0,0,1-14.07,0A12.06,12.06,0,0,0,65.92,39a61.33,61.33,0,0,0-21.84,0,12.06,12.06,0,0,0-8.4-8,10.26,10.26,0,0,1-14.07,0,12,12,0,0,0-8.95,11.6v9.73l0,.15.68.21c2.09.65,4.08,1.15,6,1.54A14,14,0,0,0,18,60.05c0,8.84,8.75,16.47,21.36,20a11.75,11.75,0,0,0-.72,4.08v9.73l0,.16.67.21a54.8,54.8,0,0,0,16.33,2.63c8.82,0,13.93-2.52,14.25-2.68l.63-.32h.06V84.13a11.94,11.94,0,0,0-.65-3.89C82.93,76.81,92,69.05,92,60.05a13.8,13.8,0,0,0-1.23-5.64,25.34,25.34,0,0,0,5.87-1.85l.62-.32h.07V42.51A12,12,0,0,0,88.39,30.91Zm1.07,29.14c0,8-8.5,14.84-20.62,17.87a12.05,12.05,0,0,0-7.19-5.38,10.3,10.3,0,0,1-14.08,0,12.07,12.07,0,0,0-7.08,5.2c-11.77-3.11-19.94-9.87-19.94-17.69a11.8,11.8,0,0,1,1.37-5.44,50.6,50.6,0,0,0,7.76.62c8.82,0,13.94-2.51,14.25-2.67l.63-.32h.07V42.51c0-.36,0-.71-.05-1.06a59.47,59.47,0,0,1,20.84,0c0,.35,0,.7,0,1.06v9.73l0,.15.67.21a54.79,54.79,0,0,0,16.32,2.63,43.33,43.33,0,0,0,5.81-.38A11.79,11.79,0,0,1,89.46,60.05Z" transform="translate(-12.66 -13.14)"/><circle class="cls-1" cx="41.95" cy="51" r="9.38"/></svg>