<svg id="Layer_1" data-name="Layer 1" xmlns="http://www.w3.org/2000/svg" viewBox="0 0 78.35 82.48"><defs><style>.cls-1{fill:#fff;}</style></defs><title>S4</title><path class="cls-1" d="M16.14,22.63h0a.43.43,0,0,0,.1.15l0,0L37.39,43V96.24H94.18V17H37.39v9.26L24.48,13.91l-.06.06c-.43-.15-2.85-1-6.21,2.47S16,22.21,16.14,22.63ZM75,72.12H87.13V89.2H75Zm0-32.06H87.13V70.71H75Zm0-16h1.94V38.66H75Zm6.51,0h1.93V38.66H81.51Zm5.62,14.62H84.85V24h2.28Zm-7,0H78.35V24H80.1Zm-6.51,0H71.83V24h1.76ZM68.49,24h1.93V38.66H68.49ZM44.43,24H67.08V38.66h-7.4v1.4H73.59V89.2H64.26V85.93H61.44V89.2h-17V63h2.22V60.14H44.43V49.69L45.7,50.9a12.27,12.27,0,0,1,2.89-5.11A11.9,11.9,0,0,1,53.85,42l-9.42-9V24Z" transform="translate(-15.82 -13.76)"/><path class="cls-1" d="M49.19,46.2c-2,2.31-2.74,4.3-2.78,5.3,0,.3.68.69.8.69h0l1.61.19,1.2.14,5.49.66h0A1.9,1.9,0,0,1,56,51.86a1.92,1.92,0,0,1,1.2-.7l-1.56-5.34-.34-1.15-.42-1.44a.93.93,0,0,0-.44-.73C53.45,42.51,51.26,43.8,49.19,46.2Zm4.53-2,.26.87.33,1.15,1.23,4.17A3.49,3.49,0,0,0,55,51a3.89,3.89,0,0,0-.48.69l-4.28-.52L49,51l-1-.12a11.77,11.77,0,0,1,2.29-3.74A12.46,12.46,0,0,1,53.72,44.2Z" transform="translate(-15.82 -13.76)"/><path class="cls-1" d="M56.43,53.2l0,0,1.27,1.06a1.3,1.3,0,0,0,.67.17.64.64,0,0,0,.48-.17c.27-.31,0-1-.18-1.12l-1.27-1.06a.16.16,0,0,0-.12,0h0a1,1,0,0,0-.59.38C56.44,52.76,56.34,53.07,56.43,53.2Z" transform="translate(-15.82 -13.76)"/><polygon class="cls-1" points="45.62 50.88 48.44 50.88 48.44 46.38 43.66 46.38 43.66 49.2 45.62 49.2 45.62 50.88"/><rect class="cls-1" x="35.21" y="46.38" width="4.07" height="2.82"/><rect class="cls-1" x="45.62" y="55.27" width="2.82" height="4.07"/><rect class="cls-1" x="45.62" y="63.72" width="2.82" height="4.07"/></svg>